<?xml version="1.0" encoding="UTF-8" standalone="no"?>
<!-- Created with Inkscape (http://www.inkscape.org/) -->

<svg
   width="170mm"
   height="60mm"
   viewBox="0 0 170 60"
   version="1.1"
   id="svg7294"
   inkscape:version="1.1.1 (3bf5ae0d25, 2021-09-20)"
   sodipodi:docname="bar_rotated.svg"
   xmlns:inkscape="http://www.inkscape.org/namespaces/inkscape"
   xmlns:sodipodi="http://sodipodi.sourceforge.net/DTD/sodipodi-0.dtd"
   xmlns:xlink="http://www.w3.org/1999/xlink"
   xmlns="http://www.w3.org/2000/svg"
   xmlns:svg="http://www.w3.org/2000/svg">
  <sodipodi:namedview
     id="namedview7296"
     pagecolor="#ffffff"
     bordercolor="#666666"
     borderopacity="1.0"
     inkscape:pageshadow="2"
     inkscape:pageopacity="0.0"
     inkscape:pagecheckerboard="0"
     inkscape:document-units="mm"
     showgrid="true"
     inkscape:snap-grids="false"
     inkscape:zoom="3.4611404"
     inkscape:cx="380.07704"
     inkscape:cy="137.38247"
     inkscape:window-width="3440"
     inkscape:window-height="1377"
     inkscape:window-x="-8"
     inkscape:window-y="-8"
     inkscape:window-maximized="1"
     inkscape:current-layer="layer1"
     showguides="false">
    <inkscape:grid
       type="xygrid"
       id="grid7355"
       enabled="false" />
    <inkscape:grid
       type="xygrid"
       id="grid7357"
       units="mm"
       spacingx="5"
       spacingy="5"
       empspacing="2" />
  </sodipodi:namedview>
  <defs
     id="defs7291">
    <marker
       style="overflow:visible"
       id="DotS"
       refX="0"
       refY="0"
       orient="auto"
       inkscape:stockid="DotS"
       inkscape:isstock="true">
      <path
         transform="matrix(0.2,0,0,0.2,1.48,0.2)"
         style="fill:context-stroke;fill-rule:evenodd;stroke:context-stroke;stroke-width:1pt"
         d="m -2.5,-1 c 0,2.76 -2.24,5 -5,5 -2.76,0 -5,-2.24 -5,-5 0,-2.76 2.24,-5 5,-5 2.76,0 5,2.24 5,5 z"
         id="path4853" />
    </marker>
    <marker
       style="overflow:visible"
       id="marker45507"
       refX="0"
       refY="0"
       orient="auto"
       inkscape:stockid="Arrow2Mend"
       inkscape:isstock="true">
      <path
         transform="scale(-0.6)"
         d="M 8.7185878,4.0337352 -2.2072895,0.01601326 8.7185884,-4.0017078 c -1.7454984,2.3720609 -1.7354408,5.6174519 -6e-7,8.035443 z"
         style="fill:context-stroke;fill-rule:evenodd;stroke:context-stroke;stroke-width:0.625;stroke-linejoin:round"
         id="path45505" />
    </marker>
    <marker
       style="overflow:visible"
       id="marker45497"
       refX="0"
       refY="0"
       orient="auto"
       inkscape:stockid="Arrow1Mend"
       inkscape:isstock="true">
      <path
         transform="matrix(-0.4,0,0,-0.4,-4,0)"
         style="fill:context-stroke;fill-rule:evenodd;stroke:context-stroke;stroke-width:1pt"
         d="M 0,0 5,-5 -12.5,0 5,5 Z"
         id="path45495" />
    </marker>
    <marker
       style="overflow:visible"
       id="Arrow1Mend"
       refX="0"
       refY="0"
       orient="auto"
       inkscape:stockid="Arrow1Mend"
       inkscape:isstock="true">
      <path
         transform="matrix(-0.4,0,0,-0.4,-4,0)"
         style="fill:context-stroke;fill-rule:evenodd;stroke:context-stroke;stroke-width:1pt"
         d="M 0,0 5,-5 -12.5,0 5,5 Z"
         id="path4795" />
    </marker>
    <marker
       style="overflow:visible"
       id="marker45351"
       refX="0"
       refY="0"
       orient="auto"
       inkscape:stockid="Arrow2Mend"
       inkscape:isstock="true">
      <path
         transform="scale(-0.6)"
         d="M 8.7185878,4.0337352 -2.2072895,0.01601326 8.7185884,-4.0017078 c -1.7454984,2.3720609 -1.7354408,5.6174519 -6e-7,8.035443 z"
         style="fill:context-stroke;fill-rule:evenodd;stroke:context-stroke;stroke-width:0.625;stroke-linejoin:round"
         id="path45349" />
    </marker>
    <marker
       style="overflow:visible"
       id="marker23644"
       refX="0"
       refY="0"
       orient="auto"
       inkscape:stockid="Arrow2Mstart"
       inkscape:isstock="true">
      <path
         transform="scale(0.6)"
         d="M 8.7185878,4.0337352 -2.2072895,0.01601326 8.7185884,-4.0017078 c -1.7454984,2.3720609 -1.7354408,5.6174519 -6e-7,8.035443 z"
         style="fill:context-stroke;fill-rule:evenodd;stroke:context-stroke;stroke-width:0.625;stroke-linejoin:round"
         id="path23642" />
    </marker>
    <marker
       style="overflow:visible"
       id="Arrow1Sstart"
       refX="0"
       refY="0"
       orient="auto"
       inkscape:stockid="Arrow1Sstart"
       inkscape:isstock="true">
      <path
         transform="matrix(0.2,0,0,0.2,1.2,0)"
         style="fill:context-stroke;fill-rule:evenodd;stroke:context-stroke;stroke-width:1pt"
         d="M 0,0 5,-5 -12.5,0 5,5 Z"
         id="path4798" />
    </marker>
    <marker
       style="overflow:visible"
       id="marker23626"
       refX="0"
       refY="0"
       orient="auto"
       inkscape:stockid="Arrow2Mend"
       inkscape:isstock="true">
      <path
         transform="scale(-0.6)"
         d="M 8.7185878,4.0337352 -2.2072895,0.01601326 8.7185884,-4.0017078 c -1.7454984,2.3720609 -1.7354408,5.6174519 -6e-7,8.035443 z"
         style="fill:context-stroke;fill-rule:evenodd;stroke:context-stroke;stroke-width:0.625;stroke-linejoin:round"
         id="path23624" />
    </marker>
    <marker
       style="overflow:visible"
       id="Arrow2Mend"
       refX="0"
       refY="0"
       orient="auto"
       inkscape:stockid="Arrow2Mend"
       inkscape:isstock="true">
      <path
         transform="scale(-0.6)"
         d="M 8.7185878,4.0337352 -2.2072895,0.01601326 8.7185884,-4.0017078 c -1.7454984,2.3720609 -1.7354408,5.6174519 -6e-7,8.035443 z"
         style="fill:context-stroke;fill-rule:evenodd;stroke:context-stroke;stroke-width:0.625;stroke-linejoin:round"
         id="path4813" />
    </marker>
    <marker
       style="overflow:visible"
       id="Arrow2Mstart"
       refX="0"
       refY="0"
       orient="auto"
       inkscape:stockid="Arrow2Mstart"
       inkscape:isstock="true">
      <path
         transform="scale(0.6)"
         d="M 8.7185878,4.0337352 -2.2072895,0.01601326 8.7185884,-4.0017078 c -1.7454984,2.3720609 -1.7354408,5.6174519 -6e-7,8.035443 z"
         style="fill:context-stroke;fill-rule:evenodd;stroke:context-stroke;stroke-width:0.625;stroke-linejoin:round"
         id="path4810" />
    </marker>
    <marker
       style="overflow:visible"
       id="marker23600"
       refX="0"
       refY="0"
       orient="auto"
       inkscape:stockid="Arrow1Lstart"
       inkscape:isstock="true">
      <path
         transform="matrix(0.8,0,0,0.8,10,0)"
         style="fill:context-stroke;fill-rule:evenodd;stroke:context-stroke;stroke-width:1pt"
         d="M 0,0 5,-5 -12.5,0 5,5 Z"
         id="path23598" />
    </marker>
    <marker
       style="overflow:visible"
       id="Arrow1Lend"
       refX="0"
       refY="0"
       orient="auto"
       inkscape:stockid="Arrow1Lend"
       inkscape:isstock="true">
      <path
         transform="matrix(-0.8,0,0,-0.8,-10,0)"
         style="fill:context-stroke;fill-rule:evenodd;stroke:context-stroke;stroke-width:1pt"
         d="M 0,0 5,-5 -12.5,0 5,5 Z"
         id="path4789" />
    </marker>
    <marker
       style="overflow:visible"
       id="Arrow1Lstart"
       refX="0"
       refY="0"
       orient="auto"
       inkscape:stockid="Arrow1Lstart"
       inkscape:isstock="true">
      <path
         transform="matrix(0.8,0,0,0.8,10,0)"
         style="fill:context-stroke;fill-rule:evenodd;stroke:context-stroke;stroke-width:1pt"
         d="M 0,0 5,-5 -12.5,0 5,5 Z"
         id="path4786" />
    </marker>
    <g
       id="g4147">
      <symbol
         overflow="visible"
         id="symbol9504">
        <path
           style="stroke:none"
           d=""
           id="path3722" />
      </symbol>
      <symbol
         overflow="visible"
         id="symbol7903">
        <path
           style="stroke:none"
           d="M 4.359375,-0.0625 C 5.90625,-0.640625 7.375,-2.421875 7.375,-4.34375 c 0,-1.609375 -1.0625,-2.6875 -2.546875,-2.6875 -2.140625,0 -4.34375,2.265625 -4.34375,4.59375 0,1.65625 1.125,2.65625 2.5625,2.65625 0.25,0 0.578125,-0.046875 0.96875,-0.15625 -0.03125,0.625 -0.03125,0.640625 -0.03125,0.78125 0,0.3125 0,1.09375 0.828125,1.09375 1.171875,0 1.65625,-1.828125 1.65625,-1.9375 0,-0.0625 -0.0625,-0.09375 -0.109375,-0.09375 -0.078125,0 -0.09375,0.046875 -0.125,0.109375 C 6,0.71875 5.421875,0.96875 5.078125,0.96875 c -0.46875,0 -0.609375,-0.265625 -0.71875,-1.03125 z m -1.875,-0.078125 c -0.78125,-0.3125 -1.125,-1.078125 -1.125,-1.984375 0,-0.6875 0.265625,-2.109375 1.015625,-3.171875 C 3.109375,-6.3125 4.046875,-6.78125 4.78125,-6.78125 5.765625,-6.78125 6.5,-6 6.5,-4.671875 c 0,1 -0.515625,3.34375 -2.1875,4.265625 -0.046875,-0.34375 -0.140625,-1.0625 -0.875,-1.0625 -0.53125,0 -1.015625,0.484375 -1.015625,1.015625 0,0.1875 0.0625,0.296875 0.0625,0.3125 z M 3.09375,-0.03125 c -0.140625,0 -0.453125,0 -0.453125,-0.421875 0,-0.40625 0.375,-0.796875 0.796875,-0.796875 0.421875,0 0.609375,0.234375 0.609375,0.84375 0,0.140625 -0.015625,0.15625 -0.109375,0.203125 C 3.671875,-0.09375 3.375,-0.03125 3.09375,-0.03125 Z m 0,0"
           id="path5867" />
      </symbol>
      <symbol
         overflow="visible"
         id="symbol2907">
        <path
           style="stroke:none"
           d=""
           id="path1827" />
      </symbol>
      <symbol
         overflow="visible"
         id="symbol8417">
        <path
           style="stroke:none"
           d="m 2.328125,-4.4375 c 0,-0.1875 0,-0.1875 -0.203125,-0.1875 -0.453125,0.4375 -1.078125,0.4375 -1.359375,0.4375 v 0.25 c 0.15625,0 0.625,0 1,-0.1875 v 3.546875 c 0,0.234375 0,0.328125 -0.6875,0.328125 H 0.8125 V 0 c 0.125,0 0.984375,-0.03125 1.234375,-0.03125 0.21875,0 1.09375,0.03125 1.25,0.03125 V -0.25 H 3.03125 c -0.703125,0 -0.703125,-0.09375 -0.703125,-0.328125 z m 0,0"
           id="path630" />
      </symbol>
    </g>
    <g
       id="g2127">
      <symbol
         overflow="visible"
         id="symbol5099">
        <path
           style="stroke:none"
           d=""
           id="path3030" />
      </symbol>
      <symbol
         overflow="visible"
         id="symbol4194">
        <path
           style="stroke:none"
           d="M 4.359375,-0.0625 C 5.90625,-0.640625 7.375,-2.421875 7.375,-4.34375 c 0,-1.609375 -1.0625,-2.6875 -2.546875,-2.6875 -2.140625,0 -4.34375,2.265625 -4.34375,4.59375 0,1.65625 1.125,2.65625 2.5625,2.65625 0.25,0 0.578125,-0.046875 0.96875,-0.15625 -0.03125,0.625 -0.03125,0.640625 -0.03125,0.78125 0,0.3125 0,1.09375 0.828125,1.09375 1.171875,0 1.65625,-1.828125 1.65625,-1.9375 0,-0.0625 -0.0625,-0.09375 -0.109375,-0.09375 -0.078125,0 -0.09375,0.046875 -0.125,0.109375 C 6,0.71875 5.421875,0.96875 5.078125,0.96875 c -0.46875,0 -0.609375,-0.265625 -0.71875,-1.03125 z m -1.875,-0.078125 c -0.78125,-0.3125 -1.125,-1.078125 -1.125,-1.984375 0,-0.6875 0.265625,-2.109375 1.015625,-3.171875 C 3.109375,-6.3125 4.046875,-6.78125 4.78125,-6.78125 5.765625,-6.78125 6.5,-6 6.5,-4.671875 c 0,1 -0.515625,3.34375 -2.1875,4.265625 -0.046875,-0.34375 -0.140625,-1.0625 -0.875,-1.0625 -0.53125,0 -1.015625,0.484375 -1.015625,1.015625 0,0.1875 0.0625,0.296875 0.0625,0.3125 z M 3.09375,-0.03125 c -0.140625,0 -0.453125,0 -0.453125,-0.421875 0,-0.40625 0.375,-0.796875 0.796875,-0.796875 0.421875,0 0.609375,0.234375 0.609375,0.84375 0,0.140625 -0.015625,0.15625 -0.109375,0.203125 C 3.671875,-0.09375 3.375,-0.03125 3.09375,-0.03125 Z m 0,0"
           id="path5157" />
      </symbol>
      <symbol
         overflow="visible"
         id="symbol18">
        <path
           style="stroke:none"
           d=""
           id="path4467" />
      </symbol>
      <symbol
         overflow="visible"
         id="symbol1305">
        <path
           style="stroke:none"
           d="M 3.515625,-1.265625 H 3.28125 c -0.015625,0.15625 -0.09375,0.5625 -0.1875,0.625 C 3.046875,-0.59375 2.515625,-0.59375 2.40625,-0.59375 H 1.125 c 0.734375,-0.640625 0.984375,-0.84375 1.390625,-1.171875 0.515625,-0.40625 1,-0.84375 1,-1.5 0,-0.84375 -0.734375,-1.359375 -1.625,-1.359375 -0.859375,0 -1.453125,0.609375 -1.453125,1.25 0,0.34375 0.296875,0.390625 0.375,0.390625 0.15625,0 0.359375,-0.125 0.359375,-0.375 0,-0.125 -0.046875,-0.375 -0.40625,-0.375 C 0.984375,-4.21875 1.453125,-4.375 1.78125,-4.375 c 0.703125,0 1.0625,0.546875 1.0625,1.109375 0,0.609375 -0.4375,1.078125 -0.65625,1.328125 L 0.515625,-0.265625 C 0.4375,-0.203125 0.4375,-0.1875 0.4375,0 h 2.875 z m 0,0"
           id="path2132" />
      </symbol>
    </g>
    <g
       id="g7675">
      <symbol
         overflow="visible"
         id="symbol634">
        <path
           style="stroke:none"
           d=""
           id="path8587" />
      </symbol>
      <symbol
         overflow="visible"
         id="symbol9467">
        <path
           style="stroke:none"
           d="m 4.671875,-3.703125 c 0,-0.546875 -0.265625,-0.703125 -0.4375,-0.703125 -0.25,0 -0.5,0.265625 -0.5,0.484375 0,0.125 0.046875,0.1875 0.15625,0.296875 0.21875,0.203125 0.34375,0.453125 0.34375,0.8125 0,0.421875 -0.609375,2.703125 -1.765625,2.703125 -0.515625,0 -0.75,-0.34375 -0.75,-0.875 0,-0.546875 0.28125,-1.28125 0.578125,-2.109375 0.078125,-0.171875 0.125,-0.3125 0.125,-0.5 0,-0.4375 -0.3125,-0.8125 -0.8125,-0.8125 -0.9375,0 -1.3125,1.453125 -1.3125,1.53125 0,0.109375 0.09375,0.109375 0.109375,0.109375 0.109375,0 0.109375,-0.03125 0.15625,-0.1875 0.296875,-1 0.71875,-1.234375 1.015625,-1.234375 0.078125,0 0.25,0 0.25,0.3125 0,0.25 -0.109375,0.53125 -0.171875,0.703125 -0.4375,1.15625 -0.5625,1.609375 -0.5625,2.046875 0,1.078125 0.875,1.234375 1.328125,1.234375 1.671875,0 2.25,-3.296875 2.25,-3.8125 z m 0,0"
           id="path6477" />
      </symbol>
      <symbol
         overflow="visible"
         id="symbol6022">
        <path
           style="stroke:none"
           d=""
           id="path7075" />
      </symbol>
      <symbol
         overflow="visible"
         id="symbol8919">
        <path
           style="stroke:none"
           d="m 2.328125,-4.4375 c 0,-0.1875 0,-0.1875 -0.203125,-0.1875 -0.453125,0.4375 -1.078125,0.4375 -1.359375,0.4375 v 0.25 c 0.15625,0 0.625,0 1,-0.1875 v 3.546875 c 0,0.234375 0,0.328125 -0.6875,0.328125 H 0.8125 V 0 c 0.125,0 0.984375,-0.03125 1.234375,-0.03125 0.21875,0 1.09375,0.03125 1.25,0.03125 V -0.25 H 3.03125 c -0.703125,0 -0.703125,-0.09375 -0.703125,-0.328125 z m 0,0"
           id="path968" />
      </symbol>
    </g>
    <g
       id="g6501">
      <symbol
         overflow="visible"
         id="symbol4100">
        <path
           style="stroke:none"
           d=""
           id="path7709" />
      </symbol>
      <symbol
         overflow="visible"
         id="symbol1127">
        <path
           style="stroke:none"
           d="m 4.671875,-3.703125 c 0,-0.546875 -0.265625,-0.703125 -0.4375,-0.703125 -0.25,0 -0.5,0.265625 -0.5,0.484375 0,0.125 0.046875,0.1875 0.15625,0.296875 0.21875,0.203125 0.34375,0.453125 0.34375,0.8125 0,0.421875 -0.609375,2.703125 -1.765625,2.703125 -0.515625,0 -0.75,-0.34375 -0.75,-0.875 0,-0.546875 0.28125,-1.28125 0.578125,-2.109375 0.078125,-0.171875 0.125,-0.3125 0.125,-0.5 0,-0.4375 -0.3125,-0.8125 -0.8125,-0.8125 -0.9375,0 -1.3125,1.453125 -1.3125,1.53125 0,0.109375 0.09375,0.109375 0.109375,0.109375 0.109375,0 0.109375,-0.03125 0.15625,-0.1875 0.296875,-1 0.71875,-1.234375 1.015625,-1.234375 0.078125,0 0.25,0 0.25,0.3125 0,0.25 -0.109375,0.53125 -0.171875,0.703125 -0.4375,1.15625 -0.5625,1.609375 -0.5625,2.046875 0,1.078125 0.875,1.234375 1.328125,1.234375 1.671875,0 2.25,-3.296875 2.25,-3.8125 z m 0,0"
           id="path9187" />
      </symbol>
      <symbol
         overflow="visible"
         id="symbol1085">
        <path
           style="stroke:none"
           d=""
           id="path8580" />
      </symbol>
      <symbol
         overflow="visible"
         id="symbol7936">
        <path
           style="stroke:none"
           d="M 3.515625,-1.265625 H 3.28125 c -0.015625,0.15625 -0.09375,0.5625 -0.1875,0.625 C 3.046875,-0.59375 2.515625,-0.59375 2.40625,-0.59375 H 1.125 c 0.734375,-0.640625 0.984375,-0.84375 1.390625,-1.171875 0.515625,-0.40625 1,-0.84375 1,-1.5 0,-0.84375 -0.734375,-1.359375 -1.625,-1.359375 -0.859375,0 -1.453125,0.609375 -1.453125,1.25 0,0.34375 0.296875,0.390625 0.375,0.390625 0.15625,0 0.359375,-0.125 0.359375,-0.375 0,-0.125 -0.046875,-0.375 -0.40625,-0.375 C 0.984375,-4.21875 1.453125,-4.375 1.78125,-4.375 c 0.703125,0 1.0625,0.546875 1.0625,1.109375 0,0.609375 -0.4375,1.078125 -0.65625,1.328125 L 0.515625,-0.265625 C 0.4375,-0.203125 0.4375,-0.1875 0.4375,0 h 2.875 z m 0,0"
           id="path7170" />
      </symbol>
    </g>
    <g
       id="g6197">
      <symbol
         overflow="visible"
         id="symbol5295">
        <path
           style="stroke:none"
           d=""
           id="path7038" />
      </symbol>
      <symbol
         overflow="visible"
         id="symbol8719">
        <path
           style="stroke:none"
           d="m 4.671875,-3.703125 c 0,-0.546875 -0.265625,-0.703125 -0.4375,-0.703125 -0.25,0 -0.5,0.265625 -0.5,0.484375 0,0.125 0.046875,0.1875 0.15625,0.296875 0.21875,0.203125 0.34375,0.453125 0.34375,0.8125 0,0.421875 -0.609375,2.703125 -1.765625,2.703125 -0.515625,0 -0.75,-0.34375 -0.75,-0.875 0,-0.546875 0.28125,-1.28125 0.578125,-2.109375 0.078125,-0.171875 0.125,-0.3125 0.125,-0.5 0,-0.4375 -0.3125,-0.8125 -0.8125,-0.8125 -0.9375,0 -1.3125,1.453125 -1.3125,1.53125 0,0.109375 0.09375,0.109375 0.109375,0.109375 0.109375,0 0.109375,-0.03125 0.15625,-0.1875 0.296875,-1 0.71875,-1.234375 1.015625,-1.234375 0.078125,0 0.25,0 0.25,0.3125 0,0.25 -0.109375,0.53125 -0.171875,0.703125 -0.4375,1.15625 -0.5625,1.609375 -0.5625,2.046875 0,1.078125 0.875,1.234375 1.328125,1.234375 1.671875,0 2.25,-3.296875 2.25,-3.8125 z m 0,0"
           id="path4954" />
      </symbol>
      <symbol
         overflow="visible"
         id="symbol8657">
        <path
           style="stroke:none"
           d=""
           id="path4791" />
      </symbol>
      <symbol
         overflow="visible"
         id="symbol3214">
        <path
           style="stroke:none"
           d="m 1.90625,-2.328125 c 0.546875,0 0.9375,0.375 0.9375,1.125 0,0.859375 -0.515625,1.125 -0.90625,1.125 -0.28125,0 -0.90625,-0.078125 -1.1875,-0.5 0.328125,0 0.40625,-0.234375 0.40625,-0.390625 0,-0.21875 -0.171875,-0.375 -0.390625,-0.375 -0.1875,0 -0.390625,0.125 -0.390625,0.40625 0,0.65625 0.71875,1.078125 1.5625,1.078125 0.96875,0 1.640625,-0.65625 1.640625,-1.34375 0,-0.546875 -0.4375,-1.09375 -1.203125,-1.25 0.71875,-0.265625 0.984375,-0.78125 0.984375,-1.21875 0,-0.546875 -0.625,-0.953125 -1.40625,-0.953125 -0.765625,0 -1.359375,0.375 -1.359375,0.9375 0,0.234375 0.15625,0.359375 0.359375,0.359375 0.21875,0 0.359375,-0.15625 0.359375,-0.34375 0,-0.203125 -0.140625,-0.359375 -0.359375,-0.375 0.25,-0.296875 0.71875,-0.375 0.984375,-0.375 0.3125,0 0.75,0.15625 0.75,0.75 0,0.296875 -0.09375,0.625 -0.28125,0.828125 -0.21875,0.265625 -0.421875,0.28125 -0.765625,0.3125 -0.171875,0.015625 -0.1875,0.015625 -0.21875,0.015625 -0.015625,0 -0.078125,0.015625 -0.078125,0.09375 0,0.09375 0.0625,0.09375 0.1875,0.09375 z m 0,0"
           id="path6539" />
      </symbol>
    </g>
    <g
       id="g6709">
      <symbol
         overflow="visible"
         id="symbol7282">
        <path
           style="stroke:none"
           d=""
           id="path522" />
      </symbol>
      <symbol
         overflow="visible"
         id="symbol1577">
        <path
           style="stroke:none"
           d="m 4.671875,-3.703125 c 0,-0.546875 -0.265625,-0.703125 -0.4375,-0.703125 -0.25,0 -0.5,0.265625 -0.5,0.484375 0,0.125 0.046875,0.1875 0.15625,0.296875 0.21875,0.203125 0.34375,0.453125 0.34375,0.8125 0,0.421875 -0.609375,2.703125 -1.765625,2.703125 -0.515625,0 -0.75,-0.34375 -0.75,-0.875 0,-0.546875 0.28125,-1.28125 0.578125,-2.109375 0.078125,-0.171875 0.125,-0.3125 0.125,-0.5 0,-0.4375 -0.3125,-0.8125 -0.8125,-0.8125 -0.9375,0 -1.3125,1.453125 -1.3125,1.53125 0,0.109375 0.09375,0.109375 0.109375,0.109375 0.109375,0 0.109375,-0.03125 0.15625,-0.1875 0.296875,-1 0.71875,-1.234375 1.015625,-1.234375 0.078125,0 0.25,0 0.25,0.3125 0,0.25 -0.109375,0.53125 -0.171875,0.703125 -0.4375,1.15625 -0.5625,1.609375 -0.5625,2.046875 0,1.078125 0.875,1.234375 1.328125,1.234375 1.671875,0 2.25,-3.296875 2.25,-3.8125 z m 0,0"
           id="path5039" />
      </symbol>
      <symbol
         overflow="visible"
         id="symbol6624">
        <path
           style="stroke:none"
           d=""
           id="path7443" />
      </symbol>
      <symbol
         overflow="visible"
         id="symbol8336">
        <path
           style="stroke:none"
           d="m 3.6875,-1.140625 v -0.25 H 2.90625 V -4.5 c 0,-0.140625 0,-0.203125 -0.140625,-0.203125 -0.09375,0 -0.125,0 -0.1875,0.109375 l -2.3125,3.203125 v 0.25 h 2.0625 v 0.5625 c 0,0.25 0,0.328125 -0.578125,0.328125 H 1.5625 V 0 C 1.921875,-0.015625 2.359375,-0.03125 2.609375,-0.03125 2.875,-0.03125 3.3125,-0.015625 3.671875,0 v -0.25 h -0.1875 C 2.90625,-0.25 2.90625,-0.328125 2.90625,-0.578125 v -0.5625 z M 2.375,-3.9375 v 2.546875 H 0.53125 Z m 0,0"
           id="path1208" />
      </symbol>
    </g>
    <pattern
       patternUnits="userSpaceOnUse"
       width="3.7795275"
       height="3.7795275"
       patternTransform="translate(73.662479,73.700787)"
       id="pattern63313">
      <circle
         style="opacity:0.99;fill:#000000;stroke:#000000;stroke-width:0.343593;stroke-miterlimit:4;stroke-dasharray:none;stroke-dashoffset:0;stroke-opacity:0.992157"
         id="path56088"
         cx="1.8897637"
         cy="1.8897637"
         r="1.7179673"
         inkscape:transform-center-x="-0.14527027"
         inkscape:transform-center-y="-0.023648649" />
    </pattern>
    <pattern
       patternUnits="userSpaceOnUse"
       width="3.7795275"
       height="3.7795275"
       patternTransform="translate(73.662479,73.700787)"
       id="pattern63313-3">
      <circle
         style="opacity:0.99;fill:#000000;stroke:#000000;stroke-width:0.343593;stroke-miterlimit:4;stroke-dasharray:none;stroke-dashoffset:0;stroke-opacity:0.992157"
         id="path56088-05"
         cx="1.8897637"
         cy="1.8897637"
         r="1.7179673"
         inkscape:transform-center-x="-0.14527027"
         inkscape:transform-center-y="-0.023648649" />
    </pattern>
    <pattern
       patternUnits="userSpaceOnUse"
       width="3.7795275"
       height="3.7795275"
       patternTransform="translate(73.662479,73.700787)"
       id="pattern63313-4">
      <circle
         style="opacity:0.99;fill:#000000;stroke:#000000;stroke-width:0.343593;stroke-miterlimit:4;stroke-dasharray:none;stroke-dashoffset:0;stroke-opacity:0.992157"
         id="path56088-2"
         cx="1.8897637"
         cy="1.8897637"
         r="1.7179673"
         inkscape:transform-center-x="-0.14527027"
         inkscape:transform-center-y="-0.023648649" />
    </pattern>
    <pattern
       patternUnits="userSpaceOnUse"
       width="3.7795275"
       height="3.7795275"
       patternTransform="translate(73.662479,73.700787)"
       id="pattern63313-8">
      <circle
         style="opacity:0.99;fill:#000000;stroke:#000000;stroke-width:0.343593;stroke-miterlimit:4;stroke-dasharray:none;stroke-dashoffset:0;stroke-opacity:0.992157"
         id="path56088-5"
         cx="1.8897637"
         cy="1.8897637"
         r="1.7179673"
         inkscape:transform-center-x="-0.14527027"
         inkscape:transform-center-y="-0.023648649" />
    </pattern>
    <pattern
       patternUnits="userSpaceOnUse"
       width="3.7795275"
       height="3.7795275"
       patternTransform="translate(73.662479,73.700787)"
       id="pattern63313-5">
      <circle
         style="opacity:0.99;fill:#000000;stroke:#000000;stroke-width:0.343593;stroke-miterlimit:4;stroke-dasharray:none;stroke-dashoffset:0;stroke-opacity:0.992157"
         id="path56088-00"
         cx="1.8897637"
         cy="1.8897637"
         r="1.7179673"
         inkscape:transform-center-x="-0.14527027"
         inkscape:transform-center-y="-0.023648649" />
    </pattern>
    <pattern
       patternUnits="userSpaceOnUse"
       width="3.7795275"
       height="3.7795275"
       patternTransform="translate(73.662479,73.700787)"
       id="pattern63313-51">
      <circle
         style="opacity:0.99;fill:#000000;stroke:#000000;stroke-width:0.343593;stroke-miterlimit:4;stroke-dasharray:none;stroke-dashoffset:0;stroke-opacity:0.992157"
         id="path56088-7"
         cx="1.8897637"
         cy="1.8897637"
         r="1.7179673"
         inkscape:transform-center-x="-0.14527027"
         inkscape:transform-center-y="-0.023648649" />
    </pattern>
    <pattern
       patternUnits="userSpaceOnUse"
       width="3.7795275"
       height="3.7795275"
       patternTransform="translate(73.662479,73.700787)"
       id="pattern63313-6">
      <circle
         style="opacity:0.99;fill:#000000;stroke:#000000;stroke-width:0.343593;stroke-miterlimit:4;stroke-dasharray:none;stroke-dashoffset:0;stroke-opacity:0.992157"
         id="path56088-56"
         cx="1.8897637"
         cy="1.8897637"
         r="1.7179673"
         inkscape:transform-center-x="-0.14527027"
         inkscape:transform-center-y="-0.023648649" />
    </pattern>
    <pattern
       patternUnits="userSpaceOnUse"
       width="3.7795275"
       height="3.7795275"
       patternTransform="translate(73.662479,73.700787)"
       id="pattern63313-2">
      <circle
         style="opacity:0.99;fill:#000000;stroke:#000000;stroke-width:0.343593;stroke-miterlimit:4;stroke-dasharray:none;stroke-dashoffset:0;stroke-opacity:0.992157"
         id="path56088-03"
         cx="1.8897637"
         cy="1.8897637"
         r="1.7179673"
         inkscape:transform-center-x="-0.14527027"
         inkscape:transform-center-y="-0.023648649" />
    </pattern>
    <pattern
       patternUnits="userSpaceOnUse"
       width="3.7795275"
       height="3.7795275"
       patternTransform="translate(73.662479,73.700787)"
       id="pattern63313-23">
      <circle
         style="opacity:0.99;fill:#000000;stroke:#000000;stroke-width:0.343593;stroke-miterlimit:4;stroke-dasharray:none;stroke-dashoffset:0;stroke-opacity:0.992157"
         id="path56088-24"
         cx="1.8897637"
         cy="1.8897637"
         r="1.7179673"
         inkscape:transform-center-x="-0.14527027"
         inkscape:transform-center-y="-0.023648649" />
    </pattern>
    <pattern
       patternUnits="userSpaceOnUse"
       width="3.7795275"
       height="3.7795275"
       patternTransform="translate(73.662479,73.700787)"
       id="pattern63313-21">
      <circle
         style="opacity:0.99;fill:#000000;stroke:#000000;stroke-width:0.343593;stroke-miterlimit:4;stroke-dasharray:none;stroke-dashoffset:0;stroke-opacity:0.992157"
         id="path56088-8"
         cx="1.8897637"
         cy="1.8897637"
         r="1.7179673"
         inkscape:transform-center-x="-0.14527027"
         inkscape:transform-center-y="-0.023648649" />
    </pattern>
    <pattern
       patternUnits="userSpaceOnUse"
       width="3.7795275"
       height="3.7795275"
       patternTransform="translate(73.662479,73.700787)"
       id="pattern63313-0">
      <circle
         style="opacity:0.99;fill:#000000;stroke:#000000;stroke-width:0.343593;stroke-miterlimit:4;stroke-dasharray:none;stroke-dashoffset:0;stroke-opacity:0.992157"
         id="path56088-84"
         cx="1.8897637"
         cy="1.8897637"
         r="1.7179673"
         inkscape:transform-center-x="-0.14527027"
         inkscape:transform-center-y="-0.023648649" />
    </pattern>
    <pattern
       patternUnits="userSpaceOnUse"
       width="3.7795275"
       height="3.7795275"
       patternTransform="translate(73.662479,73.700787)"
       id="pattern63313-85">
      <circle
         style="opacity:0.99;fill:#000000;stroke:#000000;stroke-width:0.343593;stroke-miterlimit:4;stroke-dasharray:none;stroke-dashoffset:0;stroke-opacity:0.992157"
         id="path56088-01"
         cx="1.8897637"
         cy="1.8897637"
         r="1.7179673"
         inkscape:transform-center-x="-0.14527027"
         inkscape:transform-center-y="-0.023648649" />
    </pattern>
    <pattern
       patternUnits="userSpaceOnUse"
       width="3.7795275"
       height="3.7795275"
       patternTransform="translate(73.662479,73.700787)"
       id="pattern63313-1">
      <circle
         style="opacity:0.99;fill:#000000;stroke:#000000;stroke-width:0.343593;stroke-miterlimit:4;stroke-dasharray:none;stroke-dashoffset:0;stroke-opacity:0.992157"
         id="path56088-90"
         cx="1.8897637"
         cy="1.8897637"
         r="1.7179673"
         inkscape:transform-center-x="-0.14527027"
         inkscape:transform-center-y="-0.023648649" />
    </pattern>
    <pattern
       patternUnits="userSpaceOnUse"
       width="3.7795275"
       height="3.7795275"
       patternTransform="translate(73.662479,73.700787)"
       id="pattern63313-65">
      <circle
         style="opacity:0.99;fill:#000000;stroke:#000000;stroke-width:0.343593;stroke-miterlimit:4;stroke-dasharray:none;stroke-dashoffset:0;stroke-opacity:0.992157"
         id="path56088-99"
         cx="1.8897637"
         cy="1.8897637"
         r="1.7179673"
         inkscape:transform-center-x="-0.14527027"
         inkscape:transform-center-y="-0.023648649" />
    </pattern>
    <pattern
       patternUnits="userSpaceOnUse"
       width="3.7795275"
       height="3.7795275"
       patternTransform="translate(73.662479,73.700787)"
       id="pattern63313-32">
      <circle
         style="opacity:0.99;fill:#000000;stroke:#000000;stroke-width:0.343593;stroke-miterlimit:4;stroke-dasharray:none;stroke-dashoffset:0;stroke-opacity:0.992157"
         id="path56088-3"
         cx="1.8897637"
         cy="1.8897637"
         r="1.7179673"
         inkscape:transform-center-x="-0.14527027"
         inkscape:transform-center-y="-0.023648649" />
    </pattern>
    <pattern
       patternUnits="userSpaceOnUse"
       width="3.7795275"
       height="3.7795275"
       patternTransform="translate(73.662479,73.700787)"
       id="pattern63313-14">
      <circle
         style="opacity:0.99;fill:#000000;stroke:#000000;stroke-width:0.343593;stroke-miterlimit:4;stroke-dasharray:none;stroke-dashoffset:0;stroke-opacity:0.992157"
         id="path56088-1"
         cx="1.8897637"
         cy="1.8897637"
         r="1.7179673"
         inkscape:transform-center-x="-0.14527027"
         inkscape:transform-center-y="-0.023648649" />
    </pattern>
    <pattern
       patternUnits="userSpaceOnUse"
       width="3.7795275"
       height="3.7795275"
       patternTransform="translate(73.662479,73.700787)"
       id="pattern63313-35">
      <circle
         style="opacity:0.99;fill:#000000;stroke:#000000;stroke-width:0.343593;stroke-miterlimit:4;stroke-dasharray:none;stroke-dashoffset:0;stroke-opacity:0.992157"
         id="path56088-53"
         cx="1.8897637"
         cy="1.8897637"
         r="1.7179673"
         inkscape:transform-center-x="-0.14527027"
         inkscape:transform-center-y="-0.023648649" />
    </pattern>
  </defs>
  <g
     inkscape:label="Lag 1"
     inkscape:groupmode="layer"
     id="layer1">
    <path
       style="fill:none;stroke:#ffd529;stroke-width:0.5;stroke-linecap:butt;stroke-linejoin:miter;stroke-miterlimit:4;stroke-dasharray:none;stroke-opacity:0.992157;marker-start:url(#DotS);marker-end:url(#DotS)"
       d="M 66.243657,39.421698 90.250976,21.314542"
       id="path51528" />
    <path
       style="fill:none;stroke:#000000;stroke-width:0.264583px;stroke-linecap:butt;stroke-linejoin:miter;stroke-opacity:1;marker-end:url(#marker45507)"
       d="M 66.243657,39.421698 58.902152,32.631833"
       id="path51766"
       inkscape:transform-center-x="-2.4791417"
       inkscape:transform-center-y="1.5467045" />
    <path
       style="fill:none;stroke:#000000;stroke-width:0.264583px;stroke-linecap:butt;stroke-linejoin:miter;stroke-opacity:1;marker-end:url(#marker45507)"
       d="m 58.53559,45.792391 7.708067,-6.370693"
       id="path51768" />
    <path
       style="fill:none;stroke:#000000;stroke-width:0.264583px;stroke-linecap:butt;stroke-linejoin:miter;stroke-opacity:1;marker-end:url(#marker45507)"
       d="m 90.250976,21.314542 7.840786,-6.206617"
       id="path51770" />
    <path
       style="fill:none;stroke:#000000;stroke-width:0.264583px;stroke-linecap:butt;stroke-linejoin:miter;stroke-opacity:1;marker-end:url(#marker45507)"
       d="M 90.250976,21.314542 83.23257,14.191205"
       id="path51772" />
    <g
       inkscape:label=""
       transform="matrix(0.3831917,0,0,0.3831917,-54.245198,11.342005)"
       id="g54787">
      <g
         id="g202">
        <g
           style="fill:#000000;fill-opacity:1"
           id="g687">
          <use
             xlink:href="#symbol9467"
             x="301.35101"
             y="93.917999"
             id="use4639"
             width="100%"
             height="100%" />
        </g>
        <g
           style="fill:#000000;fill-opacity:1"
           id="g493">
          <use
             xlink:href="#symbol8919"
             x="306.17999"
             y="95.412003"
             id="use1945"
             width="100%"
             height="100%" />
        </g>
      </g>
    </g>
    <g
       inkscape:label=""
       transform="matrix(0.37277595,0,0,0.37277595,-47.419709,2.1261332)"
       id="g55058">
      <g
         id="g9216"
         transform="translate(-11.073608,-9.6381402)">
        <g
           style="fill:#000000;fill-opacity:1"
           id="g7539">
          <use
             xlink:href="#symbol1127"
             x="301.35101"
             y="93.917999"
             id="use2881"
             width="100%"
             height="100%" />
        </g>
        <g
           style="fill:#000000;fill-opacity:1"
           id="g3039">
          <use
             xlink:href="#symbol7936"
             x="306.17999"
             y="95.412003"
             id="use1956"
             width="100%"
             height="100%" />
        </g>
      </g>
    </g>
    <g
       inkscape:label=""
       transform="matrix(0.36990322,0,0,0.36990322,-13.525737,-16.779461)"
       id="g55357">
      <g
         id="g8191">
        <g
           style="fill:#000000;fill-opacity:1"
           id="g2534">
          <use
             xlink:href="#symbol8719"
             x="301.35101"
             y="93.917999"
             id="use2457"
             width="100%"
             height="100%" />
        </g>
        <g
           style="fill:#000000;fill-opacity:1"
           id="g4708">
          <use
             xlink:href="#symbol3214"
             x="306.17999"
             y="95.412003"
             id="use3960"
             width="100%"
             height="100%" />
        </g>
      </g>
    </g>
    <g
       inkscape:label=""
       transform="matrix(0.36498106,0,0,0.36498106,-24.924816,-20.30823)"
       id="g55686">
      <g
         id="g5439">
        <g
           style="fill:#000000;fill-opacity:1"
           id="g7697">
          <use
             xlink:href="#symbol1577"
             x="301.35101"
             y="93.917999"
             id="use1112"
             width="100%"
             height="100%" />
        </g>
        <g
           style="fill:#000000;fill-opacity:1"
           id="g4078">
          <use
             xlink:href="#symbol8336"
             x="306.17999"
             y="95.412003"
             id="use6011"
             width="100%"
             height="100%" />
        </g>
      </g>
    </g>
    <text
       xml:space="preserve"
       style="font-size:2.11667px;line-height:1.25;font-family:sans-serif;letter-spacing:0px;word-spacing:0px;fill:#ff6600;fill-opacity:1;stroke-width:0.264583"
       x="66.703308"
       y="42.370361"
       id="text80855"><tspan
         sodipodi:role="line"
         id="tspan80853"
         style="fill:#ff6600;fill-opacity:1;stroke-width:0.264583"
         x="66.703308"
         y="42.370361">4</tspan></text>
    <text
       xml:space="preserve"
       style="font-size:2.11667px;line-height:1.25;font-family:sans-serif;letter-spacing:0px;word-spacing:0px;fill:#ff6600;fill-opacity:1;stroke-width:0.264583"
       x="89.05722"
       y="24.38563"
       id="text99071"><tspan
         sodipodi:role="line"
         id="tspan99069"
         style="fill:#ff6600;fill-opacity:1;stroke-width:0.264583"
         x="89.05722"
         y="24.38563">12</tspan></text>
    <text
       xml:space="preserve"
       style="font-size:2.11667px;line-height:1.25;font-family:sans-serif;letter-spacing:0px;word-spacing:0px;stroke-width:0.264583"
       x="75.144432"
       y="30.501146"
       id="text122081"><tspan
         sodipodi:role="line"
         id="tspan122079"
         style="stroke-width:0.264583"
         x="75.144432"
         y="30.501146">20</tspan></text>
  </g>
</svg>
