<?xml version="1.0" encoding="UTF-8" standalone="no"?>
<!-- Created with Inkscape (http://www.inkscape.org/) -->

<svg
   width="150mm"
   height="60mm"
   viewBox="0 0 150 60"
   version="1.1"
   id="svg5"
   sodipodi:docname="scale_spectral_density.svg"
   inkscape:version="1.2.1 (9c6d41e410, 2022-07-14)"
   xmlns:inkscape="http://www.inkscape.org/namespaces/inkscape"
   xmlns:sodipodi="http://sodipodi.sourceforge.net/DTD/sodipodi-0.dtd"
   xmlns="http://www.w3.org/2000/svg"
   xmlns:svg="http://www.w3.org/2000/svg">
  <sodipodi:namedview
     id="namedview7"
     pagecolor="#ffffff"
     bordercolor="#000000"
     borderopacity="0.25"
     inkscape:showpageshadow="2"
     inkscape:pageopacity="0.0"
     inkscape:pagecheckerboard="0"
     inkscape:deskcolor="#d1d1d1"
     inkscape:document-units="mm"
     showgrid="true"
     inkscape:zoom="1.4107237"
     inkscape:cx="312.25107"
     inkscape:cy="216.55551"
     inkscape:window-width="1920"
     inkscape:window-height="1001"
     inkscape:window-x="-9"
     inkscape:window-y="-9"
     inkscape:window-maximized="1"
     inkscape:current-layer="layer1">
    <inkscape:grid
       type="xygrid"
       id="grid132"
       units="mm"
       spacingx="5"
       spacingy="5"
       empspacing="2"
       originx="0"
       originy="0" />
  </sodipodi:namedview>
  <defs
     id="defs2">
    <marker
       style="overflow:visible"
       id="marker1604"
       refX="0"
       refY="0"
       orient="auto-start-reverse"
       inkscape:stockid="TriangleStart"
       markerWidth="5.3244081"
       markerHeight="6.155385"
       viewBox="0 0 5.3244081 6.1553851"
       inkscape:isstock="true"
       inkscape:collect="always"
       preserveAspectRatio="xMidYMid">
      <path
         transform="scale(0.5)"
         style="fill:context-stroke;fill-rule:evenodd;stroke:context-stroke;stroke-width:1pt"
         d="M 5.77,0 -2.88,5 V -5 Z"
         id="path1602" />
    </marker>
    <marker
       style="overflow:visible"
       id="TriangleStart"
       refX="0"
       refY="0"
       orient="auto-start-reverse"
       inkscape:stockid="TriangleStart"
       markerWidth="5.3244081"
       markerHeight="6.155385"
       viewBox="0 0 5.3244081 6.1553851"
       inkscape:isstock="true"
       inkscape:collect="always"
       preserveAspectRatio="xMidYMid">
      <path
         transform="scale(0.5)"
         style="fill:context-stroke;fill-rule:evenodd;stroke:context-stroke;stroke-width:1pt"
         d="M 5.77,0 -2.88,5 V -5 Z"
         id="path135" />
    </marker>
    <marker
       style="overflow:visible"
       id="TriangleStart-2"
       refX="0"
       refY="0"
       orient="auto-start-reverse"
       inkscape:stockid="TriangleStart"
       markerWidth="5.3244081"
       markerHeight="6.155385"
       viewBox="0 0 5.3244081 6.1553851"
       inkscape:isstock="true"
       inkscape:collect="always"
       preserveAspectRatio="xMidYMid">
      <path
         transform="scale(0.5)"
         style="fill:context-stroke;fill-rule:evenodd;stroke:context-stroke;stroke-width:1pt"
         d="M 5.77,0 -2.88,5 V -5 Z"
         id="path135-2" />
    </marker>
    <marker
       style="overflow:visible"
       id="marker1604-7"
       refX="0"
       refY="0"
       orient="auto-start-reverse"
       inkscape:stockid="TriangleStart"
       markerWidth="5.3244081"
       markerHeight="6.155385"
       viewBox="0 0 5.3244081 6.1553851"
       inkscape:isstock="true"
       inkscape:collect="always"
       preserveAspectRatio="xMidYMid">
      <path
         transform="scale(0.5)"
         style="fill:context-stroke;fill-rule:evenodd;stroke:context-stroke;stroke-width:1pt"
         d="M 5.77,0 -2.88,5 V -5 Z"
         id="path1602-3" />
    </marker>
    <clipPath
       id="clipPath5831">
      <path
         clip-rule="nonzero"
         d="m 10,0 h 5 v 14.347656 h -5 z m 0,0"
         id="path8971" />
    </clipPath>
    <clipPath
       id="clipPath1881">
      <path
         clip-rule="nonzero"
         d="m 24,0 h 4 v 14.347656 h -4 z m 0,0"
         id="path1542" />
    </clipPath>
    <clipPath
       id="clipPath7706">
      <path
         clip-rule="nonzero"
         d="m 16,0 h 4 v 14.347656 h -4 z m 0,0"
         id="path5496" />
    </clipPath>
    <clipPath
       id="clipPath2641">
      <path
         clip-rule="nonzero"
         d="m 29,0 h 4 v 14.347656 h -4 z m 0,0"
         id="path6331" />
    </clipPath>
    <clipPath
       id="clipPath9035">
      <path
         clip-rule="nonzero"
         d="M 1,0 H 5 V 14.347656 H 1 Z m 0,0"
         id="path4417" />
    </clipPath>
    <clipPath
       id="clipPath8528">
      <path
         clip-rule="nonzero"
         d="m 14,0 h 4 v 14.347656 h -4 z m 0,0"
         id="path1611" />
    </clipPath>
    <clipPath
       id="clipPath2290">
      <path
         clip-rule="nonzero"
         d="M 0,0 H 8 V 6.175781 H 0 Z m 0,0"
         id="path5472" />
    </clipPath>
    <clipPath
       id="clipPath2908">
      <path
         clip-rule="nonzero"
         d="m 16,0 h 4 v 14.347656 h -4 z m 0,0"
         id="path9385" />
    </clipPath>
    <clipPath
       id="clipPath9425">
      <path
         clip-rule="nonzero"
         d="m 30,0 h 4 v 14.347656 h -4 z m 0,0"
         id="path3115" />
    </clipPath>
    <clipPath
       id="clipPath9472">
      <path
         clip-rule="nonzero"
         d="m 55,19 h 7 v 9.789063 h -7 z m 0,0"
         id="path38" />
    </clipPath>
    <clipPath
       id="clipPath9016">
      <path
         clip-rule="nonzero"
         d="m 62,22 h 9 v 6.789063 h -9 z m 0,0"
         id="path802" />
    </clipPath>
    <clipPath
       id="clipPath3016">
      <path
         clip-rule="nonzero"
         d="M 0,0 H 9 V 6.175781 H 0 Z m 0,0"
         id="path584" />
    </clipPath>
    <clipPath
       id="clipPath7172">
      <path
         clip-rule="nonzero"
         d="M 0,2 H 9 V 9.246094 H 0 Z m 0,0"
         id="path3056" />
    </clipPath>
    <clipPath
       id="clipPath9574">
      <path
         clip-rule="nonzero"
         d="m 28,0 h 7 v 9.246094 h -7 z m 0,0"
         id="path1258" />
    </clipPath>
    <clipPath
       id="clipPath523">
      <path
         clip-rule="nonzero"
         d="m 35,3 h 9 v 6.246094 h -9 z m 0,0"
         id="path4899" />
    </clipPath>
    <clipPath
       id="clipPath1826">
      <path
         clip-rule="nonzero"
         d="m 44,2 h 8 v 7.246094 h -8 z m 0,0"
         id="path1042" />
    </clipPath>
  </defs>
  <g
     inkscape:label="Lag 1"
     inkscape:groupmode="layer"
     id="layer1">
    <circle
       id="path1278"
       style="fill:#000000;stroke:#333333;stroke-width:0.264583"
       cx="118.34499"
       cy="42.199081"
       r="0" />
    <circle
       id="path1280"
       style="fill:#000000;stroke:#333333;stroke-width:0.264583"
       cx="118.34499"
       cy="42.199081"
       r="0" />
    <circle
       id="path1286"
       style="fill:#000000;stroke:#333333;stroke-width:0.264583"
       cx="142.53914"
       cy="47.82563"
       r="0" />
    <circle
       id="path1288"
       style="fill:#000000;stroke:#333333;stroke-width:0.264583"
       cx="142.53914"
       cy="47.82563"
       r="0" />
    <circle
       id="path1290"
       style="fill:#000000;stroke:#333333;stroke-width:0.264583"
       cx="142.53914"
       cy="47.82563"
       r="0" />
    <path
       style="fill:none;stroke:#333333;stroke-width:0.4;stroke-dasharray:none;stroke-opacity:1;marker-start:url(#TriangleStart);marker-end:url(#marker1604)"
       d="M 20,10 V 50 H 70"
       id="path1383" />
    <path
       style="fill:none;stroke:#333333;stroke-width:0.415194;stroke-dasharray:none;stroke-opacity:1;marker-start:url(#TriangleStart-2);marker-end:url(#marker1604-7)"
       d="M 84.917637,10.84407 V 50.211268 H 139.65407"
       id="path1383-3" />
    <rect
       style="fill:#ff7f2a;fill-opacity:1;stroke:#ff7f2a;stroke-width:0.4;stroke-dasharray:none;stroke-opacity:1"
       id="rect1822"
       width="10"
       height="30.000002"
       x="25"
       y="20" />
    <rect
       style="fill:#ff7f2a;fill-opacity:1;stroke:#ff7f2a;stroke-width:0.4;stroke-dasharray:none;stroke-opacity:1"
       id="rect1932"
       width="30.000002"
       height="10"
       x="99.654213"
       y="40.529167" />
    <g
       inkscape:label=""
       transform="translate(24.152572,9.1401036)"
       id="g2559">
      <g
         fill="#000000"
         fill-opacity="1"
         id="g2541"
         transform="matrix(0.352778,0,0,0.352778,-0.259071,-0.00317494)">
        <g
           id="g2539"
           transform="translate(0,10.759)">
          <path
             d="m 9.109375,-9.96875 c 0,-0.125 -0.09375,-0.125 -0.125,-0.125 -0.0625,0 -0.078125,0.01563 -0.25,0.21875 C 8.65625,-9.765625 8.0625,-9.015625 8.046875,-9.015625 7.578125,-9.9375 6.625,-10.09375 6.03125,-10.09375 c -1.828125,0 -3.484375,1.65625 -3.484375,3.28125 0,1.078125 0.65625,1.703125 1.359375,1.953125 0.15625,0.046875 1,0.28125 1.421875,0.390625 0.734375,0.1875 0.921875,0.25 1.234375,0.5625 0.046875,0.078125 0.34375,0.40625 0.34375,1.078125 0,1.34375 -1.234375,2.71875 -2.671875,2.71875 -1.171875,0 -2.484375,-0.5 -2.484375,-2.109375 0,-0.28125 0.0625,-0.625 0.09375,-0.765625 0,-0.046875 0.015625,-0.109375 0.015625,-0.140625 0,-0.0625 -0.015625,-0.125 -0.140625,-0.125 -0.125,0 -0.140625,0.015625 -0.203125,0.265625 l -0.734375,2.9375 c 0,0.015625 -0.046875,0.203125 -0.046875,0.21875 0,0.125 0.109375,0.125 0.140625,0.125 0.0625,0 0.078125,-0.015625 0.25,-0.21875 L 1.78125,-0.78125 C 2.125,-0.265625 2.875,0.296875 4.203125,0.296875 6.046875,0.296875 7.75,-1.484375 7.75,-3.28125 7.75,-3.890625 7.609375,-4.421875 7.0625,-4.953125 6.75,-5.25 6.5,-5.328125 5.171875,-5.671875 4.21875,-5.921875 4.09375,-5.96875 3.828125,-6.203125 3.578125,-6.4375 3.40625,-6.78125 3.40625,-7.265625 c 0,-1.21875 1.21875,-2.4375 2.578125,-2.4375 1.40625,0 2.0625,0.859375 2.0625,2.21875 0,0.375 -0.078125,0.75 -0.078125,0.8125 0,0.125 0.125,0.125 0.171875,0.125 0.125,0 0.140625,-0.03125 0.1875,-0.265625 z m 0,0"
             id="path2537" />
        </g>
      </g>
      <g
         fill="#000000"
         fill-opacity="1"
         id="g36"
         transform="matrix(0.352778,0,0,0.352778,-0.259071,-0.00317494)">
        <g
           id="use34"
           transform="translate(8.6389999,12.911)">
          <path
             d="M 3.484375,-0.5625 C 3.59375,-0.15625 3.953125,0.109375 4.375,0.109375 4.71875,0.109375 4.953125,-0.125 5.109375,-0.4375 5.28125,-0.796875 5.40625,-1.40625 5.40625,-1.421875 c 0,-0.109375 -0.078125,-0.109375 -0.109375,-0.109375 -0.109375,0 -0.109375,0.046875 -0.140625,0.1875 -0.140625,0.5625 -0.328125,1.234375 -0.75,1.234375 -0.203125,0 -0.3125,-0.125 -0.3125,-0.453125 0,-0.21875 0.125,-0.6875 0.203125,-1.046875 L 4.578125,-2.6875 C 4.609375,-2.828125 4.703125,-3.203125 4.75,-3.359375 4.796875,-3.59375 4.890625,-3.96875 4.890625,-4.03125 c 0,-0.171875 -0.140625,-0.265625 -0.28125,-0.265625 -0.046875,0 -0.3125,0.015625 -0.390625,0.34375 -0.1875,0.734375 -0.625,2.484375 -0.75,3 -0.015625,0.046875 -0.40625,0.84375 -1.140625,0.84375 -0.515625,0 -0.609375,-0.453125 -0.609375,-0.8125 0,-0.5625 0.28125,-1.34375 0.53125,-2.03125 0.125,-0.3125 0.171875,-0.453125 0.171875,-0.640625 0,-0.4375 -0.3125,-0.8125 -0.8125,-0.8125 -0.953125,0 -1.3125,1.453125 -1.3125,1.53125 0,0.109375 0.09375,0.109375 0.109375,0.109375 0.109375,0 0.109375,-0.03125 0.15625,-0.1875 0.25,-0.859375 0.640625,-1.234375 1.015625,-1.234375 0.09375,0 0.25,0.015625 0.25,0.328125 0,0.234375 -0.109375,0.53125 -0.171875,0.671875 -0.375,1 -0.578125,1.609375 -0.578125,2.09375 0,0.953125 0.6875,1.203125 1.21875,1.203125 0.65625,0 1.015625,-0.453125 1.1875,-0.671875 z m 0,0"
             id="path2543" />
        </g>
      </g>
      <g
         clip-path="url(#clipPath7706)"
         id="g2550"
         transform="matrix(0.352778,0,0,0.352778,-0.259071,-0.00317494)">
        <g
           fill="#000000"
           fill-opacity="1"
           id="g40">
          <g
             id="use38"
             transform="translate(14.841,10.759)">
            <path
               d="m 4.65625,3.484375 c 0,-0.046875 0,-0.078125 -0.234375,-0.3125 -1.4375,-1.453125 -2.234375,-3.8125 -2.234375,-6.75 0,-2.78125 0.671875,-5.171875 2.328125,-6.859375 0.140625,-0.140625 0.140625,-0.15625 0.140625,-0.203125 0,-0.09375 -0.0625,-0.109375 -0.125,-0.109375 -0.1875,0 -1.359375,1.03125 -2.0625,2.4375 -0.734375,1.4375 -1.0625,2.984375 -1.0625,4.734375 0,1.28125 0.203125,2.984375 0.953125,4.53125 0.84375,1.71875 2.015625,2.640625 2.171875,2.640625 0.0625,0 0.125,-0.015625 0.125,-0.109375 z m 0,0"
               id="path66" />
          </g>
        </g>
      </g>
      <g
         fill="#000000"
         fill-opacity="1"
         id="g46"
         transform="matrix(0.352778,0,0,0.352778,-0.259071,-0.00317494)">
        <g
           id="use44"
           transform="translate(20.302999,10.759)">
          <path
             d="M 2.953125,-4.203125 C 2.984375,-4.28125 3.34375,-5 3.875,-5.46875 c 0.375,-0.34375 0.859375,-0.5625 1.421875,-0.5625 0.5625,0 0.765625,0.421875 0.765625,1 0,0.8125 -0.578125,2.453125 -0.875,3.21875 -0.125,0.34375 -0.203125,0.53125 -0.203125,0.796875 0,0.640625 0.453125,1.15625 1.140625,1.15625 1.328125,0 1.828125,-2.109375 1.828125,-2.1875 C 7.953125,-2.125 7.90625,-2.1875 7.8125,-2.1875 c -0.125,0 -0.140625,0.046875 -0.203125,0.296875 -0.34375,1.171875 -0.875,1.75 -1.4375,1.75 -0.140625,0 -0.375,-0.015625 -0.375,-0.46875 0,-0.359375 0.15625,-0.796875 0.234375,-1 C 6.328125,-2.390625 6.921875,-4 6.921875,-4.8125 c 0,-0.875 -0.5,-1.515625 -1.59375,-1.515625 -1.265625,0 -1.9375,0.90625 -2.203125,1.265625 C 3.078125,-5.875 2.5,-6.328125 1.859375,-6.328125 c -0.453125,0 -0.765625,0.28125 -1.015625,0.765625 -0.25,0.515625 -0.453125,1.375 -0.453125,1.4375 0,0.046875 0.046875,0.125 0.15625,0.125 0.109375,0 0.125,-0.015625 0.21875,-0.34375 0.21875,-0.875 0.484375,-1.6875 1.0625,-1.6875 0.328125,0 0.4375,0.21875 0.4375,0.65625 0,0.3125 -0.140625,0.875 -0.25,1.3125 L 1.625,-2.515625 c -0.0625,0.28125 -0.21875,0.921875 -0.296875,1.1875 -0.09375,0.359375 -0.25,1.046875 -0.25,1.109375 0,0.203125 0.15625,0.359375 0.375,0.359375 0.171875,0 0.375,-0.078125 0.484375,-0.296875 0.03125,-0.078125 0.15625,-0.578125 0.234375,-0.859375 l 0.3125,-1.296875 z m 0,0"
             id="path70" />
        </g>
      </g>
      <g
         clip-path="url(#clipPath2641)"
         id="g52"
         transform="matrix(0.352778,0,0,0.352778,-0.259071,-0.00317494)">
        <g
           fill="#000000"
           fill-opacity="1"
           id="g50">
          <g
             id="use48"
             transform="translate(28.688,10.759)">
            <path
               d="M 4.046875,-3.578125 C 4.046875,-4.65625 3.90625,-6.4375 3.09375,-8.109375 2.25,-9.828125 1.078125,-10.75 0.921875,-10.75 c -0.0625,0 -0.140625,0.01563 -0.140625,0.109375 0,0.04687 0,0.0625 0.25,0.3125 1.4375,1.453125 2.234375,3.8125 2.234375,6.75 0,2.78125 -0.671875,5.171875 -2.328125,6.859375 -0.15625,0.125 -0.15625,0.15625 -0.15625,0.203125 0,0.09375 0.078125,0.109375 0.140625,0.109375 0.1875,0 1.359375,-1.03125 2.0625,-2.4375 0.734375,-1.453125 1.0625,-3 1.0625,-4.734375 z m 0,0"
               id="path74" />
          </g>
        </g>
      </g>
    </g>
    <g
       inkscape:label=""
       transform="translate(65.137804,52.768007)"
       id="g4512">
      <g
         clip-path="url(#clipPath2290)"
         id="g17"
         transform="matrix(0.352778,0,0,0.352778,-0.137804,0.0533135)">
        <g
           fill="#000000"
           fill-opacity="1"
           id="g15">
          <g
             id="use13"
             transform="translate(0,6.177)">
            <path
               d="M 2.953125,-4.203125 C 2.984375,-4.28125 3.34375,-5 3.875,-5.46875 c 0.375,-0.34375 0.859375,-0.5625 1.421875,-0.5625 0.5625,0 0.765625,0.421875 0.765625,1 0,0.8125 -0.578125,2.453125 -0.875,3.21875 -0.125,0.34375 -0.203125,0.53125 -0.203125,0.796875 0,0.640625 0.453125,1.15625 1.140625,1.15625 1.328125,0 1.828125,-2.109375 1.828125,-2.1875 C 7.953125,-2.125 7.90625,-2.1875 7.8125,-2.1875 c -0.125,0 -0.140625,0.046875 -0.203125,0.296875 -0.34375,1.171875 -0.875,1.75 -1.4375,1.75 -0.140625,0 -0.375,-0.015625 -0.375,-0.46875 0,-0.359375 0.15625,-0.796875 0.234375,-1 C 6.328125,-2.390625 6.921875,-4 6.921875,-4.8125 c 0,-0.875 -0.5,-1.515625 -1.59375,-1.515625 -1.265625,0 -1.9375,0.90625 -2.203125,1.265625 C 3.078125,-5.875 2.5,-6.328125 1.859375,-6.328125 c -0.453125,0 -0.765625,0.28125 -1.015625,0.765625 -0.25,0.515625 -0.453125,1.375 -0.453125,1.4375 0,0.046875 0.046875,0.125 0.15625,0.125 0.109375,0 0.125,-0.015625 0.21875,-0.34375 0.21875,-0.875 0.484375,-1.6875 1.0625,-1.6875 0.328125,0 0.4375,0.21875 0.4375,0.65625 0,0.3125 -0.140625,0.875 -0.25,1.3125 L 1.625,-2.515625 c -0.0625,0.28125 -0.21875,0.921875 -0.296875,1.1875 -0.09375,0.359375 -0.25,1.046875 -0.25,1.109375 0,0.203125 0.15625,0.359375 0.375,0.359375 0.171875,0 0.375,-0.078125 0.484375,-0.296875 0.03125,-0.078125 0.15625,-0.578125 0.234375,-0.859375 l 0.3125,-1.296875 z m 0,0"
               id="path23" />
          </g>
        </g>
      </g>
    </g>
    <g
       inkscape:label=""
       transform="translate(87.731592,5.567564)"
       id="g6506">
      <g
         fill="#000000"
         fill-opacity="1"
         id="g47"
         transform="matrix(0.352778,0,0,0.352778,-0.259071,0.100983)">
        <g
           id="use45"
           transform="translate(0,18.950001)">
          <path
             d="m 9.109375,-9.96875 c 0,-0.125 -0.09375,-0.125 -0.125,-0.125 -0.0625,0 -0.078125,0.01563 -0.25,0.21875 C 8.65625,-9.765625 8.0625,-9.015625 8.046875,-9.015625 7.578125,-9.9375 6.625,-10.09375 6.03125,-10.09375 c -1.828125,0 -3.484375,1.65625 -3.484375,3.28125 0,1.078125 0.65625,1.703125 1.359375,1.953125 0.15625,0.046875 1,0.28125 1.421875,0.390625 0.734375,0.1875 0.921875,0.25 1.234375,0.5625 0.046875,0.078125 0.34375,0.40625 0.34375,1.078125 0,1.34375 -1.234375,2.71875 -2.671875,2.71875 -1.171875,0 -2.484375,-0.5 -2.484375,-2.109375 0,-0.28125 0.0625,-0.625 0.09375,-0.765625 0,-0.046875 0.015625,-0.109375 0.015625,-0.140625 0,-0.0625 -0.015625,-0.125 -0.140625,-0.125 -0.125,0 -0.140625,0.015625 -0.203125,0.265625 l -0.734375,2.9375 c 0,0.015625 -0.046875,0.203125 -0.046875,0.21875 0,0.125 0.109375,0.125 0.140625,0.125 0.0625,0 0.078125,-0.015625 0.25,-0.21875 L 1.78125,-0.78125 C 2.125,-0.265625 2.875,0.296875 4.203125,0.296875 6.046875,0.296875 7.75,-1.484375 7.75,-3.28125 7.75,-3.890625 7.609375,-4.421875 7.0625,-4.953125 6.75,-5.25 6.5,-5.328125 5.171875,-5.671875 4.21875,-5.921875 4.09375,-5.96875 3.828125,-6.203125 3.578125,-6.4375 3.40625,-6.78125 3.40625,-7.265625 c 0,-1.21875 1.21875,-2.4375 2.578125,-2.4375 1.40625,0 2.0625,0.859375 2.0625,2.21875 0,0.375 -0.078125,0.75 -0.078125,0.8125 0,0.125 0.125,0.125 0.171875,0.125 0.125,0 0.140625,-0.03125 0.1875,-0.265625 z m 0,0"
             id="path111" />
        </g>
      </g>
      <g
         fill="#000000"
         fill-opacity="1"
         id="g51"
         transform="matrix(0.352778,0,0,0.352778,-0.259071,0.100983)">
        <g
           id="use49"
           transform="translate(8.6389999,21.101999)">
          <path
             d="M 3.484375,-0.5625 C 3.59375,-0.15625 3.953125,0.109375 4.375,0.109375 4.71875,0.109375 4.953125,-0.125 5.109375,-0.4375 5.28125,-0.796875 5.40625,-1.40625 5.40625,-1.421875 c 0,-0.109375 -0.078125,-0.109375 -0.109375,-0.109375 -0.109375,0 -0.109375,0.046875 -0.140625,0.1875 -0.140625,0.5625 -0.328125,1.234375 -0.75,1.234375 -0.203125,0 -0.3125,-0.125 -0.3125,-0.453125 0,-0.21875 0.125,-0.6875 0.203125,-1.046875 L 4.578125,-2.6875 C 4.609375,-2.828125 4.703125,-3.203125 4.75,-3.359375 4.796875,-3.59375 4.890625,-3.96875 4.890625,-4.03125 c 0,-0.171875 -0.140625,-0.265625 -0.28125,-0.265625 -0.046875,0 -0.3125,0.015625 -0.390625,0.34375 -0.1875,0.734375 -0.625,2.484375 -0.75,3 -0.015625,0.046875 -0.40625,0.84375 -1.140625,0.84375 -0.515625,0 -0.609375,-0.453125 -0.609375,-0.8125 0,-0.5625 0.28125,-1.34375 0.53125,-2.03125 0.125,-0.3125 0.171875,-0.453125 0.171875,-0.640625 0,-0.4375 -0.3125,-0.8125 -0.8125,-0.8125 -0.953125,0 -1.3125,1.453125 -1.3125,1.53125 0,0.109375 0.09375,0.109375 0.109375,0.109375 0.109375,0 0.109375,-0.03125 0.15625,-0.1875 0.25,-0.859375 0.640625,-1.234375 1.015625,-1.234375 0.09375,0 0.25,0.015625 0.25,0.328125 0,0.234375 -0.109375,0.53125 -0.171875,0.671875 -0.375,1 -0.578125,1.609375 -0.578125,2.09375 0,0.953125 0.6875,1.203125 1.21875,1.203125 0.65625,0 1.015625,-0.453125 1.1875,-0.671875 z m 0,0"
             id="path115" />
        </g>
      </g>
      <g
         fill="#000000"
         fill-opacity="1"
         id="g55"
         transform="matrix(0.352778,0,0,0.352778,-0.259071,0.100983)">
        <g
           id="use53"
           transform="translate(14.841,18.950001)">
          <path
             d="m 4.65625,3.484375 c 0,-0.046875 0,-0.078125 -0.234375,-0.3125 -1.4375,-1.453125 -2.234375,-3.8125 -2.234375,-6.75 0,-2.78125 0.671875,-5.171875 2.328125,-6.859375 0.140625,-0.140625 0.140625,-0.15625 0.140625,-0.203125 0,-0.09375 -0.0625,-0.109375 -0.125,-0.109375 -0.1875,0 -1.359375,1.03125 -2.0625,2.4375 -0.734375,1.4375 -1.0625,2.984375 -1.0625,4.734375 0,1.28125 0.203125,2.984375 0.953125,4.53125 0.84375,1.71875 2.015625,2.640625 2.171875,2.640625 0.0625,0 0.125,-0.015625 0.125,-0.109375 z m 0,0"
             id="path119" />
        </g>
      </g>
      <g
         fill="#000000"
         fill-opacity="1"
         id="g59"
         transform="matrix(0.352778,0,0,0.352778,-0.259071,0.100983)">
        <g
           id="use57"
           transform="translate(20.302999,18.950001)">
          <path
             d="m 8.515625,-5.390625 c 0,-0.421875 -0.109375,-0.953125 -0.609375,-0.953125 -0.296875,0 -0.625,0.359375 -0.625,0.65625 0,0.125 0.0625,0.203125 0.171875,0.34375 0.21875,0.234375 0.5,0.625 0.5,1.296875 0,0.515625 -0.328125,1.328125 -0.546875,1.78125 -0.40625,0.78125 -1.0625,1.46875 -1.8125,1.46875 -0.90625,0 -1.25,-0.578125 -1.40625,-1.390625 0.15625,-0.359375 0.484375,-1.296875 0.484375,-1.671875 0,-0.15625 -0.046875,-0.28125 -0.234375,-0.28125 -0.109375,0 -0.21875,0.046875 -0.296875,0.171875 -0.203125,0.3125 -0.375,1.4375 -0.375,1.75 C 3.5,-1.6875 2.71875,-0.796875 1.8125,-0.796875 c -0.96875,0 -1.21875,-0.859375 -1.21875,-1.671875 0,-1.484375 0.921875,-2.796875 1.1875,-3.15625 0.140625,-0.21875 0.234375,-0.359375 0.234375,-0.390625 0,-0.09375 -0.046875,-0.25 -0.171875,-0.25 -0.234375,0 -0.3125,0.1875 -0.421875,0.359375 -0.734375,1.125 -1.25,2.71875 -1.25,4.09375 0,0.890625 0.328125,1.953125 1.40625,1.953125 1.1875,0 1.9375,-1.015625 2.234375,-1.5625 0.125,0.8125 0.546875,1.5625 1.59375,1.5625 1.09375,0 1.78125,-0.953125 2.296875,-2.125 0.375,-0.828125 0.8125,-2.625 0.8125,-3.40625 z m 0,0"
             id="path123" />
        </g>
      </g>
      <g
         fill="#000000"
         fill-opacity="1"
         id="g63"
         transform="matrix(0.352778,0,0,0.352778,-0.259071,0.100983)">
        <g
           id="use61"
           transform="translate(29.565001,18.950001)">
          <path
             d="M 4.046875,-3.578125 C 4.046875,-4.65625 3.90625,-6.4375 3.09375,-8.109375 2.25,-9.828125 1.078125,-10.75 0.921875,-10.75 c -0.0625,0 -0.140625,0.01563 -0.140625,0.109375 0,0.04687 0,0.0625 0.25,0.3125 1.4375,1.453125 2.234375,3.8125 2.234375,6.75 0,2.78125 -0.671875,5.171875 -2.328125,6.859375 -0.15625,0.125 -0.15625,0.15625 -0.15625,0.203125 0,0.09375 0.078125,0.109375 0.140625,0.109375 0.1875,0 1.359375,-1.03125 2.0625,-2.4375 0.734375,-1.453125 1.0625,-3 1.0625,-4.734375 z m 0,0"
             id="path127" />
        </g>
      </g>
      <g
         fill="#000000"
         fill-opacity="1"
         id="g67"
         transform="matrix(0.352778,0,0,0.352778,-0.259071,0.100983)">
        <g
           id="use65"
           transform="translate(39.016277,18.950001)">
          <path
             d="m 9.6875,-4.640625 c 0.203125,0 0.453125,0 0.453125,-0.265625 0,-0.265625 -0.25,-0.265625 -0.453125,-0.265625 H 1.234375 c -0.203125,0 -0.453125,0 -0.453125,0.25 0,0.28125 0.234375,0.28125 0.453125,0.28125 z m 0,2.65625 c 0.203125,0 0.453125,0 0.453125,-0.25 0,-0.28125 -0.25,-0.28125 -0.453125,-0.28125 H 1.234375 c -0.203125,0 -0.453125,0 -0.453125,0.265625 0,0.265625 0.234375,0.265625 0.453125,0.265625 z m 0,0"
             id="path131" />
        </g>
      </g>
      <g
         fill="#000000"
         fill-opacity="1"
         id="g71"
         transform="matrix(0.352778,0,0,0.352778,-0.259071,0.100983)">
        <g
           id="use69"
           transform="translate(59.361,9.2449999)">
          <path
             d="m 4.125,-9.1875 c 0,-0.34375 0,-0.34375 -0.28125,-0.34375 C 3.5,-9.15625 2.78125,-8.625 1.3125,-8.625 v 0.421875 c 0.328125,0 1.046875,0 1.828125,-0.375 v 7.46875 c 0,0.515625 -0.046875,0.6875 -1.296875,0.6875 H 1.390625 V 0 c 0.390625,-0.03125 1.78125,-0.03125 2.25,-0.03125 0.46875,0 1.859375,0 2.234375,0.03125 V -0.421875 H 5.4375 c -1.265625,0 -1.3125,-0.171875 -1.3125,-0.6875 z m 0,0"
             id="path6478" />
        </g>
      </g>
      <path
         fill="none"
         stroke-width="0.574"
         stroke-linecap="butt"
         stroke-linejoin="miter"
         stroke="#000000"
         stroke-opacity="1"
         stroke-miterlimit="10"
         d="M 54.382812,15.649531 H 69.890625"
         id="path73"
         transform="scale(0.352778)" />
      <g
         clip-path="url(#clipPath9472)"
         id="g79"
         transform="matrix(0.352778,0,0,0.352778,-0.259071,0.100983)">
        <g
           fill="#000000"
           fill-opacity="1"
           id="g77">
          <g
             id="use75"
             transform="translate(55.118999,28.791)">
            <path
               d="M 6.3125,-2.40625 H 6 c -0.046875,0.234375 -0.15625,1.03125 -0.3125,1.265625 -0.09375,0.125 -0.90625,0.125 -1.34375,0.125 H 1.6875 c 0.390625,-0.328125 1.265625,-1.25 1.640625,-1.59375 2.1875,-2.015625 2.984375,-2.75 2.984375,-4.171875 0,-1.65625 -1.3125,-2.75 -2.96875,-2.75 -1.671875,0 -2.640625,1.40625 -2.640625,2.640625 0,0.734375 0.625,0.734375 0.671875,0.734375 0.296875,0 0.671875,-0.21875 0.671875,-0.671875 C 2.046875,-7.234375 1.78125,-7.5 1.375,-7.5 1.25,-7.5 1.21875,-7.5 1.171875,-7.484375 1.453125,-8.46875 2.21875,-9.125 3.15625,-9.125 4.375,-9.125 5.125,-8.109375 5.125,-6.78125 5.125,-5.5625 4.421875,-4.5 3.59375,-3.578125 L 0.703125,-0.34375 V 0 H 5.9375 Z m 0,0"
               id="path139" />
          </g>
        </g>
      </g>
      <g
         clip-path="url(#clipPath9016)"
         id="g85"
         transform="matrix(0.352778,0,0,0.352778,-0.259071,0.100983)">
        <g
           fill="#000000"
           fill-opacity="1"
           id="g83">
          <g
             id="use81"
             transform="translate(62.143002,28.791)">
            <path
               d="m 3.71875,-5.40625 h 1.609375 c -0.375,1.609375 -0.625,2.65625 -0.625,3.796875 0,0.203125 0,1.75 0.59375,1.75 0.296875,0 0.5625,-0.265625 0.5625,-0.515625 0,-0.0625 0,-0.09375 -0.109375,-0.3125 -0.390625,-0.984375 -0.390625,-2.21875 -0.390625,-2.328125 0,-0.078125 0,-1.09375 0.3125,-2.390625 h 1.59375 c 0.1875,0 0.671875,0 0.671875,-0.453125 C 7.9375,-6.1875 7.65625,-6.1875 7.40625,-6.1875 H 2.6875 c -0.328125,0 -0.828125,0 -1.484375,0.703125 -0.375,0.421875 -0.828125,1.1875 -0.828125,1.265625 0,0.09375 0.0625,0.109375 0.15625,0.109375 0.09375,0 0.109375,-0.03125 0.1875,-0.125 0.75,-1.171875 1.484375,-1.171875 1.84375,-1.171875 H 3.390625 C 3.0625,-4.328125 2.71875,-3.078125 1.53125,-0.578125 1.421875,-0.34375 1.421875,-0.3125 1.421875,-0.234375 c 0,0.3125 0.25,0.375 0.390625,0.375 0.40625,0 0.53125,-0.375 0.703125,-0.96875 0.21875,-0.734375 0.21875,-0.765625 0.375,-1.34375 z m 0,0"
               id="path143" />
          </g>
        </g>
      </g>
      <g
         fill="#000000"
         fill-opacity="1"
         id="g89"
         transform="matrix(0.352778,0,0,0.352778,-0.259071,0.100983)">
        <g
           id="use87"
           transform="translate(71.820999,18.950001)">
          <path
             d="m 9.109375,-9.96875 c 0,-0.125 -0.09375,-0.125 -0.125,-0.125 -0.0625,0 -0.078125,0.01563 -0.25,0.21875 C 8.65625,-9.765625 8.0625,-9.015625 8.046875,-9.015625 7.578125,-9.9375 6.625,-10.09375 6.03125,-10.09375 c -1.828125,0 -3.484375,1.65625 -3.484375,3.28125 0,1.078125 0.65625,1.703125 1.359375,1.953125 0.15625,0.046875 1,0.28125 1.421875,0.390625 0.734375,0.1875 0.921875,0.25 1.234375,0.5625 0.046875,0.078125 0.34375,0.40625 0.34375,1.078125 0,1.34375 -1.234375,2.71875 -2.671875,2.71875 -1.171875,0 -2.484375,-0.5 -2.484375,-2.109375 0,-0.28125 0.0625,-0.625 0.09375,-0.765625 0,-0.046875 0.015625,-0.109375 0.015625,-0.140625 0,-0.0625 -0.015625,-0.125 -0.140625,-0.125 -0.125,0 -0.140625,0.015625 -0.203125,0.265625 l -0.734375,2.9375 c 0,0.015625 -0.046875,0.203125 -0.046875,0.21875 0,0.125 0.109375,0.125 0.140625,0.125 0.0625,0 0.078125,-0.015625 0.25,-0.21875 L 1.78125,-0.78125 C 2.125,-0.265625 2.875,0.296875 4.203125,0.296875 6.046875,0.296875 7.75,-1.484375 7.75,-3.28125 7.75,-3.890625 7.609375,-4.421875 7.0625,-4.953125 6.75,-5.25 6.5,-5.328125 5.171875,-5.671875 4.21875,-5.921875 4.09375,-5.96875 3.828125,-6.203125 3.578125,-6.4375 3.40625,-6.78125 3.40625,-7.265625 c 0,-1.21875 1.21875,-2.4375 2.578125,-2.4375 1.40625,0 2.0625,0.859375 2.0625,2.21875 0,0.375 -0.078125,0.75 -0.078125,0.8125 0,0.125 0.125,0.125 0.171875,0.125 0.125,0 0.140625,-0.03125 0.1875,-0.265625 z m 0,0"
             id="path147" />
        </g>
      </g>
      <g
         fill="#000000"
         fill-opacity="1"
         id="g93"
         transform="matrix(0.352778,0,0,0.352778,-0.259071,0.100983)">
        <g
           id="use91"
           transform="translate(80.459999,21.101999)">
          <path
             d="M 3.484375,-0.5625 C 3.59375,-0.15625 3.953125,0.109375 4.375,0.109375 4.71875,0.109375 4.953125,-0.125 5.109375,-0.4375 5.28125,-0.796875 5.40625,-1.40625 5.40625,-1.421875 c 0,-0.109375 -0.078125,-0.109375 -0.109375,-0.109375 -0.109375,0 -0.109375,0.046875 -0.140625,0.1875 -0.140625,0.5625 -0.328125,1.234375 -0.75,1.234375 -0.203125,0 -0.3125,-0.125 -0.3125,-0.453125 0,-0.21875 0.125,-0.6875 0.203125,-1.046875 L 4.578125,-2.6875 C 4.609375,-2.828125 4.703125,-3.203125 4.75,-3.359375 4.796875,-3.59375 4.890625,-3.96875 4.890625,-4.03125 c 0,-0.171875 -0.140625,-0.265625 -0.28125,-0.265625 -0.046875,0 -0.3125,0.015625 -0.390625,0.34375 -0.1875,0.734375 -0.625,2.484375 -0.75,3 -0.015625,0.046875 -0.40625,0.84375 -1.140625,0.84375 -0.515625,0 -0.609375,-0.453125 -0.609375,-0.8125 0,-0.5625 0.28125,-1.34375 0.53125,-2.03125 0.125,-0.3125 0.171875,-0.453125 0.171875,-0.640625 0,-0.4375 -0.3125,-0.8125 -0.8125,-0.8125 -0.953125,0 -1.3125,1.453125 -1.3125,1.53125 0,0.109375 0.09375,0.109375 0.109375,0.109375 0.109375,0 0.109375,-0.03125 0.15625,-0.1875 0.25,-0.859375 0.640625,-1.234375 1.015625,-1.234375 0.09375,0 0.25,0.015625 0.25,0.328125 0,0.234375 -0.109375,0.53125 -0.171875,0.671875 -0.375,1 -0.578125,1.609375 -0.578125,2.09375 0,0.953125 0.6875,1.203125 1.21875,1.203125 0.65625,0 1.015625,-0.453125 1.1875,-0.671875 z m 0,0"
             id="path151" />
        </g>
      </g>
      <g
         fill="#000000"
         fill-opacity="1"
         id="g97"
         transform="matrix(0.352778,0,0,0.352778,-0.259071,0.100983)">
        <g
           id="use95"
           transform="translate(86.662003,18.950001)">
          <path
             d="m 4.65625,3.484375 c 0,-0.046875 0,-0.078125 -0.234375,-0.3125 -1.4375,-1.453125 -2.234375,-3.8125 -2.234375,-6.75 0,-2.78125 0.671875,-5.171875 2.328125,-6.859375 0.140625,-0.140625 0.140625,-0.15625 0.140625,-0.203125 0,-0.09375 -0.0625,-0.109375 -0.125,-0.109375 -0.1875,0 -1.359375,1.03125 -2.0625,2.4375 -0.734375,1.4375 -1.0625,2.984375 -1.0625,4.734375 0,1.28125 0.203125,2.984375 0.953125,4.53125 0.84375,1.71875 2.015625,2.640625 2.171875,2.640625 0.0625,0 0.125,-0.015625 0.125,-0.109375 z m 0,0"
             id="path155" />
        </g>
      </g>
      <g
         fill="#000000"
         fill-opacity="1"
         id="g101"
         transform="matrix(0.352778,0,0,0.352778,-0.259071,0.100983)">
        <g
           id="use99"
           transform="translate(92.124001,18.950001)">
          <path
             d="M 2.953125,-4.203125 C 2.984375,-4.28125 3.34375,-5 3.875,-5.46875 c 0.375,-0.34375 0.859375,-0.5625 1.421875,-0.5625 0.5625,0 0.765625,0.421875 0.765625,1 0,0.8125 -0.578125,2.453125 -0.875,3.21875 -0.125,0.34375 -0.203125,0.53125 -0.203125,0.796875 0,0.640625 0.453125,1.15625 1.140625,1.15625 1.328125,0 1.828125,-2.109375 1.828125,-2.1875 C 7.953125,-2.125 7.90625,-2.1875 7.8125,-2.1875 c -0.125,0 -0.140625,0.046875 -0.203125,0.296875 -0.34375,1.171875 -0.875,1.75 -1.4375,1.75 -0.140625,0 -0.375,-0.015625 -0.375,-0.46875 0,-0.359375 0.15625,-0.796875 0.234375,-1 C 6.328125,-2.390625 6.921875,-4 6.921875,-4.8125 c 0,-0.875 -0.5,-1.515625 -1.59375,-1.515625 -1.265625,0 -1.9375,0.90625 -2.203125,1.265625 C 3.078125,-5.875 2.5,-6.328125 1.859375,-6.328125 c -0.453125,0 -0.765625,0.28125 -1.015625,0.765625 -0.25,0.515625 -0.453125,1.375 -0.453125,1.4375 0,0.046875 0.046875,0.125 0.15625,0.125 0.109375,0 0.125,-0.015625 0.21875,-0.34375 0.21875,-0.875 0.484375,-1.6875 1.0625,-1.6875 0.328125,0 0.4375,0.21875 0.4375,0.65625 0,0.3125 -0.140625,0.875 -0.25,1.3125 L 1.625,-2.515625 c -0.0625,0.28125 -0.21875,0.921875 -0.296875,1.1875 -0.09375,0.359375 -0.25,1.046875 -0.25,1.109375 0,0.203125 0.15625,0.359375 0.375,0.359375 0.171875,0 0.375,-0.078125 0.484375,-0.296875 0.03125,-0.078125 0.15625,-0.578125 0.234375,-0.859375 l 0.3125,-1.296875 z m 0,0"
             id="path159" />
        </g>
      </g>
      <g
         fill="#000000"
         fill-opacity="1"
         id="g105"
         transform="matrix(0.352778,0,0,0.352778,-0.259071,0.100983)">
        <g
           id="use103"
           transform="translate(100.51,18.950001)">
          <path
             d="M 4.046875,-3.578125 C 4.046875,-4.65625 3.90625,-6.4375 3.09375,-8.109375 2.25,-9.828125 1.078125,-10.75 0.921875,-10.75 c -0.0625,0 -0.140625,0.01563 -0.140625,0.109375 0,0.04687 0,0.0625 0.25,0.3125 1.4375,1.453125 2.234375,3.8125 2.234375,6.75 0,2.78125 -0.671875,5.171875 -2.328125,6.859375 -0.15625,0.125 -0.15625,0.15625 -0.15625,0.203125 0,0.09375 0.078125,0.109375 0.140625,0.109375 0.1875,0 1.359375,-1.03125 2.0625,-2.4375 0.734375,-1.453125 1.0625,-3 1.0625,-4.734375 z m 0,0"
             id="path163" />
        </g>
      </g>
    </g>
    <g
       inkscape:label=""
       transform="translate(128.46088,53.462108)"
       id="g12209">
      <g
         clip-path="url(#clipPath7172)"
         id="g39"
         transform="matrix(0.352778,0,0,0.352778,-0.0606337,0.100983)">
        <g
           fill="#000000"
           fill-opacity="1"
           id="g37">
          <g
             id="use35"
             transform="translate(0,9.2449999)">
            <path
               d="m 8.515625,-5.390625 c 0,-0.421875 -0.109375,-0.953125 -0.609375,-0.953125 -0.296875,0 -0.625,0.359375 -0.625,0.65625 0,0.125 0.0625,0.203125 0.171875,0.34375 0.21875,0.234375 0.5,0.625 0.5,1.296875 0,0.515625 -0.328125,1.328125 -0.546875,1.78125 -0.40625,0.78125 -1.0625,1.46875 -1.8125,1.46875 -0.90625,0 -1.25,-0.578125 -1.40625,-1.390625 0.15625,-0.359375 0.484375,-1.296875 0.484375,-1.671875 0,-0.15625 -0.046875,-0.28125 -0.234375,-0.28125 -0.109375,0 -0.21875,0.046875 -0.296875,0.171875 -0.203125,0.3125 -0.375,1.4375 -0.375,1.75 C 3.5,-1.6875 2.71875,-0.796875 1.8125,-0.796875 c -0.96875,0 -1.21875,-0.859375 -1.21875,-1.671875 0,-1.484375 0.921875,-2.796875 1.1875,-3.15625 0.140625,-0.21875 0.234375,-0.359375 0.234375,-0.390625 0,-0.09375 -0.046875,-0.25 -0.171875,-0.25 -0.234375,0 -0.3125,0.1875 -0.421875,0.359375 -0.734375,1.125 -1.25,2.71875 -1.25,4.09375 0,0.890625 0.328125,1.953125 1.40625,1.953125 1.1875,0 1.9375,-1.015625 2.234375,-1.5625 0.125,0.8125 0.546875,1.5625 1.59375,1.5625 1.09375,0 1.78125,-0.953125 2.296875,-2.125 0.375,-0.828125 0.8125,-2.625 0.8125,-3.40625 z m 0,0"
               id="path67" />
          </g>
        </g>
      </g>
      <g
         fill="#000000"
         fill-opacity="1"
         id="g43"
         transform="matrix(0.352778,0,0,0.352778,-0.0606337,0.100983)">
        <g
           id="use41"
           transform="translate(13.247,9.2449999)">
          <path
             d="m 9.6875,-4.640625 c 0.203125,0 0.453125,0 0.453125,-0.265625 0,-0.265625 -0.25,-0.265625 -0.453125,-0.265625 H 1.234375 c -0.203125,0 -0.453125,0 -0.453125,0.25 0,0.28125 0.234375,0.28125 0.453125,0.28125 z m 0,2.65625 c 0.203125,0 0.453125,0 0.453125,-0.25 0,-0.28125 -0.25,-0.28125 -0.453125,-0.28125 H 1.234375 c -0.203125,0 -0.453125,0 -0.453125,0.265625 0,0.265625 0.234375,0.265625 0.453125,0.265625 z m 0,0"
             id="path71" />
        </g>
      </g>
      <g
         clip-path="url(#clipPath9574)"
         id="g49"
         transform="matrix(0.352778,0,0,0.352778,-0.0606337,0.100983)">
        <g
           fill="#000000"
           fill-opacity="1"
           id="g12195">
          <g
             id="g12193"
             transform="translate(28.16131,9.2449999)">
            <path
               d="M 6.3125,-2.40625 H 6 c -0.046875,0.234375 -0.15625,1.03125 -0.3125,1.265625 -0.09375,0.125 -0.90625,0.125 -1.34375,0.125 H 1.6875 c 0.390625,-0.328125 1.265625,-1.25 1.640625,-1.59375 2.1875,-2.015625 2.984375,-2.75 2.984375,-4.171875 0,-1.65625 -1.3125,-2.75 -2.96875,-2.75 -1.671875,0 -2.640625,1.40625 -2.640625,2.640625 0,0.734375 0.625,0.734375 0.671875,0.734375 0.296875,0 0.671875,-0.21875 0.671875,-0.671875 C 2.046875,-7.234375 1.78125,-7.5 1.375,-7.5 1.25,-7.5 1.21875,-7.5 1.171875,-7.484375 1.453125,-8.46875 2.21875,-9.125 3.15625,-9.125 4.375,-9.125 5.125,-8.109375 5.125,-6.78125 5.125,-5.5625 4.421875,-4.5 3.59375,-3.578125 L 0.703125,-0.34375 V 0 H 5.9375 Z m 0,0"
               id="path75" />
          </g>
        </g>
      </g>
      <g
         clip-path="url(#clipPath523)"
         id="g12201"
         transform="matrix(0.352778,0,0,0.352778,-0.0606337,0.100983)">
        <g
           fill="#000000"
           fill-opacity="1"
           id="g53">
          <g
             id="use51"
             transform="translate(35.181,9.2449999)">
            <path
               d="m 3.71875,-5.40625 h 1.609375 c -0.375,1.609375 -0.625,2.65625 -0.625,3.796875 0,0.203125 0,1.75 0.59375,1.75 0.296875,0 0.5625,-0.265625 0.5625,-0.515625 0,-0.0625 0,-0.09375 -0.109375,-0.3125 -0.390625,-0.984375 -0.390625,-2.21875 -0.390625,-2.328125 0,-0.078125 0,-1.09375 0.3125,-2.390625 h 1.59375 c 0.1875,0 0.671875,0 0.671875,-0.453125 C 7.9375,-6.1875 7.65625,-6.1875 7.40625,-6.1875 H 2.6875 c -0.328125,0 -0.828125,0 -1.484375,0.703125 -0.375,0.421875 -0.828125,1.1875 -0.828125,1.265625 0,0.09375 0.0625,0.109375 0.15625,0.109375 0.09375,0 0.109375,-0.03125 0.1875,-0.125 0.75,-1.171875 1.484375,-1.171875 1.84375,-1.171875 H 3.390625 C 3.0625,-4.328125 2.71875,-3.078125 1.53125,-0.578125 1.421875,-0.34375 1.421875,-0.3125 1.421875,-0.234375 c 0,0.3125 0.25,0.375 0.390625,0.375 0.40625,0 0.53125,-0.375 0.703125,-0.96875 0.21875,-0.734375 0.21875,-0.765625 0.375,-1.34375 z m 0,0"
               id="path79" />
          </g>
        </g>
      </g>
      <g
         clip-path="url(#clipPath1826)"
         id="g61"
         transform="matrix(0.352778,0,0,0.352778,-0.0606337,0.100983)">
        <g
           fill="#000000"
           fill-opacity="1"
           id="g12206">
          <g
             id="g12204"
             transform="translate(43.665344,9.2449999)">
            <path
               d="M 2.953125,-4.203125 C 2.984375,-4.28125 3.34375,-5 3.875,-5.46875 c 0.375,-0.34375 0.859375,-0.5625 1.421875,-0.5625 0.5625,0 0.765625,0.421875 0.765625,1 0,0.8125 -0.578125,2.453125 -0.875,3.21875 -0.125,0.34375 -0.203125,0.53125 -0.203125,0.796875 0,0.640625 0.453125,1.15625 1.140625,1.15625 1.328125,0 1.828125,-2.109375 1.828125,-2.1875 C 7.953125,-2.125 7.90625,-2.1875 7.8125,-2.1875 c -0.125,0 -0.140625,0.046875 -0.203125,0.296875 -0.34375,1.171875 -0.875,1.75 -1.4375,1.75 -0.140625,0 -0.375,-0.015625 -0.375,-0.46875 0,-0.359375 0.15625,-0.796875 0.234375,-1 C 6.328125,-2.390625 6.921875,-4 6.921875,-4.8125 c 0,-0.875 -0.5,-1.515625 -1.59375,-1.515625 -1.265625,0 -1.9375,0.90625 -2.203125,1.265625 C 3.078125,-5.875 2.5,-6.328125 1.859375,-6.328125 c -0.453125,0 -0.765625,0.28125 -1.015625,0.765625 -0.25,0.515625 -0.453125,1.375 -0.453125,1.4375 0,0.046875 0.046875,0.125 0.15625,0.125 0.109375,0 0.125,-0.015625 0.21875,-0.34375 0.21875,-0.875 0.484375,-1.6875 1.0625,-1.6875 0.328125,0 0.4375,0.21875 0.4375,0.65625 0,0.3125 -0.140625,0.875 -0.25,1.3125 L 1.625,-2.515625 c -0.0625,0.28125 -0.21875,0.921875 -0.296875,1.1875 -0.09375,0.359375 -0.25,1.046875 -0.25,1.109375 0,0.203125 0.15625,0.359375 0.375,0.359375 0.171875,0 0.375,-0.078125 0.484375,-0.296875 0.03125,-0.078125 0.15625,-0.578125 0.234375,-0.859375 l 0.3125,-1.296875 z m 0,0"
               id="path83" />
          </g>
        </g>
      </g>
    </g>
  </g>
</svg>
