<?xml version="1.0" encoding="UTF-8" standalone="no"?>
<svg
   xmlns:dc="http://purl.org/dc/elements/1.1/"
   xmlns:cc="http://creativecommons.org/ns#"
   xmlns:rdf="http://www.w3.org/1999/02/22-rdf-syntax-ns#"
   xmlns:svg="http://www.w3.org/2000/svg"
   xmlns="http://www.w3.org/2000/svg"
   xmlns:xlink="http://www.w3.org/1999/xlink"
   xmlns:sodipodi="http://sodipodi.sourceforge.net/DTD/sodipodi-0.dtd"
   xmlns:inkscape="http://www.inkscape.org/namespaces/inkscape"
   sodipodi:docname="Fig_8_1.svg"
   inkscape:version="1.0 (4035a4fb49, 2020-05-01)"
   id="svg8"
   version="1.1"
   viewBox="0 20 150 80"
   height="80mm"
   width="150mm">
  <defs
     id="defs2">
    <marker
       inkscape:isstock="true"
       style="overflow:visible"
       id="marker1384"
       refX="0"
       refY="0"
       orient="auto"
       inkscape:stockid="Arrow1Lend">
      <path
         transform="matrix(-0.8,0,0,-0.8,-10,0)"
         style="fill:#000000;fill-opacity:1;fill-rule:evenodd;stroke:#000000;stroke-width:1pt;stroke-opacity:1"
         d="M 0,0 5,-5 -12.5,0 5,5 Z"
         id="path1382" />
    </marker>
    <marker
       inkscape:stockid="Arrow1Lstart"
       orient="auto"
       refY="0"
       refX="0"
       id="marker1254"
       style="overflow:visible"
       inkscape:isstock="true">
      <path
         id="path1252"
         d="M 0,0 5,-5 -12.5,0 5,5 Z"
         style="fill:#000000;fill-opacity:1;fill-rule:evenodd;stroke:#000000;stroke-width:1pt;stroke-opacity:1"
         transform="matrix(0.8,0,0,0.8,10,0)" />
    </marker>
    <marker
       inkscape:collect="always"
       inkscape:isstock="true"
       style="overflow:visible"
       id="marker1112"
       refX="0"
       refY="0"
       orient="auto"
       inkscape:stockid="Arrow1Lstart">
      <path
         transform="matrix(0.8,0,0,0.8,10,0)"
         style="fill:#000000;fill-opacity:1;fill-rule:evenodd;stroke:#000000;stroke-width:1pt;stroke-opacity:1"
         d="M 0,0 5,-5 -12.5,0 5,5 Z"
         id="path1110" />
    </marker>
    <marker
       inkscape:isstock="true"
       style="overflow:visible"
       id="marker1000"
       refX="0"
       refY="0"
       orient="auto"
       inkscape:stockid="Arrow1Lend">
      <path
         transform="matrix(-0.8,0,0,-0.8,-10,0)"
         style="fill:#000000;fill-opacity:1;fill-rule:evenodd;stroke:#000000;stroke-width:1pt;stroke-opacity:1"
         d="M 0,0 5,-5 -12.5,0 5,5 Z"
         id="path998" />
    </marker>
    <marker
       inkscape:collect="always"
       inkscape:stockid="Arrow1Lstart"
       orient="auto"
       refY="0"
       refX="0"
       id="Arrow1Lstart"
       style="overflow:visible"
       inkscape:isstock="true">
      <path
         id="path899"
         d="M 0,0 5,-5 -12.5,0 5,5 Z"
         style="fill:#000000;fill-opacity:1;fill-rule:evenodd;stroke:#000000;stroke-width:1pt;stroke-opacity:1"
         transform="matrix(0.8,0,0,0.8,10,0)" />
    </marker>
    <marker
       inkscape:collect="always"
       inkscape:stockid="Arrow1Lend"
       orient="auto"
       refY="0"
       refX="0"
       id="marker2263"
       style="overflow:visible"
       inkscape:isstock="true">
      <path
         id="path2261"
         d="M 0,0 5,-5 -12.5,0 5,5 Z"
         style="fill:#000000;fill-opacity:1;fill-rule:evenodd;stroke:#000000;stroke-width:1pt;stroke-opacity:1"
         transform="matrix(-0.8,0,0,-0.8,-10,0)" />
    </marker>
    <marker
       inkscape:isstock="true"
       style="overflow:visible"
       id="marker1291"
       refX="0"
       refY="0"
       orient="auto"
       inkscape:stockid="Arrow1Lend"
       inkscape:collect="always">
      <path
         transform="matrix(-0.8,0,0,-0.8,-10,0)"
         style="fill:#000000;fill-opacity:1;fill-rule:evenodd;stroke:#000000;stroke-width:1pt;stroke-opacity:1"
         d="M 0,0 5,-5 -12.5,0 5,5 Z"
         id="path1289" />
    </marker>
    <marker
       inkscape:isstock="true"
       style="overflow:visible"
       id="marker1281"
       refX="0"
       refY="0"
       orient="auto"
       inkscape:stockid="Arrow1Lend">
      <path
         transform="matrix(-0.8,0,0,-0.8,-10,0)"
         style="fill:#000000;fill-opacity:1;fill-rule:evenodd;stroke:#000000;stroke-width:1pt;stroke-opacity:1"
         d="M 0,0 5,-5 -12.5,0 5,5 Z"
         id="path1279" />
    </marker>
    <marker
       inkscape:isstock="true"
       style="overflow:visible"
       id="marker1271"
       refX="0"
       refY="0"
       orient="auto"
       inkscape:stockid="Arrow1Lend">
      <path
         transform="matrix(-0.8,0,0,-0.8,-10,0)"
         style="fill:#000000;fill-opacity:1;fill-rule:evenodd;stroke:#000000;stroke-width:1pt;stroke-opacity:1"
         d="M 0,0 5,-5 -12.5,0 5,5 Z"
         id="path1269" />
    </marker>
    <marker
       inkscape:isstock="true"
       style="overflow:visible"
       id="marker1261"
       refX="0"
       refY="0"
       orient="auto"
       inkscape:stockid="Arrow1Lend">
      <path
         transform="matrix(-0.8,0,0,-0.8,-10,0)"
         style="fill:#000000;fill-opacity:1;fill-rule:evenodd;stroke:#000000;stroke-width:1pt;stroke-opacity:1"
         d="M 0,0 5,-5 -12.5,0 5,5 Z"
         id="path1259" />
    </marker>
    <marker
       inkscape:isstock="true"
       style="overflow:visible"
       id="marker1251"
       refX="0"
       refY="0"
       orient="auto"
       inkscape:stockid="Arrow1Lend">
      <path
         transform="matrix(-0.8,0,0,-0.8,-10,0)"
         style="fill:#000000;fill-opacity:1;fill-rule:evenodd;stroke:#000000;stroke-width:1pt;stroke-opacity:1"
         d="M 0,0 5,-5 -12.5,0 5,5 Z"
         id="path1249" />
    </marker>
    <marker
       inkscape:isstock="true"
       style="overflow:visible"
       id="marker1241"
       refX="0"
       refY="0"
       orient="auto"
       inkscape:stockid="Arrow1Lend">
      <path
         transform="matrix(-0.8,0,0,-0.8,-10,0)"
         style="fill:#000000;fill-opacity:1;fill-rule:evenodd;stroke:#000000;stroke-width:1pt;stroke-opacity:1"
         d="M 0,0 5,-5 -12.5,0 5,5 Z"
         id="path1239" />
    </marker>
    <marker
       inkscape:isstock="true"
       style="overflow:visible"
       id="marker1231"
       refX="0"
       refY="0"
       orient="auto"
       inkscape:stockid="Arrow1Lend">
      <path
         transform="matrix(-0.8,0,0,-0.8,-10,0)"
         style="fill:#000000;fill-opacity:1;fill-rule:evenodd;stroke:#000000;stroke-width:1pt;stroke-opacity:1"
         d="M 0,0 5,-5 -12.5,0 5,5 Z"
         id="path1229" />
    </marker>
    <marker
       inkscape:isstock="true"
       style="overflow:visible"
       id="marker1221"
       refX="0"
       refY="0"
       orient="auto"
       inkscape:stockid="Arrow1Lend">
      <path
         transform="matrix(-0.8,0,0,-0.8,-10,0)"
         style="fill:#000000;fill-opacity:1;fill-rule:evenodd;stroke:#000000;stroke-width:1pt;stroke-opacity:1"
         d="M 0,0 5,-5 -12.5,0 5,5 Z"
         id="path1219" />
    </marker>
    <marker
       inkscape:isstock="true"
       style="overflow:visible"
       id="marker1211"
       refX="0"
       refY="0"
       orient="auto"
       inkscape:stockid="Arrow1Lend">
      <path
         transform="matrix(-0.8,0,0,-0.8,-10,0)"
         style="fill:#000000;fill-opacity:1;fill-rule:evenodd;stroke:#000000;stroke-width:1pt;stroke-opacity:1"
         d="M 0,0 5,-5 -12.5,0 5,5 Z"
         id="path1209" />
    </marker>
    <marker
       inkscape:isstock="true"
       style="overflow:visible"
       id="marker1201"
       refX="0"
       refY="0"
       orient="auto"
       inkscape:stockid="Arrow1Lend">
      <path
         transform="matrix(-0.8,0,0,-0.8,-10,0)"
         style="fill:#000000;fill-opacity:1;fill-rule:evenodd;stroke:#000000;stroke-width:1pt;stroke-opacity:1"
         d="M 0,0 5,-5 -12.5,0 5,5 Z"
         id="path1199" />
    </marker>
    <marker
       inkscape:isstock="true"
       style="overflow:visible"
       id="marker1191"
       refX="0"
       refY="0"
       orient="auto"
       inkscape:stockid="Arrow1Lend">
      <path
         transform="matrix(-0.8,0,0,-0.8,-10,0)"
         style="fill:#000000;fill-opacity:1;fill-rule:evenodd;stroke:#000000;stroke-width:1pt;stroke-opacity:1"
         d="M 0,0 5,-5 -12.5,0 5,5 Z"
         id="path1189" />
    </marker>
    <marker
       inkscape:isstock="true"
       style="overflow:visible"
       id="marker1181"
       refX="0"
       refY="0"
       orient="auto"
       inkscape:stockid="Arrow1Lend">
      <path
         transform="matrix(-0.8,0,0,-0.8,-10,0)"
         style="fill:#000000;fill-opacity:1;fill-rule:evenodd;stroke:#000000;stroke-width:1pt;stroke-opacity:1"
         d="M 0,0 5,-5 -12.5,0 5,5 Z"
         id="path1179" />
    </marker>
    <marker
       inkscape:isstock="true"
       style="overflow:visible"
       id="marker1171"
       refX="0"
       refY="0"
       orient="auto"
       inkscape:stockid="Arrow1Lend">
      <path
         transform="matrix(-0.8,0,0,-0.8,-10,0)"
         style="fill:#000000;fill-opacity:1;fill-rule:evenodd;stroke:#000000;stroke-width:1pt;stroke-opacity:1"
         d="M 0,0 5,-5 -12.5,0 5,5 Z"
         id="path1169" />
    </marker>
    <g
       id="g9055">
      <symbol
         id="symbol2073"
         overflow="visible">
        <path
           id="path2513"
           d=""
           style="stroke:none" />
      </symbol>
      <symbol
         id="symbol9820"
         overflow="visible">
        <path
           id="path8728"
           d="m 2.375,-2.984375 c 0.03125,-0.125 0.0625,-0.15625 0.1875,-0.171875 0.140625,-0.03125 0.234375,-0.03125 0.375,-0.03125 0.140625,0 0.21875,0 0.21875,-0.125 0,-0.0625 -0.046875,-0.09375 -0.09375,-0.09375 -0.140625,0 -0.28125,0.015625 -0.40625,0.015625 -0.140625,0 -0.28125,0 -0.40625,0 -0.140625,0 -0.265625,0 -0.390625,0 -0.109375,0 -0.25,-0.015625 -0.359375,-0.015625 -0.03125,0 -0.125,0 -0.125,0.140625 0,0.078125 0.078125,0.078125 0.1875,0.078125 0.046875,0 0.21875,0 0.328125,0.03125 0,0.0625 0,0.078125 -0.015625,0.125 l -0.65625,2.625 c -0.046875,0.140625 -0.046875,0.1875 -0.421875,0.1875 -0.140625,0 -0.21875,0 -0.21875,0.140625 C 0.578125,0 0.65625,0 0.75,0 h 2.828125 c 0.125,0 0.125,0 0.171875,-0.109375 0.046875,-0.140625 0.453125,-1.125 0.453125,-1.15625 0,-0.046875 -0.03125,-0.09375 -0.109375,-0.09375 -0.078125,0 -0.078125,0.015625 -0.140625,0.140625 -0.265625,0.640625 -0.578125,1 -1.40625,1 h -0.6875 c -0.046875,0 -0.109375,0 -0.15625,-0.015625 0,-0.046875 0,-0.046875 0.015625,-0.09375 z m 0,0"
           style="stroke:none" />
      </symbol>
      <symbol
         id="symbol9737"
         overflow="visible">
        <path
           id="path534"
           d=""
           style="stroke:none" />
      </symbol>
      <symbol
         id="symbol7315"
         overflow="visible">
        <path
           id="path3142"
           d="m 4.4375,-1.703125 c 0.078125,0 0.203125,0 0.203125,-0.140625 0,-0.140625 -0.15625,-0.140625 -0.21875,-0.140625 h -3.71875 c -0.078125,0 -0.21875,0 -0.21875,0.140625 0,0.140625 0.125,0.140625 0.1875,0.140625 z m -0.015625,1.1875 c 0.0625,0 0.21875,0 0.21875,-0.140625 0,-0.140625 -0.125,-0.140625 -0.203125,-0.140625 H 0.671875 c -0.0625,0 -0.1875,0 -0.1875,0.140625 0,0.140625 0.140625,0.140625 0.21875,0.140625 z m 0,0"
           style="stroke:none" />
      </symbol>
      <symbol
         id="symbol7239"
         overflow="visible">
        <path
           id="path3892"
           d="m 0.984375,-2.75 c 0.25,0.0625 0.484375,0.0625 0.53125,0.0625 0.34375,0 0.59375,-0.09375 0.71875,-0.15625 0.125,-0.0625 0.46875,-0.28125 0.46875,-0.390625 0,-0.078125 -0.0625,-0.078125 -0.078125,-0.078125 -0.015625,0 -0.015625,0 -0.078125,0.015625 -0.1875,0.0625 -0.5,0.140625 -0.828125,0.140625 -0.28125,0 -0.546875,-0.046875 -0.8125,-0.140625 C 0.84375,-3.3125 0.84375,-3.3125 0.828125,-3.3125 0.75,-3.3125 0.75,-3.265625 0.75,-3.1875 v 1.5 c 0,0.09375 0,0.15625 0.109375,0.15625 0.046875,0 0.046875,-0.015625 0.09375,-0.0625 0.1875,-0.21875 0.453125,-0.328125 0.796875,-0.328125 0.28125,0 0.453125,0.15625 0.515625,0.265625 0.109375,0.171875 0.140625,0.390625 0.140625,0.640625 0,0.203125 -0.015625,0.484375 -0.21875,0.671875 -0.21875,0.234375 -0.5,0.25 -0.609375,0.25 -0.328125,0 -0.6875,-0.140625 -0.84375,-0.4375 0.203125,-0.015625 0.28125,-0.15625 0.28125,-0.28125 0,-0.15625 -0.125,-0.28125 -0.28125,-0.28125 -0.109375,0 -0.28125,0.078125 -0.28125,0.296875 0,0.5 0.484375,0.90625 1.125,0.90625 0.75,0 1.359375,-0.5 1.359375,-1.109375 0,-0.5625 -0.484375,-1.09375 -1.171875,-1.09375 -0.3125,0 -0.578125,0.078125 -0.78125,0.25 z m 0,0"
           style="stroke:none" />
      </symbol>
      <symbol
         id="symbol9113"
         overflow="visible">
        <path
           id="path6482"
           d="M 3,-1.59375 C 3,-1.953125 3,-3.3125 1.6875,-3.3125 c -1.296875,0 -1.296875,1.359375 -1.296875,1.71875 0,0.359375 0,1.703125 1.296875,1.703125 C 3,0.109375 3,-1.234375 3,-1.59375 Z M 1.6875,-0.0625 C 1.515625,-0.0625 1.09375,-0.125 0.96875,-0.625 0.890625,-0.890625 0.890625,-1.25 0.890625,-1.65625 c 0,-0.375 0,-0.71875 0.078125,-1 0.125,-0.421875 0.515625,-0.5 0.71875,-0.5 0.375,0 0.640625,0.1875 0.734375,0.546875 C 2.5,-2.359375 2.5,-1.953125 2.5,-1.65625 c 0,0.34375 0,0.75 -0.078125,1.046875 C 2.296875,-0.125 1.890625,-0.0625 1.6875,-0.0625 Z m 0,0"
           style="stroke:none" />
      </symbol>
    </g>
    <g
       id="g7851">
      <symbol
         id="symbol1835"
         overflow="visible">
        <path
           id="path2084"
           d=""
           style="stroke:none" />
      </symbol>
      <symbol
         id="symbol594"
         overflow="visible">
        <path
           id="path5758"
           d="m 1.21875,-0.40625 c -0.03125,0.140625 -0.03125,0.1875 -0.421875,0.1875 -0.125,0 -0.203125,0 -0.203125,0.140625 C 0.59375,0 0.671875,0 0.75,0 H 2.765625 C 3.9375,0 5.125,-0.953125 5.125,-2.046875 5.125,-2.875 4.46875,-3.40625 3.609375,-3.40625 H 1.5625 c -0.09375,0 -0.171875,0 -0.171875,0.140625 0,0.078125 0.0625,0.078125 0.1875,0.078125 0.046875,0 0.21875,0 0.3125,0.03125 0,0.0625 0,0.078125 -0.015625,0.125 z M 2.375,-3.015625 C 2.421875,-3.171875 2.421875,-3.1875 2.625,-3.1875 h 0.796875 c 0.34375,0 0.671875,0.09375 0.890625,0.28125 0.171875,0.171875 0.28125,0.375 0.28125,0.71875 0,0.3125 -0.109375,0.953125 -0.484375,1.375 -0.375,0.40625 -0.921875,0.59375 -1.4375,0.59375 H 1.84375 c -0.03125,0 -0.109375,0 -0.15625,-0.015625 0,-0.046875 0,-0.0625 0.015625,-0.09375 z m 0,0"
           style="stroke:none" />
      </symbol>
    </g>
    <g
       id="g6879">
      <symbol
         id="symbol1216"
         overflow="visible">
        <path
           id="path3186"
           d=""
           style="stroke:none" />
      </symbol>
      <symbol
         id="symbol4674"
         overflow="visible">
        <path
           id="path2127"
           d="m 1.234375,-0.40625 c -0.03125,0.140625 -0.046875,0.1875 -0.421875,0.1875 -0.125,0 -0.203125,0 -0.203125,0.140625 C 0.609375,0 0.6875,0 0.765625,0 H 2.9375 c 0.890625,0 1.625,-0.5625 1.625,-1.0625 0,-0.296875 -0.296875,-0.640625 -0.96875,-0.71875 0.5,-0.0625 1.203125,-0.390625 1.203125,-0.890625 0,-0.421875 -0.5,-0.734375 -1.171875,-0.734375 H 1.578125 c -0.09375,0 -0.171875,0 -0.171875,0.140625 0,0.078125 0.0625,0.078125 0.171875,0.078125 0.0625,0 0.21875,0 0.328125,0.03125 0,0.0625 0,0.078125 -0.015625,0.125 z M 2.078125,-1.859375 2.375,-3.015625 C 2.40625,-3.171875 2.40625,-3.1875 2.609375,-3.1875 H 3.53125 c 0.484375,0 0.71875,0.265625 0.71875,0.53125 0,0.390625 -0.53125,0.796875 -1.234375,0.796875 z M 1.84375,-0.21875 c -0.046875,0 -0.109375,0 -0.15625,-0.015625 0,-0.046875 0,-0.046875 0,-0.09375 L 2.03125,-1.6875 H 3.25 c 0.515625,0 0.765625,0.296875 0.765625,0.609375 0,0.484375 -0.59375,0.859375 -1.21875,0.859375 z m 0,0"
           style="stroke:none" />
      </symbol>
    </g>
    <g
       id="g8596">
      <symbol
         id="symbol4893"
         overflow="visible">
        <path
           id="path7194"
           d=""
           style="stroke:none" />
      </symbol>
      <symbol
         id="symbol7576"
         overflow="visible">
        <path
           id="path9244"
           d="M 2.984375,-2.015625 C 3,-2.078125 3,-2.09375 3,-2.125 3,-2.1875 2.9375,-2.203125 2.921875,-2.203125 2.859375,-2.203125 2.625,-2 2.546875,-1.875 c -0.09375,-0.140625 -0.28125,-0.328125 -0.625,-0.328125 -0.6875,0 -1.390625,0.671875 -1.390625,1.390625 0,0.515625 0.375,0.875 0.859375,0.875 0.3125,0 0.5625,-0.15625 0.703125,-0.28125 C 2.015625,0.15625 1.890625,0.609375 1.890625,0.625 1.859375,0.703125 1.84375,0.734375 1.53125,0.75 c -0.09375,0 -0.171875,0 -0.171875,0.125 0,0.03125 0.015625,0.09375 0.09375,0.09375 0.078125,0 0.1875,-0.015625 0.28125,-0.015625 0.09375,0 0.1875,0 0.296875,0 0.09375,0 0.1875,0 0.28125,0 0.09375,0 0.203125,0.015625 0.296875,0.015625 0.078125,0 0.125,-0.03125 0.125,-0.140625 C 2.734375,0.75 2.65625,0.75 2.59375,0.75 c -0.171875,0 -0.28125,0 -0.28125,-0.0625 0,-0.015625 0,-0.03125 0.03125,-0.109375 z M 2.203125,-0.65625 C 2.1875,-0.578125 2.1875,-0.5625 2.09375,-0.46875 1.875,-0.234375 1.609375,-0.109375 1.421875,-0.109375 c -0.171875,0 -0.4375,-0.09375 -0.4375,-0.515625 0,-0.203125 0.09375,-0.671875 0.25,-0.953125 0.15625,-0.265625 0.4375,-0.453125 0.6875,-0.453125 0.421875,0 0.515625,0.40625 0.515625,0.4375 0,0.03125 0,0.0625 -0.015625,0.078125 z m 0,0"
           style="stroke:none" />
      </symbol>
      <symbol
         id="symbol5106"
         overflow="visible">
        <path
           id="path4012"
           d="m 3.09375,-1.953125 c -0.234375,0.0625 -0.234375,0.28125 -0.234375,0.296875 0,0.078125 0.0625,0.203125 0.234375,0.203125 0.140625,0 0.3125,-0.125 0.3125,-0.34375 0,-0.296875 -0.328125,-0.40625 -0.59375,-0.40625 -0.328125,0 -0.546875,0.203125 -0.640625,0.34375 -0.15625,-0.28125 -0.484375,-0.34375 -0.65625,-0.34375 -0.625,0 -0.984375,0.59375 -0.984375,0.765625 0,0.078125 0.078125,0.078125 0.109375,0.078125 0.046875,0 0.078125,0 0.109375,-0.0625 0.140625,-0.484375 0.546875,-0.609375 0.734375,-0.609375 0.171875,0 0.359375,0.0625 0.359375,0.328125 0,0.125 -0.09375,0.46875 -0.265625,1.140625 -0.0625,0.28125 -0.296875,0.453125 -0.515625,0.453125 -0.03125,0 -0.171875,0 -0.296875,-0.078125 0.21875,-0.09375 0.21875,-0.28125 0.21875,-0.296875 0,-0.140625 -0.109375,-0.203125 -0.21875,-0.203125 -0.125,0 -0.296875,0.09375 -0.296875,0.328125 0,0.3125 0.328125,0.421875 0.59375,0.421875 0.265625,0 0.5,-0.171875 0.609375,-0.34375 C 1.875,0.015625 2.1875,0.0625 2.34375,0.0625 c 0.625,0 0.984375,-0.59375 0.984375,-0.78125 0,-0.0625 -0.078125,-0.0625 -0.109375,-0.0625 -0.078125,0 -0.09375,0.03125 -0.109375,0.0625 C 2.96875,-0.265625 2.59375,-0.109375 2.375,-0.109375 c -0.15625,0 -0.359375,-0.0625 -0.359375,-0.34375 0,-0.0625 0,-0.09375 0.03125,-0.265625 0.09375,-0.34375 0.21875,-0.890625 0.265625,-0.984375 0.0625,-0.125 0.234375,-0.328125 0.484375,-0.328125 0.015625,0 0.1875,0 0.296875,0.078125 z m 0,0"
           style="stroke:none" />
      </symbol>
      <symbol
         id="symbol8426"
         overflow="visible">
        <path
           id="path7207"
           d="m 1.34375,-0.0625 c 0,0.46875 -0.25,0.75 -0.390625,0.859375 -0.046875,0.03125 -0.0625,0.046875 -0.0625,0.078125 0,0.03125 0.046875,0.09375 0.09375,0.09375 0.0625,0 0.53125,-0.390625 0.53125,-1.015625 0,-0.34375 -0.15625,-0.5625 -0.375,-0.5625 -0.1875,0 -0.296875,0.15625 -0.296875,0.3125 C 0.84375,-0.140625 0.953125,0 1.140625,0 1.21875,0 1.296875,-0.015625 1.34375,-0.0625 Z m 0,0"
           style="stroke:none" />
      </symbol>
      <symbol
         id="symbol6409"
         overflow="visible">
        <path
           id="path5916"
           d="m 1.5625,-1.921875 h 0.59375 c 0.109375,0 0.109375,0 0.125,-0.03125 C 2.3125,-1.96875 2.328125,-2.03125 2.328125,-2.0625 2.328125,-2.140625 2.25,-2.140625 2.171875,-2.140625 H 1.625 L 1.71875,-2.5625 C 1.75,-2.6875 1.8125,-2.921875 1.8125,-2.953125 1.8125,-3.03125 1.75,-3.125 1.625,-3.125 c -0.078125,0 -0.203125,0.0625 -0.234375,0.1875 -0.03125,0.09375 0.03125,-0.140625 -0.203125,0.796875 H 0.59375 c -0.09375,0 -0.171875,0 -0.171875,0.125 0,0.09375 0.0625,0.09375 0.15625,0.09375 H 1.125 L 0.84375,-0.75 c -0.03125,0.109375 -0.078125,0.265625 -0.078125,0.328125 0,0.28125 0.265625,0.484375 0.625,0.484375 0.59375,0 0.96875,-0.6875 0.96875,-0.78125 0,-0.0625 -0.09375,-0.0625 -0.109375,-0.0625 -0.078125,0 -0.09375,0.015625 -0.109375,0.078125 -0.171875,0.359375 -0.46875,0.59375 -0.734375,0.59375 -0.15625,0 -0.203125,-0.125 -0.203125,-0.265625 0,-0.078125 0,-0.09375 0.015625,-0.140625 z m 0,0"
           style="stroke:none" />
      </symbol>
      <symbol
         id="symbol6960"
         overflow="visible">
        <path
           id="path2622"
           d=""
           style="stroke:none" />
      </symbol>
      <symbol
         id="symbol8595"
         overflow="visible">
        <path
           id="path2569"
           d="m 2.203125,-3.625 c 0,0 0.015625,-0.015625 0.015625,-0.046875 0,-0.015625 -0.015625,-0.0625 -0.09375,-0.0625 -0.09375,0 -1.375,0.796875 -1.375,2.484375 0,1.6875 1.28125,2.5 1.375,2.5 0.078125,0 0.09375,-0.046875 0.09375,-0.078125 C 2.21875,1.140625 2.1875,1.125 2.171875,1.109375 1.296875,0.40625 1.125,-0.609375 1.125,-1.25 c 0,-1.21875 0.5625,-2.015625 1.078125,-2.375 z m 0,0"
           style="stroke:none" />
      </symbol>
      <symbol
         id="symbol6553"
         overflow="visible">
        <path
           id="path2267"
           d="m 1.953125,-1.25 c 0,-1.6875 -1.28125,-2.484375 -1.390625,-2.484375 -0.078125,0 -0.078125,0.0625 -0.078125,0.0625 0,0.015625 0,0.03125 0.03125,0.0625 0.75,0.59375 1.046875,1.46875 1.046875,2.359375 0,0.453125 -0.078125,0.921875 -0.25,1.328125 C 1.078125,0.640625 0.75,0.921875 0.515625,1.125 0.5,1.125 0.484375,1.15625 0.484375,1.171875 c 0,0.015625 0,0.078125 0.078125,0.078125 0.109375,0 1.390625,-0.796875 1.390625,-2.5 z m 0,0"
           style="stroke:none" />
      </symbol>
    </g>
    <g
       id="g4920">
      <symbol
         id="symbol4060"
         overflow="visible">
        <path
           id="path8504"
           d=""
           style="stroke:none;" />
      </symbol>
      <symbol
         id="symbol1066"
         overflow="visible">
        <path
           id="path1290"
           d="M 2.984375 -2.015625 C 3 -2.078125 3 -2.09375 3 -2.125 C 3 -2.1875 2.9375 -2.203125 2.921875 -2.203125 C 2.859375 -2.203125 2.625 -2 2.546875 -1.875 C 2.453125 -2.015625 2.265625 -2.203125 1.921875 -2.203125 C 1.234375 -2.203125 0.53125 -1.53125 0.53125 -0.8125 C 0.53125 -0.296875 0.90625 0.0625 1.390625 0.0625 C 1.703125 0.0625 1.953125 -0.09375 2.09375 -0.21875 C 2.015625 0.15625 1.890625 0.609375 1.890625 0.625 C 1.859375 0.703125 1.84375 0.734375 1.53125 0.75 C 1.4375 0.75 1.359375 0.75 1.359375 0.875 C 1.359375 0.90625 1.375 0.96875 1.453125 0.96875 C 1.53125 0.96875 1.640625 0.953125 1.734375 0.953125 C 1.828125 0.953125 1.921875 0.953125 2.03125 0.953125 C 2.125 0.953125 2.21875 0.953125 2.3125 0.953125 C 2.40625 0.953125 2.515625 0.96875 2.609375 0.96875 C 2.6875 0.96875 2.734375 0.9375 2.734375 0.828125 C 2.734375 0.75 2.65625 0.75 2.59375 0.75 C 2.421875 0.75 2.3125 0.75 2.3125 0.6875 C 2.3125 0.671875 2.3125 0.65625 2.34375 0.578125 Z M 2.203125 -0.65625 C 2.1875 -0.578125 2.1875 -0.5625 2.09375 -0.46875 C 1.875 -0.234375 1.609375 -0.109375 1.421875 -0.109375 C 1.25 -0.109375 0.984375 -0.203125 0.984375 -0.625 C 0.984375 -0.828125 1.078125 -1.296875 1.234375 -1.578125 C 1.390625 -1.84375 1.671875 -2.03125 1.921875 -2.03125 C 2.34375 -2.03125 2.4375 -1.625 2.4375 -1.59375 C 2.4375 -1.5625 2.4375 -1.53125 2.421875 -1.515625 Z M 2.203125 -0.65625 "
           style="stroke:none;" />
      </symbol>
      <symbol
         id="symbol5298"
         overflow="visible">
        <path
           id="path1577"
           d="M 3.296875 -1.859375 C 3.3125 -1.9375 3.3125 -1.96875 3.3125 -1.96875 C 3.3125 -2.078125 3.234375 -2.140625 3.140625 -2.140625 C 2.9375 -2.140625 2.890625 -1.96875 2.859375 -1.84375 L 2.75 -1.421875 L 2.609375 -0.796875 C 2.578125 -0.734375 2.5625 -0.640625 2.546875 -0.609375 C 2.546875 -0.578125 2.28125 -0.109375 1.859375 -0.109375 C 1.625 -0.109375 1.453125 -0.21875 1.453125 -0.546875 C 1.453125 -0.8125 1.59375 -1.1875 1.734375 -1.546875 C 1.765625 -1.59375 1.796875 -1.6875 1.796875 -1.765625 C 1.796875 -2.015625 1.5625 -2.203125 1.25 -2.203125 C 0.734375 -2.203125 0.453125 -1.5625 0.453125 -1.4375 C 0.453125 -1.359375 0.53125 -1.359375 0.5625 -1.359375 C 0.640625 -1.359375 0.640625 -1.390625 0.671875 -1.453125 C 0.78125 -1.796875 1.015625 -2.03125 1.234375 -2.03125 C 1.328125 -2.03125 1.390625 -1.984375 1.390625 -1.84375 C 1.390625 -1.75 1.359375 -1.671875 1.328125 -1.578125 C 1.078125 -0.984375 1.03125 -0.8125 1.03125 -0.609375 C 1.03125 -0.0625 1.5 0.0625 1.828125 0.0625 C 2.109375 0.0625 2.328125 -0.078125 2.453125 -0.1875 C 2.375 0.09375 2.328125 0.3125 2.09375 0.546875 C 1.96875 0.65625 1.734375 0.859375 1.4375 0.859375 C 1.34375 0.859375 1.15625 0.84375 1.046875 0.734375 C 1.265625 0.671875 1.296875 0.484375 1.296875 0.4375 C 1.296875 0.296875 1.171875 0.234375 1.078125 0.234375 C 0.921875 0.234375 0.75 0.34375 0.75 0.578125 C 0.75 0.828125 1.015625 1.015625 1.4375 1.015625 C 2 1.015625 2.671875 0.640625 2.828125 0 Z M 3.296875 -1.859375 "
           style="stroke:none;" />
      </symbol>
      <symbol
         id="symbol2671"
         overflow="visible">
        <path
           id="path8726"
           d="M 1.34375 -0.0625 C 1.34375 0.40625 1.09375 0.6875 0.953125 0.796875 C 0.90625 0.828125 0.890625 0.84375 0.890625 0.875 C 0.890625 0.90625 0.9375 0.96875 0.984375 0.96875 C 1.046875 0.96875 1.515625 0.578125 1.515625 -0.046875 C 1.515625 -0.390625 1.359375 -0.609375 1.140625 -0.609375 C 0.953125 -0.609375 0.84375 -0.453125 0.84375 -0.296875 C 0.84375 -0.140625 0.953125 0 1.140625 0 C 1.21875 0 1.296875 -0.015625 1.34375 -0.0625 Z M 1.34375 -0.0625 "
           style="stroke:none;" />
      </symbol>
      <symbol
         id="symbol2334"
         overflow="visible">
        <path
           id="path7568"
           d="M 1.5625 -1.921875 L 2.15625 -1.921875 C 2.265625 -1.921875 2.265625 -1.921875 2.28125 -1.953125 C 2.3125 -1.96875 2.328125 -2.03125 2.328125 -2.0625 C 2.328125 -2.140625 2.25 -2.140625 2.171875 -2.140625 L 1.625 -2.140625 L 1.71875 -2.5625 C 1.75 -2.6875 1.8125 -2.921875 1.8125 -2.953125 C 1.8125 -3.03125 1.75 -3.125 1.625 -3.125 C 1.546875 -3.125 1.421875 -3.0625 1.390625 -2.9375 C 1.359375 -2.84375 1.421875 -3.078125 1.1875 -2.140625 L 0.59375 -2.140625 C 0.5 -2.140625 0.421875 -2.140625 0.421875 -2.015625 C 0.421875 -1.921875 0.484375 -1.921875 0.578125 -1.921875 L 1.125 -1.921875 L 0.84375 -0.75 C 0.8125 -0.640625 0.765625 -0.484375 0.765625 -0.421875 C 0.765625 -0.140625 1.03125 0.0625 1.390625 0.0625 C 1.984375 0.0625 2.359375 -0.625 2.359375 -0.71875 C 2.359375 -0.78125 2.265625 -0.78125 2.25 -0.78125 C 2.171875 -0.78125 2.15625 -0.765625 2.140625 -0.703125 C 1.96875 -0.34375 1.671875 -0.109375 1.40625 -0.109375 C 1.25 -0.109375 1.203125 -0.234375 1.203125 -0.375 C 1.203125 -0.453125 1.203125 -0.46875 1.21875 -0.515625 Z M 1.5625 -1.921875 "
           style="stroke:none;" />
      </symbol>
      <symbol
         id="symbol8181"
         overflow="visible">
        <path
           id="path2312"
           d=""
           style="stroke:none;" />
      </symbol>
      <symbol
         id="symbol9323"
         overflow="visible">
        <path
           id="path3927"
           d="M 2.203125 -3.625 C 2.203125 -3.625 2.21875 -3.640625 2.21875 -3.671875 C 2.21875 -3.6875 2.203125 -3.734375 2.125 -3.734375 C 2.03125 -3.734375 0.75 -2.9375 0.75 -1.25 C 0.75 0.4375 2.03125 1.25 2.125 1.25 C 2.203125 1.25 2.21875 1.203125 2.21875 1.171875 C 2.21875 1.140625 2.1875 1.125 2.171875 1.109375 C 1.296875 0.40625 1.125 -0.609375 1.125 -1.25 C 1.125 -2.46875 1.6875 -3.265625 2.203125 -3.625 Z M 2.203125 -3.625 "
           style="stroke:none;" />
      </symbol>
      <symbol
         id="symbol3507"
         overflow="visible">
        <path
           id="path6243"
           d="M 1.953125 -1.25 C 1.953125 -2.9375 0.671875 -3.734375 0.5625 -3.734375 C 0.484375 -3.734375 0.484375 -3.671875 0.484375 -3.671875 C 0.484375 -3.65625 0.484375 -3.640625 0.515625 -3.609375 C 1.265625 -3.015625 1.5625 -2.140625 1.5625 -1.25 C 1.5625 -0.796875 1.484375 -0.328125 1.3125 0.078125 C 1.078125 0.640625 0.75 0.921875 0.515625 1.125 C 0.5 1.125 0.484375 1.15625 0.484375 1.171875 C 0.484375 1.1875 0.484375 1.25 0.5625 1.25 C 0.671875 1.25 1.953125 0.453125 1.953125 -1.25 Z M 1.953125 -1.25 "
           style="stroke:none;" />
      </symbol>
    </g>
  </defs>
  <sodipodi:namedview
     viewbox-y="20"
     id="base"
     pagecolor="#ffffff"
     bordercolor="#666666"
     borderopacity="1.0"
     inkscape:pageopacity="0.0"
     inkscape:pageshadow="2"
     inkscape:zoom="1.6970265"
     inkscape:cx="296.06906"
     inkscape:cy="191.04823"
     inkscape:document-units="mm"
     inkscape:current-layer="g8778"
     inkscape:document-rotation="0"
     showgrid="true"
     inkscape:snap-grids="false"
     inkscape:window-width="3840"
     inkscape:window-height="1537"
     inkscape:window-x="-8"
     inkscape:window-y="-8"
     inkscape:window-maximized="1">
    <inkscape:grid
       type="xygrid"
       id="grid833"
       units="mm"
       spacingx="5"
       spacingy="5"
       empspacing="2" />
  </sodipodi:namedview>
  <metadata
     id="metadata5">
    <rdf:RDF>
      <cc:Work
         rdf:about="">
        <dc:format>image/svg+xml</dc:format>
        <dc:type
           rdf:resource="http://purl.org/dc/dcmitype/StillImage" />
        <dc:title />
      </cc:Work>
    </rdf:RDF>
  </metadata>
  <g
     inkscape:label="Lag 1"
     inkscape:groupmode="layer"
     id="layer1">
    <path
       style="fill:none;stroke:#000000;stroke-width:0.264583px;stroke-linecap:butt;stroke-linejoin:miter;stroke-opacity:1"
       d="M 20,30 V 59.999998"
       id="path837" />
    <path
       style="fill:none;stroke:#000000;stroke-width:0.264583px;stroke-linecap:butt;stroke-linejoin:miter;stroke-opacity:1"
       d="M 89.999999,59.999998 V 30 L 110,45"
       id="path839" />
    <path
       style="fill:none;stroke:#000000;stroke-width:0.264583px;stroke-linecap:butt;stroke-linejoin:miter;stroke-opacity:1"
       d="M 0,44.999999 20,30 c 20,15 50,15 70,0"
       id="path841"
       sodipodi:nodetypes="ccc" />
    <path
       style="fill:none;stroke:#000000;stroke-width:0.285419px;stroke-linecap:butt;stroke-linejoin:miter;stroke-opacity:1"
       d="M 25,33.362945 V 44.999999"
       id="path843" />
    <path
       style="fill:none;stroke:#000000;stroke-width:0.264583px;stroke-linecap:butt;stroke-linejoin:miter;stroke-opacity:1"
       d="M 20,44.999999 H 89.999999"
       id="path845" />
    <path
       style="fill:none;stroke:#000000;stroke-width:0.264583px;stroke-linecap:butt;stroke-linejoin:miter;stroke-opacity:1"
       d="m 30,44.999999 5.3e-4,-9.087694"
       id="path847" />
    <path
       style="fill:none;stroke:#000000;stroke-width:0.264583px;stroke-linecap:butt;stroke-linejoin:miter;stroke-opacity:1"
       d="m 35.016564,45.021296 -0.04134,-7.138363"
       id="path849" />
    <path
       style="fill:none;stroke:#000000;stroke-width:0.264583px;stroke-linecap:butt;stroke-linejoin:miter;stroke-opacity:1"
       d="M 39.991368,45.007516 V 39.385023"
       id="path851" />
    <path
       style="fill:none;stroke:#000000;stroke-width:0.264583px;stroke-linecap:butt;stroke-linejoin:miter;stroke-opacity:1"
       d="m 45.035078,44.993737 -0.02756,-4.547608"
       id="path853" />
    <path
       style="fill:none;stroke:#000000;stroke-width:0.264583px;stroke-linecap:butt;stroke-linejoin:miter;stroke-opacity:1"
       d="M 50.00812,45.028744 V 41.057912"
       id="path855" />
    <path
       style="fill:none;stroke:#000000;stroke-width:0.264583px;stroke-linecap:butt;stroke-linejoin:miter;stroke-opacity:1"
       d="m 55.002109,45.014128 -0.0049,-3.766201"
       id="path857" />
    <path
       style="fill:none;stroke:#000000;stroke-width:0.264583px;stroke-linecap:butt;stroke-linejoin:miter;stroke-opacity:1"
       d="M 60.000972,45.009255 V 41.07253"
       id="path859" />
    <path
       style="fill:none;stroke:#000000;stroke-width:0.264583px;stroke-linecap:butt;stroke-linejoin:miter;stroke-opacity:1"
       d="m 65.009579,45.014128 -0.0097,-4.574982"
       id="path861" />
    <path
       style="fill:none;stroke:#000000;stroke-width:0.264583px;stroke-linecap:butt;stroke-linejoin:miter;stroke-opacity:1"
       d="M 69.991787,45.021296 V 39.440143"
       id="path863" />
    <path
       style="fill:none;stroke:#000000;stroke-width:0.264583px;stroke-linecap:butt;stroke-linejoin:miter;stroke-opacity:1"
       d="m 74.994153,44.979955 0.01378,-7.124581"
       id="path865" />
    <path
       style="fill:none;stroke:#000000;stroke-width:0.264583px;stroke-linecap:butt;stroke-linejoin:miter;stroke-opacity:1"
       d="m 79.996518,45.021296 0.01378,-9.108991"
       id="path867" />
    <path
       style="fill:none;stroke:#000000;stroke-width:0.264583px;stroke-linecap:butt;stroke-linejoin:miter;stroke-opacity:1"
       d="M 85.00016,45.028744 V 33.228309"
       id="path869" />
    <path
       style="fill:none;stroke:#000000;stroke-width:0.264583px;stroke-linecap:butt;stroke-linejoin:miter;stroke-opacity:1"
       d="M 89.999999,75.291669 H 20 v 5.000001 c 8.281474,1.638958 11.928393,-2.108129 17.839577,-0.854561 1.432537,0.303795 4.84712,0.367107 8.699865,-0.454164 2.482051,-0.529087 10.33359,1.381693 17.816094,0.706838 C 74.2162,78.80044 85.520406,79.399194 90,80.29167 Z"
       id="path871"
       sodipodi:nodetypes="cccssscc" />
    <path
       style="fill:none;stroke:#000000;stroke-width:0.1;stroke-linecap:butt;stroke-linejoin:miter;stroke-miterlimit:4;stroke-dasharray:none;stroke-opacity:1;marker-end:url(#marker1171)"
       d="m 24.991161,80.719914 0.02067,-5.402006"
       id="path873" />
    <path
       style="fill:none;stroke:#000000;stroke-width:0.1;stroke-linecap:butt;stroke-linejoin:miter;stroke-miterlimit:4;stroke-dasharray:none;stroke-opacity:1;marker-end:url(#marker1181)"
       d="M 30.000419,79.996429 V 75.290346"
       id="path875" />
    <path
       style="fill:none;stroke:#000000;stroke-width:0.1;stroke-linecap:butt;stroke-linejoin:miter;stroke-miterlimit:4;stroke-dasharray:none;stroke-opacity:1;marker-end:url(#marker1191)"
       d="m 35.009674,79.197155 -0.0069,-3.899919"
       id="path877" />
    <path
       style="fill:none;stroke:#000000;stroke-width:0.1;stroke-linecap:butt;stroke-linejoin:miter;stroke-miterlimit:4;stroke-dasharray:none;stroke-opacity:1;marker-end:url(#marker1201)"
       d="M 40.01204,79.638133 39.99138,75.290346"
       id="path879" />
    <path
       style="fill:none;stroke:#000000;stroke-width:0.1;stroke-linecap:butt;stroke-linejoin:miter;stroke-miterlimit:4;stroke-dasharray:none;stroke-opacity:1;marker-end:url(#marker1211)"
       d="M 45.007516,79.286727 V 75.255895"
       id="path881" />
    <path
       style="fill:none;stroke:#000000;stroke-width:0.1;stroke-linecap:butt;stroke-linejoin:miter;stroke-miterlimit:4;stroke-dasharray:none;stroke-opacity:1;marker-end:url(#marker1221)"
       d="m 50.009882,79.045567 -0.0069,-3.796562"
       id="path883" />
    <path
       style="fill:none;stroke:#000000;stroke-width:0.1;stroke-linecap:butt;stroke-linejoin:miter;stroke-miterlimit:4;stroke-dasharray:none;stroke-opacity:1;marker-end:url(#marker1231)"
       d="m 55.012248,79.555451 0.0069,-4.271994"
       id="path885" />
    <path
       style="fill:none;stroke:#000000;stroke-width:0.1;stroke-linecap:butt;stroke-linejoin:miter;stroke-miterlimit:4;stroke-dasharray:none;stroke-opacity:1;marker-end:url(#marker1241)"
       d="m 59.993945,79.837952 0.01378,-4.588947"
       id="path887" />
    <path
       style="fill:none;stroke:#000000;stroke-width:0.1;stroke-linecap:butt;stroke-linejoin:miter;stroke-miterlimit:4;stroke-dasharray:none;stroke-opacity:1;marker-end:url(#marker1251)"
       d="m 65.016982,79.658805 -0.01378,-4.416689"
       id="path889" />
    <path
       style="fill:none;stroke:#000000;stroke-width:0.1;stroke-linecap:butt;stroke-linejoin:miter;stroke-miterlimit:4;stroke-dasharray:none;stroke-opacity:1;marker-end:url(#marker1261)"
       d="m 70.005566,79.390084 -0.01378,-4.127299"
       id="path891" />
    <path
       style="fill:none;stroke:#000000;stroke-width:0.1;stroke-linecap:butt;stroke-linejoin:miter;stroke-miterlimit:4;stroke-dasharray:none;stroke-opacity:1;marker-end:url(#marker1271)"
       d="m 75.001042,79.259165 -0.0069,-3.989488"
       id="path893" />
    <path
       style="fill:none;stroke:#000000;stroke-width:0.1;stroke-linecap:butt;stroke-linejoin:miter;stroke-miterlimit:4;stroke-dasharray:none;stroke-opacity:1;marker-end:url(#marker1281)"
       d="M 80.02408,79.383191 80.00342,75.283457"
       id="path895" />
    <path
       style="fill:none;stroke:#000000;stroke-width:0.1;stroke-linecap:butt;stroke-linejoin:miter;stroke-miterlimit:4;stroke-dasharray:none;stroke-opacity:1;marker-end:url(#marker1291)"
       d="M 85.005777,79.638133 V 75.269677"
       id="path897" />
    <path
       style="fill:none;stroke:#000000;stroke-width:0.264583px;stroke-linecap:butt;stroke-linejoin:miter;stroke-opacity:1"
       d="M 20,69.999999 H 89.999999"
       id="path2163" />
    <path
       style="fill:none;stroke:#000000;stroke-width:0.264583px;stroke-linecap:butt;stroke-linejoin:miter;stroke-opacity:1"
       d="m 19.999999,69.999999 -2,1.999999 h 4 z"
       id="path2243" />
    <path
       style="fill:none;stroke:#000000;stroke-width:0.264583px;stroke-linecap:butt;stroke-linejoin:miter;stroke-opacity:1"
       d="m 89.999999,69.999999 -2.000001,1.999999 h 3.999999 l -1.999998,-1.999999"
       id="path2245" />
    <path
       style="fill:none;stroke:#000000;stroke-width:0.264583px;stroke-linecap:butt;stroke-linejoin:miter;stroke-opacity:1"
       d="M 17.999999,71.999998 17,72.999999"
       id="path2247" />
    <path
       style="fill:none;stroke:#000000;stroke-width:0.264583px;stroke-linecap:butt;stroke-linejoin:miter;stroke-opacity:1"
       d="m 19,71.999998 -1.000001,1.000001"
       id="path2249" />
    <path
       style="fill:none;stroke:#000000;stroke-width:0.264583px;stroke-linecap:butt;stroke-linejoin:miter;stroke-opacity:1"
       d="M 19.999999,71.999998 19,72.999999"
       id="path2251" />
    <path
       style="fill:none;stroke:#000000;stroke-width:0.264583px;stroke-linecap:butt;stroke-linejoin:miter;stroke-opacity:1"
       d="m 21,71.999998 -1.000001,1.000001"
       id="path2253" />
    <path
       style="fill:none;stroke:#000000;stroke-width:0.264583px;stroke-linecap:butt;stroke-linejoin:miter;stroke-opacity:1"
       d="M 21.999999,71.999998 21,72.999999"
       id="path2255" />
    <path
       style="fill:none;stroke:#000000;stroke-width:0.264583px;stroke-linecap:butt;stroke-linejoin:miter;stroke-opacity:1"
       d="m 87.999998,72.999999 h 3.999999"
       id="path2257" />
    <path
       style="fill:none;stroke:#000000;stroke-width:0.264583px;stroke-linecap:butt;stroke-linejoin:miter;stroke-opacity:1;marker-start:url(#Arrow1Lstart);marker-end:url(#marker2263)"
       d="M 20,89.999999 H 89.999999"
       id="path2259" />
    <path
       id="path992"
       d="m 112,64.999999 h 18 l 6,-2.5 L 130,60 h -18 l -6,2.499999 z"
       style="fill:#ff9955;fill-opacity:1;stroke:#000000;stroke-width:0.144918px;stroke-linecap:butt;stroke-linejoin:miter;stroke-opacity:1" />
    <path
       id="path994"
       d="m 140,59.999998 v 5.000001"
       style="fill:none;stroke:#000000;stroke-width:0.15;stroke-linecap:butt;stroke-linejoin:miter;stroke-miterlimit:4;stroke-dasharray:none;stroke-opacity:1;marker-start:url(#marker1254);marker-end:url(#marker1384)" />
    <path
       id="path996"
       d="m 105.72494,72.623842 30.31738,0.02756"
       style="fill:none;stroke:#000000;stroke-width:0.15;stroke-linecap:butt;stroke-linejoin:miter;stroke-miterlimit:4;stroke-dasharray:none;stroke-opacity:1;marker-start:url(#marker1112);marker-end:url(#marker1000)" />
    <g
       inkscape:label=""
       transform="translate(-251.36771,-4.68617)"
       id="g1662">
      <g
         id="g801">
        <g
           id="g761"
           style="fill:#000000;fill-opacity:1">
          <use
             height="100%"
             width="100%"
             id="use5718"
             y="93.917999"
             x="293.93799"
             xlink:href="#symbol9820" />
        </g>
        <g
           id="g9660"
           style="fill:#000000;fill-opacity:1">
          <use
             height="100%"
             width="100%"
             id="use9971"
             y="93.917999"
             x="300.73499"
             xlink:href="#symbol7315" />
        </g>
        <g
           id="g6373"
           style="fill:#000000;fill-opacity:1">
          <use
             height="100%"
             width="100%"
             id="use1386"
             y="93.917999"
             x="307.89212"
             xlink:href="#symbol7239" />
          <use
             height="100%"
             width="100%"
             id="use7002"
             y="93.917999"
             x="311.28241"
             xlink:href="#symbol9113" />
          <use
             height="100%"
             width="100%"
             id="use848"
             y="93.917999"
             x="314.67267"
             xlink:href="#symbol9113" />
        </g>
      </g>
    </g>
    <g
       inkscape:label=""
       transform="translate(-161.67242,-29.6605)"
       id="g1807">
      <g
         id="g6346">
        <g
           id="g119"
           style="fill:#000000;fill-opacity:1">
          <use
             height="100%"
             width="100%"
             id="use5077"
             y="93.917999"
             x="303.14899"
             xlink:href="#symbol594" />
        </g>
      </g>
    </g>
    <g
       inkscape:label=""
       transform="translate(-184.88183,-22.071806)"
       id="g1947">
      <g
         id="g5117">
        <g
           id="g5318"
           style="fill:#000000;fill-opacity:1">
          <use
             height="100%"
             width="100%"
             id="use1632"
             y="93.917999"
             x="303.30099"
             xlink:href="#symbol4674" />
        </g>
      </g>
    </g>
    <g
       inkscape:label=""
       transform="translate(-289.30328,-8.3428216)"
       id="g2213">
      <g
         id="g8778">
        <g
           inkscape:label=""
           transform="translate(1.6271998,0.34519298)"
           id="g2422">
          <g
             id="g6772">
            <g
               id="g4717"
               style="fill:#000000;fill-opacity:1">
              <use
                 height="100%"
                 width="100%"
                 id="use1418"
                 y="93.917999"
                 x="296.50601"
                 xlink:href="#symbol1066" />
            </g>
            <g
               id="g5551"
               style="fill:#000000;fill-opacity:1">
              <use
                 height="100%"
                 width="100%"
                 id="use9687"
                 y="93.917999"
                 x="299.96701"
                 xlink:href="#symbol9323" />
            </g>
            <g
               id="g7855"
               style="fill:#000000;fill-opacity:1">
              <use
                 height="100%"
                 width="100%"
                 id="use187"
                 y="93.917999"
                 x="302.66501"
                 xlink:href="#symbol5298" />
            </g>
            <g
               id="g9315"
               style="fill:#000000;fill-opacity:1">
              <use
                 height="100%"
                 width="100%"
                 id="use6518"
                 y="93.917999"
                 x="306.48367"
                 xlink:href="#symbol2671" />
            </g>
            <g
               id="g7396"
               style="fill:#000000;fill-opacity:1">
              <use
                 height="100%"
                 width="100%"
                 id="use2716"
                 y="93.917999"
                 x="309.987"
                 xlink:href="#symbol2334" />
            </g>
            <g
               id="g5447"
               style="fill:#000000;fill-opacity:1">
              <use
                 height="100%"
                 width="100%"
                 id="use2281"
                 y="93.917999"
                 x="312.79599"
                 xlink:href="#symbol3507" />
            </g>
          </g>
        </g>
      </g>
    </g>
  </g>
</svg>
