<?xml version="1.0" encoding="utf-8" standalone="no"?>
<!DOCTYPE svg PUBLIC "-//W3C//DTD SVG 1.1//EN"
  "http://www.w3.org/Graphics/SVG/1.1/DTD/svg11.dtd">
<svg xmlns:xlink="http://www.w3.org/1999/xlink" width="432pt" height="288pt" viewBox="0 0 432 288" xmlns="http://www.w3.org/2000/svg" version="1.1">
 <metadata>
  <rdf:RDF xmlns:dc="http://purl.org/dc/elements/1.1/" xmlns:cc="http://creativecommons.org/ns#" xmlns:rdf="http://www.w3.org/1999/02/22-rdf-syntax-ns#">
   <cc:Work>
    <dc:type rdf:resource="http://purl.org/dc/dcmitype/StillImage"/>
    <dc:date>2022-09-18T00:49:45.341414</dc:date>
    <dc:format>image/svg+xml</dc:format>
    <dc:creator>
     <cc:Agent>
      <dc:title>Matplotlib v3.5.1, https://matplotlib.org/</dc:title>
     </cc:Agent>
    </dc:creator>
   </cc:Work>
  </rdf:RDF>
 </metadata>
 <defs>
  <style type="text/css">*{stroke-linejoin: round; stroke-linecap: butt}</style>
 </defs>
 <g id="figure_1">
  <g id="patch_1">
   <path d="M 0 288 
L 432 288 
L 432 0 
L 0 0 
L 0 288 
z
" style="fill: none"/>
  </g>
  <g id="axes_1">
   <g id="patch_2">
    <path d="M 60.175 105.1 
L 410.0125 105.1 
L 410.0125 26.8 
L 60.175 26.8 
z
" style="fill: #ffffff"/>
   </g>
   <g id="matplotlib.axis_1">
    <g id="xtick_1">
     <g id="line2d_1">
      <path d="M 60.175 105.1 
L 60.175 26.8 
" clip-path="url(#pfce15d0106)" style="fill: none; stroke: #b0b0b0; stroke-width: 0.8; stroke-linecap: square"/>
     </g>
     <g id="line2d_2">
      <defs>
       <path id="mff434b5a2d" d="M 0 0 
L 0 3.5 
" style="stroke: #000000; stroke-width: 0.8"/>
      </defs>
      <g>
       <use xlink:href="#mff434b5a2d" x="60.175" y="105.1" style="stroke: #000000; stroke-width: 0.8"/>
      </g>
     </g>
     <g id="text_1">
      <!-- 10.0 -->
      <g transform="translate(49.042188 119.698437)scale(0.1 -0.1)">
       <defs>
        <path id="DejaVuSans-31" d="M 794 531 
L 1825 531 
L 1825 4091 
L 703 3866 
L 703 4441 
L 1819 4666 
L 2450 4666 
L 2450 531 
L 3481 531 
L 3481 0 
L 794 0 
L 794 531 
z
" transform="scale(0.015625)"/>
        <path id="DejaVuSans-30" d="M 2034 4250 
Q 1547 4250 1301 3770 
Q 1056 3291 1056 2328 
Q 1056 1369 1301 889 
Q 1547 409 2034 409 
Q 2525 409 2770 889 
Q 3016 1369 3016 2328 
Q 3016 3291 2770 3770 
Q 2525 4250 2034 4250 
z
M 2034 4750 
Q 2819 4750 3233 4129 
Q 3647 3509 3647 2328 
Q 3647 1150 3233 529 
Q 2819 -91 2034 -91 
Q 1250 -91 836 529 
Q 422 1150 422 2328 
Q 422 3509 836 4129 
Q 1250 4750 2034 4750 
z
" transform="scale(0.015625)"/>
        <path id="DejaVuSans-2e" d="M 684 794 
L 1344 794 
L 1344 0 
L 684 0 
L 684 794 
z
" transform="scale(0.015625)"/>
       </defs>
       <use xlink:href="#DejaVuSans-31"/>
       <use xlink:href="#DejaVuSans-30" x="63.623047"/>
       <use xlink:href="#DejaVuSans-2e" x="127.246094"/>
       <use xlink:href="#DejaVuSans-30" x="159.033203"/>
      </g>
     </g>
    </g>
    <g id="xtick_2">
     <g id="line2d_3">
      <path d="M 130.1425 105.1 
L 130.1425 26.8 
" clip-path="url(#pfce15d0106)" style="fill: none; stroke: #b0b0b0; stroke-width: 0.8; stroke-linecap: square"/>
     </g>
     <g id="line2d_4">
      <g>
       <use xlink:href="#mff434b5a2d" x="130.1425" y="105.1" style="stroke: #000000; stroke-width: 0.8"/>
      </g>
     </g>
     <g id="text_2">
      <!-- 10.2 -->
      <g transform="translate(119.009688 119.698437)scale(0.1 -0.1)">
       <defs>
        <path id="DejaVuSans-32" d="M 1228 531 
L 3431 531 
L 3431 0 
L 469 0 
L 469 531 
Q 828 903 1448 1529 
Q 2069 2156 2228 2338 
Q 2531 2678 2651 2914 
Q 2772 3150 2772 3378 
Q 2772 3750 2511 3984 
Q 2250 4219 1831 4219 
Q 1534 4219 1204 4116 
Q 875 4013 500 3803 
L 500 4441 
Q 881 4594 1212 4672 
Q 1544 4750 1819 4750 
Q 2544 4750 2975 4387 
Q 3406 4025 3406 3419 
Q 3406 3131 3298 2873 
Q 3191 2616 2906 2266 
Q 2828 2175 2409 1742 
Q 1991 1309 1228 531 
z
" transform="scale(0.015625)"/>
       </defs>
       <use xlink:href="#DejaVuSans-31"/>
       <use xlink:href="#DejaVuSans-30" x="63.623047"/>
       <use xlink:href="#DejaVuSans-2e" x="127.246094"/>
       <use xlink:href="#DejaVuSans-32" x="159.033203"/>
      </g>
     </g>
    </g>
    <g id="xtick_3">
     <g id="line2d_5">
      <path d="M 200.11 105.1 
L 200.11 26.8 
" clip-path="url(#pfce15d0106)" style="fill: none; stroke: #b0b0b0; stroke-width: 0.8; stroke-linecap: square"/>
     </g>
     <g id="line2d_6">
      <g>
       <use xlink:href="#mff434b5a2d" x="200.11" y="105.1" style="stroke: #000000; stroke-width: 0.8"/>
      </g>
     </g>
     <g id="text_3">
      <!-- 10.4 -->
      <g transform="translate(188.977188 119.698437)scale(0.1 -0.1)">
       <defs>
        <path id="DejaVuSans-34" d="M 2419 4116 
L 825 1625 
L 2419 1625 
L 2419 4116 
z
M 2253 4666 
L 3047 4666 
L 3047 1625 
L 3713 1625 
L 3713 1100 
L 3047 1100 
L 3047 0 
L 2419 0 
L 2419 1100 
L 313 1100 
L 313 1709 
L 2253 4666 
z
" transform="scale(0.015625)"/>
       </defs>
       <use xlink:href="#DejaVuSans-31"/>
       <use xlink:href="#DejaVuSans-30" x="63.623047"/>
       <use xlink:href="#DejaVuSans-2e" x="127.246094"/>
       <use xlink:href="#DejaVuSans-34" x="159.033203"/>
      </g>
     </g>
    </g>
    <g id="xtick_4">
     <g id="line2d_7">
      <path d="M 270.0775 105.1 
L 270.0775 26.8 
" clip-path="url(#pfce15d0106)" style="fill: none; stroke: #b0b0b0; stroke-width: 0.8; stroke-linecap: square"/>
     </g>
     <g id="line2d_8">
      <g>
       <use xlink:href="#mff434b5a2d" x="270.0775" y="105.1" style="stroke: #000000; stroke-width: 0.8"/>
      </g>
     </g>
     <g id="text_4">
      <!-- 10.6 -->
      <g transform="translate(258.944688 119.698437)scale(0.1 -0.1)">
       <defs>
        <path id="DejaVuSans-36" d="M 2113 2584 
Q 1688 2584 1439 2293 
Q 1191 2003 1191 1497 
Q 1191 994 1439 701 
Q 1688 409 2113 409 
Q 2538 409 2786 701 
Q 3034 994 3034 1497 
Q 3034 2003 2786 2293 
Q 2538 2584 2113 2584 
z
M 3366 4563 
L 3366 3988 
Q 3128 4100 2886 4159 
Q 2644 4219 2406 4219 
Q 1781 4219 1451 3797 
Q 1122 3375 1075 2522 
Q 1259 2794 1537 2939 
Q 1816 3084 2150 3084 
Q 2853 3084 3261 2657 
Q 3669 2231 3669 1497 
Q 3669 778 3244 343 
Q 2819 -91 2113 -91 
Q 1303 -91 875 529 
Q 447 1150 447 2328 
Q 447 3434 972 4092 
Q 1497 4750 2381 4750 
Q 2619 4750 2861 4703 
Q 3103 4656 3366 4563 
z
" transform="scale(0.015625)"/>
       </defs>
       <use xlink:href="#DejaVuSans-31"/>
       <use xlink:href="#DejaVuSans-30" x="63.623047"/>
       <use xlink:href="#DejaVuSans-2e" x="127.246094"/>
       <use xlink:href="#DejaVuSans-36" x="159.033203"/>
      </g>
     </g>
    </g>
    <g id="xtick_5">
     <g id="line2d_9">
      <path d="M 340.045 105.1 
L 340.045 26.8 
" clip-path="url(#pfce15d0106)" style="fill: none; stroke: #b0b0b0; stroke-width: 0.8; stroke-linecap: square"/>
     </g>
     <g id="line2d_10">
      <g>
       <use xlink:href="#mff434b5a2d" x="340.045" y="105.1" style="stroke: #000000; stroke-width: 0.8"/>
      </g>
     </g>
     <g id="text_5">
      <!-- 10.8 -->
      <g transform="translate(328.912188 119.698437)scale(0.1 -0.1)">
       <defs>
        <path id="DejaVuSans-38" d="M 2034 2216 
Q 1584 2216 1326 1975 
Q 1069 1734 1069 1313 
Q 1069 891 1326 650 
Q 1584 409 2034 409 
Q 2484 409 2743 651 
Q 3003 894 3003 1313 
Q 3003 1734 2745 1975 
Q 2488 2216 2034 2216 
z
M 1403 2484 
Q 997 2584 770 2862 
Q 544 3141 544 3541 
Q 544 4100 942 4425 
Q 1341 4750 2034 4750 
Q 2731 4750 3128 4425 
Q 3525 4100 3525 3541 
Q 3525 3141 3298 2862 
Q 3072 2584 2669 2484 
Q 3125 2378 3379 2068 
Q 3634 1759 3634 1313 
Q 3634 634 3220 271 
Q 2806 -91 2034 -91 
Q 1263 -91 848 271 
Q 434 634 434 1313 
Q 434 1759 690 2068 
Q 947 2378 1403 2484 
z
M 1172 3481 
Q 1172 3119 1398 2916 
Q 1625 2713 2034 2713 
Q 2441 2713 2670 2916 
Q 2900 3119 2900 3481 
Q 2900 3844 2670 4047 
Q 2441 4250 2034 4250 
Q 1625 4250 1398 4047 
Q 1172 3844 1172 3481 
z
" transform="scale(0.015625)"/>
       </defs>
       <use xlink:href="#DejaVuSans-31"/>
       <use xlink:href="#DejaVuSans-30" x="63.623047"/>
       <use xlink:href="#DejaVuSans-2e" x="127.246094"/>
       <use xlink:href="#DejaVuSans-38" x="159.033203"/>
      </g>
     </g>
    </g>
    <g id="xtick_6">
     <g id="line2d_11">
      <path d="M 410.0125 105.1 
L 410.0125 26.8 
" clip-path="url(#pfce15d0106)" style="fill: none; stroke: #b0b0b0; stroke-width: 0.8; stroke-linecap: square"/>
     </g>
     <g id="line2d_12">
      <g>
       <use xlink:href="#mff434b5a2d" x="410.0125" y="105.1" style="stroke: #000000; stroke-width: 0.8"/>
      </g>
     </g>
     <g id="text_6">
      <!-- 11.0 -->
      <g transform="translate(398.879688 119.698437)scale(0.1 -0.1)">
       <use xlink:href="#DejaVuSans-31"/>
       <use xlink:href="#DejaVuSans-31" x="63.623047"/>
       <use xlink:href="#DejaVuSans-2e" x="127.246094"/>
       <use xlink:href="#DejaVuSans-30" x="159.033203"/>
      </g>
     </g>
    </g>
    <g id="text_7">
     <!-- $t$ (s) -->
     <g transform="translate(224.99375 133.376562)scale(0.1 -0.1)">
      <defs>
       <path id="DejaVuSans-Oblique-74" d="M 2706 3500 
L 2619 3053 
L 1472 3053 
L 1100 1153 
Q 1081 1047 1072 975 
Q 1063 903 1063 863 
Q 1063 663 1183 572 
Q 1303 481 1569 481 
L 2150 481 
L 2053 0 
L 1503 0 
Q 991 0 739 200 
Q 488 400 488 806 
Q 488 878 497 964 
Q 506 1050 525 1153 
L 897 3053 
L 409 3053 
L 500 3500 
L 978 3500 
L 1172 4494 
L 1747 4494 
L 1556 3500 
L 2706 3500 
z
" transform="scale(0.015625)"/>
       <path id="DejaVuSans-20" transform="scale(0.015625)"/>
       <path id="DejaVuSans-28" d="M 1984 4856 
Q 1566 4138 1362 3434 
Q 1159 2731 1159 2009 
Q 1159 1288 1364 580 
Q 1569 -128 1984 -844 
L 1484 -844 
Q 1016 -109 783 600 
Q 550 1309 550 2009 
Q 550 2706 781 3412 
Q 1013 4119 1484 4856 
L 1984 4856 
z
" transform="scale(0.015625)"/>
       <path id="DejaVuSans-73" d="M 2834 3397 
L 2834 2853 
Q 2591 2978 2328 3040 
Q 2066 3103 1784 3103 
Q 1356 3103 1142 2972 
Q 928 2841 928 2578 
Q 928 2378 1081 2264 
Q 1234 2150 1697 2047 
L 1894 2003 
Q 2506 1872 2764 1633 
Q 3022 1394 3022 966 
Q 3022 478 2636 193 
Q 2250 -91 1575 -91 
Q 1294 -91 989 -36 
Q 684 19 347 128 
L 347 722 
Q 666 556 975 473 
Q 1284 391 1588 391 
Q 1994 391 2212 530 
Q 2431 669 2431 922 
Q 2431 1156 2273 1281 
Q 2116 1406 1581 1522 
L 1381 1569 
Q 847 1681 609 1914 
Q 372 2147 372 2553 
Q 372 3047 722 3315 
Q 1072 3584 1716 3584 
Q 2034 3584 2315 3537 
Q 2597 3491 2834 3397 
z
" transform="scale(0.015625)"/>
       <path id="DejaVuSans-29" d="M 513 4856 
L 1013 4856 
Q 1481 4119 1714 3412 
Q 1947 2706 1947 2009 
Q 1947 1309 1714 600 
Q 1481 -109 1013 -844 
L 513 -844 
Q 928 -128 1133 580 
Q 1338 1288 1338 2009 
Q 1338 2731 1133 3434 
Q 928 4138 513 4856 
z
" transform="scale(0.015625)"/>
      </defs>
      <use xlink:href="#DejaVuSans-Oblique-74" transform="translate(0 0.125)"/>
      <use xlink:href="#DejaVuSans-20" transform="translate(39.208984 0.125)"/>
      <use xlink:href="#DejaVuSans-28" transform="translate(70.996094 0.125)"/>
      <use xlink:href="#DejaVuSans-73" transform="translate(110.009766 0.125)"/>
      <use xlink:href="#DejaVuSans-29" transform="translate(162.109375 0.125)"/>
     </g>
    </g>
   </g>
   <g id="matplotlib.axis_2">
    <g id="ytick_1">
     <g id="line2d_13">
      <path d="M 60.175 105.1 
L 410.0125 105.1 
" clip-path="url(#pfce15d0106)" style="fill: none; stroke: #b0b0b0; stroke-width: 0.8; stroke-linecap: square"/>
     </g>
     <g id="line2d_14">
      <defs>
       <path id="m295afedd20" d="M 0 0 
L -3.5 0 
" style="stroke: #000000; stroke-width: 0.8"/>
      </defs>
      <g>
       <use xlink:href="#m295afedd20" x="60.175" y="105.1" style="stroke: #000000; stroke-width: 0.8"/>
      </g>
     </g>
     <g id="text_8">
      <!-- −1 -->
      <g transform="translate(38.432812 108.899219)scale(0.1 -0.1)">
       <defs>
        <path id="DejaVuSans-2212" d="M 678 2272 
L 4684 2272 
L 4684 1741 
L 678 1741 
L 678 2272 
z
" transform="scale(0.015625)"/>
       </defs>
       <use xlink:href="#DejaVuSans-2212"/>
       <use xlink:href="#DejaVuSans-31" x="83.789062"/>
      </g>
     </g>
    </g>
    <g id="ytick_2">
     <g id="line2d_15">
      <path d="M 60.175 65.95 
L 410.0125 65.95 
" clip-path="url(#pfce15d0106)" style="fill: none; stroke: #b0b0b0; stroke-width: 0.8; stroke-linecap: square"/>
     </g>
     <g id="line2d_16">
      <g>
       <use xlink:href="#m295afedd20" x="60.175" y="65.95" style="stroke: #000000; stroke-width: 0.8"/>
      </g>
     </g>
     <g id="text_9">
      <!-- 0 -->
      <g transform="translate(46.8125 69.749219)scale(0.1 -0.1)">
       <use xlink:href="#DejaVuSans-30"/>
      </g>
     </g>
    </g>
    <g id="ytick_3">
     <g id="line2d_17">
      <path d="M 60.175 26.8 
L 410.0125 26.8 
" clip-path="url(#pfce15d0106)" style="fill: none; stroke: #b0b0b0; stroke-width: 0.8; stroke-linecap: square"/>
     </g>
     <g id="line2d_18">
      <g>
       <use xlink:href="#m295afedd20" x="60.175" y="26.8" style="stroke: #000000; stroke-width: 0.8"/>
      </g>
     </g>
     <g id="text_10">
      <!-- 1 -->
      <g transform="translate(46.8125 30.599219)scale(0.1 -0.1)">
       <use xlink:href="#DejaVuSans-31"/>
      </g>
     </g>
    </g>
    <g id="text_11">
     <!-- $y(t)$ -->
     <g transform="translate(32.332812 74.8)rotate(-90)scale(0.1 -0.1)">
      <defs>
       <path id="DejaVuSans-Oblique-79" d="M 1588 -325 
Q 1188 -997 936 -1164 
Q 684 -1331 294 -1331 
L -159 -1331 
L -63 -850 
L 269 -850 
Q 509 -850 678 -719 
Q 847 -588 1056 -206 
L 1234 128 
L 459 3500 
L 1069 3500 
L 1650 819 
L 3256 3500 
L 3859 3500 
L 1588 -325 
z
" transform="scale(0.015625)"/>
      </defs>
      <use xlink:href="#DejaVuSans-Oblique-79" transform="translate(0 0.125)"/>
      <use xlink:href="#DejaVuSans-28" transform="translate(59.179688 0.125)"/>
      <use xlink:href="#DejaVuSans-Oblique-74" transform="translate(98.193359 0.125)"/>
      <use xlink:href="#DejaVuSans-29" transform="translate(137.402344 0.125)"/>
     </g>
    </g>
   </g>
   <g id="line2d_19">
    <path d="M 59.825163 70.856796 
L 61.924188 42.938207 
L 62.623863 35.784407 
L 63.323538 30.526021 
L 63.673375 28.716137 
L 64.023213 27.493454 
L 64.37305 26.877254 
L 64.722888 26.877254 
L 65.072725 27.493454 
L 65.422563 28.716137 
L 66.122238 32.894562 
L 66.821913 39.149981 
L 67.871425 51.537924 
L 71.019963 92.750019 
L 71.719637 99.005438 
L 72.419313 103.183863 
L 72.76915 104.406546 
L 73.118988 105.022746 
L 73.468825 105.022746 
L 73.818662 104.406546 
L 74.1685 103.183863 
L 74.868175 99.005438 
L 75.56785 92.750019 
L 76.617363 80.362076 
L 79.7659 39.149981 
L 80.465575 32.894562 
L 81.16525 28.716137 
L 81.515087 27.493454 
L 81.864925 26.877254 
L 82.214763 26.877254 
L 82.5646 27.493454 
L 82.914438 28.716137 
L 83.614113 32.894562 
L 84.313788 39.149981 
L 85.3633 51.537924 
L 88.511838 92.750019 
L 89.211513 99.005438 
L 89.911188 103.183863 
L 90.261025 104.406546 
L 90.610863 105.022746 
L 90.9607 105.022746 
L 91.310538 104.406546 
L 91.660375 103.183863 
L 92.36005 99.005438 
L 93.059725 92.750019 
L 94.109237 80.362076 
L 97.257775 39.149981 
L 97.95745 32.894562 
L 98.657125 28.716137 
L 99.006963 27.493454 
L 99.3568 26.877254 
L 99.706637 26.877254 
L 100.056475 27.493454 
L 100.406313 28.716137 
L 101.105988 32.894562 
L 101.805662 39.149981 
L 102.855175 51.537924 
L 106.003713 92.750019 
L 106.703388 99.005438 
L 107.403063 103.183863 
L 107.7529 104.406546 
L 108.102738 105.022746 
L 108.452575 105.022746 
L 108.802412 104.406546 
L 109.15225 103.183863 
L 109.851925 99.005438 
L 110.5516 92.750019 
L 111.601113 80.362076 
L 114.74965 39.149981 
L 115.449325 32.894562 
L 116.149 28.716137 
L 116.498837 27.493454 
L 116.848675 26.877254 
L 117.198513 26.877254 
L 117.54835 27.493454 
L 117.898188 28.716137 
L 118.597863 32.894562 
L 119.297538 39.149981 
L 120.34705 51.537924 
L 123.495588 92.750019 
L 124.195262 99.005438 
L 124.894938 103.183863 
L 125.244775 104.406546 
L 125.594613 105.022746 
L 125.94445 105.022746 
L 126.294288 104.406546 
L 126.644125 103.183863 
L 127.3438 99.005438 
L 128.043475 92.750019 
L 129.092988 80.362076 
L 132.241525 39.149981 
L 132.9412 32.894562 
L 133.640875 28.716137 
L 133.990713 27.493454 
L 134.34055 26.877254 
L 134.690388 26.877254 
L 135.040225 27.493454 
L 135.390063 28.716137 
L 136.089738 32.894562 
L 136.789412 39.149981 
L 137.838925 51.537924 
L 140.987463 92.750019 
L 141.687138 99.005438 
L 142.386812 103.183863 
L 142.73665 104.406546 
L 143.086488 105.022746 
L 143.436325 105.022746 
L 143.786163 104.406546 
L 144.136 103.183863 
L 144.835675 99.005438 
L 145.53535 92.750019 
L 146.584863 80.362076 
L 149.7334 39.149981 
L 150.433075 32.894562 
L 151.13275 28.716137 
L 151.482588 27.493454 
L 151.832425 26.877254 
L 152.182262 26.877254 
L 152.5321 27.493454 
L 152.881938 28.716137 
L 153.581613 32.894562 
L 154.281288 39.149981 
L 155.3308 51.537924 
L 158.479338 92.750019 
L 159.179012 99.005438 
L 159.878688 103.183863 
L 160.228525 104.406546 
L 160.578363 105.022746 
L 160.9282 105.022746 
L 161.278038 104.406546 
L 161.627875 103.183863 
L 162.32755 99.005438 
L 163.027225 92.750019 
L 164.076738 80.362076 
L 167.225275 39.149981 
L 167.92495 32.894562 
L 168.624625 28.716137 
L 168.974463 27.493454 
L 169.3243 26.877254 
L 169.674138 26.877254 
L 170.023975 27.493454 
L 170.373812 28.716137 
L 171.073488 32.894562 
L 171.773163 39.149981 
L 172.822675 51.537924 
L 175.971213 92.750019 
L 176.670888 99.005438 
L 177.370563 103.183863 
L 177.7204 104.406546 
L 178.070238 105.022746 
L 178.420075 105.022746 
L 178.769913 104.406546 
L 179.11975 103.183863 
L 179.819425 99.005438 
L 180.5191 92.750019 
L 181.568612 80.362076 
L 184.71715 39.149981 
L 185.416825 32.894562 
L 186.1165 28.716137 
L 186.466338 27.493454 
L 186.816175 26.877254 
L 187.166012 26.877254 
L 187.51585 27.493454 
L 187.865688 28.716137 
L 188.565363 32.894562 
L 189.265037 39.149981 
L 190.31455 51.537924 
L 193.463088 92.750019 
L 194.162763 99.005438 
L 194.862437 103.183863 
L 195.212275 104.406546 
L 195.562113 105.022746 
L 195.91195 105.022746 
L 196.261788 104.406546 
L 196.611625 103.183863 
L 197.3113 99.005438 
L 198.010975 92.750019 
L 199.060488 80.362076 
L 202.209025 39.149981 
L 202.9087 32.894562 
L 203.608375 28.716137 
L 203.958213 27.493454 
L 204.30805 26.877254 
L 204.657888 26.877254 
L 205.007725 27.493454 
L 205.357563 28.716137 
L 206.057238 32.894562 
L 206.756913 39.149981 
L 207.806425 51.537924 
L 210.954963 92.750019 
L 211.654638 99.005438 
L 212.354313 103.183863 
L 212.70415 104.406546 
L 213.053987 105.022746 
L 213.403825 105.022746 
L 213.753663 104.406546 
L 214.1035 103.183863 
L 214.803175 99.005438 
L 215.50285 92.750019 
L 216.552363 80.362076 
L 219.7009 39.149981 
L 220.400575 32.894562 
L 221.10025 28.716137 
L 221.450088 27.493454 
L 221.799925 26.877254 
L 222.149763 26.877254 
L 222.4996 27.493454 
L 222.849438 28.716137 
L 223.549113 32.894562 
L 224.248787 39.149981 
L 225.2983 51.537924 
L 228.446838 92.750019 
L 229.146513 99.005438 
L 229.846187 103.183863 
L 230.196025 104.406546 
L 230.545863 105.022746 
L 230.8957 105.022746 
L 231.245538 104.406546 
L 231.595375 103.183863 
L 232.29505 99.005438 
L 232.994725 92.750019 
L 234.044238 80.362076 
L 237.192775 39.149981 
L 237.89245 32.894562 
L 238.592125 28.716137 
L 238.941963 27.493454 
L 239.2918 26.877254 
L 239.641637 26.877254 
L 239.991475 27.493454 
L 240.341313 28.716137 
L 241.040988 32.894562 
L 241.740663 39.149981 
L 242.790175 51.537924 
L 245.938713 92.750019 
L 246.638388 99.005438 
L 247.338062 103.183863 
L 247.6879 104.406546 
L 248.037738 105.022746 
L 248.387575 105.022746 
L 248.737413 104.406546 
L 249.08725 103.183863 
L 249.786925 99.005438 
L 250.4866 92.750019 
L 251.536113 80.362076 
L 254.68465 39.149981 
L 255.384325 32.894562 
L 256.084 28.716137 
L 256.433838 27.493454 
L 256.783675 26.877254 
L 257.133513 26.877254 
L 257.48335 27.493454 
L 257.833187 28.716137 
L 258.532863 32.894562 
L 259.232538 39.149981 
L 260.28205 51.537924 
L 263.430588 92.750019 
L 264.130263 99.005438 
L 264.829938 103.183863 
L 265.179775 104.406546 
L 265.529612 105.022746 
L 265.87945 105.022746 
L 266.229288 104.406546 
L 266.579125 103.183863 
L 267.2788 99.005438 
L 267.978475 92.750019 
L 269.027988 80.362076 
L 272.176525 39.149981 
L 272.8762 32.894562 
L 273.575875 28.716137 
L 273.925713 27.493454 
L 274.27555 26.877254 
L 274.625387 26.877254 
L 274.975225 27.493454 
L 275.325063 28.716137 
L 276.024738 32.894562 
L 276.724413 39.149981 
L 277.773925 51.537924 
L 280.922463 92.750019 
L 281.622138 99.005438 
L 282.321812 103.183863 
L 282.67165 104.406546 
L 283.021488 105.022746 
L 283.371325 105.022746 
L 283.721162 104.406546 
L 284.071 103.183863 
L 284.770675 99.005438 
L 285.47035 92.750019 
L 286.519863 80.362076 
L 289.6684 39.149981 
L 290.368075 32.894562 
L 291.06775 28.716137 
L 291.417588 27.493454 
L 291.767425 26.877254 
L 292.117263 26.877254 
L 292.4671 27.493454 
L 292.816938 28.716137 
L 293.516613 32.894562 
L 294.216288 39.149981 
L 295.2658 51.537924 
L 298.414338 92.750019 
L 299.114013 99.005438 
L 299.813688 103.183863 
L 300.163525 104.406546 
L 300.513362 105.022746 
L 300.8632 105.022746 
L 301.213038 104.406546 
L 301.562875 103.183863 
L 302.26255 99.005438 
L 302.962225 92.750019 
L 304.011738 80.362076 
L 307.160275 39.149981 
L 307.85995 32.894562 
L 308.559625 28.716137 
L 308.909463 27.493454 
L 309.2593 26.877254 
L 309.609138 26.877254 
L 309.958975 27.493454 
L 310.308812 28.716137 
L 311.008488 32.894562 
L 311.708163 39.149981 
L 312.757675 51.537924 
L 315.906213 92.750019 
L 316.605888 99.005438 
L 317.305562 103.183863 
L 317.6554 104.406546 
L 318.005238 105.022746 
L 318.355075 105.022746 
L 318.704913 104.406546 
L 319.05475 103.183863 
L 319.754425 99.005438 
L 320.4541 92.750019 
L 321.503613 80.362076 
L 324.65215 39.149981 
L 325.351825 32.894562 
L 326.0515 28.716137 
L 326.401338 27.493454 
L 326.751175 26.877254 
L 327.101013 26.877254 
L 327.45085 27.493454 
L 327.800688 28.716137 
L 328.500362 32.894562 
L 329.200038 39.149981 
L 330.24955 51.537924 
L 333.398088 92.750019 
L 334.097763 99.005438 
L 334.797438 103.183863 
L 335.147275 104.406546 
L 335.497113 105.022746 
L 335.84695 105.022746 
L 336.196788 104.406546 
L 336.546625 103.183863 
L 337.2463 99.005438 
L 337.945975 92.750019 
L 338.995488 80.362076 
L 342.144025 39.149981 
L 342.8437 32.894562 
L 343.543375 28.716137 
L 343.893213 27.493454 
L 344.24305 26.877254 
L 344.592888 26.877254 
L 344.942725 27.493454 
L 345.292562 28.716137 
L 345.992238 32.894562 
L 346.691913 39.149981 
L 347.741425 51.537924 
L 350.889962 92.750019 
L 351.589638 99.005438 
L 352.289313 103.183863 
L 352.63915 104.406546 
L 352.988987 105.022746 
L 353.338825 105.022746 
L 353.688663 104.406546 
L 354.0385 103.183863 
L 354.738175 99.005438 
L 355.43785 92.750019 
L 356.487363 80.362076 
L 359.6359 39.149981 
L 360.335575 32.894562 
L 361.03525 28.716137 
L 361.385088 27.493454 
L 361.734925 26.877254 
L 362.084763 26.877254 
L 362.4346 27.493454 
L 362.784437 28.716137 
L 363.484113 32.894562 
L 364.183788 39.149981 
L 365.2333 51.537924 
L 368.381838 92.750019 
L 369.081513 99.005438 
L 369.781187 103.183863 
L 370.131025 104.406546 
L 370.480863 105.022746 
L 370.8307 105.022746 
L 371.180537 104.406546 
L 371.530375 103.183863 
L 372.23005 99.005438 
L 372.929725 92.750019 
L 373.979238 80.362076 
L 377.127775 39.149981 
L 377.82745 32.894562 
L 378.527125 28.716137 
L 378.876962 27.493454 
L 379.2268 26.877254 
L 379.576638 26.877254 
L 379.926475 27.493454 
L 380.276313 28.716137 
L 380.975987 32.894562 
L 381.675663 39.149981 
L 382.725175 51.537924 
L 385.873713 92.750019 
L 386.573388 99.005438 
L 387.273063 103.183863 
L 387.6229 104.406546 
L 387.972737 105.022746 
L 388.322575 105.022746 
L 388.672413 104.406546 
L 389.02225 103.183863 
L 389.721925 99.005438 
L 390.4216 92.750019 
L 391.471113 80.362076 
L 394.61965 39.149981 
L 395.319325 32.894562 
L 396.019 28.716137 
L 396.368838 27.493454 
L 396.718675 26.877254 
L 397.068513 26.877254 
L 397.41835 27.493454 
L 397.768187 28.716137 
L 398.467863 32.894562 
L 399.167537 39.149981 
L 400.21705 51.537924 
L 403.365587 92.750019 
L 404.065263 99.005438 
L 404.764937 103.183863 
L 405.114775 104.406546 
L 405.464612 105.022746 
L 405.81445 105.022746 
L 406.164288 104.406546 
L 406.514125 103.183863 
L 407.2138 99.005438 
L 407.913475 92.750019 
L 408.962988 80.362076 
L 410.362337 61.043204 
L 410.362337 61.043204 
" clip-path="url(#pfce15d0106)" style="fill: none; stroke: #1f77b4; stroke-width: 1.5; stroke-linecap: square"/>
   </g>
   <g id="line2d_20">
    <defs>
     <path id="md4a0c60f33" d="M 0 3 
C 0.795609 3 1.55874 2.683901 2.12132 2.12132 
C 2.683901 1.55874 3 0.795609 3 0 
C 3 -0.795609 2.683901 -1.55874 2.12132 -2.12132 
C 1.55874 -2.683901 0.795609 -3 0 -3 
C -0.795609 -3 -1.55874 -2.683901 -2.12132 -2.12132 
C -2.683901 -1.55874 -3 -0.795609 -3 0 
C -3 0.795609 -2.683901 1.55874 -2.12132 2.12132 
C -1.55874 2.683901 -0.795609 3 0 3 
z
" style="stroke: #ff7f0e"/>
    </defs>
    <g clip-path="url(#pfce15d0106)">
     <use xlink:href="#md4a0c60f33" x="43.516071" y="54.410335" style="fill: #ff7f0e; stroke: #ff7f0e"/>
     <use xlink:href="#md4a0c60f33" x="60.175" y="65.95" style="fill: #ff7f0e; stroke: #ff7f0e"/>
     <use xlink:href="#md4a0c60f33" x="76.833929" y="77.489665" style="fill: #ff7f0e; stroke: #ff7f0e"/>
     <use xlink:href="#md4a0c60f33" x="93.492857" y="88.00398" style="fill: #ff7f0e; stroke: #ff7f0e"/>
     <use xlink:href="#md4a0c60f33" x="110.151786" y="96.558703" style="fill: #ff7f0e; stroke: #ff7f0e"/>
     <use xlink:href="#md4a0c60f33" x="126.810714" y="102.393707" style="fill: #ff7f0e; stroke: #ff7f0e"/>
     <use xlink:href="#md4a0c60f33" x="143.469643" y="104.990529" style="fill: #ff7f0e; stroke: #ff7f0e"/>
     <use xlink:href="#md4a0c60f33" x="160.128571" y="104.118428" style="fill: #ff7f0e; stroke: #ff7f0e"/>
     <use xlink:href="#md4a0c60f33" x="176.7875" y="99.854895" style="fill: #ff7f0e; stroke: #ff7f0e"/>
     <use xlink:href="#md4a0c60f33" x="193.446429" y="92.578763" style="fill: #ff7f0e; stroke: #ff7f0e"/>
     <use xlink:href="#md4a0c60f33" x="210.105357" y="82.936548" style="fill: #ff7f0e; stroke: #ff7f0e"/>
     <use xlink:href="#md4a0c60f33" x="226.764286" y="71.785005" style="fill: #ff7f0e; stroke: #ff7f0e"/>
     <use xlink:href="#md4a0c60f33" x="243.423214" y="60.114995" style="fill: #ff7f0e; stroke: #ff7f0e"/>
     <use xlink:href="#md4a0c60f33" x="260.082143" y="48.963452" style="fill: #ff7f0e; stroke: #ff7f0e"/>
     <use xlink:href="#md4a0c60f33" x="276.741071" y="39.321237" style="fill: #ff7f0e; stroke: #ff7f0e"/>
     <use xlink:href="#md4a0c60f33" x="293.4" y="32.045105" style="fill: #ff7f0e; stroke: #ff7f0e"/>
     <use xlink:href="#md4a0c60f33" x="310.058929" y="27.781572" style="fill: #ff7f0e; stroke: #ff7f0e"/>
     <use xlink:href="#md4a0c60f33" x="326.717857" y="26.909471" style="fill: #ff7f0e; stroke: #ff7f0e"/>
     <use xlink:href="#md4a0c60f33" x="343.376786" y="29.506293" style="fill: #ff7f0e; stroke: #ff7f0e"/>
     <use xlink:href="#md4a0c60f33" x="360.035714" y="35.341297" style="fill: #ff7f0e; stroke: #ff7f0e"/>
     <use xlink:href="#md4a0c60f33" x="376.694643" y="43.89602" style="fill: #ff7f0e; stroke: #ff7f0e"/>
     <use xlink:href="#md4a0c60f33" x="393.353571" y="54.410335" style="fill: #ff7f0e; stroke: #ff7f0e"/>
     <use xlink:href="#md4a0c60f33" x="410.0125" y="65.95" style="fill: #ff7f0e; stroke: #ff7f0e"/>
     <use xlink:href="#md4a0c60f33" x="426.671429" y="77.489665" style="fill: #ff7f0e; stroke: #ff7f0e"/>
    </g>
   </g>
   <g id="line2d_21">
    <path d="M 59.907791 65.761677 
L 74.593969 75.97923 
L 82.986071 81.536655 
L 89.979489 85.915006 
L 96.273565 89.595606 
L 101.8683 92.611023 
L 107.113364 95.186382 
L 112.008756 97.352701 
L 116.904149 99.278742 
L 121.449871 100.842683 
L 125.995593 102.179111 
L 130.541315 103.275064 
L 134.737366 104.062873 
L 138.933417 104.629338 
L 143.129468 104.972469 
L 147.325518 105.09377 
L 151.521569 104.996183 
L 155.71762 104.681908 
L 159.913671 104.151426 
L 164.109722 103.404269 
L 168.305773 102.4411 
L 172.851495 101.158536 
L 177.397217 99.637543 
L 182.29261 97.749783 
L 187.188002 95.622043 
L 192.433066 93.095065 
L 198.027801 90.136251 
L 203.622535 86.927051 
L 209.916611 83.05632 
L 217.259701 78.268502 
L 226.700815 71.829032 
L 256.772514 51.084103 
L 263.765932 46.673848 
L 270.060008 42.955962 
L 276.004414 39.704395 
L 281.249477 37.081061 
L 286.14487 34.868037 
L 291.040263 32.901413 
L 295.585985 31.30616 
L 300.131706 29.939451 
L 304.677428 28.807319 
L 309.22315 27.917911 
L 313.419201 27.320818 
L 317.615252 26.945849 
L 321.811303 26.797014 
L 326.007354 26.874238 
L 330.203405 27.173908 
L 334.399456 27.690792 
L 338.595507 28.420154 
L 343.141228 29.446464 
L 347.68695 30.715723 
L 352.232672 32.223708 
L 356.778394 33.961834 
L 361.673787 36.075011 
L 366.91885 38.592506 
L 372.513585 41.537063 
L 378.45799 44.92875 
L 384.752067 48.783365 
L 391.745485 53.332441 
L 400.836929 59.535227 
L 410.278043 66.136319 
L 410.278043 66.136319 
" clip-path="url(#pfce15d0106)" style="fill: none; stroke-dasharray: 5.55,2.4; stroke-dashoffset: 0; stroke: #ff7f0e; stroke-width: 1.5"/>
   </g>
   <g id="patch_3">
    <path d="M 60.175 105.1 
L 60.175 26.8 
" style="fill: none; stroke: #000000; stroke-width: 0.8; stroke-linejoin: miter; stroke-linecap: square"/>
   </g>
   <g id="patch_4">
    <path d="M 410.0125 105.1 
L 410.0125 26.8 
" style="fill: none; stroke: #000000; stroke-width: 0.8; stroke-linejoin: miter; stroke-linecap: square"/>
   </g>
   <g id="patch_5">
    <path d="M 60.175 105.1 
L 410.0125 105.1 
" style="fill: none; stroke: #000000; stroke-width: 0.8; stroke-linejoin: miter; stroke-linecap: square"/>
   </g>
   <g id="patch_6">
    <path d="M 60.175 26.8 
L 410.0125 26.8 
" style="fill: none; stroke: #000000; stroke-width: 0.8; stroke-linejoin: miter; stroke-linecap: square"/>
   </g>
   <g id="text_12">
    <!-- Part of signal -->
    <g transform="translate(195.905312 20.8)scale(0.12 -0.12)">
     <defs>
      <path id="DejaVuSans-50" d="M 1259 4147 
L 1259 2394 
L 2053 2394 
Q 2494 2394 2734 2622 
Q 2975 2850 2975 3272 
Q 2975 3691 2734 3919 
Q 2494 4147 2053 4147 
L 1259 4147 
z
M 628 4666 
L 2053 4666 
Q 2838 4666 3239 4311 
Q 3641 3956 3641 3272 
Q 3641 2581 3239 2228 
Q 2838 1875 2053 1875 
L 1259 1875 
L 1259 0 
L 628 0 
L 628 4666 
z
" transform="scale(0.015625)"/>
      <path id="DejaVuSans-61" d="M 2194 1759 
Q 1497 1759 1228 1600 
Q 959 1441 959 1056 
Q 959 750 1161 570 
Q 1363 391 1709 391 
Q 2188 391 2477 730 
Q 2766 1069 2766 1631 
L 2766 1759 
L 2194 1759 
z
M 3341 1997 
L 3341 0 
L 2766 0 
L 2766 531 
Q 2569 213 2275 61 
Q 1981 -91 1556 -91 
Q 1019 -91 701 211 
Q 384 513 384 1019 
Q 384 1609 779 1909 
Q 1175 2209 1959 2209 
L 2766 2209 
L 2766 2266 
Q 2766 2663 2505 2880 
Q 2244 3097 1772 3097 
Q 1472 3097 1187 3025 
Q 903 2953 641 2809 
L 641 3341 
Q 956 3463 1253 3523 
Q 1550 3584 1831 3584 
Q 2591 3584 2966 3190 
Q 3341 2797 3341 1997 
z
" transform="scale(0.015625)"/>
      <path id="DejaVuSans-72" d="M 2631 2963 
Q 2534 3019 2420 3045 
Q 2306 3072 2169 3072 
Q 1681 3072 1420 2755 
Q 1159 2438 1159 1844 
L 1159 0 
L 581 0 
L 581 3500 
L 1159 3500 
L 1159 2956 
Q 1341 3275 1631 3429 
Q 1922 3584 2338 3584 
Q 2397 3584 2469 3576 
Q 2541 3569 2628 3553 
L 2631 2963 
z
" transform="scale(0.015625)"/>
      <path id="DejaVuSans-74" d="M 1172 4494 
L 1172 3500 
L 2356 3500 
L 2356 3053 
L 1172 3053 
L 1172 1153 
Q 1172 725 1289 603 
Q 1406 481 1766 481 
L 2356 481 
L 2356 0 
L 1766 0 
Q 1100 0 847 248 
Q 594 497 594 1153 
L 594 3053 
L 172 3053 
L 172 3500 
L 594 3500 
L 594 4494 
L 1172 4494 
z
" transform="scale(0.015625)"/>
      <path id="DejaVuSans-6f" d="M 1959 3097 
Q 1497 3097 1228 2736 
Q 959 2375 959 1747 
Q 959 1119 1226 758 
Q 1494 397 1959 397 
Q 2419 397 2687 759 
Q 2956 1122 2956 1747 
Q 2956 2369 2687 2733 
Q 2419 3097 1959 3097 
z
M 1959 3584 
Q 2709 3584 3137 3096 
Q 3566 2609 3566 1747 
Q 3566 888 3137 398 
Q 2709 -91 1959 -91 
Q 1206 -91 779 398 
Q 353 888 353 1747 
Q 353 2609 779 3096 
Q 1206 3584 1959 3584 
z
" transform="scale(0.015625)"/>
      <path id="DejaVuSans-66" d="M 2375 4863 
L 2375 4384 
L 1825 4384 
Q 1516 4384 1395 4259 
Q 1275 4134 1275 3809 
L 1275 3500 
L 2222 3500 
L 2222 3053 
L 1275 3053 
L 1275 0 
L 697 0 
L 697 3053 
L 147 3053 
L 147 3500 
L 697 3500 
L 697 3744 
Q 697 4328 969 4595 
Q 1241 4863 1831 4863 
L 2375 4863 
z
" transform="scale(0.015625)"/>
      <path id="DejaVuSans-69" d="M 603 3500 
L 1178 3500 
L 1178 0 
L 603 0 
L 603 3500 
z
M 603 4863 
L 1178 4863 
L 1178 4134 
L 603 4134 
L 603 4863 
z
" transform="scale(0.015625)"/>
      <path id="DejaVuSans-67" d="M 2906 1791 
Q 2906 2416 2648 2759 
Q 2391 3103 1925 3103 
Q 1463 3103 1205 2759 
Q 947 2416 947 1791 
Q 947 1169 1205 825 
Q 1463 481 1925 481 
Q 2391 481 2648 825 
Q 2906 1169 2906 1791 
z
M 3481 434 
Q 3481 -459 3084 -895 
Q 2688 -1331 1869 -1331 
Q 1566 -1331 1297 -1286 
Q 1028 -1241 775 -1147 
L 775 -588 
Q 1028 -725 1275 -790 
Q 1522 -856 1778 -856 
Q 2344 -856 2625 -561 
Q 2906 -266 2906 331 
L 2906 616 
Q 2728 306 2450 153 
Q 2172 0 1784 0 
Q 1141 0 747 490 
Q 353 981 353 1791 
Q 353 2603 747 3093 
Q 1141 3584 1784 3584 
Q 2172 3584 2450 3431 
Q 2728 3278 2906 2969 
L 2906 3500 
L 3481 3500 
L 3481 434 
z
" transform="scale(0.015625)"/>
      <path id="DejaVuSans-6e" d="M 3513 2113 
L 3513 0 
L 2938 0 
L 2938 2094 
Q 2938 2591 2744 2837 
Q 2550 3084 2163 3084 
Q 1697 3084 1428 2787 
Q 1159 2491 1159 1978 
L 1159 0 
L 581 0 
L 581 3500 
L 1159 3500 
L 1159 2956 
Q 1366 3272 1645 3428 
Q 1925 3584 2291 3584 
Q 2894 3584 3203 3211 
Q 3513 2838 3513 2113 
z
" transform="scale(0.015625)"/>
      <path id="DejaVuSans-6c" d="M 603 4863 
L 1178 4863 
L 1178 0 
L 603 0 
L 603 4863 
z
" transform="scale(0.015625)"/>
     </defs>
     <use xlink:href="#DejaVuSans-50"/>
     <use xlink:href="#DejaVuSans-61" x="55.802734"/>
     <use xlink:href="#DejaVuSans-72" x="117.082031"/>
     <use xlink:href="#DejaVuSans-74" x="158.195312"/>
     <use xlink:href="#DejaVuSans-20" x="197.404297"/>
     <use xlink:href="#DejaVuSans-6f" x="229.191406"/>
     <use xlink:href="#DejaVuSans-66" x="290.373047"/>
     <use xlink:href="#DejaVuSans-20" x="325.578125"/>
     <use xlink:href="#DejaVuSans-73" x="357.365234"/>
     <use xlink:href="#DejaVuSans-69" x="409.464844"/>
     <use xlink:href="#DejaVuSans-67" x="437.248047"/>
     <use xlink:href="#DejaVuSans-6e" x="500.724609"/>
     <use xlink:href="#DejaVuSans-61" x="564.103516"/>
     <use xlink:href="#DejaVuSans-6c" x="625.382812"/>
    </g>
   </g>
   <g id="legend_1">
    <g id="patch_7">
     <path d="M 67.175 64.15625 
L 154.503125 64.15625 
Q 156.503125 64.15625 156.503125 62.15625 
L 156.503125 33.8 
Q 156.503125 31.8 154.503125 31.8 
L 67.175 31.8 
Q 65.175 31.8 65.175 33.8 
L 65.175 62.15625 
Q 65.175 64.15625 67.175 64.15625 
z
" style="fill: #ffffff; opacity: 0.8; stroke: #cccccc; stroke-linejoin: miter"/>
    </g>
    <g id="line2d_22">
     <path d="M 69.175 39.898437 
L 79.175 39.898437 
L 89.175 39.898437 
" style="fill: none; stroke: #1f77b4; stroke-width: 1.5; stroke-linecap: square"/>
    </g>
    <g id="text_13">
     <!-- fs=1000Hz -->
     <g transform="translate(97.175 43.398437)scale(0.1 -0.1)">
      <defs>
       <path id="DejaVuSans-3d" d="M 678 2906 
L 4684 2906 
L 4684 2381 
L 678 2381 
L 678 2906 
z
M 678 1631 
L 4684 1631 
L 4684 1100 
L 678 1100 
L 678 1631 
z
" transform="scale(0.015625)"/>
       <path id="DejaVuSans-48" d="M 628 4666 
L 1259 4666 
L 1259 2753 
L 3553 2753 
L 3553 4666 
L 4184 4666 
L 4184 0 
L 3553 0 
L 3553 2222 
L 1259 2222 
L 1259 0 
L 628 0 
L 628 4666 
z
" transform="scale(0.015625)"/>
       <path id="DejaVuSans-7a" d="M 353 3500 
L 3084 3500 
L 3084 2975 
L 922 459 
L 3084 459 
L 3084 0 
L 275 0 
L 275 525 
L 2438 3041 
L 353 3041 
L 353 3500 
z
" transform="scale(0.015625)"/>
      </defs>
      <use xlink:href="#DejaVuSans-66"/>
      <use xlink:href="#DejaVuSans-73" x="35.205078"/>
      <use xlink:href="#DejaVuSans-3d" x="87.304688"/>
      <use xlink:href="#DejaVuSans-31" x="171.09375"/>
      <use xlink:href="#DejaVuSans-30" x="234.716797"/>
      <use xlink:href="#DejaVuSans-30" x="298.339844"/>
      <use xlink:href="#DejaVuSans-30" x="361.962891"/>
      <use xlink:href="#DejaVuSans-48" x="425.585938"/>
      <use xlink:href="#DejaVuSans-7a" x="500.78125"/>
     </g>
    </g>
    <g id="line2d_23">
     <g>
      <use xlink:href="#md4a0c60f33" x="79.175" y="54.576562" style="fill: #ff7f0e; stroke: #ff7f0e"/>
     </g>
    </g>
    <g id="text_14">
     <!-- fs=21Hz -->
     <g transform="translate(97.175 58.076562)scale(0.1 -0.1)">
      <use xlink:href="#DejaVuSans-66"/>
      <use xlink:href="#DejaVuSans-73" x="35.205078"/>
      <use xlink:href="#DejaVuSans-3d" x="87.304688"/>
      <use xlink:href="#DejaVuSans-32" x="171.09375"/>
      <use xlink:href="#DejaVuSans-31" x="234.716797"/>
      <use xlink:href="#DejaVuSans-48" x="298.339844"/>
      <use xlink:href="#DejaVuSans-7a" x="373.535156"/>
     </g>
    </g>
   </g>
  </g>
  <g id="axes_2">
   <g id="patch_8">
    <path d="M 60.175 244.2 
L 410.0125 244.2 
L 410.0125 165.9 
L 60.175 165.9 
z
" style="fill: #ffffff"/>
   </g>
   <g id="matplotlib.axis_3">
    <g id="xtick_7">
     <g id="line2d_24">
      <g>
       <use xlink:href="#mff434b5a2d" x="60.175" y="244.2" style="stroke: #000000; stroke-width: 0.8"/>
      </g>
     </g>
     <g id="text_15">
      <!-- −30 -->
      <g transform="translate(49.622656 258.798437)scale(0.1 -0.1)">
       <defs>
        <path id="DejaVuSans-33" d="M 2597 2516 
Q 3050 2419 3304 2112 
Q 3559 1806 3559 1356 
Q 3559 666 3084 287 
Q 2609 -91 1734 -91 
Q 1441 -91 1130 -33 
Q 819 25 488 141 
L 488 750 
Q 750 597 1062 519 
Q 1375 441 1716 441 
Q 2309 441 2620 675 
Q 2931 909 2931 1356 
Q 2931 1769 2642 2001 
Q 2353 2234 1838 2234 
L 1294 2234 
L 1294 2753 
L 1863 2753 
Q 2328 2753 2575 2939 
Q 2822 3125 2822 3475 
Q 2822 3834 2567 4026 
Q 2313 4219 1838 4219 
Q 1578 4219 1281 4162 
Q 984 4106 628 3988 
L 628 4550 
Q 988 4650 1302 4700 
Q 1616 4750 1894 4750 
Q 2613 4750 3031 4423 
Q 3450 4097 3450 3541 
Q 3450 3153 3228 2886 
Q 3006 2619 2597 2516 
z
" transform="scale(0.015625)"/>
       </defs>
       <use xlink:href="#DejaVuSans-2212"/>
       <use xlink:href="#DejaVuSans-33" x="83.789062"/>
       <use xlink:href="#DejaVuSans-30" x="147.412109"/>
      </g>
     </g>
    </g>
    <g id="xtick_8">
     <g id="line2d_25">
      <g>
       <use xlink:href="#mff434b5a2d" x="118.48125" y="244.2" style="stroke: #000000; stroke-width: 0.8"/>
      </g>
     </g>
     <g id="text_16">
      <!-- −20 -->
      <g transform="translate(107.928906 258.798437)scale(0.1 -0.1)">
       <use xlink:href="#DejaVuSans-2212"/>
       <use xlink:href="#DejaVuSans-32" x="83.789062"/>
       <use xlink:href="#DejaVuSans-30" x="147.412109"/>
      </g>
     </g>
    </g>
    <g id="xtick_9">
     <g id="line2d_26">
      <g>
       <use xlink:href="#mff434b5a2d" x="176.7875" y="244.2" style="stroke: #000000; stroke-width: 0.8"/>
      </g>
     </g>
     <g id="text_17">
      <!-- −10 -->
      <g transform="translate(166.235156 258.798437)scale(0.1 -0.1)">
       <use xlink:href="#DejaVuSans-2212"/>
       <use xlink:href="#DejaVuSans-31" x="83.789062"/>
       <use xlink:href="#DejaVuSans-30" x="147.412109"/>
      </g>
     </g>
    </g>
    <g id="xtick_10">
     <g id="line2d_27">
      <g>
       <use xlink:href="#mff434b5a2d" x="235.09375" y="244.2" style="stroke: #000000; stroke-width: 0.8"/>
      </g>
     </g>
     <g id="text_18">
      <!-- 0 -->
      <g transform="translate(231.9125 258.798437)scale(0.1 -0.1)">
       <use xlink:href="#DejaVuSans-30"/>
      </g>
     </g>
    </g>
    <g id="xtick_11">
     <g id="line2d_28">
      <g>
       <use xlink:href="#mff434b5a2d" x="293.4" y="244.2" style="stroke: #000000; stroke-width: 0.8"/>
      </g>
     </g>
     <g id="text_19">
      <!-- 10 -->
      <g transform="translate(287.0375 258.798437)scale(0.1 -0.1)">
       <use xlink:href="#DejaVuSans-31"/>
       <use xlink:href="#DejaVuSans-30" x="63.623047"/>
      </g>
     </g>
    </g>
    <g id="xtick_12">
     <g id="line2d_29">
      <g>
       <use xlink:href="#mff434b5a2d" x="351.70625" y="244.2" style="stroke: #000000; stroke-width: 0.8"/>
      </g>
     </g>
     <g id="text_20">
      <!-- 20 -->
      <g transform="translate(345.34375 258.798437)scale(0.1 -0.1)">
       <use xlink:href="#DejaVuSans-32"/>
       <use xlink:href="#DejaVuSans-30" x="63.623047"/>
      </g>
     </g>
    </g>
    <g id="xtick_13">
     <g id="line2d_30">
      <g>
       <use xlink:href="#mff434b5a2d" x="410.0125" y="244.2" style="stroke: #000000; stroke-width: 0.8"/>
      </g>
     </g>
     <g id="text_21">
      <!-- 30 -->
      <g transform="translate(403.65 258.798437)scale(0.1 -0.1)">
       <use xlink:href="#DejaVuSans-33"/>
       <use xlink:href="#DejaVuSans-30" x="63.623047"/>
      </g>
     </g>
    </g>
    <g id="text_22">
     <!-- $f$ Hz -->
     <g transform="translate(225.34375 272.476562)scale(0.1 -0.1)">
      <defs>
       <path id="DejaVuSans-Oblique-66" d="M 3059 4863 
L 2969 4384 
L 2419 4384 
Q 2106 4384 1964 4261 
Q 1822 4138 1753 3809 
L 1691 3500 
L 2638 3500 
L 2553 3053 
L 1606 3053 
L 1013 0 
L 434 0 
L 1031 3053 
L 481 3053 
L 563 3500 
L 1113 3500 
L 1159 3744 
Q 1278 4363 1576 4613 
Q 1875 4863 2516 4863 
L 3059 4863 
z
" transform="scale(0.015625)"/>
      </defs>
      <use xlink:href="#DejaVuSans-Oblique-66" transform="translate(0 0.015625)"/>
      <use xlink:href="#DejaVuSans-20" transform="translate(35.205078 0.015625)"/>
      <use xlink:href="#DejaVuSans-48" transform="translate(66.992188 0.015625)"/>
      <use xlink:href="#DejaVuSans-7a" transform="translate(142.1875 0.015625)"/>
     </g>
    </g>
   </g>
   <g id="matplotlib.axis_4">
    <g id="ytick_4">
     <g id="line2d_31">
      <g>
       <use xlink:href="#m295afedd20" x="60.175" y="240.640909" style="stroke: #000000; stroke-width: 0.8"/>
      </g>
     </g>
     <g id="text_23">
      <!-- 0.0 -->
      <g transform="translate(37.271875 244.440128)scale(0.1 -0.1)">
       <use xlink:href="#DejaVuSans-30"/>
       <use xlink:href="#DejaVuSans-2e" x="63.623047"/>
       <use xlink:href="#DejaVuSans-30" x="95.410156"/>
      </g>
     </g>
    </g>
    <g id="ytick_5">
     <g id="line2d_32">
      <g>
       <use xlink:href="#m295afedd20" x="60.175" y="212.168182" style="stroke: #000000; stroke-width: 0.8"/>
      </g>
     </g>
     <g id="text_24">
      <!-- 0.2 -->
      <g transform="translate(37.271875 215.967401)scale(0.1 -0.1)">
       <use xlink:href="#DejaVuSans-30"/>
       <use xlink:href="#DejaVuSans-2e" x="63.623047"/>
       <use xlink:href="#DejaVuSans-32" x="95.410156"/>
      </g>
     </g>
    </g>
    <g id="ytick_6">
     <g id="line2d_33">
      <g>
       <use xlink:href="#m295afedd20" x="60.175" y="183.695455" style="stroke: #000000; stroke-width: 0.8"/>
      </g>
     </g>
     <g id="text_25">
      <!-- 0.4 -->
      <g transform="translate(37.271875 187.494673)scale(0.1 -0.1)">
       <use xlink:href="#DejaVuSans-30"/>
       <use xlink:href="#DejaVuSans-2e" x="63.623047"/>
       <use xlink:href="#DejaVuSans-34" x="95.410156"/>
      </g>
     </g>
    </g>
    <g id="text_26">
     <!-- $|Y(\omega)|$ -->
     <g transform="translate(30.871875 219.6)rotate(-90)scale(0.1 -0.1)">
      <defs>
       <path id="DejaVuSans-7c" d="M 1344 4891 
L 1344 -1509 
L 813 -1509 
L 813 4891 
L 1344 4891 
z
" transform="scale(0.015625)"/>
       <path id="DejaVuSans-Oblique-59" d="M 403 4666 
L 1081 4666 
L 1953 2747 
L 3616 4666 
L 4325 4666 
L 2209 2222 
L 1778 0 
L 1147 0 
L 1575 2222 
L 403 4666 
z
" transform="scale(0.015625)"/>
       <path id="DejaVuSans-Oblique-3c9" d="M 1369 -91 
Q 72 -91 434 1766 
Q 575 2500 1256 3500 
L 1875 3500 
Q 1231 2500 1088 1750 
Q 819 397 1519 397 
Q 2166 397 2478 2078 
L 3009 2078 
Q 2669 388 3316 397 
Q 4013 403 4275 1750 
Q 4419 2500 4169 3500 
L 4788 3500 
Q 5075 2500 4934 1766 
Q 4578 -94 3278 -91 
Q 2428 -88 2503 844 
Q 2194 -91 1369 -91 
z
" transform="scale(0.015625)"/>
      </defs>
      <use xlink:href="#DejaVuSans-7c" transform="translate(0 0.578125)"/>
      <use xlink:href="#DejaVuSans-Oblique-59" transform="translate(33.691406 0.578125)"/>
      <use xlink:href="#DejaVuSans-28" transform="translate(94.775391 0.578125)"/>
      <use xlink:href="#DejaVuSans-Oblique-3c9" transform="translate(133.789062 0.578125)"/>
      <use xlink:href="#DejaVuSans-29" transform="translate(217.529297 0.578125)"/>
      <use xlink:href="#DejaVuSans-7c" transform="translate(256.542969 0.578125)"/>
     </g>
    </g>
   </g>
   <g id="line2d_34">
    <path d="M 60.17191 240.640909 
L 118.478218 240.640909 
L 118.484049 169.459091 
L 118.589 240.640909 
L 351.703451 240.640909 
L 351.709282 169.459091 
L 351.814233 240.640909 
L 410.01559 240.640909 
L 410.01559 240.640909 
" clip-path="url(#pc154752248)" style="fill: none; stroke: #1f77b4; stroke-width: 1.5; stroke-linecap: square"/>
   </g>
   <g id="line2d_35">
    <path d="M 173.872187 240.63114 
L 227.389988 240.522923 
L 228.557225 240.347062 
L 228.849034 240.147945 
L 229.024119 239.792643 
L 229.140843 238.977627 
L 229.199205 237.403315 
L 229.257567 169.710137 
L 229.37429 238.925509 
L 229.549376 239.973456 
L 229.841185 240.316313 
L 230.366442 240.477964 
L 231.708764 240.577024 
L 236.202625 240.616597 
L 239.821058 240.477964 
L 240.404677 240.278354 
L 240.638124 239.973456 
L 240.754848 239.511421 
L 240.81321 238.925509 
L 240.871571 237.109298 
L 240.929933 169.710137 
L 241.046657 238.977627 
L 241.221742 239.957983 
L 241.513552 240.291167 
L 242.038808 240.450414 
L 243.38113 240.548405 
L 248.516972 240.605454 
L 284.526222 240.63065 
L 296.315312 240.63114 
L 296.315312 240.63114 
" clip-path="url(#pc154752248)" style="fill: none; stroke: #ff7f0e; stroke-width: 1.5; stroke-linecap: square"/>
   </g>
   <g id="LineCollection_1">
    <path d="M 296.315312 240.640909 
L 296.315312 169.459091 
" clip-path="url(#pc154752248)" style="fill: none; stroke-dasharray: 5.55,2.4; stroke-dashoffset: 0; stroke: #1f77b4; stroke-opacity: 0.5; stroke-width: 1.5"/>
   </g>
   <g id="LineCollection_2">
    <path d="M 173.872187 240.640909 
L 173.872187 169.459091 
" clip-path="url(#pc154752248)" style="fill: none; stroke-dasharray: 5.55,2.4; stroke-dashoffset: 0; stroke: #1f77b4; stroke-opacity: 0.5; stroke-width: 1.5"/>
   </g>
   <g id="patch_9">
    <path d="M 60.175 244.2 
L 60.175 165.9 
" style="fill: none; stroke: #000000; stroke-width: 0.8; stroke-linejoin: miter; stroke-linecap: square"/>
   </g>
   <g id="patch_10">
    <path d="M 410.0125 244.2 
L 410.0125 165.9 
" style="fill: none; stroke: #000000; stroke-width: 0.8; stroke-linejoin: miter; stroke-linecap: square"/>
   </g>
   <g id="patch_11">
    <path d="M 60.175 244.2 
L 410.0125 244.2 
" style="fill: none; stroke: #000000; stroke-width: 0.8; stroke-linejoin: miter; stroke-linecap: square"/>
   </g>
   <g id="patch_12">
    <path d="M 60.175 165.9 
L 410.0125 165.9 
" style="fill: none; stroke: #000000; stroke-width: 0.8; stroke-linejoin: miter; stroke-linecap: square"/>
   </g>
   <g id="text_27">
    <!-- Fourier amplitudes -->
    <g transform="translate(178.7425 159.9)scale(0.12 -0.12)">
     <defs>
      <path id="DejaVuSans-46" d="M 628 4666 
L 3309 4666 
L 3309 4134 
L 1259 4134 
L 1259 2759 
L 3109 2759 
L 3109 2228 
L 1259 2228 
L 1259 0 
L 628 0 
L 628 4666 
z
" transform="scale(0.015625)"/>
      <path id="DejaVuSans-75" d="M 544 1381 
L 544 3500 
L 1119 3500 
L 1119 1403 
Q 1119 906 1312 657 
Q 1506 409 1894 409 
Q 2359 409 2629 706 
Q 2900 1003 2900 1516 
L 2900 3500 
L 3475 3500 
L 3475 0 
L 2900 0 
L 2900 538 
Q 2691 219 2414 64 
Q 2138 -91 1772 -91 
Q 1169 -91 856 284 
Q 544 659 544 1381 
z
M 1991 3584 
L 1991 3584 
z
" transform="scale(0.015625)"/>
      <path id="DejaVuSans-65" d="M 3597 1894 
L 3597 1613 
L 953 1613 
Q 991 1019 1311 708 
Q 1631 397 2203 397 
Q 2534 397 2845 478 
Q 3156 559 3463 722 
L 3463 178 
Q 3153 47 2828 -22 
Q 2503 -91 2169 -91 
Q 1331 -91 842 396 
Q 353 884 353 1716 
Q 353 2575 817 3079 
Q 1281 3584 2069 3584 
Q 2775 3584 3186 3129 
Q 3597 2675 3597 1894 
z
M 3022 2063 
Q 3016 2534 2758 2815 
Q 2500 3097 2075 3097 
Q 1594 3097 1305 2825 
Q 1016 2553 972 2059 
L 3022 2063 
z
" transform="scale(0.015625)"/>
      <path id="DejaVuSans-6d" d="M 3328 2828 
Q 3544 3216 3844 3400 
Q 4144 3584 4550 3584 
Q 5097 3584 5394 3201 
Q 5691 2819 5691 2113 
L 5691 0 
L 5113 0 
L 5113 2094 
Q 5113 2597 4934 2840 
Q 4756 3084 4391 3084 
Q 3944 3084 3684 2787 
Q 3425 2491 3425 1978 
L 3425 0 
L 2847 0 
L 2847 2094 
Q 2847 2600 2669 2842 
Q 2491 3084 2119 3084 
Q 1678 3084 1418 2786 
Q 1159 2488 1159 1978 
L 1159 0 
L 581 0 
L 581 3500 
L 1159 3500 
L 1159 2956 
Q 1356 3278 1631 3431 
Q 1906 3584 2284 3584 
Q 2666 3584 2933 3390 
Q 3200 3197 3328 2828 
z
" transform="scale(0.015625)"/>
      <path id="DejaVuSans-70" d="M 1159 525 
L 1159 -1331 
L 581 -1331 
L 581 3500 
L 1159 3500 
L 1159 2969 
Q 1341 3281 1617 3432 
Q 1894 3584 2278 3584 
Q 2916 3584 3314 3078 
Q 3713 2572 3713 1747 
Q 3713 922 3314 415 
Q 2916 -91 2278 -91 
Q 1894 -91 1617 61 
Q 1341 213 1159 525 
z
M 3116 1747 
Q 3116 2381 2855 2742 
Q 2594 3103 2138 3103 
Q 1681 3103 1420 2742 
Q 1159 2381 1159 1747 
Q 1159 1113 1420 752 
Q 1681 391 2138 391 
Q 2594 391 2855 752 
Q 3116 1113 3116 1747 
z
" transform="scale(0.015625)"/>
      <path id="DejaVuSans-64" d="M 2906 2969 
L 2906 4863 
L 3481 4863 
L 3481 0 
L 2906 0 
L 2906 525 
Q 2725 213 2448 61 
Q 2172 -91 1784 -91 
Q 1150 -91 751 415 
Q 353 922 353 1747 
Q 353 2572 751 3078 
Q 1150 3584 1784 3584 
Q 2172 3584 2448 3432 
Q 2725 3281 2906 2969 
z
M 947 1747 
Q 947 1113 1208 752 
Q 1469 391 1925 391 
Q 2381 391 2643 752 
Q 2906 1113 2906 1747 
Q 2906 2381 2643 2742 
Q 2381 3103 1925 3103 
Q 1469 3103 1208 2742 
Q 947 2381 947 1747 
z
" transform="scale(0.015625)"/>
     </defs>
     <use xlink:href="#DejaVuSans-46"/>
     <use xlink:href="#DejaVuSans-6f" x="53.894531"/>
     <use xlink:href="#DejaVuSans-75" x="115.076172"/>
     <use xlink:href="#DejaVuSans-72" x="178.455078"/>
     <use xlink:href="#DejaVuSans-69" x="219.568359"/>
     <use xlink:href="#DejaVuSans-65" x="247.351562"/>
     <use xlink:href="#DejaVuSans-72" x="308.875"/>
     <use xlink:href="#DejaVuSans-20" x="349.988281"/>
     <use xlink:href="#DejaVuSans-61" x="381.775391"/>
     <use xlink:href="#DejaVuSans-6d" x="443.054688"/>
     <use xlink:href="#DejaVuSans-70" x="540.466797"/>
     <use xlink:href="#DejaVuSans-6c" x="603.943359"/>
     <use xlink:href="#DejaVuSans-69" x="631.726562"/>
     <use xlink:href="#DejaVuSans-74" x="659.509766"/>
     <use xlink:href="#DejaVuSans-75" x="698.71875"/>
     <use xlink:href="#DejaVuSans-64" x="762.097656"/>
     <use xlink:href="#DejaVuSans-65" x="825.574219"/>
     <use xlink:href="#DejaVuSans-73" x="887.097656"/>
    </g>
   </g>
   <g id="legend_2">
    <g id="patch_13">
     <path d="M 315.684375 203.25625 
L 403.0125 203.25625 
Q 405.0125 203.25625 405.0125 201.25625 
L 405.0125 172.9 
Q 405.0125 170.9 403.0125 170.9 
L 315.684375 170.9 
Q 313.684375 170.9 313.684375 172.9 
L 313.684375 201.25625 
Q 313.684375 203.25625 315.684375 203.25625 
z
" style="fill: #ffffff; opacity: 0.8; stroke: #cccccc; stroke-linejoin: miter"/>
    </g>
    <g id="line2d_36">
     <path d="M 317.684375 178.998438 
L 327.684375 178.998438 
L 337.684375 178.998438 
" style="fill: none; stroke: #1f77b4; stroke-width: 1.5; stroke-linecap: square"/>
    </g>
    <g id="text_28">
     <!-- fs=1000Hz -->
     <g transform="translate(345.684375 182.498438)scale(0.1 -0.1)">
      <use xlink:href="#DejaVuSans-66"/>
      <use xlink:href="#DejaVuSans-73" x="35.205078"/>
      <use xlink:href="#DejaVuSans-3d" x="87.304688"/>
      <use xlink:href="#DejaVuSans-31" x="171.09375"/>
      <use xlink:href="#DejaVuSans-30" x="234.716797"/>
      <use xlink:href="#DejaVuSans-30" x="298.339844"/>
      <use xlink:href="#DejaVuSans-30" x="361.962891"/>
      <use xlink:href="#DejaVuSans-48" x="425.585938"/>
      <use xlink:href="#DejaVuSans-7a" x="500.78125"/>
     </g>
    </g>
    <g id="line2d_37">
     <path d="M 317.684375 193.676563 
L 327.684375 193.676563 
L 337.684375 193.676563 
" style="fill: none; stroke: #ff7f0e; stroke-width: 1.5; stroke-linecap: square"/>
    </g>
    <g id="text_29">
     <!-- fs=21Hz -->
     <g transform="translate(345.684375 197.176563)scale(0.1 -0.1)">
      <use xlink:href="#DejaVuSans-66"/>
      <use xlink:href="#DejaVuSans-73" x="35.205078"/>
      <use xlink:href="#DejaVuSans-3d" x="87.304688"/>
      <use xlink:href="#DejaVuSans-32" x="171.09375"/>
      <use xlink:href="#DejaVuSans-31" x="234.716797"/>
      <use xlink:href="#DejaVuSans-48" x="298.339844"/>
      <use xlink:href="#DejaVuSans-7a" x="373.535156"/>
     </g>
    </g>
   </g>
  </g>
 </g>
 <defs>
  <clipPath id="pfce15d0106">
   <rect x="60.175" y="26.8" width="349.8375" height="78.3"/>
  </clipPath>
  <clipPath id="pc154752248">
   <rect x="60.175" y="165.9" width="349.8375" height="78.3"/>
  </clipPath>
 </defs>
</svg>
