<?xml version="1.0" encoding="UTF-8" standalone="no"?>
<!-- Created with Inkscape (http://www.inkscape.org/) -->

<svg
   width="150mm"
   height="80mm"
   viewBox="0 0 150 80"
   version="1.1"
   id="svg5"
   inkscape:version="1.2.1 (9c6d41e410, 2022-07-14)"
   sodipodi:docname="Fig_4_2.svg"
   xmlns:inkscape="http://www.inkscape.org/namespaces/inkscape"
   xmlns:sodipodi="http://sodipodi.sourceforge.net/DTD/sodipodi-0.dtd"
   xmlns="http://www.w3.org/2000/svg"
   xmlns:svg="http://www.w3.org/2000/svg">
  <sodipodi:namedview
     id="namedview7"
     pagecolor="#ffffff"
     bordercolor="#000000"
     borderopacity="0.25"
     inkscape:showpageshadow="2"
     inkscape:pageopacity="0.0"
     inkscape:pagecheckerboard="0"
     inkscape:deskcolor="#d1d1d1"
     inkscape:document-units="mm"
     showgrid="true"
     inkscape:zoom="1.4503087"
     inkscape:cx="449.90422"
     inkscape:cy="207.88678"
     inkscape:window-width="1920"
     inkscape:window-height="1001"
     inkscape:window-x="-9"
     inkscape:window-y="-9"
     inkscape:window-maximized="1"
     inkscape:current-layer="layer1">
    <inkscape:grid
       type="xygrid"
       id="grid9"
       units="mm"
       spacingx="5"
       spacingy="5"
       empspacing="2"
       originx="0"
       originy="0" />
  </sodipodi:namedview>
  <defs
     id="defs2">
    <marker
       style="overflow:visible"
       id="marker1578"
       refX="0"
       refY="0"
       orient="auto-start-reverse"
       inkscape:stockid="TriangleStart"
       markerWidth="5.3244081"
       markerHeight="6.155385"
       viewBox="0 0 5.3244081 6.1553851"
       inkscape:isstock="true"
       inkscape:collect="always"
       preserveAspectRatio="xMidYMid">
      <path
         transform="scale(0.5)"
         style="fill:context-stroke;fill-rule:evenodd;stroke:context-stroke;stroke-width:1pt"
         d="M 5.77,0 -2.88,5 V -5 Z"
         id="path1576" />
    </marker>
    <marker
       style="overflow:visible"
       id="marker1514"
       refX="0"
       refY="0"
       orient="auto-start-reverse"
       inkscape:stockid="TriangleStart"
       markerWidth="5.3244081"
       markerHeight="6.155385"
       viewBox="0 0 5.3244081 6.1553851"
       inkscape:isstock="true"
       inkscape:collect="always"
       preserveAspectRatio="xMidYMid">
      <path
         transform="scale(0.5)"
         style="fill:context-stroke;fill-rule:evenodd;stroke:context-stroke;stroke-width:1pt"
         d="M 5.77,0 -2.88,5 V -5 Z"
         id="path1512" />
    </marker>
    <marker
       style="overflow:visible"
       id="marker1448"
       refX="0"
       refY="0"
       orient="auto-start-reverse"
       inkscape:stockid="TriangleStart"
       markerWidth="5.3244081"
       markerHeight="6.155385"
       viewBox="0 0 5.3244081 6.1553851"
       inkscape:isstock="true"
       inkscape:collect="always"
       preserveAspectRatio="xMidYMid">
      <path
         transform="scale(0.5)"
         style="fill:context-stroke;fill-rule:evenodd;stroke:context-stroke;stroke-width:1pt"
         d="M 5.77,0 -2.88,5 V -5 Z"
         id="path1446" />
    </marker>
    <marker
       style="overflow:visible"
       id="TriangleStart"
       refX="0"
       refY="0"
       orient="auto-start-reverse"
       inkscape:stockid="TriangleStart"
       markerWidth="5.3244081"
       markerHeight="6.155385"
       viewBox="0 0 5.3244081 6.1553851"
       inkscape:isstock="true"
       inkscape:collect="always"
       preserveAspectRatio="xMidYMid">
      <path
         transform="scale(0.5)"
         style="fill:context-stroke;fill-rule:evenodd;stroke:context-stroke;stroke-width:1pt"
         d="M 5.77,0 -2.88,5 V -5 Z"
         id="path135" />
    </marker>
    <marker
       style="overflow:visible"
       id="marker1448-4"
       refX="0"
       refY="0"
       orient="auto-start-reverse"
       inkscape:stockid="TriangleStart"
       markerWidth="5.3244081"
       markerHeight="6.155385"
       viewBox="0 0 5.3244081 6.1553851"
       inkscape:isstock="true"
       inkscape:collect="always"
       preserveAspectRatio="xMidYMid">
      <path
         transform="scale(0.5)"
         style="fill:context-stroke;fill-rule:evenodd;stroke:context-stroke;stroke-width:1pt"
         d="M 5.77,0 -2.88,5 V -5 Z"
         id="path1446-1" />
    </marker>
    <clipPath
       id="clipPath5270">
      <path
         clip-rule="nonzero"
         d="M 5,1 H 9 V 5.785156 H 5 Z m 0,0"
         id="path4457" />
    </clipPath>
    <clipPath
       id="clipPath1740">
      <path
         clip-rule="nonzero"
         d="m 6,1 h 4 V 6.941406 H 6 Z m 0,0"
         id="path4161" />
    </clipPath>
    <clipPath
       id="clipPath1942">
      <path
         clip-rule="nonzero"
         d="m 6,1 h 4 V 6.941406 H 6 Z m 0,0"
         id="path8877" />
    </clipPath>
    <clipPath
       id="clipPath5094">
      <path
         clip-rule="nonzero"
         d="m 9,2 h 4 V 9.996094 H 9 Z m 0,0"
         id="path3016" />
    </clipPath>
    <clipPath
       id="clipPath1328">
      <path
         clip-rule="nonzero"
         d="m 8,2 h 6 V 9.996094 H 8 Z m 0,0"
         id="path3781" />
    </clipPath>
    <clipPath
       id="clipPath1251">
      <path
         clip-rule="nonzero"
         d="m 8,2 h 6 V 9.996094 H 8 Z m 0,0"
         id="path5941" />
    </clipPath>
    <clipPath
       id="clipPath8704">
      <path
         clip-rule="nonzero"
         d="m 8,2 h 6 V 9.996094 H 8 Z m 0,0"
         id="path4153" />
    </clipPath>
    <clipPath
       id="clipPath1681">
      <path
         clip-rule="nonzero"
         d="m 8,2 h 6 V 9.996094 H 8 Z m 0,0"
         id="path5539" />
    </clipPath>
    <clipPath
       id="clipPath5442">
      <path
         clip-rule="nonzero"
         d="m 8,2 h 6 V 9.996094 H 8 Z m 0,0"
         id="path5541" />
    </clipPath>
    <clipPath
       id="clipPath8190">
      <path
         clip-rule="nonzero"
         d="M 0,0 H 8 V 11.953125 H 0 Z m 0,0"
         id="path9649" />
    </clipPath>
  </defs>
  <g
     inkscape:label="Lag 1"
     inkscape:groupmode="layer"
     id="layer1">
    <path
       style="fill:#ff7f2a;stroke:#ffd42a;stroke-width:2.98629;stroke-dasharray:none;stroke-opacity:1"
       d="M 40,50 120,20.312473"
       id="path175"
       sodipodi:nodetypes="cc" />
    <circle
       style="fill:#000000;stroke:#000000;stroke-width:2;stroke-dasharray:none;stroke-opacity:1"
       id="path1133"
       cx="39.941666"
       cy="49.945824"
       r="0.5" />
    <circle
       style="fill:#000000;stroke:#000000;stroke-width:2;stroke-dasharray:none;stroke-opacity:1"
       id="path1133-6"
       cx="120.02917"
       cy="20.312462"
       r="0.5" />
    <path
       style="fill:#000000;stroke:#000000;stroke-width:0.489898;stroke-dasharray:none;stroke-opacity:1;marker-end:url(#marker1514)"
       d="M 39.999999,69.945827 V 54.945826"
       id="path1157" />
    <path
       style="fill:#000000;stroke:#000000;stroke-width:0.4;stroke-dasharray:none;stroke-opacity:1;marker-end:url(#marker1578)"
       d="M 20,49.945825 H 34.999998"
       id="path1159" />
    <path
       style="fill:#000000;stroke:#000000;stroke-width:0.4;stroke-dasharray:none;stroke-opacity:1;marker-end:url(#marker1448)"
       d="M 120,40.312473 V 25.312474"
       id="path1161" />
    <path
       style="fill:#000000;stroke:#000000;stroke-width:0.4;stroke-dasharray:none;stroke-opacity:1;marker-end:url(#TriangleStart)"
       d="m 125.38332,20.312475 h 15"
       id="path1159-6" />
    <path
       style="fill:none;stroke:#000000;stroke-width:0.4;stroke-dasharray:none;stroke-opacity:1;marker-end:url(#marker1448)"
       id="path1758"
       sodipodi:type="arc"
       sodipodi:cx="39.860756"
       sodipodi:cy="50.381954"
       sodipodi:rx="7"
       sodipodi:ry="7"
       sodipodi:start="2.8206441"
       sodipodi:end="5.7176986"
       sodipodi:arc-type="arc"
       d="m 33.2182,52.590222 a 7,7 0 0 1 3.640617,-8.531903 7,7 0 0 1 8.912234,2.572847"
       sodipodi:open="true" />
    <path
       style="fill:none;stroke:#000000;stroke-width:0.4;stroke-dasharray:none;stroke-opacity:1;marker-end:url(#marker1448-4)"
       id="path1758-8"
       sodipodi:type="arc"
       sodipodi:cx="119.84699"
       sodipodi:cy="21.471596"
       sodipodi:rx="7"
       sodipodi:ry="7"
       sodipodi:start="2.8206441"
       sodipodi:end="5.7176986"
       sodipodi:arc-type="arc"
       d="m 113.20444,23.679864 a 7,7 0 0 1 3.64061,-8.531904 7,7 0 0 1 8.91224,2.572848"
       sodipodi:open="true" />
    <g
       inkscape:label=""
       transform="translate(20.252868,43.996449)"
       id="g3717">
      <g
         fill="#000000"
         fill-opacity="1"
         id="g3707"
         transform="matrix(0.352778,0,0,0.352778,-0.165365,0.0637645)">
        <g
           id="g3705"
           transform="translate(0,7.4130001)">
          <path
             d="m 7.875,-6.4375 c 0,-1.09375 -0.5625,-1.15625 -0.6875,-1.15625 -0.421875,0 -0.796875,0.40625 -0.796875,0.765625 0,0.203125 0.125,0.3125 0.1875,0.390625 0.171875,0.15625 0.625,0.625 0.625,1.515625 0,0.71875 -1.03125,4.75 -3.109375,4.75 -1.046875,0 -1.25,-0.875 -1.25,-1.515625 0,-0.859375 0.390625,-2.0625 0.859375,-3.3125 0.28125,-0.703125 0.34375,-0.875 0.34375,-1.21875 0,-0.71875 -0.515625,-1.375 -1.359375,-1.375 -1.578125,0 -2.21875,2.5 -2.21875,2.640625 0,0.0625 0.0625,0.15625 0.1875,0.15625 0.15625,0 0.171875,-0.078125 0.234375,-0.3125 C 1.3125,-6.59375 1.984375,-7.25 2.640625,-7.25 c 0.15625,0 0.4375,0 0.4375,0.5625 0,0.453125 -0.1875,0.953125 -0.4375,1.609375 C 1.8125,-2.875 1.8125,-2.34375 1.8125,-1.921875 c 0,0.375 0.046875,1.078125 0.578125,1.5625 0.625,0.53125 1.484375,0.53125 1.640625,0.53125 2.859375,0 3.84375,-5.625 3.84375,-6.609375 z m 0,0"
             id="path3703" />
        </g>
      </g>
      <g
         clip-path="url(#clipPath5094)"
         id="g3715"
         transform="matrix(0.352778,0,0,0.352778,-0.165365,0.0637645)">
        <g
           fill="#000000"
           fill-opacity="1"
           id="g3713">
          <g
             id="g3711"
             transform="translate(8.1490002,9.9949999)">
            <path
               d="m 3.203125,-6.984375 c 0,-0.25 0,-0.28125 -0.25,-0.28125 C 2.28125,-6.5625 1.3125,-6.5625 0.96875,-6.5625 v 0.328125 c 0.21875,0 0.859375,0 1.4375,-0.28125 v 5.65625 c 0,0.390625 -0.046875,0.515625 -1.015625,0.515625 H 1.03125 V 0 c 0.390625,-0.03125 1.328125,-0.03125 1.765625,-0.03125 0.4375,0 1.390625,0 1.765625,0.03125 V -0.34375 H 4.21875 c -0.984375,0 -1.015625,-0.109375 -1.015625,-0.515625 z m 0,0"
               id="path3709" />
          </g>
        </g>
      </g>
    </g>
    <g
       inkscape:label=""
       transform="translate(42.182732,63.862327)"
       id="g4635">
      <g
         fill="#000000"
         fill-opacity="1"
         id="g19"
         transform="matrix(0.352778,0,0,0.352778,-0.165365,0.0637645)">
        <g
           id="use17"
           transform="translate(0,7.4130001)">
          <path
             d="m 7.875,-6.4375 c 0,-1.09375 -0.5625,-1.15625 -0.6875,-1.15625 -0.421875,0 -0.796875,0.40625 -0.796875,0.765625 0,0.203125 0.125,0.3125 0.1875,0.390625 0.171875,0.15625 0.625,0.625 0.625,1.515625 0,0.71875 -1.03125,4.75 -3.109375,4.75 -1.046875,0 -1.25,-0.875 -1.25,-1.515625 0,-0.859375 0.390625,-2.0625 0.859375,-3.3125 0.28125,-0.703125 0.34375,-0.875 0.34375,-1.21875 0,-0.71875 -0.515625,-1.375 -1.359375,-1.375 -1.578125,0 -2.21875,2.5 -2.21875,2.640625 0,0.0625 0.0625,0.15625 0.1875,0.15625 0.15625,0 0.171875,-0.078125 0.234375,-0.3125 C 1.3125,-6.59375 1.984375,-7.25 2.640625,-7.25 c 0.15625,0 0.4375,0 0.4375,0.5625 0,0.453125 -0.1875,0.953125 -0.4375,1.609375 C 1.8125,-2.875 1.8125,-2.34375 1.8125,-1.921875 c 0,0.375 0.046875,1.078125 0.578125,1.5625 0.625,0.53125 1.484375,0.53125 1.640625,0.53125 2.859375,0 3.84375,-5.625 3.84375,-6.609375 z m 0,0"
             id="path31" />
        </g>
      </g>
      <g
         clip-path="url(#clipPath1328)"
         id="g25"
         transform="matrix(0.352778,0,0,0.352778,-0.165365,0.0637645)">
        <g
           fill="#000000"
           fill-opacity="1"
           id="g23">
          <g
             id="use21"
             transform="translate(8.1490002,9.9949999)">
            <path
               d="m 1.390625,-0.84375 1.15625,-1.125 c 1.703125,-1.5 2.34375,-2.09375 2.34375,-3.171875 0,-1.25 -0.96875,-2.125 -2.3125,-2.125 -1.21875,0 -2.03125,1 -2.03125,1.96875 0,0.625 0.546875,0.625 0.578125,0.625 0.1875,0 0.5625,-0.140625 0.5625,-0.578125 0,-0.296875 -0.1875,-0.578125 -0.578125,-0.578125 -0.078125,0 -0.109375,0 -0.140625,0.015625 0.25,-0.703125 0.84375,-1.109375 1.46875,-1.109375 1,0 1.46875,0.875 1.46875,1.78125 0,0.859375 -0.546875,1.734375 -1.140625,2.40625 l -2.09375,2.328125 c -0.125,0.125 -0.125,0.140625 -0.125,0.40625 H 4.59375 L 4.890625,-1.890625 H 4.625 C 4.5625,-1.578125 4.5,-1.09375 4.390625,-0.921875 4.3125,-0.84375 3.59375,-0.84375 3.34375,-0.84375 Z m 0,0"
               id="path35" />
          </g>
        </g>
      </g>
    </g>
    <g
       inkscape:label=""
       transform="translate(36.764709,37.28849)"
       id="g5580">
      <g
         fill="#000000"
         fill-opacity="1"
         id="g5570"
         transform="matrix(0.352778,0,0,0.352778,-0.165365,0.0637645)">
        <g
           id="g5568"
           transform="translate(0,7.4130001)">
          <path
             d="m 7.875,-6.4375 c 0,-1.09375 -0.5625,-1.15625 -0.6875,-1.15625 -0.421875,0 -0.796875,0.40625 -0.796875,0.765625 0,0.203125 0.125,0.3125 0.1875,0.390625 0.171875,0.15625 0.625,0.625 0.625,1.515625 0,0.71875 -1.03125,4.75 -3.109375,4.75 -1.046875,0 -1.25,-0.875 -1.25,-1.515625 0,-0.859375 0.390625,-2.0625 0.859375,-3.3125 0.28125,-0.703125 0.34375,-0.875 0.34375,-1.21875 0,-0.71875 -0.515625,-1.375 -1.359375,-1.375 -1.578125,0 -2.21875,2.5 -2.21875,2.640625 0,0.0625 0.0625,0.15625 0.1875,0.15625 0.15625,0 0.171875,-0.078125 0.234375,-0.3125 C 1.3125,-6.59375 1.984375,-7.25 2.640625,-7.25 c 0.15625,0 0.4375,0 0.4375,0.5625 0,0.453125 -0.1875,0.953125 -0.4375,1.609375 C 1.8125,-2.875 1.8125,-2.34375 1.8125,-1.921875 c 0,0.375 0.046875,1.078125 0.578125,1.5625 0.625,0.53125 1.484375,0.53125 1.640625,0.53125 2.859375,0 3.84375,-5.625 3.84375,-6.609375 z m 0,0"
             id="path5566" />
        </g>
      </g>
      <g
         clip-path="url(#clipPath1251)"
         id="g5578"
         transform="matrix(0.352778,0,0,0.352778,-0.165365,0.0637645)">
        <g
           fill="#000000"
           fill-opacity="1"
           id="g5576">
          <g
             id="g5574"
             transform="translate(8.1490002,9.9949999)">
            <path
               d="M 3.15625,-3.84375 C 4.0625,-4.140625 4.6875,-4.890625 4.6875,-5.765625 c 0,-0.890625 -0.953125,-1.5 -2,-1.5 -1.109375,0 -1.9375,0.65625 -1.9375,1.484375 0,0.359375 0.25,0.5625 0.5625,0.5625 0.328125,0 0.546875,-0.234375 0.546875,-0.546875 0,-0.546875 -0.5,-0.546875 -0.671875,-0.546875 C 1.53125,-6.84375 2.25,-6.984375 2.640625,-6.984375 3.09375,-6.984375 3.6875,-6.75 3.6875,-5.765625 3.6875,-5.640625 3.671875,-5 3.375,-4.53125 3.046875,-4 2.6875,-3.96875 2.40625,-3.953125 c -0.078125,0 -0.34375,0.03125 -0.421875,0.03125 -0.09375,0 -0.15625,0.015625 -0.15625,0.125 0,0.125 0.0625,0.125 0.25,0.125 H 2.5625 c 0.890625,0 1.296875,0.734375 1.296875,1.8125 0,1.484375 -0.75,1.796875 -1.234375,1.796875 -0.46875,0 -1.28125,-0.1875 -1.671875,-0.828125 0.390625,0.046875 0.71875,-0.1875 0.71875,-0.609375 0,-0.390625 -0.28125,-0.609375 -0.609375,-0.609375 -0.25,0 -0.609375,0.15625 -0.609375,0.640625 0,0.984375 1.015625,1.703125 2.203125,1.703125 1.328125,0 2.328125,-0.984375 2.328125,-2.09375 0,-0.90625 -0.6875,-1.75 -1.828125,-1.984375 z m 0,0"
               id="path5572" />
          </g>
        </g>
      </g>
    </g>
    <g
       inkscape:label=""
       transform="translate(132.74012,14.105099)"
       id="g6545">
      <g
         fill="#000000"
         fill-opacity="1"
         id="g6535"
         transform="matrix(0.352778,0,0,0.352778,-0.165365,0.0637645)">
        <g
           id="g6533"
           transform="translate(0,7.4130001)">
          <path
             d="m 7.875,-6.4375 c 0,-1.09375 -0.5625,-1.15625 -0.6875,-1.15625 -0.421875,0 -0.796875,0.40625 -0.796875,0.765625 0,0.203125 0.125,0.3125 0.1875,0.390625 0.171875,0.15625 0.625,0.625 0.625,1.515625 0,0.71875 -1.03125,4.75 -3.109375,4.75 -1.046875,0 -1.25,-0.875 -1.25,-1.515625 0,-0.859375 0.390625,-2.0625 0.859375,-3.3125 0.28125,-0.703125 0.34375,-0.875 0.34375,-1.21875 0,-0.71875 -0.515625,-1.375 -1.359375,-1.375 -1.578125,0 -2.21875,2.5 -2.21875,2.640625 0,0.0625 0.0625,0.15625 0.1875,0.15625 0.15625,0 0.171875,-0.078125 0.234375,-0.3125 C 1.3125,-6.59375 1.984375,-7.25 2.640625,-7.25 c 0.15625,0 0.4375,0 0.4375,0.5625 0,0.453125 -0.1875,0.953125 -0.4375,1.609375 C 1.8125,-2.875 1.8125,-2.34375 1.8125,-1.921875 c 0,0.375 0.046875,1.078125 0.578125,1.5625 0.625,0.53125 1.484375,0.53125 1.640625,0.53125 2.859375,0 3.84375,-5.625 3.84375,-6.609375 z m 0,0"
             id="path6531" />
        </g>
      </g>
      <g
         clip-path="url(#clipPath8704)"
         id="g6543"
         transform="matrix(0.352778,0,0,0.352778,-0.165365,0.0637645)">
        <g
           fill="#000000"
           fill-opacity="1"
           id="g6541">
          <g
             id="g6539"
             transform="translate(8.1490002,9.9949999)">
            <path
               d="m 3.203125,-1.796875 v 0.953125 c 0,0.390625 -0.015625,0.5 -0.828125,0.5 H 2.15625 V 0 c 0.4375,-0.03125 1,-0.03125 1.46875,-0.03125 0.453125,0 1.03125,0 1.484375,0.03125 V -0.34375 H 4.875 c -0.8125,0 -0.828125,-0.109375 -0.828125,-0.5 v -0.953125 h 1.09375 v -0.34375 H 4.046875 V -7.09375 c 0,-0.21875 0,-0.296875 -0.171875,-0.296875 -0.09375,0 -0.140625,0 -0.21875,0.140625 L 0.3125,-2.140625 v 0.34375 z m 0.0625,-0.34375 h -2.65625 l 2.65625,-4.0625 z m 0,0"
               id="path6537" />
          </g>
        </g>
      </g>
    </g>
    <g
       inkscape:label=""
       transform="translate(121.38819,31.390992)"
       id="g7530">
      <g
         fill="#000000"
         fill-opacity="1"
         id="g7520"
         transform="matrix(0.352778,0,0,0.352778,-0.165365,0.0637645)">
        <g
           id="g7518"
           transform="translate(0,7.4130001)">
          <path
             d="m 7.875,-6.4375 c 0,-1.09375 -0.5625,-1.15625 -0.6875,-1.15625 -0.421875,0 -0.796875,0.40625 -0.796875,0.765625 0,0.203125 0.125,0.3125 0.1875,0.390625 0.171875,0.15625 0.625,0.625 0.625,1.515625 0,0.71875 -1.03125,4.75 -3.109375,4.75 -1.046875,0 -1.25,-0.875 -1.25,-1.515625 0,-0.859375 0.390625,-2.0625 0.859375,-3.3125 0.28125,-0.703125 0.34375,-0.875 0.34375,-1.21875 0,-0.71875 -0.515625,-1.375 -1.359375,-1.375 -1.578125,0 -2.21875,2.5 -2.21875,2.640625 0,0.0625 0.0625,0.15625 0.1875,0.15625 0.15625,0 0.171875,-0.078125 0.234375,-0.3125 C 1.3125,-6.59375 1.984375,-7.25 2.640625,-7.25 c 0.15625,0 0.4375,0 0.4375,0.5625 0,0.453125 -0.1875,0.953125 -0.4375,1.609375 C 1.8125,-2.875 1.8125,-2.34375 1.8125,-1.921875 c 0,0.375 0.046875,1.078125 0.578125,1.5625 0.625,0.53125 1.484375,0.53125 1.640625,0.53125 2.859375,0 3.84375,-5.625 3.84375,-6.609375 z m 0,0"
             id="path7516" />
        </g>
      </g>
      <g
         clip-path="url(#clipPath1681)"
         id="g7528"
         transform="matrix(0.352778,0,0,0.352778,-0.165365,0.0637645)">
        <g
           fill="#000000"
           fill-opacity="1"
           id="g7526">
          <g
             id="g7524"
             transform="translate(8.1490002,9.9949999)">
            <path
               d="m 4.890625,-2.1875 c 0,-1.296875 -0.890625,-2.390625 -2.0625,-2.390625 -0.53125,0 -1,0.171875 -1.390625,0.546875 v -2.125 c 0.21875,0.078125 0.578125,0.140625 0.921875,0.140625 1.34375,0 2.109375,-0.984375 2.109375,-1.125 0,-0.0625 -0.03125,-0.125 -0.109375,-0.125 0,0 -0.03125,0 -0.078125,0.03125 -0.21875,0.109375 -0.765625,0.3125 -1.484375,0.3125 -0.4375,0 -0.9375,-0.0625 -1.453125,-0.296875 C 1.25,-7.25 1.234375,-7.25 1.203125,-7.25 1.09375,-7.25 1.09375,-7.171875 1.09375,-6.984375 v 3.21875 c 0,0.203125 0,0.28125 0.15625,0.28125 0.078125,0 0.109375,-0.03125 0.140625,-0.09375 0.125,-0.171875 0.53125,-0.765625 1.40625,-0.765625 0.578125,0 0.84375,0.5 0.9375,0.703125 0.171875,0.40625 0.1875,0.828125 0.1875,1.375 0,0.375 0,1.03125 -0.25,1.484375 C 3.40625,-0.34375 3,-0.0625 2.5,-0.0625 c -0.796875,0 -1.421875,-0.578125 -1.609375,-1.21875 0.03125,0 0.0625,0.015625 0.1875,0.015625 0.359375,0 0.546875,-0.265625 0.546875,-0.53125 0,-0.265625 -0.1875,-0.53125 -0.546875,-0.53125 -0.15625,0 -0.53125,0.078125 -0.53125,0.578125 0,0.9375 0.75,1.984375 1.96875,1.984375 1.265625,0 2.375,-1.046875 2.375,-2.421875 z m 0,0"
               id="path7522" />
          </g>
        </g>
      </g>
    </g>
    <g
       inkscape:label=""
       transform="translate(113.90623,9.2031296)"
       id="g8535">
      <g
         fill="#000000"
         fill-opacity="1"
         id="g8525"
         transform="matrix(0.352778,0,0,0.352778,-0.165365,0.0637645)">
        <g
           id="g8523"
           transform="translate(0,7.4130001)">
          <path
             d="m 7.875,-6.4375 c 0,-1.09375 -0.5625,-1.15625 -0.6875,-1.15625 -0.421875,0 -0.796875,0.40625 -0.796875,0.765625 0,0.203125 0.125,0.3125 0.1875,0.390625 0.171875,0.15625 0.625,0.625 0.625,1.515625 0,0.71875 -1.03125,4.75 -3.109375,4.75 -1.046875,0 -1.25,-0.875 -1.25,-1.515625 0,-0.859375 0.390625,-2.0625 0.859375,-3.3125 0.28125,-0.703125 0.34375,-0.875 0.34375,-1.21875 0,-0.71875 -0.515625,-1.375 -1.359375,-1.375 -1.578125,0 -2.21875,2.5 -2.21875,2.640625 0,0.0625 0.0625,0.15625 0.1875,0.15625 0.15625,0 0.171875,-0.078125 0.234375,-0.3125 C 1.3125,-6.59375 1.984375,-7.25 2.640625,-7.25 c 0.15625,0 0.4375,0 0.4375,0.5625 0,0.453125 -0.1875,0.953125 -0.4375,1.609375 C 1.8125,-2.875 1.8125,-2.34375 1.8125,-1.921875 c 0,0.375 0.046875,1.078125 0.578125,1.5625 0.625,0.53125 1.484375,0.53125 1.640625,0.53125 2.859375,0 3.84375,-5.625 3.84375,-6.609375 z m 0,0"
             id="path8521" />
        </g>
      </g>
      <g
         clip-path="url(#clipPath5442)"
         id="g8533"
         transform="matrix(0.352778,0,0,0.352778,-0.165365,0.0637645)">
        <g
           fill="#000000"
           fill-opacity="1"
           id="g8531">
          <g
             id="g8529"
             transform="translate(8.1490002,9.9949999)">
            <path
               d="M 1.4375,-3.578125 V -3.84375 c 0,-2.75 1.359375,-3.140625 1.90625,-3.140625 0.265625,0 0.71875,0.0625 0.96875,0.4375 -0.171875,0 -0.609375,0 -0.609375,0.484375 0,0.34375 0.265625,0.5 0.5,0.5 0.1875,0 0.515625,-0.09375 0.515625,-0.515625 0,-0.65625 -0.484375,-1.1875 -1.390625,-1.1875 -1.390625,0 -2.875,1.40625 -2.875,3.8125 0,2.921875 1.265625,3.6875 2.28125,3.6875 1.21875,0 2.25,-1.015625 2.25,-2.453125 0,-1.390625 -0.96875,-2.4375 -2.1875,-2.4375 -0.734375,0 -1.140625,0.5625 -1.359375,1.078125 z M 2.734375,-0.0625 c -0.6875,0 -1.015625,-0.65625 -1.078125,-0.828125 -0.1875,-0.5 -0.1875,-1.375 -0.1875,-1.578125 0,-0.84375 0.34375,-1.9375 1.328125,-1.9375 0.171875,0 0.671875,0 1.015625,0.671875 C 4,-3.328125 4,-2.765625 4,-2.234375 4,-1.71875 4,-1.171875 3.8125,-0.78125 3.484375,-0.125 2.984375,-0.0625 2.734375,-0.0625 Z m 0,0"
               id="path8527" />
          </g>
        </g>
      </g>
    </g>
    <path
       style="fill:none;stroke:#000000;stroke-width:0.4"
       d="m 39.999999,50 h 25"
       id="path14139" />
    <g
       inkscape:label=""
       transform="translate(58.573956,44.417637)"
       id="g14720">
      <g
         clip-path="url(#clipPath8190)"
         id="g17"
         transform="matrix(0.352778,0,0,0.352778,-0.242535,0.0599723)">
        <g
           fill="#000000"
           fill-opacity="1"
           id="g15">
          <g
             id="use13"
             transform="translate(0,11.955)">
            <path
               d="M 7.625,-8.65625 C 7.625,-10.421875 7.078125,-12.125 5.671875,-12.125 3.25,-12.125 0.6875,-7.078125 0.6875,-3.28125 0.6875,-2.5 0.859375,0.171875 2.671875,0.171875 5.015625,0.171875 7.625,-4.75 7.625,-8.65625 Z m -5.21875,2.421875 c 0.265625,-1.015625 0.625,-2.46875 1.3125,-3.6875 0.5625,-1.03125 1.171875,-1.859375 1.921875,-1.859375 0.578125,0 0.953125,0.484375 0.953125,2.140625 0,0.625 -0.046875,1.484375 -0.546875,3.40625 z M 5.921875,-5.71875 C 5.5,-4.03125 5.125,-2.9375 4.515625,-1.859375 c -0.5,0.875 -1.109375,1.6875 -1.828125,1.6875 -0.53125,0 -0.96875,-0.40625 -0.96875,-2.125 0,-1.109375 0.28125,-2.28125 0.546875,-3.421875 z m 0,0"
               id="path23" />
          </g>
        </g>
      </g>
    </g>
  </g>
</svg>
