<?xml version="1.0" encoding="utf-8" standalone="no"?>
<!DOCTYPE svg PUBLIC "-//W3C//DTD SVG 1.1//EN"
  "http://www.w3.org/Graphics/SVG/1.1/DTD/svg11.dtd">
<svg xmlns:xlink="http://www.w3.org/1999/xlink" width="460.8pt" height="345.6pt" viewBox="0 0 460.8 345.6" xmlns="http://www.w3.org/2000/svg" version="1.1">
 <metadata>
  <rdf:RDF xmlns:dc="http://purl.org/dc/elements/1.1/" xmlns:cc="http://creativecommons.org/ns#" xmlns:rdf="http://www.w3.org/1999/02/22-rdf-syntax-ns#">
   <cc:Work>
    <dc:type rdf:resource="http://purl.org/dc/dcmitype/StillImage"/>
    <dc:date>2022-09-15T22:30:40.005998</dc:date>
    <dc:format>image/svg+xml</dc:format>
    <dc:creator>
     <cc:Agent>
      <dc:title>Matplotlib v3.5.2, https://matplotlib.org/</dc:title>
     </cc:Agent>
    </dc:creator>
   </cc:Work>
  </rdf:RDF>
 </metadata>
 <defs>
  <style type="text/css">*{stroke-linejoin: round; stroke-linecap: butt}</style>
 </defs>
 <g id="figure_1">
  <g id="patch_1">
   <path d="M 0 345.6 
L 460.8 345.6 
L 460.8 0 
L 0 0 
z
" style="fill: #ffffff"/>
  </g>
  <g id="axes_1">
   <g id="patch_2">
    <path d="M 59.06 135.16 
L 438.84 135.16 
L 438.84 25.44 
L 59.06 25.44 
z
" style="fill: #ffffff"/>
   </g>
   <g id="matplotlib.axis_1">
    <g id="xtick_1">
     <g id="line2d_1">
      <path d="M 59.06 135.16 
L 59.06 25.44 
" clip-path="url(#pf451aa75be)" style="fill: none; stroke: #b0b0b0; stroke-width: 0.8; stroke-linecap: square"/>
     </g>
     <g id="line2d_2">
      <defs>
       <path id="m4646b7175c" d="M 0 0 
L 0 3.5 
" style="stroke: #000000; stroke-width: 0.8"/>
      </defs>
      <g>
       <use xlink:href="#m4646b7175c" x="59.06" y="135.16" style="stroke: #000000; stroke-width: 0.8"/>
      </g>
     </g>
     <g id="text_1">
      <!-- 10.0 -->
      <g transform="translate(47.927187 149.758437)scale(0.1 -0.1)">
       <defs>
        <path id="DejaVuSans-31" d="M 794 531 
L 1825 531 
L 1825 4091 
L 703 3866 
L 703 4441 
L 1819 4666 
L 2450 4666 
L 2450 531 
L 3481 531 
L 3481 0 
L 794 0 
L 794 531 
z
" transform="scale(0.015625)"/>
        <path id="DejaVuSans-30" d="M 2034 4250 
Q 1547 4250 1301 3770 
Q 1056 3291 1056 2328 
Q 1056 1369 1301 889 
Q 1547 409 2034 409 
Q 2525 409 2770 889 
Q 3016 1369 3016 2328 
Q 3016 3291 2770 3770 
Q 2525 4250 2034 4250 
z
M 2034 4750 
Q 2819 4750 3233 4129 
Q 3647 3509 3647 2328 
Q 3647 1150 3233 529 
Q 2819 -91 2034 -91 
Q 1250 -91 836 529 
Q 422 1150 422 2328 
Q 422 3509 836 4129 
Q 1250 4750 2034 4750 
z
" transform="scale(0.015625)"/>
        <path id="DejaVuSans-2e" d="M 684 794 
L 1344 794 
L 1344 0 
L 684 0 
L 684 794 
z
" transform="scale(0.015625)"/>
       </defs>
       <use xlink:href="#DejaVuSans-31"/>
       <use xlink:href="#DejaVuSans-30" x="63.623047"/>
       <use xlink:href="#DejaVuSans-2e" x="127.246094"/>
       <use xlink:href="#DejaVuSans-30" x="159.033203"/>
      </g>
     </g>
    </g>
    <g id="xtick_2">
     <g id="line2d_3">
      <path d="M 135.016 135.16 
L 135.016 25.44 
" clip-path="url(#pf451aa75be)" style="fill: none; stroke: #b0b0b0; stroke-width: 0.8; stroke-linecap: square"/>
     </g>
     <g id="line2d_4">
      <g>
       <use xlink:href="#m4646b7175c" x="135.016" y="135.16" style="stroke: #000000; stroke-width: 0.8"/>
      </g>
     </g>
     <g id="text_2">
      <!-- 10.2 -->
      <g transform="translate(123.883188 149.758437)scale(0.1 -0.1)">
       <defs>
        <path id="DejaVuSans-32" d="M 1228 531 
L 3431 531 
L 3431 0 
L 469 0 
L 469 531 
Q 828 903 1448 1529 
Q 2069 2156 2228 2338 
Q 2531 2678 2651 2914 
Q 2772 3150 2772 3378 
Q 2772 3750 2511 3984 
Q 2250 4219 1831 4219 
Q 1534 4219 1204 4116 
Q 875 4013 500 3803 
L 500 4441 
Q 881 4594 1212 4672 
Q 1544 4750 1819 4750 
Q 2544 4750 2975 4387 
Q 3406 4025 3406 3419 
Q 3406 3131 3298 2873 
Q 3191 2616 2906 2266 
Q 2828 2175 2409 1742 
Q 1991 1309 1228 531 
z
" transform="scale(0.015625)"/>
       </defs>
       <use xlink:href="#DejaVuSans-31"/>
       <use xlink:href="#DejaVuSans-30" x="63.623047"/>
       <use xlink:href="#DejaVuSans-2e" x="127.246094"/>
       <use xlink:href="#DejaVuSans-32" x="159.033203"/>
      </g>
     </g>
    </g>
    <g id="xtick_3">
     <g id="line2d_5">
      <path d="M 210.972 135.16 
L 210.972 25.44 
" clip-path="url(#pf451aa75be)" style="fill: none; stroke: #b0b0b0; stroke-width: 0.8; stroke-linecap: square"/>
     </g>
     <g id="line2d_6">
      <g>
       <use xlink:href="#m4646b7175c" x="210.972" y="135.16" style="stroke: #000000; stroke-width: 0.8"/>
      </g>
     </g>
     <g id="text_3">
      <!-- 10.4 -->
      <g transform="translate(199.839188 149.758437)scale(0.1 -0.1)">
       <defs>
        <path id="DejaVuSans-34" d="M 2419 4116 
L 825 1625 
L 2419 1625 
L 2419 4116 
z
M 2253 4666 
L 3047 4666 
L 3047 1625 
L 3713 1625 
L 3713 1100 
L 3047 1100 
L 3047 0 
L 2419 0 
L 2419 1100 
L 313 1100 
L 313 1709 
L 2253 4666 
z
" transform="scale(0.015625)"/>
       </defs>
       <use xlink:href="#DejaVuSans-31"/>
       <use xlink:href="#DejaVuSans-30" x="63.623047"/>
       <use xlink:href="#DejaVuSans-2e" x="127.246094"/>
       <use xlink:href="#DejaVuSans-34" x="159.033203"/>
      </g>
     </g>
    </g>
    <g id="xtick_4">
     <g id="line2d_7">
      <path d="M 286.928 135.16 
L 286.928 25.44 
" clip-path="url(#pf451aa75be)" style="fill: none; stroke: #b0b0b0; stroke-width: 0.8; stroke-linecap: square"/>
     </g>
     <g id="line2d_8">
      <g>
       <use xlink:href="#m4646b7175c" x="286.928" y="135.16" style="stroke: #000000; stroke-width: 0.8"/>
      </g>
     </g>
     <g id="text_4">
      <!-- 10.6 -->
      <g transform="translate(275.795188 149.758437)scale(0.1 -0.1)">
       <defs>
        <path id="DejaVuSans-36" d="M 2113 2584 
Q 1688 2584 1439 2293 
Q 1191 2003 1191 1497 
Q 1191 994 1439 701 
Q 1688 409 2113 409 
Q 2538 409 2786 701 
Q 3034 994 3034 1497 
Q 3034 2003 2786 2293 
Q 2538 2584 2113 2584 
z
M 3366 4563 
L 3366 3988 
Q 3128 4100 2886 4159 
Q 2644 4219 2406 4219 
Q 1781 4219 1451 3797 
Q 1122 3375 1075 2522 
Q 1259 2794 1537 2939 
Q 1816 3084 2150 3084 
Q 2853 3084 3261 2657 
Q 3669 2231 3669 1497 
Q 3669 778 3244 343 
Q 2819 -91 2113 -91 
Q 1303 -91 875 529 
Q 447 1150 447 2328 
Q 447 3434 972 4092 
Q 1497 4750 2381 4750 
Q 2619 4750 2861 4703 
Q 3103 4656 3366 4563 
z
" transform="scale(0.015625)"/>
       </defs>
       <use xlink:href="#DejaVuSans-31"/>
       <use xlink:href="#DejaVuSans-30" x="63.623047"/>
       <use xlink:href="#DejaVuSans-2e" x="127.246094"/>
       <use xlink:href="#DejaVuSans-36" x="159.033203"/>
      </g>
     </g>
    </g>
    <g id="xtick_5">
     <g id="line2d_9">
      <path d="M 362.884 135.16 
L 362.884 25.44 
" clip-path="url(#pf451aa75be)" style="fill: none; stroke: #b0b0b0; stroke-width: 0.8; stroke-linecap: square"/>
     </g>
     <g id="line2d_10">
      <g>
       <use xlink:href="#m4646b7175c" x="362.884" y="135.16" style="stroke: #000000; stroke-width: 0.8"/>
      </g>
     </g>
     <g id="text_5">
      <!-- 10.8 -->
      <g transform="translate(351.751188 149.758437)scale(0.1 -0.1)">
       <defs>
        <path id="DejaVuSans-38" d="M 2034 2216 
Q 1584 2216 1326 1975 
Q 1069 1734 1069 1313 
Q 1069 891 1326 650 
Q 1584 409 2034 409 
Q 2484 409 2743 651 
Q 3003 894 3003 1313 
Q 3003 1734 2745 1975 
Q 2488 2216 2034 2216 
z
M 1403 2484 
Q 997 2584 770 2862 
Q 544 3141 544 3541 
Q 544 4100 942 4425 
Q 1341 4750 2034 4750 
Q 2731 4750 3128 4425 
Q 3525 4100 3525 3541 
Q 3525 3141 3298 2862 
Q 3072 2584 2669 2484 
Q 3125 2378 3379 2068 
Q 3634 1759 3634 1313 
Q 3634 634 3220 271 
Q 2806 -91 2034 -91 
Q 1263 -91 848 271 
Q 434 634 434 1313 
Q 434 1759 690 2068 
Q 947 2378 1403 2484 
z
M 1172 3481 
Q 1172 3119 1398 2916 
Q 1625 2713 2034 2713 
Q 2441 2713 2670 2916 
Q 2900 3119 2900 3481 
Q 2900 3844 2670 4047 
Q 2441 4250 2034 4250 
Q 1625 4250 1398 4047 
Q 1172 3844 1172 3481 
z
" transform="scale(0.015625)"/>
       </defs>
       <use xlink:href="#DejaVuSans-31"/>
       <use xlink:href="#DejaVuSans-30" x="63.623047"/>
       <use xlink:href="#DejaVuSans-2e" x="127.246094"/>
       <use xlink:href="#DejaVuSans-38" x="159.033203"/>
      </g>
     </g>
    </g>
    <g id="xtick_6">
     <g id="line2d_11">
      <path d="M 438.84 135.16 
L 438.84 25.44 
" clip-path="url(#pf451aa75be)" style="fill: none; stroke: #b0b0b0; stroke-width: 0.8; stroke-linecap: square"/>
     </g>
     <g id="line2d_12">
      <g>
       <use xlink:href="#m4646b7175c" x="438.84" y="135.16" style="stroke: #000000; stroke-width: 0.8"/>
      </g>
     </g>
     <g id="text_6">
      <!-- 11.0 -->
      <g transform="translate(427.707187 149.758437)scale(0.1 -0.1)">
       <use xlink:href="#DejaVuSans-31"/>
       <use xlink:href="#DejaVuSans-31" x="63.623047"/>
       <use xlink:href="#DejaVuSans-2e" x="127.246094"/>
       <use xlink:href="#DejaVuSans-30" x="159.033203"/>
      </g>
     </g>
    </g>
    <g id="text_7">
     <!-- $t$ (s) -->
     <g transform="translate(238.85 163.436562)scale(0.1 -0.1)">
      <defs>
       <path id="DejaVuSans-Oblique-74" d="M 2706 3500 
L 2619 3053 
L 1472 3053 
L 1100 1153 
Q 1081 1047 1072 975 
Q 1063 903 1063 863 
Q 1063 663 1183 572 
Q 1303 481 1569 481 
L 2150 481 
L 2053 0 
L 1503 0 
Q 991 0 739 200 
Q 488 400 488 806 
Q 488 878 497 964 
Q 506 1050 525 1153 
L 897 3053 
L 409 3053 
L 500 3500 
L 978 3500 
L 1172 4494 
L 1747 4494 
L 1556 3500 
L 2706 3500 
z
" transform="scale(0.015625)"/>
       <path id="DejaVuSans-20" transform="scale(0.015625)"/>
       <path id="DejaVuSans-28" d="M 1984 4856 
Q 1566 4138 1362 3434 
Q 1159 2731 1159 2009 
Q 1159 1288 1364 580 
Q 1569 -128 1984 -844 
L 1484 -844 
Q 1016 -109 783 600 
Q 550 1309 550 2009 
Q 550 2706 781 3412 
Q 1013 4119 1484 4856 
L 1984 4856 
z
" transform="scale(0.015625)"/>
       <path id="DejaVuSans-73" d="M 2834 3397 
L 2834 2853 
Q 2591 2978 2328 3040 
Q 2066 3103 1784 3103 
Q 1356 3103 1142 2972 
Q 928 2841 928 2578 
Q 928 2378 1081 2264 
Q 1234 2150 1697 2047 
L 1894 2003 
Q 2506 1872 2764 1633 
Q 3022 1394 3022 966 
Q 3022 478 2636 193 
Q 2250 -91 1575 -91 
Q 1294 -91 989 -36 
Q 684 19 347 128 
L 347 722 
Q 666 556 975 473 
Q 1284 391 1588 391 
Q 1994 391 2212 530 
Q 2431 669 2431 922 
Q 2431 1156 2273 1281 
Q 2116 1406 1581 1522 
L 1381 1569 
Q 847 1681 609 1914 
Q 372 2147 372 2553 
Q 372 3047 722 3315 
Q 1072 3584 1716 3584 
Q 2034 3584 2315 3537 
Q 2597 3491 2834 3397 
z
" transform="scale(0.015625)"/>
       <path id="DejaVuSans-29" d="M 513 4856 
L 1013 4856 
Q 1481 4119 1714 3412 
Q 1947 2706 1947 2009 
Q 1947 1309 1714 600 
Q 1481 -109 1013 -844 
L 513 -844 
Q 928 -128 1133 580 
Q 1338 1288 1338 2009 
Q 1338 2731 1133 3434 
Q 928 4138 513 4856 
z
" transform="scale(0.015625)"/>
      </defs>
      <use xlink:href="#DejaVuSans-Oblique-74" transform="translate(0 0.125)"/>
      <use xlink:href="#DejaVuSans-20" transform="translate(39.208984 0.125)"/>
      <use xlink:href="#DejaVuSans-28" transform="translate(70.996094 0.125)"/>
      <use xlink:href="#DejaVuSans-73" transform="translate(110.009766 0.125)"/>
      <use xlink:href="#DejaVuSans-29" transform="translate(162.109375 0.125)"/>
     </g>
    </g>
   </g>
   <g id="matplotlib.axis_2">
    <g id="ytick_1">
     <g id="line2d_13">
      <path d="M 59.06 135.16 
L 438.84 135.16 
" clip-path="url(#pf451aa75be)" style="fill: none; stroke: #b0b0b0; stroke-width: 0.8; stroke-linecap: square"/>
     </g>
     <g id="line2d_14">
      <defs>
       <path id="m947364674d" d="M 0 0 
L -3.5 0 
" style="stroke: #000000; stroke-width: 0.8"/>
      </defs>
      <g>
       <use xlink:href="#m947364674d" x="59.06" y="135.16" style="stroke: #000000; stroke-width: 0.8"/>
      </g>
     </g>
     <g id="text_8">
      <!-- −1.0 -->
      <g transform="translate(27.777188 138.959219)scale(0.1 -0.1)">
       <defs>
        <path id="DejaVuSans-2212" d="M 678 2272 
L 4684 2272 
L 4684 1741 
L 678 1741 
L 678 2272 
z
" transform="scale(0.015625)"/>
       </defs>
       <use xlink:href="#DejaVuSans-2212"/>
       <use xlink:href="#DejaVuSans-31" x="83.789062"/>
       <use xlink:href="#DejaVuSans-2e" x="147.412109"/>
       <use xlink:href="#DejaVuSans-30" x="179.199219"/>
      </g>
     </g>
    </g>
    <g id="ytick_2">
     <g id="line2d_15">
      <path d="M 59.06 107.73 
L 438.84 107.73 
" clip-path="url(#pf451aa75be)" style="fill: none; stroke: #b0b0b0; stroke-width: 0.8; stroke-linecap: square"/>
     </g>
     <g id="line2d_16">
      <g>
       <use xlink:href="#m947364674d" x="59.06" y="107.73" style="stroke: #000000; stroke-width: 0.8"/>
      </g>
     </g>
     <g id="text_9">
      <!-- −0.5 -->
      <g transform="translate(27.777188 111.529219)scale(0.1 -0.1)">
       <defs>
        <path id="DejaVuSans-35" d="M 691 4666 
L 3169 4666 
L 3169 4134 
L 1269 4134 
L 1269 2991 
Q 1406 3038 1543 3061 
Q 1681 3084 1819 3084 
Q 2600 3084 3056 2656 
Q 3513 2228 3513 1497 
Q 3513 744 3044 326 
Q 2575 -91 1722 -91 
Q 1428 -91 1123 -41 
Q 819 9 494 109 
L 494 744 
Q 775 591 1075 516 
Q 1375 441 1709 441 
Q 2250 441 2565 725 
Q 2881 1009 2881 1497 
Q 2881 1984 2565 2268 
Q 2250 2553 1709 2553 
Q 1456 2553 1204 2497 
Q 953 2441 691 2322 
L 691 4666 
z
" transform="scale(0.015625)"/>
       </defs>
       <use xlink:href="#DejaVuSans-2212"/>
       <use xlink:href="#DejaVuSans-30" x="83.789062"/>
       <use xlink:href="#DejaVuSans-2e" x="147.412109"/>
       <use xlink:href="#DejaVuSans-35" x="179.199219"/>
      </g>
     </g>
    </g>
    <g id="ytick_3">
     <g id="line2d_17">
      <path d="M 59.06 80.3 
L 438.84 80.3 
" clip-path="url(#pf451aa75be)" style="fill: none; stroke: #b0b0b0; stroke-width: 0.8; stroke-linecap: square"/>
     </g>
     <g id="line2d_18">
      <g>
       <use xlink:href="#m947364674d" x="59.06" y="80.3" style="stroke: #000000; stroke-width: 0.8"/>
      </g>
     </g>
     <g id="text_10">
      <!-- 0.0 -->
      <g transform="translate(36.156875 84.099219)scale(0.1 -0.1)">
       <use xlink:href="#DejaVuSans-30"/>
       <use xlink:href="#DejaVuSans-2e" x="63.623047"/>
       <use xlink:href="#DejaVuSans-30" x="95.410156"/>
      </g>
     </g>
    </g>
    <g id="ytick_4">
     <g id="line2d_19">
      <path d="M 59.06 52.87 
L 438.84 52.87 
" clip-path="url(#pf451aa75be)" style="fill: none; stroke: #b0b0b0; stroke-width: 0.8; stroke-linecap: square"/>
     </g>
     <g id="line2d_20">
      <g>
       <use xlink:href="#m947364674d" x="59.06" y="52.87" style="stroke: #000000; stroke-width: 0.8"/>
      </g>
     </g>
     <g id="text_11">
      <!-- 0.5 -->
      <g transform="translate(36.156875 56.669219)scale(0.1 -0.1)">
       <use xlink:href="#DejaVuSans-30"/>
       <use xlink:href="#DejaVuSans-2e" x="63.623047"/>
       <use xlink:href="#DejaVuSans-35" x="95.410156"/>
      </g>
     </g>
    </g>
    <g id="ytick_5">
     <g id="line2d_21">
      <path d="M 59.06 25.44 
L 438.84 25.44 
" clip-path="url(#pf451aa75be)" style="fill: none; stroke: #b0b0b0; stroke-width: 0.8; stroke-linecap: square"/>
     </g>
     <g id="line2d_22">
      <g>
       <use xlink:href="#m947364674d" x="59.06" y="25.44" style="stroke: #000000; stroke-width: 0.8"/>
      </g>
     </g>
     <g id="text_12">
      <!-- 1.0 -->
      <g transform="translate(36.156875 29.239219)scale(0.1 -0.1)">
       <use xlink:href="#DejaVuSans-31"/>
       <use xlink:href="#DejaVuSans-2e" x="63.623047"/>
       <use xlink:href="#DejaVuSans-30" x="95.410156"/>
      </g>
     </g>
    </g>
    <g id="text_13">
     <!-- $y(t)$ -->
     <g transform="translate(21.677188 89.15)rotate(-90)scale(0.1 -0.1)">
      <defs>
       <path id="DejaVuSans-Oblique-79" d="M 1588 -325 
Q 1188 -997 936 -1164 
Q 684 -1331 294 -1331 
L -159 -1331 
L -63 -850 
L 269 -850 
Q 509 -850 678 -719 
Q 847 -588 1056 -206 
L 1234 128 
L 459 3500 
L 1069 3500 
L 1650 819 
L 3256 3500 
L 3859 3500 
L 1588 -325 
z
" transform="scale(0.015625)"/>
      </defs>
      <use xlink:href="#DejaVuSans-Oblique-79" transform="translate(0 0.125)"/>
      <use xlink:href="#DejaVuSans-28" transform="translate(59.179688 0.125)"/>
      <use xlink:href="#DejaVuSans-Oblique-74" transform="translate(98.193359 0.125)"/>
      <use xlink:href="#DejaVuSans-29" transform="translate(137.402344 0.125)"/>
     </g>
    </g>
   </g>
   <g id="line2d_23">
    <path d="M 58.68022 87.175781 
L 60.57912 53.870993 
L 61.71846 38.029644 
L 62.47802 30.661188 
L 62.8578 28.12504 
L 63.23758 26.411721 
L 63.61736 25.548254 
L 63.99714 25.548254 
L 64.37692 26.411721 
L 64.7567 28.12504 
L 65.13648 30.661188 
L 65.89604 38.029644 
L 66.6556 48.054101 
L 67.79494 66.656873 
L 70.4534 112.545899 
L 71.21296 122.570356 
L 71.97252 129.938812 
L 72.3523 132.47496 
L 72.73208 134.188279 
L 73.11186 135.051746 
L 73.49164 135.051746 
L 73.87142 134.188279 
L 74.2512 132.47496 
L 74.63098 129.938812 
L 75.39054 122.570356 
L 76.1501 112.545899 
L 77.28944 93.943127 
L 79.9479 48.054101 
L 80.70746 38.029644 
L 81.46702 30.661188 
L 81.8468 28.12504 
L 82.22658 26.411721 
L 82.60636 25.548254 
L 82.98614 25.548254 
L 83.36592 26.411721 
L 83.7457 28.12504 
L 84.12548 30.661188 
L 84.88504 38.029644 
L 85.6446 48.054101 
L 86.78394 66.656873 
L 89.4424 112.545899 
L 90.20196 122.570356 
L 90.96152 129.938812 
L 91.3413 132.47496 
L 91.72108 134.188279 
L 92.10086 135.051746 
L 92.48064 135.051746 
L 92.86042 134.188279 
L 93.2402 132.47496 
L 93.61998 129.938812 
L 94.37954 122.570356 
L 95.1391 112.545899 
L 96.27844 93.943127 
L 98.9369 48.054101 
L 99.69646 38.029644 
L 100.45602 30.661188 
L 100.8358 28.12504 
L 101.21558 26.411721 
L 101.59536 25.548254 
L 101.97514 25.548254 
L 102.35492 26.411721 
L 102.7347 28.12504 
L 103.11448 30.661188 
L 103.87404 38.029644 
L 104.6336 48.054101 
L 105.77294 66.656873 
L 108.4314 112.545899 
L 109.19096 122.570356 
L 109.95052 129.938812 
L 110.3303 132.47496 
L 110.71008 134.188279 
L 111.08986 135.051746 
L 111.46964 135.051746 
L 111.84942 134.188279 
L 112.2292 132.47496 
L 112.60898 129.938812 
L 113.36854 122.570356 
L 114.1281 112.545899 
L 115.26744 93.943127 
L 117.9259 48.054101 
L 118.68546 38.029644 
L 119.44502 30.661188 
L 119.8248 28.12504 
L 120.20458 26.411721 
L 120.58436 25.548254 
L 120.96414 25.548254 
L 121.34392 26.411721 
L 121.7237 28.12504 
L 122.10348 30.661188 
L 122.86304 38.029644 
L 123.6226 48.054101 
L 124.76194 66.656873 
L 127.4204 112.545899 
L 128.17996 122.570356 
L 128.93952 129.938812 
L 129.3193 132.47496 
L 129.69908 134.188279 
L 130.07886 135.051746 
L 130.45864 135.051746 
L 130.83842 134.188279 
L 131.2182 132.47496 
L 131.59798 129.938812 
L 132.35754 122.570356 
L 133.1171 112.545899 
L 134.25644 93.943127 
L 136.9149 48.054101 
L 137.67446 38.029644 
L 138.43402 30.661188 
L 138.8138 28.12504 
L 139.19358 26.411721 
L 139.57336 25.548254 
L 139.95314 25.548254 
L 140.33292 26.411721 
L 140.7127 28.12504 
L 141.09248 30.661188 
L 141.85204 38.029644 
L 142.6116 48.054101 
L 143.75094 66.656873 
L 146.4094 112.545899 
L 147.16896 122.570356 
L 147.92852 129.938812 
L 148.3083 132.47496 
L 148.68808 134.188279 
L 149.06786 135.051746 
L 149.44764 135.051746 
L 149.82742 134.188279 
L 150.2072 132.47496 
L 150.58698 129.938812 
L 151.34654 122.570356 
L 152.1061 112.545899 
L 153.24544 93.943127 
L 155.9039 48.054101 
L 156.66346 38.029644 
L 157.42302 30.661188 
L 157.8028 28.12504 
L 158.18258 26.411721 
L 158.56236 25.548254 
L 158.94214 25.548254 
L 159.32192 26.411721 
L 159.7017 28.12504 
L 160.08148 30.661188 
L 160.84104 38.029644 
L 161.6006 48.054101 
L 162.73994 66.656873 
L 165.3984 112.545899 
L 166.15796 122.570356 
L 166.91752 129.938812 
L 167.2973 132.47496 
L 167.67708 134.188279 
L 168.05686 135.051746 
L 168.43664 135.051746 
L 168.81642 134.188279 
L 169.1962 132.47496 
L 169.57598 129.938812 
L 170.33554 122.570356 
L 171.0951 112.545899 
L 172.23444 93.943127 
L 174.8929 48.054101 
L 175.65246 38.029644 
L 176.41202 30.661188 
L 176.7918 28.12504 
L 177.17158 26.411721 
L 177.55136 25.548254 
L 177.93114 25.548254 
L 178.31092 26.411721 
L 178.6907 28.12504 
L 179.07048 30.661188 
L 179.83004 38.029644 
L 180.5896 48.054101 
L 181.72894 66.656873 
L 184.3874 112.545899 
L 185.14696 122.570356 
L 185.90652 129.938812 
L 186.2863 132.47496 
L 186.66608 134.188279 
L 187.04586 135.051746 
L 187.42564 135.051746 
L 187.80542 134.188279 
L 188.1852 132.47496 
L 188.56498 129.938812 
L 189.32454 122.570356 
L 190.0841 112.545899 
L 191.22344 93.943127 
L 193.8819 48.054101 
L 194.64146 38.029644 
L 195.40102 30.661188 
L 195.7808 28.12504 
L 196.16058 26.411721 
L 196.54036 25.548254 
L 196.92014 25.548254 
L 197.29992 26.411721 
L 197.6797 28.12504 
L 198.05948 30.661188 
L 198.81904 38.029644 
L 199.5786 48.054101 
L 200.71794 66.656873 
L 203.3764 112.545899 
L 204.13596 122.570356 
L 204.89552 129.938812 
L 205.2753 132.47496 
L 205.65508 134.188279 
L 206.03486 135.051746 
L 206.41464 135.051746 
L 206.79442 134.188279 
L 207.1742 132.47496 
L 207.55398 129.938812 
L 208.31354 122.570356 
L 209.0731 112.545899 
L 210.21244 93.943127 
L 212.8709 48.054101 
L 213.63046 38.029644 
L 214.39002 30.661188 
L 214.7698 28.12504 
L 215.14958 26.411721 
L 215.52936 25.548254 
L 215.90914 25.548254 
L 216.28892 26.411721 
L 216.6687 28.12504 
L 217.04848 30.661188 
L 217.80804 38.029644 
L 218.5676 48.054101 
L 219.70694 66.656873 
L 222.3654 112.545899 
L 223.12496 122.570356 
L 223.88452 129.938812 
L 224.2643 132.47496 
L 224.64408 134.188279 
L 225.02386 135.051746 
L 225.40364 135.051746 
L 225.78342 134.188279 
L 226.1632 132.47496 
L 226.54298 129.938812 
L 227.30254 122.570356 
L 228.0621 112.545899 
L 229.20144 93.943127 
L 231.8599 48.054101 
L 232.61946 38.029644 
L 233.37902 30.661188 
L 233.7588 28.12504 
L 234.13858 26.411721 
L 234.51836 25.548254 
L 234.89814 25.548254 
L 235.27792 26.411721 
L 235.6577 28.12504 
L 236.03748 30.661188 
L 236.79704 38.029644 
L 237.5566 48.054101 
L 238.69594 66.656873 
L 241.3544 112.545899 
L 242.11396 122.570356 
L 242.87352 129.938812 
L 243.2533 132.47496 
L 243.63308 134.188279 
L 244.01286 135.051746 
L 244.39264 135.051746 
L 244.77242 134.188279 
L 245.1522 132.47496 
L 245.53198 129.938812 
L 246.29154 122.570356 
L 247.0511 112.545899 
L 248.19044 93.943127 
L 250.8489 48.054101 
L 251.60846 38.029644 
L 252.36802 30.661188 
L 252.7478 28.12504 
L 253.12758 26.411721 
L 253.50736 25.548254 
L 253.88714 25.548254 
L 254.26692 26.411721 
L 254.6467 28.12504 
L 255.02648 30.661188 
L 255.78604 38.029644 
L 256.5456 48.054101 
L 257.68494 66.656873 
L 260.3434 112.545899 
L 261.10296 122.570356 
L 261.86252 129.938812 
L 262.2423 132.47496 
L 262.62208 134.188279 
L 263.00186 135.051746 
L 263.38164 135.051746 
L 263.76142 134.188279 
L 264.1412 132.47496 
L 264.52098 129.938812 
L 265.28054 122.570356 
L 266.0401 112.545899 
L 267.17944 93.943127 
L 269.8379 48.054101 
L 270.59746 38.029644 
L 271.35702 30.661188 
L 271.7368 28.12504 
L 272.11658 26.411721 
L 272.49636 25.548254 
L 272.87614 25.548254 
L 273.25592 26.411721 
L 273.6357 28.12504 
L 274.01548 30.661188 
L 274.77504 38.029644 
L 275.5346 48.054101 
L 276.67394 66.656873 
L 279.3324 112.545899 
L 280.09196 122.570356 
L 280.85152 129.938812 
L 281.2313 132.47496 
L 281.61108 134.188279 
L 281.99086 135.051746 
L 282.37064 135.051746 
L 282.75042 134.188279 
L 283.1302 132.47496 
L 283.50998 129.938812 
L 284.26954 122.570356 
L 285.0291 112.545899 
L 286.16844 93.943127 
L 288.8269 48.054101 
L 289.58646 38.029644 
L 290.34602 30.661188 
L 290.7258 28.12504 
L 291.10558 26.411721 
L 291.48536 25.548254 
L 291.86514 25.548254 
L 292.24492 26.411721 
L 292.6247 28.12504 
L 293.00448 30.661188 
L 293.76404 38.029644 
L 294.5236 48.054101 
L 295.66294 66.656873 
L 298.3214 112.545899 
L 299.08096 122.570356 
L 299.84052 129.938812 
L 300.2203 132.47496 
L 300.60008 134.188279 
L 300.97986 135.051746 
L 301.35964 135.051746 
L 301.73942 134.188279 
L 302.1192 132.47496 
L 302.49898 129.938812 
L 303.25854 122.570356 
L 304.0181 112.545899 
L 305.15744 93.943127 
L 307.8159 48.054101 
L 308.57546 38.029644 
L 309.33502 30.661188 
L 309.7148 28.12504 
L 310.09458 26.411721 
L 310.47436 25.548254 
L 310.85414 25.548254 
L 311.23392 26.411721 
L 311.6137 28.12504 
L 311.99348 30.661188 
L 312.75304 38.029644 
L 313.5126 48.054101 
L 314.65194 66.656873 
L 317.3104 112.545899 
L 318.06996 122.570356 
L 318.82952 129.938812 
L 319.2093 132.47496 
L 319.58908 134.188279 
L 319.96886 135.051746 
L 320.34864 135.051746 
L 320.72842 134.188279 
L 321.1082 132.47496 
L 321.48798 129.938812 
L 322.24754 122.570356 
L 323.0071 112.545899 
L 324.14644 93.943127 
L 326.8049 48.054101 
L 327.56446 38.029644 
L 328.32402 30.661188 
L 328.7038 28.12504 
L 329.08358 26.411721 
L 329.46336 25.548254 
L 329.84314 25.548254 
L 330.22292 26.411721 
L 330.6027 28.12504 
L 330.98248 30.661188 
L 331.74204 38.029644 
L 332.5016 48.054101 
L 333.64094 66.656873 
L 336.2994 112.545899 
L 337.05896 122.570356 
L 337.81852 129.938812 
L 338.1983 132.47496 
L 338.57808 134.188279 
L 338.95786 135.051746 
L 339.33764 135.051746 
L 339.71742 134.188279 
L 340.0972 132.47496 
L 340.47698 129.938812 
L 341.23654 122.570356 
L 341.9961 112.545899 
L 343.13544 93.943127 
L 345.7939 48.054101 
L 346.55346 38.029644 
L 347.31302 30.661188 
L 347.6928 28.12504 
L 348.07258 26.411721 
L 348.45236 25.548254 
L 348.83214 25.548254 
L 349.21192 26.411721 
L 349.5917 28.12504 
L 349.97148 30.661188 
L 350.73104 38.029644 
L 351.4906 48.054101 
L 352.62994 66.656873 
L 355.2884 112.545899 
L 356.04796 122.570356 
L 356.80752 129.938812 
L 357.1873 132.47496 
L 357.56708 134.188279 
L 357.94686 135.051746 
L 358.32664 135.051746 
L 358.70642 134.188279 
L 359.0862 132.47496 
L 359.46598 129.938812 
L 360.22554 122.570356 
L 360.9851 112.545899 
L 362.12444 93.943127 
L 364.7829 48.054101 
L 365.54246 38.029644 
L 366.30202 30.661188 
L 366.6818 28.12504 
L 367.06158 26.411721 
L 367.44136 25.548254 
L 367.82114 25.548254 
L 368.20092 26.411721 
L 368.5807 28.12504 
L 368.96048 30.661188 
L 369.72004 38.029644 
L 370.4796 48.054101 
L 371.61894 66.656873 
L 374.2774 112.545899 
L 375.03696 122.570356 
L 375.79652 129.938812 
L 376.1763 132.47496 
L 376.55608 134.188279 
L 376.93586 135.051746 
L 377.31564 135.051746 
L 377.69542 134.188279 
L 378.0752 132.47496 
L 378.45498 129.938812 
L 379.21454 122.570356 
L 379.9741 112.545899 
L 381.11344 93.943127 
L 383.7719 48.054101 
L 384.53146 38.029644 
L 385.29102 30.661188 
L 385.6708 28.12504 
L 386.05058 26.411721 
L 386.43036 25.548254 
L 386.81014 25.548254 
L 387.18992 26.411721 
L 387.5697 28.12504 
L 387.94948 30.661188 
L 388.70904 38.029644 
L 389.4686 48.054101 
L 390.60794 66.656873 
L 393.2664 112.545899 
L 394.02596 122.570356 
L 394.78552 129.938812 
L 395.1653 132.47496 
L 395.54508 134.188279 
L 395.92486 135.051746 
L 396.30464 135.051746 
L 396.68442 134.188279 
L 397.0642 132.47496 
L 397.44398 129.938812 
L 398.20354 122.570356 
L 398.9631 112.545899 
L 400.10244 93.943127 
L 402.7609 48.054101 
L 403.52046 38.029644 
L 404.28002 30.661188 
L 404.6598 28.12504 
L 405.03958 26.411721 
L 405.41936 25.548254 
L 405.79914 25.548254 
L 406.17892 26.411721 
L 406.5587 28.12504 
L 406.93848 30.661188 
L 407.69804 38.029644 
L 408.4576 48.054101 
L 409.59694 66.656873 
L 412.2554 112.545899 
L 413.01496 122.570356 
L 413.77452 129.938812 
L 414.1543 132.47496 
L 414.53408 134.188279 
L 414.91386 135.051746 
L 415.29364 135.051746 
L 415.67342 134.188279 
L 416.0532 132.47496 
L 416.43298 129.938812 
L 417.19254 122.570356 
L 417.9521 112.545899 
L 419.09144 93.943127 
L 421.7499 48.054101 
L 422.50946 38.029644 
L 423.26902 30.661188 
L 423.6488 28.12504 
L 424.02858 26.411721 
L 424.40836 25.548254 
L 424.78814 25.548254 
L 425.16792 26.411721 
L 425.5477 28.12504 
L 425.92748 30.661188 
L 426.68704 38.029644 
L 427.4466 48.054101 
L 428.58594 66.656873 
L 431.2444 112.545899 
L 432.00396 122.570356 
L 432.76352 129.938812 
L 433.1433 132.47496 
L 433.52308 134.188279 
L 433.90286 135.051746 
L 434.28264 135.051746 
L 434.66242 134.188279 
L 435.0422 132.47496 
L 435.42198 129.938812 
L 436.18154 122.570356 
L 436.9411 112.545899 
L 438.08044 93.943127 
L 439.21978 73.424219 
L 439.21978 73.424219 
" clip-path="url(#pf451aa75be)" style="fill: none; stroke: #1f77b4; stroke-width: 1.5; stroke-linecap: square"/>
   </g>
   <g id="line2d_24">
    <defs>
     <path id="m010b07cb41" d="M 0 3 
C 0.795609 3 1.55874 2.683901 2.12132 2.12132 
C 2.683901 1.55874 3 0.795609 3 0 
C 3 -0.795609 2.683901 -1.55874 2.12132 -2.12132 
C 1.55874 -2.683901 0.795609 -3 0 -3 
C -0.795609 -3 -1.55874 -2.683901 -2.12132 -2.12132 
C -2.683901 -1.55874 -3 -0.795609 -3 0 
C -3 0.795609 -2.683901 1.55874 -2.12132 2.12132 
C -1.55874 2.683901 -0.795609 3 0 3 
z
" style="stroke: #ff7f0e"/>
    </defs>
    <g clip-path="url(#pf451aa75be)">
     <use xlink:href="#m010b07cb41" x="41.797273" y="50.640445" style="fill: #ff7f0e; stroke: #ff7f0e"/>
     <use xlink:href="#m010b07cb41" x="59.06" y="80.3" style="fill: #ff7f0e; stroke: #ff7f0e"/>
     <use xlink:href="#m010b07cb41" x="76.322727" y="109.959555" style="fill: #ff7f0e; stroke: #ff7f0e"/>
     <use xlink:href="#m010b07cb41" x="93.585455" y="130.202411" style="fill: #ff7f0e; stroke: #ff7f0e"/>
     <use xlink:href="#m010b07cb41" x="110.848182" y="134.601604" style="fill: #ff7f0e; stroke: #ff7f0e"/>
     <use xlink:href="#m010b07cb41" x="128.110909" y="121.760422" style="fill: #ff7f0e; stroke: #ff7f0e"/>
     <use xlink:href="#m010b07cb41" x="145.373636" y="95.755848" style="fill: #ff7f0e; stroke: #ff7f0e"/>
     <use xlink:href="#m010b07cb41" x="162.636364" y="64.844152" style="fill: #ff7f0e; stroke: #ff7f0e"/>
     <use xlink:href="#m010b07cb41" x="179.899091" y="38.839578" style="fill: #ff7f0e; stroke: #ff7f0e"/>
     <use xlink:href="#m010b07cb41" x="197.161818" y="25.998396" style="fill: #ff7f0e; stroke: #ff7f0e"/>
     <use xlink:href="#m010b07cb41" x="214.424545" y="30.397589" style="fill: #ff7f0e; stroke: #ff7f0e"/>
     <use xlink:href="#m010b07cb41" x="231.687273" y="50.640445" style="fill: #ff7f0e; stroke: #ff7f0e"/>
     <use xlink:href="#m010b07cb41" x="248.95" y="80.3" style="fill: #ff7f0e; stroke: #ff7f0e"/>
     <use xlink:href="#m010b07cb41" x="266.212727" y="109.959555" style="fill: #ff7f0e; stroke: #ff7f0e"/>
     <use xlink:href="#m010b07cb41" x="283.475455" y="130.202411" style="fill: #ff7f0e; stroke: #ff7f0e"/>
     <use xlink:href="#m010b07cb41" x="300.738182" y="134.601604" style="fill: #ff7f0e; stroke: #ff7f0e"/>
     <use xlink:href="#m010b07cb41" x="318.000909" y="121.760422" style="fill: #ff7f0e; stroke: #ff7f0e"/>
     <use xlink:href="#m010b07cb41" x="335.263636" y="95.755848" style="fill: #ff7f0e; stroke: #ff7f0e"/>
     <use xlink:href="#m010b07cb41" x="352.526364" y="64.844152" style="fill: #ff7f0e; stroke: #ff7f0e"/>
     <use xlink:href="#m010b07cb41" x="369.789091" y="38.839578" style="fill: #ff7f0e; stroke: #ff7f0e"/>
     <use xlink:href="#m010b07cb41" x="387.051818" y="25.998396" style="fill: #ff7f0e; stroke: #ff7f0e"/>
     <use xlink:href="#m010b07cb41" x="404.314545" y="30.397589" style="fill: #ff7f0e; stroke: #ff7f0e"/>
     <use xlink:href="#m010b07cb41" x="421.577273" y="50.640445" style="fill: #ff7f0e; stroke: #ff7f0e"/>
     <use xlink:href="#m010b07cb41" x="438.84" y="80.3" style="fill: #ff7f0e; stroke: #ff7f0e"/>
     <use xlink:href="#m010b07cb41" x="456.102727" y="109.959555" style="fill: #ff7f0e; stroke: #ff7f0e"/>
    </g>
   </g>
   <g id="line2d_25">
    <path d="M 58.852157 79.921966 
L 67.583126 95.587066 
L 72.138415 103.320041 
L 75.934489 109.365652 
L 79.350955 114.41703 
L 82.387814 118.546449 
L 85.424673 122.29509 
L 88.081924 125.233457 
L 90.739176 127.828357 
L 93.01682 129.762773 
L 95.294465 131.416712 
L 97.572109 132.779464 
L 99.470146 133.686184 
L 101.368183 134.38043 
L 103.266219 134.859218 
L 105.164256 135.120679 
L 107.062293 135.164058 
L 108.96033 134.98969 
L 110.858367 134.598934 
L 112.756404 133.994089 
L 114.654441 133.1783 
L 116.932085 131.926418 
L 119.209729 130.384323 
L 121.487373 128.5611 
L 123.765017 126.466886 
L 126.422269 123.696096 
L 129.079521 120.591336 
L 132.11638 116.66233 
L 135.153239 112.362719 
L 138.569705 107.134844 
L 142.365779 100.919662 
L 147.300675 92.363694 
L 155.272429 77.981094 
L 162.864577 64.44792 
L 167.419865 56.755426 
L 171.215939 50.738904 
L 174.632405 45.712365 
L 177.669264 41.608249 
L 180.706123 37.892309 
L 183.363375 34.991225 
L 186.020627 32.442714 
L 188.298271 30.55491 
L 190.575915 28.952661 
L 192.853559 27.644842 
L 194.751596 26.784811 
L 196.649633 26.136715 
L 198.54767 25.70238 
L 200.445707 25.482769 
L 202.343744 25.478061 
L 204.241781 25.687737 
L 206.139817 26.110643 
L 208.037854 26.74503 
L 209.935891 27.588578 
L 212.213535 28.872784 
L 214.49118 30.447725 
L 216.768824 32.305726 
L 219.046468 34.437495 
L 221.70372 37.255701 
L 224.360971 40.410564 
L 227.39783 44.396932 
L 230.434689 48.749368 
L 233.851156 54.025332 
L 238.026837 60.918138 
L 242.961733 69.517699 
L 252.831524 87.314234 
L 259.28485 98.678686 
L 263.840138 106.240892 
L 267.636212 112.104463 
L 271.052678 116.953998 
L 274.089537 120.869312 
L 276.746789 123.956303 
L 279.40404 126.702092 
L 281.681685 128.768727 
L 283.959329 130.559224 
L 286.236973 132.064676 
L 288.514617 133.277748 
L 290.412654 134.060978 
L 292.310691 134.634276 
L 294.208728 134.995478 
L 296.106765 135.143004 
L 298.004802 135.075881 
L 299.902838 134.793796 
L 301.800875 134.297163 
L 303.698912 133.587204 
L 305.596949 132.666035 
L 307.874593 131.286237 
L 310.152238 129.614037 
L 312.429882 127.658852 
L 314.707526 125.432217 
L 317.364778 122.509525 
L 320.022029 119.260265 
L 323.058888 115.181761 
L 326.475355 110.180166 
L 330.271428 104.186272 
L 334.447109 97.169434 
L 339.761613 87.793267 
L 355.325515 60.033041 
L 359.501196 53.195725 
L 362.917662 47.987162 
L 366.334129 43.197427 
L 369.370988 39.33914 
L 372.028239 36.301319 
L 374.685491 33.601794 
L 376.963135 31.571859 
L 379.240779 29.815647 
L 381.518424 28.34306 
L 383.796068 27.162895 
L 385.694105 26.408302 
L 387.592142 25.865695 
L 389.490178 25.53793 
L 391.388215 25.426995 
L 393.286252 25.533912 
L 395.184289 25.858669 
L 397.082326 26.40017 
L 398.980363 27.156219 
L 400.8784 28.123534 
L 403.156044 29.557035 
L 405.433688 31.279225 
L 407.711332 33.279094 
L 410.368584 35.946513 
L 413.025836 38.952982 
L 415.683087 42.274844 
L 418.719946 46.425106 
L 422.136412 51.497471 
L 425.932486 57.562668 
L 430.487775 65.312829 
L 436.561493 76.160571 
L 439.218744 80.988742 
L 439.218744 80.988742 
" clip-path="url(#pf451aa75be)" style="fill: none; stroke-dasharray: 5.55,2.4; stroke-dashoffset: 0; stroke: #ff7f0e; stroke-width: 1.5"/>
   </g>
   <g id="patch_3">
    <path d="M 59.06 135.16 
L 59.06 25.44 
" style="fill: none; stroke: #000000; stroke-width: 0.8; stroke-linejoin: miter; stroke-linecap: square"/>
   </g>
   <g id="patch_4">
    <path d="M 438.84 135.16 
L 438.84 25.44 
" style="fill: none; stroke: #000000; stroke-width: 0.8; stroke-linejoin: miter; stroke-linecap: square"/>
   </g>
   <g id="patch_5">
    <path d="M 59.06 135.16 
L 438.84 135.16 
" style="fill: none; stroke: #000000; stroke-width: 0.8; stroke-linejoin: miter; stroke-linecap: square"/>
   </g>
   <g id="patch_6">
    <path d="M 59.06 25.44 
L 438.84 25.44 
" style="fill: none; stroke: #000000; stroke-width: 0.8; stroke-linejoin: miter; stroke-linecap: square"/>
   </g>
   <g id="text_14">
    <!-- Part of signal -->
    <g transform="translate(209.761563 19.44)scale(0.12 -0.12)">
     <defs>
      <path id="DejaVuSans-50" d="M 1259 4147 
L 1259 2394 
L 2053 2394 
Q 2494 2394 2734 2622 
Q 2975 2850 2975 3272 
Q 2975 3691 2734 3919 
Q 2494 4147 2053 4147 
L 1259 4147 
z
M 628 4666 
L 2053 4666 
Q 2838 4666 3239 4311 
Q 3641 3956 3641 3272 
Q 3641 2581 3239 2228 
Q 2838 1875 2053 1875 
L 1259 1875 
L 1259 0 
L 628 0 
L 628 4666 
z
" transform="scale(0.015625)"/>
      <path id="DejaVuSans-61" d="M 2194 1759 
Q 1497 1759 1228 1600 
Q 959 1441 959 1056 
Q 959 750 1161 570 
Q 1363 391 1709 391 
Q 2188 391 2477 730 
Q 2766 1069 2766 1631 
L 2766 1759 
L 2194 1759 
z
M 3341 1997 
L 3341 0 
L 2766 0 
L 2766 531 
Q 2569 213 2275 61 
Q 1981 -91 1556 -91 
Q 1019 -91 701 211 
Q 384 513 384 1019 
Q 384 1609 779 1909 
Q 1175 2209 1959 2209 
L 2766 2209 
L 2766 2266 
Q 2766 2663 2505 2880 
Q 2244 3097 1772 3097 
Q 1472 3097 1187 3025 
Q 903 2953 641 2809 
L 641 3341 
Q 956 3463 1253 3523 
Q 1550 3584 1831 3584 
Q 2591 3584 2966 3190 
Q 3341 2797 3341 1997 
z
" transform="scale(0.015625)"/>
      <path id="DejaVuSans-72" d="M 2631 2963 
Q 2534 3019 2420 3045 
Q 2306 3072 2169 3072 
Q 1681 3072 1420 2755 
Q 1159 2438 1159 1844 
L 1159 0 
L 581 0 
L 581 3500 
L 1159 3500 
L 1159 2956 
Q 1341 3275 1631 3429 
Q 1922 3584 2338 3584 
Q 2397 3584 2469 3576 
Q 2541 3569 2628 3553 
L 2631 2963 
z
" transform="scale(0.015625)"/>
      <path id="DejaVuSans-74" d="M 1172 4494 
L 1172 3500 
L 2356 3500 
L 2356 3053 
L 1172 3053 
L 1172 1153 
Q 1172 725 1289 603 
Q 1406 481 1766 481 
L 2356 481 
L 2356 0 
L 1766 0 
Q 1100 0 847 248 
Q 594 497 594 1153 
L 594 3053 
L 172 3053 
L 172 3500 
L 594 3500 
L 594 4494 
L 1172 4494 
z
" transform="scale(0.015625)"/>
      <path id="DejaVuSans-6f" d="M 1959 3097 
Q 1497 3097 1228 2736 
Q 959 2375 959 1747 
Q 959 1119 1226 758 
Q 1494 397 1959 397 
Q 2419 397 2687 759 
Q 2956 1122 2956 1747 
Q 2956 2369 2687 2733 
Q 2419 3097 1959 3097 
z
M 1959 3584 
Q 2709 3584 3137 3096 
Q 3566 2609 3566 1747 
Q 3566 888 3137 398 
Q 2709 -91 1959 -91 
Q 1206 -91 779 398 
Q 353 888 353 1747 
Q 353 2609 779 3096 
Q 1206 3584 1959 3584 
z
" transform="scale(0.015625)"/>
      <path id="DejaVuSans-66" d="M 2375 4863 
L 2375 4384 
L 1825 4384 
Q 1516 4384 1395 4259 
Q 1275 4134 1275 3809 
L 1275 3500 
L 2222 3500 
L 2222 3053 
L 1275 3053 
L 1275 0 
L 697 0 
L 697 3053 
L 147 3053 
L 147 3500 
L 697 3500 
L 697 3744 
Q 697 4328 969 4595 
Q 1241 4863 1831 4863 
L 2375 4863 
z
" transform="scale(0.015625)"/>
      <path id="DejaVuSans-69" d="M 603 3500 
L 1178 3500 
L 1178 0 
L 603 0 
L 603 3500 
z
M 603 4863 
L 1178 4863 
L 1178 4134 
L 603 4134 
L 603 4863 
z
" transform="scale(0.015625)"/>
      <path id="DejaVuSans-67" d="M 2906 1791 
Q 2906 2416 2648 2759 
Q 2391 3103 1925 3103 
Q 1463 3103 1205 2759 
Q 947 2416 947 1791 
Q 947 1169 1205 825 
Q 1463 481 1925 481 
Q 2391 481 2648 825 
Q 2906 1169 2906 1791 
z
M 3481 434 
Q 3481 -459 3084 -895 
Q 2688 -1331 1869 -1331 
Q 1566 -1331 1297 -1286 
Q 1028 -1241 775 -1147 
L 775 -588 
Q 1028 -725 1275 -790 
Q 1522 -856 1778 -856 
Q 2344 -856 2625 -561 
Q 2906 -266 2906 331 
L 2906 616 
Q 2728 306 2450 153 
Q 2172 0 1784 0 
Q 1141 0 747 490 
Q 353 981 353 1791 
Q 353 2603 747 3093 
Q 1141 3584 1784 3584 
Q 2172 3584 2450 3431 
Q 2728 3278 2906 2969 
L 2906 3500 
L 3481 3500 
L 3481 434 
z
" transform="scale(0.015625)"/>
      <path id="DejaVuSans-6e" d="M 3513 2113 
L 3513 0 
L 2938 0 
L 2938 2094 
Q 2938 2591 2744 2837 
Q 2550 3084 2163 3084 
Q 1697 3084 1428 2787 
Q 1159 2491 1159 1978 
L 1159 0 
L 581 0 
L 581 3500 
L 1159 3500 
L 1159 2956 
Q 1366 3272 1645 3428 
Q 1925 3584 2291 3584 
Q 2894 3584 3203 3211 
Q 3513 2838 3513 2113 
z
" transform="scale(0.015625)"/>
      <path id="DejaVuSans-6c" d="M 603 4863 
L 1178 4863 
L 1178 0 
L 603 0 
L 603 4863 
z
" transform="scale(0.015625)"/>
     </defs>
     <use xlink:href="#DejaVuSans-50"/>
     <use xlink:href="#DejaVuSans-61" x="55.802734"/>
     <use xlink:href="#DejaVuSans-72" x="117.082031"/>
     <use xlink:href="#DejaVuSans-74" x="158.195312"/>
     <use xlink:href="#DejaVuSans-20" x="197.404297"/>
     <use xlink:href="#DejaVuSans-6f" x="229.191406"/>
     <use xlink:href="#DejaVuSans-66" x="290.373047"/>
     <use xlink:href="#DejaVuSans-20" x="325.578125"/>
     <use xlink:href="#DejaVuSans-73" x="357.365234"/>
     <use xlink:href="#DejaVuSans-69" x="409.464844"/>
     <use xlink:href="#DejaVuSans-67" x="437.248047"/>
     <use xlink:href="#DejaVuSans-6e" x="500.724609"/>
     <use xlink:href="#DejaVuSans-61" x="564.103516"/>
     <use xlink:href="#DejaVuSans-6c" x="625.382812"/>
    </g>
   </g>
   <g id="legend_1">
    <g id="patch_7">
     <path d="M 66.06 62.79625 
L 153.388125 62.79625 
Q 155.388125 62.79625 155.388125 60.79625 
L 155.388125 32.44 
Q 155.388125 30.44 153.388125 30.44 
L 66.06 30.44 
Q 64.06 30.44 64.06 32.44 
L 64.06 60.79625 
Q 64.06 62.79625 66.06 62.79625 
z
" style="fill: #ffffff; opacity: 0.8; stroke: #cccccc; stroke-linejoin: miter"/>
    </g>
    <g id="line2d_26">
     <path d="M 68.06 38.538437 
L 78.06 38.538437 
L 88.06 38.538437 
" style="fill: none; stroke: #1f77b4; stroke-width: 1.5; stroke-linecap: square"/>
    </g>
    <g id="text_15">
     <!-- fs=1000Hz -->
     <g transform="translate(96.06 42.038437)scale(0.1 -0.1)">
      <defs>
       <path id="DejaVuSans-3d" d="M 678 2906 
L 4684 2906 
L 4684 2381 
L 678 2381 
L 678 2906 
z
M 678 1631 
L 4684 1631 
L 4684 1100 
L 678 1100 
L 678 1631 
z
" transform="scale(0.015625)"/>
       <path id="DejaVuSans-48" d="M 628 4666 
L 1259 4666 
L 1259 2753 
L 3553 2753 
L 3553 4666 
L 4184 4666 
L 4184 0 
L 3553 0 
L 3553 2222 
L 1259 2222 
L 1259 0 
L 628 0 
L 628 4666 
z
" transform="scale(0.015625)"/>
       <path id="DejaVuSans-7a" d="M 353 3500 
L 3084 3500 
L 3084 2975 
L 922 459 
L 3084 459 
L 3084 0 
L 275 0 
L 275 525 
L 2438 3041 
L 353 3041 
L 353 3500 
z
" transform="scale(0.015625)"/>
      </defs>
      <use xlink:href="#DejaVuSans-66"/>
      <use xlink:href="#DejaVuSans-73" x="35.205078"/>
      <use xlink:href="#DejaVuSans-3d" x="87.304688"/>
      <use xlink:href="#DejaVuSans-31" x="171.09375"/>
      <use xlink:href="#DejaVuSans-30" x="234.716797"/>
      <use xlink:href="#DejaVuSans-30" x="298.339844"/>
      <use xlink:href="#DejaVuSans-30" x="361.962891"/>
      <use xlink:href="#DejaVuSans-48" x="425.585938"/>
      <use xlink:href="#DejaVuSans-7a" x="500.78125"/>
     </g>
    </g>
    <g id="line2d_27">
     <g>
      <use xlink:href="#m010b07cb41" x="78.06" y="53.216563" style="fill: #ff7f0e; stroke: #ff7f0e"/>
     </g>
    </g>
    <g id="text_16">
     <!-- fs=22Hz -->
     <g transform="translate(96.06 56.716563)scale(0.1 -0.1)">
      <use xlink:href="#DejaVuSans-66"/>
      <use xlink:href="#DejaVuSans-73" x="35.205078"/>
      <use xlink:href="#DejaVuSans-3d" x="87.304688"/>
      <use xlink:href="#DejaVuSans-32" x="171.09375"/>
      <use xlink:href="#DejaVuSans-32" x="234.716797"/>
      <use xlink:href="#DejaVuSans-48" x="298.339844"/>
      <use xlink:href="#DejaVuSans-7a" x="373.535156"/>
     </g>
    </g>
   </g>
  </g>
  <g id="axes_2">
   <g id="patch_8">
    <path d="M 59.06 302.92 
L 438.84 302.92 
L 438.84 193.2 
L 59.06 193.2 
z
" style="fill: #ffffff"/>
   </g>
   <g id="matplotlib.axis_3">
    <g id="xtick_7">
     <g id="line2d_28">
      <g>
       <use xlink:href="#m4646b7175c" x="59.06" y="302.92" style="stroke: #000000; stroke-width: 0.8"/>
      </g>
     </g>
     <g id="text_17">
      <!-- −30 -->
      <g transform="translate(48.507656 317.518438)scale(0.1 -0.1)">
       <defs>
        <path id="DejaVuSans-33" d="M 2597 2516 
Q 3050 2419 3304 2112 
Q 3559 1806 3559 1356 
Q 3559 666 3084 287 
Q 2609 -91 1734 -91 
Q 1441 -91 1130 -33 
Q 819 25 488 141 
L 488 750 
Q 750 597 1062 519 
Q 1375 441 1716 441 
Q 2309 441 2620 675 
Q 2931 909 2931 1356 
Q 2931 1769 2642 2001 
Q 2353 2234 1838 2234 
L 1294 2234 
L 1294 2753 
L 1863 2753 
Q 2328 2753 2575 2939 
Q 2822 3125 2822 3475 
Q 2822 3834 2567 4026 
Q 2313 4219 1838 4219 
Q 1578 4219 1281 4162 
Q 984 4106 628 3988 
L 628 4550 
Q 988 4650 1302 4700 
Q 1616 4750 1894 4750 
Q 2613 4750 3031 4423 
Q 3450 4097 3450 3541 
Q 3450 3153 3228 2886 
Q 3006 2619 2597 2516 
z
" transform="scale(0.015625)"/>
       </defs>
       <use xlink:href="#DejaVuSans-2212"/>
       <use xlink:href="#DejaVuSans-33" x="83.789062"/>
       <use xlink:href="#DejaVuSans-30" x="147.412109"/>
      </g>
     </g>
    </g>
    <g id="xtick_8">
     <g id="line2d_29">
      <g>
       <use xlink:href="#m4646b7175c" x="122.356667" y="302.92" style="stroke: #000000; stroke-width: 0.8"/>
      </g>
     </g>
     <g id="text_18">
      <!-- −20 -->
      <g transform="translate(111.804323 317.518438)scale(0.1 -0.1)">
       <use xlink:href="#DejaVuSans-2212"/>
       <use xlink:href="#DejaVuSans-32" x="83.789062"/>
       <use xlink:href="#DejaVuSans-30" x="147.412109"/>
      </g>
     </g>
    </g>
    <g id="xtick_9">
     <g id="line2d_30">
      <g>
       <use xlink:href="#m4646b7175c" x="185.653333" y="302.92" style="stroke: #000000; stroke-width: 0.8"/>
      </g>
     </g>
     <g id="text_19">
      <!-- −10 -->
      <g transform="translate(175.10099 317.518438)scale(0.1 -0.1)">
       <use xlink:href="#DejaVuSans-2212"/>
       <use xlink:href="#DejaVuSans-31" x="83.789062"/>
       <use xlink:href="#DejaVuSans-30" x="147.412109"/>
      </g>
     </g>
    </g>
    <g id="xtick_10">
     <g id="line2d_31">
      <g>
       <use xlink:href="#m4646b7175c" x="248.95" y="302.92" style="stroke: #000000; stroke-width: 0.8"/>
      </g>
     </g>
     <g id="text_20">
      <!-- 0 -->
      <g transform="translate(245.76875 317.518438)scale(0.1 -0.1)">
       <use xlink:href="#DejaVuSans-30"/>
      </g>
     </g>
    </g>
    <g id="xtick_11">
     <g id="line2d_32">
      <g>
       <use xlink:href="#m4646b7175c" x="312.246667" y="302.92" style="stroke: #000000; stroke-width: 0.8"/>
      </g>
     </g>
     <g id="text_21">
      <!-- 10 -->
      <g transform="translate(305.884167 317.518438)scale(0.1 -0.1)">
       <use xlink:href="#DejaVuSans-31"/>
       <use xlink:href="#DejaVuSans-30" x="63.623047"/>
      </g>
     </g>
    </g>
    <g id="xtick_12">
     <g id="line2d_33">
      <g>
       <use xlink:href="#m4646b7175c" x="375.543333" y="302.92" style="stroke: #000000; stroke-width: 0.8"/>
      </g>
     </g>
     <g id="text_22">
      <!-- 20 -->
      <g transform="translate(369.180833 317.518438)scale(0.1 -0.1)">
       <use xlink:href="#DejaVuSans-32"/>
       <use xlink:href="#DejaVuSans-30" x="63.623047"/>
      </g>
     </g>
    </g>
    <g id="xtick_13">
     <g id="line2d_34">
      <g>
       <use xlink:href="#m4646b7175c" x="438.84" y="302.92" style="stroke: #000000; stroke-width: 0.8"/>
      </g>
     </g>
     <g id="text_23">
      <!-- 30 -->
      <g transform="translate(432.4775 317.518438)scale(0.1 -0.1)">
       <use xlink:href="#DejaVuSans-33"/>
       <use xlink:href="#DejaVuSans-30" x="63.623047"/>
      </g>
     </g>
    </g>
    <g id="text_24">
     <!-- $f$ Hz -->
     <g transform="translate(239.2 331.196563)scale(0.1 -0.1)">
      <defs>
       <path id="DejaVuSans-Oblique-66" d="M 3059 4863 
L 2969 4384 
L 2419 4384 
Q 2106 4384 1964 4261 
Q 1822 4138 1753 3809 
L 1691 3500 
L 2638 3500 
L 2553 3053 
L 1606 3053 
L 1013 0 
L 434 0 
L 1031 3053 
L 481 3053 
L 563 3500 
L 1113 3500 
L 1159 3744 
Q 1278 4363 1576 4613 
Q 1875 4863 2516 4863 
L 3059 4863 
z
" transform="scale(0.015625)"/>
      </defs>
      <use xlink:href="#DejaVuSans-Oblique-66" transform="translate(0 0.015625)"/>
      <use xlink:href="#DejaVuSans-20" transform="translate(35.205078 0.015625)"/>
      <use xlink:href="#DejaVuSans-48" transform="translate(66.992188 0.015625)"/>
      <use xlink:href="#DejaVuSans-7a" transform="translate(142.1875 0.015625)"/>
     </g>
    </g>
   </g>
   <g id="matplotlib.axis_4">
    <g id="ytick_6">
     <g id="line2d_35">
      <g>
       <use xlink:href="#m947364674d" x="59.06" y="297.932727" style="stroke: #000000; stroke-width: 0.8"/>
      </g>
     </g>
     <g id="text_25">
      <!-- 0.0 -->
      <g transform="translate(36.156875 301.731946)scale(0.1 -0.1)">
       <use xlink:href="#DejaVuSans-30"/>
       <use xlink:href="#DejaVuSans-2e" x="63.623047"/>
       <use xlink:href="#DejaVuSans-30" x="95.410156"/>
      </g>
     </g>
    </g>
    <g id="ytick_7">
     <g id="line2d_36">
      <g>
       <use xlink:href="#m947364674d" x="59.06" y="258.034545" style="stroke: #000000; stroke-width: 0.8"/>
      </g>
     </g>
     <g id="text_26">
      <!-- 0.2 -->
      <g transform="translate(36.156875 261.833764)scale(0.1 -0.1)">
       <use xlink:href="#DejaVuSans-30"/>
       <use xlink:href="#DejaVuSans-2e" x="63.623047"/>
       <use xlink:href="#DejaVuSans-32" x="95.410156"/>
      </g>
     </g>
    </g>
    <g id="ytick_8">
     <g id="line2d_37">
      <g>
       <use xlink:href="#m947364674d" x="59.06" y="218.136364" style="stroke: #000000; stroke-width: 0.8"/>
      </g>
     </g>
     <g id="text_27">
      <!-- 0.4 -->
      <g transform="translate(36.156875 221.935582)scale(0.1 -0.1)">
       <use xlink:href="#DejaVuSans-30"/>
       <use xlink:href="#DejaVuSans-2e" x="63.623047"/>
       <use xlink:href="#DejaVuSans-34" x="95.410156"/>
      </g>
     </g>
    </g>
    <g id="text_28">
     <!-- $|Y(\omega)|$ -->
     <g transform="translate(29.756875 262.61)rotate(-90)scale(0.1 -0.1)">
      <defs>
       <path id="DejaVuSans-7c" d="M 1344 4891 
L 1344 -1509 
L 813 -1509 
L 813 4891 
L 1344 4891 
z
" transform="scale(0.015625)"/>
       <path id="DejaVuSans-Oblique-59" d="M 403 4666 
L 1081 4666 
L 1953 2747 
L 3616 4666 
L 4325 4666 
L 2209 2222 
L 1778 0 
L 1147 0 
L 1575 2222 
L 403 4666 
z
" transform="scale(0.015625)"/>
       <path id="DejaVuSans-Oblique-3c9" d="M 1369 -91 
Q 72 -91 434 1766 
Q 575 2500 1256 3500 
L 1875 3500 
Q 1231 2500 1088 1750 
Q 819 397 1519 397 
Q 2166 397 2478 2078 
L 3009 2078 
Q 2669 388 3316 397 
Q 4013 403 4275 1750 
Q 4419 2500 4169 3500 
L 4788 3500 
Q 5075 2500 4934 1766 
Q 4578 -94 3278 -91 
Q 2428 -88 2503 844 
Q 2194 -91 1369 -91 
z
" transform="scale(0.015625)"/>
      </defs>
      <use xlink:href="#DejaVuSans-7c" transform="translate(0 0.578125)"/>
      <use xlink:href="#DejaVuSans-Oblique-59" transform="translate(33.691406 0.578125)"/>
      <use xlink:href="#DejaVuSans-28" transform="translate(94.775391 0.578125)"/>
      <use xlink:href="#DejaVuSans-Oblique-3c9" transform="translate(133.789062 0.578125)"/>
      <use xlink:href="#DejaVuSans-29" transform="translate(217.529297 0.578125)"/>
      <use xlink:href="#DejaVuSans-7c" transform="translate(256.542969 0.578125)"/>
     </g>
    </g>
   </g>
   <g id="line2d_38">
    <path d="M 59.056645 297.932727 
L 122.353375 297.932727 
L 122.359705 198.187273 
L 122.46098 297.932727 
L 375.540295 297.932727 
L 375.546625 198.187273 
L 375.6479 297.932727 
L 438.843355 297.932727 
L 438.843355 297.932727 
" clip-path="url(#p7c0df2bd39)" style="fill: none; stroke: #1f77b4; stroke-width: 1.5; stroke-linecap: square"/>
   </g>
   <g id="line2d_39">
    <path d="M 179.323667 297.910318 
L 231.654287 297.800323 
L 234.441874 297.61528 
L 235.26548 297.366911 
L 235.645605 297.036404 
L 235.899022 296.454286 
L 236.025731 295.736325 
L 236.152439 293.644851 
L 236.215793 289.723318 
L 236.279148 199.527923 
L 236.405856 293.257057 
L 236.595919 296.12038 
L 236.849336 296.938446 
L 237.229462 297.342451 
L 237.79965 297.568197 
L 238.940027 297.728623 
L 241.727614 297.836766 
L 250.280439 297.882518 
L 258.516493 297.759042 
L 260.163704 297.551878 
L 260.733893 297.299326 
L 261.050664 296.938446 
L 261.240727 296.428733 
L 261.367435 295.654262 
L 261.494144 293.257057 
L 261.557498 288.103042 
L 261.620852 199.527923 
L 261.747561 293.644851 
L 261.937624 296.165821 
L 262.191041 296.938901 
L 262.571166 297.330078 
L 263.141355 297.551479 
L 264.281731 297.710215 
L 267.069319 297.818807 
L 276.445749 297.884717 
L 318.576333 297.910318 
L 318.576333 297.910318 
" clip-path="url(#p7c0df2bd39)" style="fill: none; stroke: #ff7f0e; stroke-width: 1.5; stroke-linecap: square"/>
   </g>
   <g id="LineCollection_1">
    <path d="M 318.576333 297.932727 
L 318.576333 198.187273 
" clip-path="url(#p7c0df2bd39)" style="fill: none; stroke-dasharray: 5.55,2.4; stroke-dashoffset: 0; stroke: #1f77b4; stroke-opacity: 0.5; stroke-width: 1.5"/>
   </g>
   <g id="LineCollection_2">
    <path d="M 179.323667 297.932727 
L 179.323667 198.187273 
" clip-path="url(#p7c0df2bd39)" style="fill: none; stroke-dasharray: 5.55,2.4; stroke-dashoffset: 0; stroke: #1f77b4; stroke-opacity: 0.5; stroke-width: 1.5"/>
   </g>
   <g id="patch_9">
    <path d="M 59.06 302.92 
L 59.06 193.2 
" style="fill: none; stroke: #000000; stroke-width: 0.8; stroke-linejoin: miter; stroke-linecap: square"/>
   </g>
   <g id="patch_10">
    <path d="M 438.84 302.92 
L 438.84 193.2 
" style="fill: none; stroke: #000000; stroke-width: 0.8; stroke-linejoin: miter; stroke-linecap: square"/>
   </g>
   <g id="patch_11">
    <path d="M 59.06 302.92 
L 438.84 302.92 
" style="fill: none; stroke: #000000; stroke-width: 0.8; stroke-linejoin: miter; stroke-linecap: square"/>
   </g>
   <g id="patch_12">
    <path d="M 59.06 193.2 
L 438.84 193.2 
" style="fill: none; stroke: #000000; stroke-width: 0.8; stroke-linejoin: miter; stroke-linecap: square"/>
   </g>
   <g id="text_29">
    <!-- Fourier amplitudes -->
    <g transform="translate(192.59875 187.2)scale(0.12 -0.12)">
     <defs>
      <path id="DejaVuSans-46" d="M 628 4666 
L 3309 4666 
L 3309 4134 
L 1259 4134 
L 1259 2759 
L 3109 2759 
L 3109 2228 
L 1259 2228 
L 1259 0 
L 628 0 
L 628 4666 
z
" transform="scale(0.015625)"/>
      <path id="DejaVuSans-75" d="M 544 1381 
L 544 3500 
L 1119 3500 
L 1119 1403 
Q 1119 906 1312 657 
Q 1506 409 1894 409 
Q 2359 409 2629 706 
Q 2900 1003 2900 1516 
L 2900 3500 
L 3475 3500 
L 3475 0 
L 2900 0 
L 2900 538 
Q 2691 219 2414 64 
Q 2138 -91 1772 -91 
Q 1169 -91 856 284 
Q 544 659 544 1381 
z
M 1991 3584 
L 1991 3584 
z
" transform="scale(0.015625)"/>
      <path id="DejaVuSans-65" d="M 3597 1894 
L 3597 1613 
L 953 1613 
Q 991 1019 1311 708 
Q 1631 397 2203 397 
Q 2534 397 2845 478 
Q 3156 559 3463 722 
L 3463 178 
Q 3153 47 2828 -22 
Q 2503 -91 2169 -91 
Q 1331 -91 842 396 
Q 353 884 353 1716 
Q 353 2575 817 3079 
Q 1281 3584 2069 3584 
Q 2775 3584 3186 3129 
Q 3597 2675 3597 1894 
z
M 3022 2063 
Q 3016 2534 2758 2815 
Q 2500 3097 2075 3097 
Q 1594 3097 1305 2825 
Q 1016 2553 972 2059 
L 3022 2063 
z
" transform="scale(0.015625)"/>
      <path id="DejaVuSans-6d" d="M 3328 2828 
Q 3544 3216 3844 3400 
Q 4144 3584 4550 3584 
Q 5097 3584 5394 3201 
Q 5691 2819 5691 2113 
L 5691 0 
L 5113 0 
L 5113 2094 
Q 5113 2597 4934 2840 
Q 4756 3084 4391 3084 
Q 3944 3084 3684 2787 
Q 3425 2491 3425 1978 
L 3425 0 
L 2847 0 
L 2847 2094 
Q 2847 2600 2669 2842 
Q 2491 3084 2119 3084 
Q 1678 3084 1418 2786 
Q 1159 2488 1159 1978 
L 1159 0 
L 581 0 
L 581 3500 
L 1159 3500 
L 1159 2956 
Q 1356 3278 1631 3431 
Q 1906 3584 2284 3584 
Q 2666 3584 2933 3390 
Q 3200 3197 3328 2828 
z
" transform="scale(0.015625)"/>
      <path id="DejaVuSans-70" d="M 1159 525 
L 1159 -1331 
L 581 -1331 
L 581 3500 
L 1159 3500 
L 1159 2969 
Q 1341 3281 1617 3432 
Q 1894 3584 2278 3584 
Q 2916 3584 3314 3078 
Q 3713 2572 3713 1747 
Q 3713 922 3314 415 
Q 2916 -91 2278 -91 
Q 1894 -91 1617 61 
Q 1341 213 1159 525 
z
M 3116 1747 
Q 3116 2381 2855 2742 
Q 2594 3103 2138 3103 
Q 1681 3103 1420 2742 
Q 1159 2381 1159 1747 
Q 1159 1113 1420 752 
Q 1681 391 2138 391 
Q 2594 391 2855 752 
Q 3116 1113 3116 1747 
z
" transform="scale(0.015625)"/>
      <path id="DejaVuSans-64" d="M 2906 2969 
L 2906 4863 
L 3481 4863 
L 3481 0 
L 2906 0 
L 2906 525 
Q 2725 213 2448 61 
Q 2172 -91 1784 -91 
Q 1150 -91 751 415 
Q 353 922 353 1747 
Q 353 2572 751 3078 
Q 1150 3584 1784 3584 
Q 2172 3584 2448 3432 
Q 2725 3281 2906 2969 
z
M 947 1747 
Q 947 1113 1208 752 
Q 1469 391 1925 391 
Q 2381 391 2643 752 
Q 2906 1113 2906 1747 
Q 2906 2381 2643 2742 
Q 2381 3103 1925 3103 
Q 1469 3103 1208 2742 
Q 947 2381 947 1747 
z
" transform="scale(0.015625)"/>
     </defs>
     <use xlink:href="#DejaVuSans-46"/>
     <use xlink:href="#DejaVuSans-6f" x="53.894531"/>
     <use xlink:href="#DejaVuSans-75" x="115.076172"/>
     <use xlink:href="#DejaVuSans-72" x="178.455078"/>
     <use xlink:href="#DejaVuSans-69" x="219.568359"/>
     <use xlink:href="#DejaVuSans-65" x="247.351562"/>
     <use xlink:href="#DejaVuSans-72" x="308.875"/>
     <use xlink:href="#DejaVuSans-20" x="349.988281"/>
     <use xlink:href="#DejaVuSans-61" x="381.775391"/>
     <use xlink:href="#DejaVuSans-6d" x="443.054688"/>
     <use xlink:href="#DejaVuSans-70" x="540.466797"/>
     <use xlink:href="#DejaVuSans-6c" x="603.943359"/>
     <use xlink:href="#DejaVuSans-69" x="631.726562"/>
     <use xlink:href="#DejaVuSans-74" x="659.509766"/>
     <use xlink:href="#DejaVuSans-75" x="698.71875"/>
     <use xlink:href="#DejaVuSans-64" x="762.097656"/>
     <use xlink:href="#DejaVuSans-65" x="825.574219"/>
     <use xlink:href="#DejaVuSans-73" x="887.097656"/>
    </g>
   </g>
   <g id="legend_2">
    <g id="patch_13">
     <path d="M 344.511875 230.55625 
L 431.84 230.55625 
Q 433.84 230.55625 433.84 228.55625 
L 433.84 200.2 
Q 433.84 198.2 431.84 198.2 
L 344.511875 198.2 
Q 342.511875 198.2 342.511875 200.2 
L 342.511875 228.55625 
Q 342.511875 230.55625 344.511875 230.55625 
z
" style="fill: #ffffff; opacity: 0.8; stroke: #cccccc; stroke-linejoin: miter"/>
    </g>
    <g id="line2d_40">
     <path d="M 346.511875 206.298437 
L 356.511875 206.298437 
L 366.511875 206.298437 
" style="fill: none; stroke: #1f77b4; stroke-width: 1.5; stroke-linecap: square"/>
    </g>
    <g id="text_30">
     <!-- fs=1000Hz -->
     <g transform="translate(374.511875 209.798437)scale(0.1 -0.1)">
      <use xlink:href="#DejaVuSans-66"/>
      <use xlink:href="#DejaVuSans-73" x="35.205078"/>
      <use xlink:href="#DejaVuSans-3d" x="87.304688"/>
      <use xlink:href="#DejaVuSans-31" x="171.09375"/>
      <use xlink:href="#DejaVuSans-30" x="234.716797"/>
      <use xlink:href="#DejaVuSans-30" x="298.339844"/>
      <use xlink:href="#DejaVuSans-30" x="361.962891"/>
      <use xlink:href="#DejaVuSans-48" x="425.585938"/>
      <use xlink:href="#DejaVuSans-7a" x="500.78125"/>
     </g>
    </g>
    <g id="line2d_41">
     <path d="M 346.511875 220.976562 
L 356.511875 220.976562 
L 366.511875 220.976562 
" style="fill: none; stroke: #ff7f0e; stroke-width: 1.5; stroke-linecap: square"/>
    </g>
    <g id="text_31">
     <!-- fs=22Hz -->
     <g transform="translate(374.511875 224.476562)scale(0.1 -0.1)">
      <use xlink:href="#DejaVuSans-66"/>
      <use xlink:href="#DejaVuSans-73" x="35.205078"/>
      <use xlink:href="#DejaVuSans-3d" x="87.304688"/>
      <use xlink:href="#DejaVuSans-32" x="171.09375"/>
      <use xlink:href="#DejaVuSans-32" x="234.716797"/>
      <use xlink:href="#DejaVuSans-48" x="298.339844"/>
      <use xlink:href="#DejaVuSans-7a" x="373.535156"/>
     </g>
    </g>
   </g>
  </g>
 </g>
 <defs>
  <clipPath id="pf451aa75be">
   <rect x="59.06" y="25.44" width="379.78" height="109.72"/>
  </clipPath>
  <clipPath id="p7c0df2bd39">
   <rect x="59.06" y="193.2" width="379.78" height="109.72"/>
  </clipPath>
 </defs>
</svg>
