<?xml version="1.0" encoding="UTF-8" standalone="no"?>
<svg
   xmlns:dc="http://purl.org/dc/elements/1.1/"
   xmlns:cc="http://creativecommons.org/ns#"
   xmlns:rdf="http://www.w3.org/1999/02/22-rdf-syntax-ns#"
   xmlns:svg="http://www.w3.org/2000/svg"
   xmlns="http://www.w3.org/2000/svg"
   xmlns:xlink="http://www.w3.org/1999/xlink"
   xmlns:sodipodi="http://sodipodi.sourceforge.net/DTD/sodipodi-0.dtd"
   xmlns:inkscape="http://www.inkscape.org/namespaces/inkscape"
   sodipodi:docname="Fig_5_2.svg"
   inkscape:version="1.0 (4035a4fb49, 2020-05-01)"
   width="120mm"
   height="50mm"
   viewBox="30 30 120 50"
   version="1.1"
   id="svg8">
  <defs
     id="defs2">
    <marker
       inkscape:stockid="Arrow2Lend"
       orient="auto"
       refY="0"
       refX="0"
       id="marker3323"
       style="overflow:visible"
       inkscape:isstock="true">
      <path
         id="path3321"
         style="fill:#000000;fill-opacity:1;fill-rule:evenodd;stroke:#000000;stroke-width:0.625;stroke-linejoin:round;stroke-opacity:1"
         d="M 8.7185878,4.0337352 -2.2072895,0.01601326 8.7185884,-4.0017078 c -1.7454984,2.3720609 -1.7354408,5.6174519 -6e-7,8.035443 z"
         transform="matrix(-1.1,0,0,-1.1,-1.1,0)" />
    </marker>
    <marker
       inkscape:collect="always"
       inkscape:isstock="true"
       style="overflow:visible"
       id="marker2159"
       refX="0"
       refY="0"
       orient="auto"
       inkscape:stockid="Arrow2Lend">
      <path
         transform="matrix(-1.1,0,0,-1.1,-1.1,0)"
         d="M 8.7185878,4.0337352 -2.2072895,0.01601326 8.7185884,-4.0017078 c -1.7454984,2.3720609 -1.7354408,5.6174519 -6e-7,8.035443 z"
         style="fill:#000000;fill-opacity:1;fill-rule:evenodd;stroke:#000000;stroke-width:0.625;stroke-linejoin:round;stroke-opacity:1"
         id="path2157" />
    </marker>
    <marker
       inkscape:isstock="true"
       style="overflow:visible"
       id="marker2149"
       refX="0"
       refY="0"
       orient="auto"
       inkscape:stockid="Arrow2Lend">
      <path
         transform="matrix(-1.1,0,0,-1.1,-1.1,0)"
         d="M 8.7185878,4.0337352 -2.2072895,0.01601326 8.7185884,-4.0017078 c -1.7454984,2.3720609 -1.7354408,5.6174519 -6e-7,8.035443 z"
         style="fill:#000000;fill-opacity:1;fill-rule:evenodd;stroke:#000000;stroke-width:0.625;stroke-linejoin:round;stroke-opacity:1"
         id="path2147" />
    </marker>
    <marker
       inkscape:isstock="true"
       style="overflow:visible"
       id="marker2051"
       refX="0"
       refY="0"
       orient="auto"
       inkscape:stockid="Arrow2Lend">
      <path
         transform="matrix(-1.1,0,0,-1.1,-1.1,0)"
         d="M 8.7185878,4.0337352 -2.2072895,0.01601326 8.7185884,-4.0017078 c -1.7454984,2.3720609 -1.7354408,5.6174519 -6e-7,8.035443 z"
         style="fill:#000000;fill-opacity:1;fill-rule:evenodd;stroke:#000000;stroke-width:0.625;stroke-linejoin:round;stroke-opacity:1"
         id="path2049" />
    </marker>
    <marker
       inkscape:collect="always"
       inkscape:isstock="true"
       style="overflow:visible"
       id="marker1737"
       refX="0"
       refY="0"
       orient="auto"
       inkscape:stockid="Arrow2Lend">
      <path
         transform="matrix(-1.1,0,0,-1.1,-1.1,0)"
         d="M 8.7185878,4.0337352 -2.2072895,0.01601326 8.7185884,-4.0017078 c -1.7454984,2.3720609 -1.7354408,5.6174519 -6e-7,8.035443 z"
         style="fill:#000000;fill-opacity:1;fill-rule:evenodd;stroke:#000000;stroke-width:0.625;stroke-linejoin:round;stroke-opacity:1"
         id="path1735" />
    </marker>
    <marker
       inkscape:collect="always"
       inkscape:stockid="Arrow2Lend"
       orient="auto"
       refY="0"
       refX="0"
       id="marker1655"
       style="overflow:visible"
       inkscape:isstock="true">
      <path
         id="path1653"
         style="fill:#000000;fill-opacity:1;fill-rule:evenodd;stroke:#000000;stroke-width:0.625;stroke-linejoin:round;stroke-opacity:1"
         d="M 8.7185878,4.0337352 -2.2072895,0.01601326 8.7185884,-4.0017078 c -1.7454984,2.3720609 -1.7354408,5.6174519 -6e-7,8.035443 z"
         transform="matrix(-1.1,0,0,-1.1,-1.1,0)" />
    </marker>
    <marker
       inkscape:collect="always"
       inkscape:isstock="true"
       style="overflow:visible"
       id="marker1579"
       refX="0"
       refY="0"
       orient="auto"
       inkscape:stockid="Arrow2Lend">
      <path
         transform="matrix(-1.1,0,0,-1.1,-1.1,0)"
         d="M 8.7185878,4.0337352 -2.2072895,0.01601326 8.7185884,-4.0017078 c -1.7454984,2.3720609 -1.7354408,5.6174519 -6e-7,8.035443 z"
         style="fill:#000000;fill-opacity:1;fill-rule:evenodd;stroke:#000000;stroke-width:0.625;stroke-linejoin:round;stroke-opacity:1"
         id="path1577" />
    </marker>
    <marker
       inkscape:collect="always"
       inkscape:stockid="Arrow2Lend"
       orient="auto"
       refY="0"
       refX="0"
       id="marker1509"
       style="overflow:visible"
       inkscape:isstock="true">
      <path
         id="path1507"
         style="fill:#000000;fill-opacity:1;fill-rule:evenodd;stroke:#000000;stroke-width:0.625;stroke-linejoin:round;stroke-opacity:1"
         d="M 8.7185878,4.0337352 -2.2072895,0.01601326 8.7185884,-4.0017078 c -1.7454984,2.3720609 -1.7354408,5.6174519 -6e-7,8.035443 z"
         transform="matrix(-1.1,0,0,-1.1,-1.1,0)" />
    </marker>
    <marker
       inkscape:collect="always"
       inkscape:isstock="true"
       style="overflow:visible"
       id="marker1445"
       refX="0"
       refY="0"
       orient="auto"
       inkscape:stockid="Arrow2Lend">
      <path
         transform="matrix(-1.1,0,0,-1.1,-1.1,0)"
         d="M 8.7185878,4.0337352 -2.2072895,0.01601326 8.7185884,-4.0017078 c -1.7454984,2.3720609 -1.7354408,5.6174519 -6e-7,8.035443 z"
         style="fill:#000000;fill-opacity:1;fill-rule:evenodd;stroke:#000000;stroke-width:0.625;stroke-linejoin:round;stroke-opacity:1"
         id="path1443" />
    </marker>
    <marker
       inkscape:collect="always"
       inkscape:stockid="Arrow2Lend"
       orient="auto"
       refY="0"
       refX="0"
       id="marker1387"
       style="overflow:visible"
       inkscape:isstock="true">
      <path
         id="path1385"
         style="fill:#000000;fill-opacity:1;fill-rule:evenodd;stroke:#000000;stroke-width:0.625;stroke-linejoin:round;stroke-opacity:1"
         d="M 8.7185878,4.0337352 -2.2072895,0.01601326 8.7185884,-4.0017078 c -1.7454984,2.3720609 -1.7354408,5.6174519 -6e-7,8.035443 z"
         transform="matrix(-1.1,0,0,-1.1,-1.1,0)" />
    </marker>
    <marker
       inkscape:stockid="Arrow2Lstart"
       orient="auto"
       refY="0"
       refX="0"
       id="Arrow2Lstart"
       style="overflow:visible"
       inkscape:isstock="true">
      <path
         id="path1238"
         style="fill:#000000;fill-opacity:1;fill-rule:evenodd;stroke:#000000;stroke-width:0.625;stroke-linejoin:round;stroke-opacity:1"
         d="M 8.7185878,4.0337352 -2.2072895,0.01601326 8.7185884,-4.0017078 c -1.7454984,2.3720609 -1.7354408,5.6174519 -6e-7,8.035443 z"
         transform="matrix(1.1,0,0,1.1,1.1,0)" />
    </marker>
    <marker
       inkscape:collect="always"
       inkscape:isstock="true"
       style="overflow:visible"
       id="marker1158"
       refX="0"
       refY="0"
       orient="auto"
       inkscape:stockid="Arrow2Lend">
      <path
         transform="matrix(-1.1,0,0,-1.1,-1.1,0)"
         d="M 8.7185878,4.0337352 -2.2072895,0.01601326 8.7185884,-4.0017078 c -1.7454984,2.3720609 -1.7354408,5.6174519 -6e-7,8.035443 z"
         style="fill:#000000;fill-opacity:1;fill-rule:evenodd;stroke:#000000;stroke-width:0.625;stroke-linejoin:round;stroke-opacity:1"
         id="path1156" />
    </marker>
    <marker
       inkscape:isstock="true"
       style="overflow:visible"
       id="marker3117"
       refX="0"
       refY="0"
       orient="auto"
       inkscape:stockid="Arrow2Lend">
      <path
         transform="matrix(-1.1,0,0,-1.1,-1.1,0)"
         d="M 8.7185878,4.0337352 -2.2072895,0.01601326 8.7185884,-4.0017078 c -1.7454984,2.3720609 -1.7354408,5.6174519 -6e-7,8.035443 z"
         style="fill:#000000;fill-opacity:1;fill-rule:evenodd;stroke:#000000;stroke-width:0.625;stroke-linejoin:round;stroke-opacity:1"
         id="path3115" />
    </marker>
    <marker
       inkscape:stockid="Arrow2Lend"
       orient="auto"
       refY="0"
       refX="0"
       id="marker1295"
       style="overflow:visible"
       inkscape:isstock="true">
      <path
         id="path1293"
         style="fill:#000000;fill-opacity:1;fill-rule:evenodd;stroke:#000000;stroke-width:0.625;stroke-linejoin:round;stroke-opacity:1"
         d="M 8.7185878,4.0337352 -2.2072895,0.01601326 8.7185884,-4.0017078 c -1.7454984,2.3720609 -1.7354408,5.6174519 -6e-7,8.035443 z"
         transform="matrix(-1.1,0,0,-1.1,-1.1,0)" />
    </marker>
    <marker
       inkscape:stockid="Arrow2Lend"
       orient="auto"
       refY="0"
       refX="0"
       id="marker1285"
       style="overflow:visible"
       inkscape:isstock="true">
      <path
         id="path1283"
         style="fill:#000000;fill-opacity:1;fill-rule:evenodd;stroke:#000000;stroke-width:0.625;stroke-linejoin:round;stroke-opacity:1"
         d="M 8.7185878,4.0337352 -2.2072895,0.01601326 8.7185884,-4.0017078 c -1.7454984,2.3720609 -1.7354408,5.6174519 -6e-7,8.035443 z"
         transform="matrix(-1.1,0,0,-1.1,-1.1,0)" />
    </marker>
    <g
       id="g2461">
      <symbol
         id="symbol3955"
         overflow="visible">
        <path
           id="path1862"
           d=""
           style="stroke:none" />
      </symbol>
      <symbol
         id="symbol3706"
         overflow="visible">
        <path
           id="path3374"
           d="m 4.125,-3 c 0.03125,-0.109375 0.03125,-0.125 0.03125,-0.1875 0,-0.203125 -0.15625,-0.25 -0.25,-0.25 -0.046875,0 -0.21875,0.015625 -0.328125,0.21875 -0.015625,0.046875 -0.09375,0.328125 -0.125,0.5 L 2.96875,-0.8125 c 0,0.03125 -0.34375,0.671875 -0.921875,0.671875 -0.390625,0 -0.53125,-0.296875 -0.53125,-0.640625 0,-0.46875 0.265625,-1.171875 0.453125,-1.640625 C 2.046875,-2.625 2.078125,-2.6875 2.078125,-2.84375 c 0,-0.4375 -0.359375,-0.671875 -0.71875,-0.671875 -0.796875,0 -1.125,1.125 -1.125,1.21875 0,0.078125 0.0625,0.109375 0.125,0.109375 0.109375,0 0.109375,-0.046875 0.140625,-0.125 0.203125,-0.703125 0.546875,-0.984375 0.828125,-0.984375 0.125,0 0.1875,0.078125 0.1875,0.265625 0,0.171875 -0.0625,0.359375 -0.109375,0.5 -0.328125,0.84375 -0.46875,1.25 -0.46875,1.625 0,0.78125 0.59375,0.984375 1.0625,0.984375 0.375,0 0.640625,-0.171875 0.84375,-0.34375 -0.125,0.4375 -0.203125,0.75 -0.5,1.140625 C 2.078125,1.1875 1.765625,1.40625 1.40625,1.40625 1.265625,1.40625 0.96875,1.375 0.8125,1.140625 1.234375,1.109375 1.265625,0.75 1.265625,0.703125 c 0,-0.1875 -0.15625,-0.296875 -0.3125,-0.296875 C 0.765625,0.40625 0.5,0.546875 0.5,0.9375 0.5,1.3125 0.84375,1.625 1.40625,1.625 2.21875,1.625 3.125,0.96875 3.375,0.015625 Z m 0,0"
           style="stroke:none" />
      </symbol>
      <symbol
         id="symbol4362"
         overflow="visible">
        <path
           id="path3650"
           d=""
           style="stroke:none" />
      </symbol>
      <symbol
         id="symbol8543"
         overflow="visible">
        <path
           id="path6866"
           d="m 2.140625,-3.796875 c 0,-0.1875 -0.015625,-0.1875 -0.203125,-0.1875 -0.390625,0.390625 -1,0.390625 -1.21875,0.390625 v 0.234375 c 0.15625,0 0.5625,0 0.921875,-0.171875 v 3.015625 c 0,0.203125 0,0.28125 -0.625,0.28125 h -0.25 V 0 c 0.328125,-0.03125 0.796875,-0.03125 1.125,-0.03125 0.328125,0 0.796875,0 1.125,0.03125 v -0.234375 h -0.25 c -0.625,0 -0.625,-0.078125 -0.625,-0.28125 z m 0,0"
           style="stroke:none" />
      </symbol>
    </g>
    <g
       id="g9675">
      <symbol
         id="symbol9081"
         overflow="visible">
        <path
           id="path5127"
           d=""
           style="stroke:none" />
      </symbol>
      <symbol
         id="symbol5826"
         overflow="visible">
        <path
           id="path2201"
           d="m 3.5625,-2.296875 c 0.015625,-0.046875 0.015625,-0.0625 0.015625,-0.078125 0,-0.078125 -0.046875,-0.203125 -0.203125,-0.203125 -0.109375,0 -0.203125,0.0625 -0.25,0.15625 -0.03125,0.03125 -0.0625,0.21875 -0.09375,0.328125 l -0.3125,1.25 c -0.046875,0.171875 -0.0625,0.265625 -0.3125,0.484375 -0.0625,0.0625 -0.25,0.21875 -0.515625,0.21875 -0.4375,0 -0.4375,-0.390625 -0.4375,-0.5 0,-0.25 0.078125,-0.53125 0.34375,-1.1875 0.046875,-0.140625 0.0625,-0.1875 0.0625,-0.296875 0,-0.328125 -0.296875,-0.515625 -0.59375,-0.515625 -0.609375,0 -0.90625,0.796875 -0.90625,0.921875 0,0.03125 0.03125,0.078125 0.109375,0.078125 0.09375,0 0.109375,-0.03125 0.125,-0.078125 C 0.765625,-2.296875 1.078125,-2.4375 1.25,-2.4375 c 0.109375,0 0.15625,0.078125 0.15625,0.21875 0,0.125 -0.078125,0.328125 -0.140625,0.484375 -0.21875,0.53125 -0.28125,0.796875 -0.28125,1.015625 0,0.5625 0.421875,0.78125 0.890625,0.78125 0.078125,0 0.359375,0 0.6875,-0.28125 -0.078125,0.328125 -0.140625,0.5625 -0.421875,0.875 -0.109375,0.125 -0.375,0.359375 -0.734375,0.359375 -0.0625,0 -0.3125,0 -0.453125,-0.15625 C 1.21875,0.8125 1.25,0.578125 1.25,0.53125 1.25,0.359375 1.125,0.296875 1,0.296875 c -0.140625,0 -0.34375,0.125 -0.34375,0.390625 0,0.296875 0.28125,0.53125 0.75,0.53125 C 2.046875,1.21875 2.8125,0.75 2.984375,0 Z m 0,0"
           style="stroke:none" />
      </symbol>
      <symbol
         id="symbol3274"
         overflow="visible">
        <path
           id="path5429"
           d=""
           style="stroke:none" />
      </symbol>
      <symbol
         id="symbol6874"
         overflow="visible">
        <path
           id="path2313"
           d="M 1.984375,-3.171875 C 1.984375,-3.3125 1.96875,-3.3125 1.796875,-3.3125 1.453125,-3 0.890625,-3 0.796875,-3 H 0.71875 v 0.21875 h 0.078125 c 0.109375,0 0.4375,-0.015625 0.734375,-0.140625 v 2.5 c 0,0.140625 0,0.203125 -0.53125,0.203125 H 0.75 V 0 c 0.265625,-0.015625 0.71875,-0.015625 1,-0.015625 0.296875,0 0.734375,0 1.015625,0.015625 v -0.21875 h -0.25 c -0.53125,0 -0.53125,-0.0625 -0.53125,-0.203125 z m 0,0"
           style="stroke:none" />
      </symbol>
    </g>
    <g
       id="g3937">
      <symbol
         id="symbol7481"
         overflow="visible">
        <path
           id="path4502"
           d=""
           style="stroke:none" />
      </symbol>
      <symbol
         id="symbol4398"
         overflow="visible">
        <path
           id="path5645"
           d="m 3.5625,-2.296875 c 0.015625,-0.046875 0.015625,-0.0625 0.015625,-0.078125 0,-0.078125 -0.046875,-0.203125 -0.203125,-0.203125 -0.109375,0 -0.203125,0.0625 -0.25,0.15625 -0.03125,0.03125 -0.0625,0.21875 -0.09375,0.328125 l -0.3125,1.25 c -0.046875,0.171875 -0.0625,0.265625 -0.3125,0.484375 -0.0625,0.0625 -0.25,0.21875 -0.515625,0.21875 -0.4375,0 -0.4375,-0.390625 -0.4375,-0.5 0,-0.25 0.078125,-0.53125 0.34375,-1.1875 0.046875,-0.140625 0.0625,-0.1875 0.0625,-0.296875 0,-0.328125 -0.296875,-0.515625 -0.59375,-0.515625 -0.609375,0 -0.90625,0.796875 -0.90625,0.921875 0,0.03125 0.03125,0.078125 0.109375,0.078125 0.09375,0 0.109375,-0.03125 0.125,-0.078125 C 0.765625,-2.296875 1.078125,-2.4375 1.25,-2.4375 c 0.109375,0 0.15625,0.078125 0.15625,0.21875 0,0.125 -0.078125,0.328125 -0.140625,0.484375 -0.21875,0.53125 -0.28125,0.796875 -0.28125,1.015625 0,0.5625 0.421875,0.78125 0.890625,0.78125 0.078125,0 0.359375,0 0.6875,-0.28125 -0.078125,0.328125 -0.140625,0.5625 -0.421875,0.875 -0.109375,0.125 -0.375,0.359375 -0.734375,0.359375 -0.0625,0 -0.3125,0 -0.453125,-0.15625 C 1.21875,0.8125 1.25,0.578125 1.25,0.53125 1.25,0.359375 1.125,0.296875 1,0.296875 c -0.140625,0 -0.34375,0.125 -0.34375,0.390625 0,0.296875 0.28125,0.53125 0.75,0.53125 C 2.046875,1.21875 2.8125,0.75 2.984375,0 Z m 0,0"
           style="stroke:none" />
      </symbol>
      <symbol
         id="symbol731"
         overflow="visible">
        <path
           id="path1604"
           d=""
           style="stroke:none" />
      </symbol>
      <symbol
         id="symbol8533"
         overflow="visible">
        <path
           id="path6597"
           d="M 2.9375,-0.96875 H 2.71875 c 0,0.09375 -0.0625,0.40625 -0.140625,0.453125 -0.03125,0.03125 -0.453125,0.03125 -0.53125,0.03125 H 1.078125 C 1.40625,-0.71875 1.765625,-1 2.0625,-1.203125 c 0.453125,-0.3125 0.875,-0.59375 0.875,-1.125 0,-0.640625 -0.609375,-0.984375 -1.3125,-0.984375 -0.671875,0 -1.171875,0.375 -1.171875,0.875 0,0.25 0.21875,0.296875 0.296875,0.296875 0.125,0 0.28125,-0.09375 0.28125,-0.296875 0,-0.171875 -0.125,-0.28125 -0.28125,-0.28125 0.140625,-0.234375 0.4375,-0.375 0.765625,-0.375 0.484375,0 0.890625,0.28125 0.890625,0.765625 0,0.421875 -0.296875,0.75 -0.671875,1.0625 l -1.21875,1.03125 C 0.46875,-0.1875 0.453125,-0.1875 0.453125,-0.15625 V 0 h 2.3125 z m 0,0"
           style="stroke:none" />
      </symbol>
    </g>
    <g
       id="g5226">
      <symbol
         id="symbol1206"
         overflow="visible">
        <path
           id="path5975"
           d=""
           style="stroke:none" />
      </symbol>
      <symbol
         id="symbol480"
         overflow="visible">
        <path
           id="path2960"
           d="m 3.5625,-2.296875 c 0.015625,-0.046875 0.015625,-0.0625 0.015625,-0.078125 0,-0.078125 -0.046875,-0.203125 -0.203125,-0.203125 -0.109375,0 -0.203125,0.0625 -0.25,0.15625 -0.03125,0.03125 -0.0625,0.21875 -0.09375,0.328125 l -0.3125,1.25 c -0.046875,0.171875 -0.0625,0.265625 -0.3125,0.484375 -0.0625,0.0625 -0.25,0.21875 -0.515625,0.21875 -0.4375,0 -0.4375,-0.390625 -0.4375,-0.5 0,-0.25 0.078125,-0.53125 0.34375,-1.1875 0.046875,-0.140625 0.0625,-0.1875 0.0625,-0.296875 0,-0.328125 -0.296875,-0.515625 -0.59375,-0.515625 -0.609375,0 -0.90625,0.796875 -0.90625,0.921875 0,0.03125 0.03125,0.078125 0.109375,0.078125 0.09375,0 0.109375,-0.03125 0.125,-0.078125 C 0.765625,-2.296875 1.078125,-2.4375 1.25,-2.4375 c 0.109375,0 0.15625,0.078125 0.15625,0.21875 0,0.125 -0.078125,0.328125 -0.140625,0.484375 -0.21875,0.53125 -0.28125,0.796875 -0.28125,1.015625 0,0.5625 0.421875,0.78125 0.890625,0.78125 0.078125,0 0.359375,0 0.6875,-0.28125 -0.078125,0.328125 -0.140625,0.5625 -0.421875,0.875 -0.109375,0.125 -0.375,0.359375 -0.734375,0.359375 -0.0625,0 -0.3125,0 -0.453125,-0.15625 C 1.21875,0.8125 1.25,0.578125 1.25,0.53125 1.25,0.359375 1.125,0.296875 1,0.296875 c -0.140625,0 -0.34375,0.125 -0.34375,0.390625 0,0.296875 0.28125,0.53125 0.75,0.53125 C 2.046875,1.21875 2.8125,0.75 2.984375,0 Z m 0,0"
           style="stroke:none" />
      </symbol>
      <symbol
         id="symbol8494"
         overflow="visible">
        <path
           id="path6997"
           d=""
           style="stroke:none" />
      </symbol>
      <symbol
         id="symbol7040"
         overflow="visible">
        <path
           id="path8566"
           d="m 1.640625,-1.65625 c 0.46875,0 0.765625,0.296875 0.765625,0.78125 0,0.515625 -0.3125,0.78125 -0.75,0.78125 -0.0625,0 -0.65625,0 -0.90625,-0.265625 0.203125,-0.03125 0.265625,-0.171875 0.265625,-0.296875 0,-0.1875 -0.140625,-0.3125 -0.3125,-0.3125 -0.15625,0 -0.296875,0.109375 -0.296875,0.328125 0,0.515625 0.578125,0.75 1.265625,0.75 0.8125,0 1.3125,-0.5 1.3125,-0.984375 0,-0.40625 -0.359375,-0.75 -0.921875,-0.875 0.59375,-0.203125 0.75,-0.578125 0.75,-0.859375 0,-0.40625 -0.5,-0.703125 -1.125,-0.703125 -0.625,0 -1.109375,0.25 -1.109375,0.703125 0,0.234375 0.1875,0.296875 0.28125,0.296875 0.140625,0 0.28125,-0.109375 0.28125,-0.296875 0,-0.109375 -0.0625,-0.25 -0.234375,-0.28125 C 1.109375,-3.109375 1.5625,-3.125 1.671875,-3.125 c 0.359375,0 0.609375,0.171875 0.609375,0.515625 0,0.296875 -0.1875,0.75 -0.703125,0.78125 -0.140625,0 -0.15625,0 -0.296875,0.015625 -0.046875,0 -0.109375,0 -0.109375,0.078125 0,0.078125 0.046875,0.078125 0.140625,0.078125 z m 0,0"
           style="stroke:none" />
      </symbol>
    </g>
    <g
       id="g1662">
      <symbol
         id="symbol6306"
         overflow="visible">
        <path
           id="path6707"
           d=""
           style="stroke:none" />
      </symbol>
      <symbol
         id="symbol5820"
         overflow="visible">
        <path
           id="path9284"
           d="M 2.828125,-0.515625 C 2.796875,-0.390625 2.75,-0.171875 2.75,-0.140625 2.75,0 2.84375,0.0625 2.953125,0.0625 c 0.109375,0 0.21875,-0.078125 0.265625,-0.171875 0,-0.03125 0.0625,-0.234375 0.09375,-0.359375 L 3.4375,-1 C 3.484375,-1.15625 3.5,-1.265625 3.546875,-1.40625 3.59375,-1.609375 3.8125,-1.921875 4.03125,-2.140625 c 0.109375,-0.125 0.375,-0.296875 0.703125,-0.296875 0.375,0 0.375,0.296875 0.375,0.421875 0,0.34375 -0.25,0.984375 -0.359375,1.25 -0.046875,0.109375 -0.078125,0.203125 -0.078125,0.3125 0,0.296875 0.265625,0.515625 0.59375,0.515625 0.609375,0 0.90625,-0.796875 0.90625,-0.921875 0,-0.015625 0,-0.09375 -0.109375,-0.09375 -0.078125,0 -0.09375,0.03125 -0.125,0.15625 -0.109375,0.34375 -0.359375,0.65625 -0.640625,0.65625 -0.078125,0 -0.171875,-0.03125 -0.171875,-0.21875 0,-0.109375 0.046875,-0.21875 0.09375,-0.34375 C 5.296875,-0.875 5.578125,-1.59375 5.578125,-1.9375 c 0,-0.5 -0.359375,-0.703125 -0.828125,-0.703125 -0.328125,0 -0.71875,0.125 -1.109375,0.625 -0.03125,-0.4375 -0.390625,-0.625 -0.828125,-0.625 -0.296875,0 -0.671875,0.09375 -1.0625,0.5625 -0.03125,-0.453125 -0.453125,-0.5625 -0.671875,-0.5625 -0.234375,0 -0.390625,0.140625 -0.484375,0.328125 -0.15625,0.25 -0.234375,0.578125 -0.234375,0.59375 0,0.0625 0.0625,0.078125 0.109375,0.078125 0.09375,0 0.109375,-0.03125 0.140625,-0.125 C 0.71875,-2.25 0.875,-2.4375 1.0625,-2.4375 c 0.203125,0 0.21875,0.203125 0.21875,0.296875 0,0.09375 -0.0625,0.34375 -0.109375,0.5 C 1.125,-1.46875 1.078125,-1.234375 1.046875,-1.09375 1,-0.953125 0.96875,-0.796875 0.921875,-0.640625 0.875,-0.46875 0.8125,-0.171875 0.8125,-0.140625 0.8125,0 0.90625,0.0625 1.015625,0.0625 c 0.109375,0 0.21875,-0.078125 0.265625,-0.171875 0,-0.03125 0.0625,-0.234375 0.09375,-0.359375 L 1.5,-1 c 0.046875,-0.15625 0.0625,-0.265625 0.109375,-0.40625 0.046875,-0.203125 0.25,-0.515625 0.484375,-0.734375 0.109375,-0.125 0.375,-0.296875 0.6875,-0.296875 0.390625,0 0.390625,0.296875 0.390625,0.421875 0,0.140625 -0.0625,0.375 -0.109375,0.5625 z m 0,0"
           style="stroke:none" />
      </symbol>
      <symbol
         id="symbol1406"
         overflow="visible">
        <path
           id="path173"
           d=""
           style="stroke:none" />
      </symbol>
      <symbol
         id="symbol3586"
         overflow="visible">
        <path
           id="path9552"
           d="M 1.984375,-3.171875 C 1.984375,-3.3125 1.96875,-3.3125 1.796875,-3.3125 1.453125,-3 0.890625,-3 0.796875,-3 H 0.71875 v 0.21875 h 0.078125 c 0.109375,0 0.4375,-0.015625 0.734375,-0.140625 v 2.5 c 0,0.140625 0,0.203125 -0.53125,0.203125 H 0.75 V 0 c 0.265625,-0.015625 0.71875,-0.015625 1,-0.015625 0.296875,0 0.734375,0 1.015625,0.015625 v -0.21875 h -0.25 c -0.53125,0 -0.53125,-0.0625 -0.53125,-0.203125 z m 0,0"
           style="stroke:none" />
      </symbol>
    </g>
    <g
       id="g7101">
      <symbol
         id="symbol8529"
         overflow="visible">
        <path
           id="path5941"
           d=""
           style="stroke:none" />
      </symbol>
      <symbol
         id="symbol9295"
         overflow="visible">
        <path
           id="path2663"
           d="M 2.828125,-0.515625 C 2.796875,-0.390625 2.75,-0.171875 2.75,-0.140625 2.75,0 2.84375,0.0625 2.953125,0.0625 c 0.109375,0 0.21875,-0.078125 0.265625,-0.171875 0,-0.03125 0.0625,-0.234375 0.09375,-0.359375 L 3.4375,-1 C 3.484375,-1.15625 3.5,-1.265625 3.546875,-1.40625 3.59375,-1.609375 3.8125,-1.921875 4.03125,-2.140625 c 0.109375,-0.125 0.375,-0.296875 0.703125,-0.296875 0.375,0 0.375,0.296875 0.375,0.421875 0,0.34375 -0.25,0.984375 -0.359375,1.25 -0.046875,0.109375 -0.078125,0.203125 -0.078125,0.3125 0,0.296875 0.265625,0.515625 0.59375,0.515625 0.609375,0 0.90625,-0.796875 0.90625,-0.921875 0,-0.015625 0,-0.09375 -0.109375,-0.09375 -0.078125,0 -0.09375,0.03125 -0.125,0.15625 -0.109375,0.34375 -0.359375,0.65625 -0.640625,0.65625 -0.078125,0 -0.171875,-0.03125 -0.171875,-0.21875 0,-0.109375 0.046875,-0.21875 0.09375,-0.34375 C 5.296875,-0.875 5.578125,-1.59375 5.578125,-1.9375 c 0,-0.5 -0.359375,-0.703125 -0.828125,-0.703125 -0.328125,0 -0.71875,0.125 -1.109375,0.625 -0.03125,-0.4375 -0.390625,-0.625 -0.828125,-0.625 -0.296875,0 -0.671875,0.09375 -1.0625,0.5625 -0.03125,-0.453125 -0.453125,-0.5625 -0.671875,-0.5625 -0.234375,0 -0.390625,0.140625 -0.484375,0.328125 -0.15625,0.25 -0.234375,0.578125 -0.234375,0.59375 0,0.0625 0.0625,0.078125 0.109375,0.078125 0.09375,0 0.109375,-0.03125 0.140625,-0.125 C 0.71875,-2.25 0.875,-2.4375 1.0625,-2.4375 c 0.203125,0 0.21875,0.203125 0.21875,0.296875 0,0.09375 -0.0625,0.34375 -0.109375,0.5 C 1.125,-1.46875 1.078125,-1.234375 1.046875,-1.09375 1,-0.953125 0.96875,-0.796875 0.921875,-0.640625 0.875,-0.46875 0.8125,-0.171875 0.8125,-0.140625 0.8125,0 0.90625,0.0625 1.015625,0.0625 c 0.109375,0 0.21875,-0.078125 0.265625,-0.171875 0,-0.03125 0.0625,-0.234375 0.09375,-0.359375 L 1.5,-1 c 0.046875,-0.15625 0.0625,-0.265625 0.109375,-0.40625 0.046875,-0.203125 0.25,-0.515625 0.484375,-0.734375 0.109375,-0.125 0.375,-0.296875 0.6875,-0.296875 0.390625,0 0.390625,0.296875 0.390625,0.421875 0,0.140625 -0.0625,0.375 -0.109375,0.5625 z m 0,0"
           style="stroke:none" />
      </symbol>
      <symbol
         id="symbol4592"
         overflow="visible">
        <path
           id="path6161"
           d=""
           style="stroke:none" />
      </symbol>
      <symbol
         id="symbol5417"
         overflow="visible">
        <path
           id="path9249"
           d="M 2.9375,-0.96875 H 2.71875 c 0,0.09375 -0.0625,0.40625 -0.140625,0.453125 -0.03125,0.03125 -0.453125,0.03125 -0.53125,0.03125 H 1.078125 C 1.40625,-0.71875 1.765625,-1 2.0625,-1.203125 c 0.453125,-0.3125 0.875,-0.59375 0.875,-1.125 0,-0.640625 -0.609375,-0.984375 -1.3125,-0.984375 -0.671875,0 -1.171875,0.375 -1.171875,0.875 0,0.25 0.21875,0.296875 0.296875,0.296875 0.125,0 0.28125,-0.09375 0.28125,-0.296875 0,-0.171875 -0.125,-0.28125 -0.28125,-0.28125 0.140625,-0.234375 0.4375,-0.375 0.765625,-0.375 0.484375,0 0.890625,0.28125 0.890625,0.765625 0,0.421875 -0.296875,0.75 -0.671875,1.0625 l -1.21875,1.03125 C 0.46875,-0.1875 0.453125,-0.1875 0.453125,-0.15625 V 0 h 2.3125 z m 0,0"
           style="stroke:none" />
      </symbol>
    </g>
    <g
       id="g617">
      <symbol
         id="symbol5313"
         overflow="visible">
        <path
           id="path4162"
           d=""
           style="stroke:none" />
      </symbol>
      <symbol
         id="symbol1014"
         overflow="visible">
        <path
           id="path5308"
           d="M 2.828125,-0.515625 C 2.796875,-0.390625 2.75,-0.171875 2.75,-0.140625 2.75,0 2.84375,0.0625 2.953125,0.0625 c 0.109375,0 0.21875,-0.078125 0.265625,-0.171875 0,-0.03125 0.0625,-0.234375 0.09375,-0.359375 L 3.4375,-1 C 3.484375,-1.15625 3.5,-1.265625 3.546875,-1.40625 3.59375,-1.609375 3.8125,-1.921875 4.03125,-2.140625 c 0.109375,-0.125 0.375,-0.296875 0.703125,-0.296875 0.375,0 0.375,0.296875 0.375,0.421875 0,0.34375 -0.25,0.984375 -0.359375,1.25 -0.046875,0.109375 -0.078125,0.203125 -0.078125,0.3125 0,0.296875 0.265625,0.515625 0.59375,0.515625 0.609375,0 0.90625,-0.796875 0.90625,-0.921875 0,-0.015625 0,-0.09375 -0.109375,-0.09375 -0.078125,0 -0.09375,0.03125 -0.125,0.15625 -0.109375,0.34375 -0.359375,0.65625 -0.640625,0.65625 -0.078125,0 -0.171875,-0.03125 -0.171875,-0.21875 0,-0.109375 0.046875,-0.21875 0.09375,-0.34375 C 5.296875,-0.875 5.578125,-1.59375 5.578125,-1.9375 c 0,-0.5 -0.359375,-0.703125 -0.828125,-0.703125 -0.328125,0 -0.71875,0.125 -1.109375,0.625 -0.03125,-0.4375 -0.390625,-0.625 -0.828125,-0.625 -0.296875,0 -0.671875,0.09375 -1.0625,0.5625 -0.03125,-0.453125 -0.453125,-0.5625 -0.671875,-0.5625 -0.234375,0 -0.390625,0.140625 -0.484375,0.328125 -0.15625,0.25 -0.234375,0.578125 -0.234375,0.59375 0,0.0625 0.0625,0.078125 0.109375,0.078125 0.09375,0 0.109375,-0.03125 0.140625,-0.125 C 0.71875,-2.25 0.875,-2.4375 1.0625,-2.4375 c 0.203125,0 0.21875,0.203125 0.21875,0.296875 0,0.09375 -0.0625,0.34375 -0.109375,0.5 C 1.125,-1.46875 1.078125,-1.234375 1.046875,-1.09375 1,-0.953125 0.96875,-0.796875 0.921875,-0.640625 0.875,-0.46875 0.8125,-0.171875 0.8125,-0.140625 0.8125,0 0.90625,0.0625 1.015625,0.0625 c 0.109375,0 0.21875,-0.078125 0.265625,-0.171875 0,-0.03125 0.0625,-0.234375 0.09375,-0.359375 L 1.5,-1 c 0.046875,-0.15625 0.0625,-0.265625 0.109375,-0.40625 0.046875,-0.203125 0.25,-0.515625 0.484375,-0.734375 0.109375,-0.125 0.375,-0.296875 0.6875,-0.296875 0.390625,0 0.390625,0.296875 0.390625,0.421875 0,0.140625 -0.0625,0.375 -0.109375,0.5625 z m 0,0"
           style="stroke:none" />
      </symbol>
      <symbol
         id="symbol2264"
         overflow="visible">
        <path
           id="path7579"
           d=""
           style="stroke:none" />
      </symbol>
      <symbol
         id="symbol9277"
         overflow="visible">
        <path
           id="path4004"
           d="m 1.640625,-1.65625 c 0.46875,0 0.765625,0.296875 0.765625,0.78125 0,0.515625 -0.3125,0.78125 -0.75,0.78125 -0.0625,0 -0.65625,0 -0.90625,-0.265625 0.203125,-0.03125 0.265625,-0.171875 0.265625,-0.296875 0,-0.1875 -0.140625,-0.3125 -0.3125,-0.3125 -0.15625,0 -0.296875,0.109375 -0.296875,0.328125 0,0.515625 0.578125,0.75 1.265625,0.75 0.8125,0 1.3125,-0.5 1.3125,-0.984375 0,-0.40625 -0.359375,-0.75 -0.921875,-0.875 0.59375,-0.203125 0.75,-0.578125 0.75,-0.859375 0,-0.40625 -0.5,-0.703125 -1.125,-0.703125 -0.625,0 -1.109375,0.25 -1.109375,0.703125 0,0.234375 0.1875,0.296875 0.28125,0.296875 0.140625,0 0.28125,-0.109375 0.28125,-0.296875 0,-0.109375 -0.0625,-0.25 -0.234375,-0.28125 C 1.109375,-3.109375 1.5625,-3.125 1.671875,-3.125 c 0.359375,0 0.609375,0.171875 0.609375,0.515625 0,0.296875 -0.1875,0.75 -0.703125,0.78125 -0.140625,0 -0.15625,0 -0.296875,0.015625 -0.046875,0 -0.109375,0 -0.109375,0.078125 0,0.078125 0.046875,0.078125 0.140625,0.078125 z m 0,0"
           style="stroke:none" />
      </symbol>
    </g>
    <g
       id="g8098">
      <symbol
         id="symbol81"
         overflow="visible">
        <path
           id="path36"
           d=""
           style="stroke:none" />
      </symbol>
      <symbol
         id="symbol6619"
         overflow="visible">
        <path
           id="path1609"
           d="M 2.78125,-2.296875 C 2.703125,-2.28125 2.5,-2.171875 2.5,-1.953125 c 0,0.140625 0.109375,0.21875 0.234375,0.21875 0.140625,0 0.34375,-0.09375 0.34375,-0.390625 C 3.078125,-2.5 2.625,-2.640625 2.25,-2.640625 1.3125,-2.640625 0.453125,-1.84375 0.453125,-1 c 0,0.5625 0.40625,1.0625 1.1875,1.0625 1.125,0 1.546875,-0.59375 1.546875,-0.671875 0,-0.046875 -0.0625,-0.109375 -0.109375,-0.109375 -0.03125,0 -0.03125,0 -0.125,0.09375 -0.328125,0.375 -0.875,0.484375 -1.3125,0.484375 -0.484375,0 -0.671875,-0.3125 -0.671875,-0.671875 0,-0.015625 0.015625,-0.703125 0.421875,-1.21875 C 1.484375,-2.125 1.796875,-2.4375 2.25,-2.4375 c 0.03125,0 0.34375,0 0.53125,0.140625 z m 0,0"
           style="stroke:none" />
      </symbol>
      <symbol
         id="symbol2512"
         overflow="visible">
        <path
           id="path8565"
           d=""
           style="stroke:none" />
      </symbol>
      <symbol
         id="symbol4233"
         overflow="visible">
        <path
           id="path3175"
           d="M 1.984375,-3.171875 C 1.984375,-3.3125 1.96875,-3.3125 1.796875,-3.3125 1.453125,-3 0.890625,-3 0.796875,-3 H 0.71875 v 0.21875 h 0.078125 c 0.109375,0 0.4375,-0.015625 0.734375,-0.140625 v 2.5 c 0,0.140625 0,0.203125 -0.53125,0.203125 H 0.75 V 0 c 0.265625,-0.015625 0.71875,-0.015625 1,-0.015625 0.296875,0 0.734375,0 1.015625,0.015625 v -0.21875 h -0.25 c -0.53125,0 -0.53125,-0.0625 -0.53125,-0.203125 z m 0,0"
           style="stroke:none" />
      </symbol>
    </g>
    <g
       id="g9823">
      <symbol
         id="symbol2824"
         overflow="visible">
        <path
           id="path7440"
           d=""
           style="stroke:none" />
      </symbol>
      <symbol
         id="symbol5304"
         overflow="visible">
        <path
           id="path8312"
           d="M 2.78125,-2.296875 C 2.703125,-2.28125 2.5,-2.171875 2.5,-1.953125 c 0,0.140625 0.109375,0.21875 0.234375,0.21875 0.140625,0 0.34375,-0.09375 0.34375,-0.390625 C 3.078125,-2.5 2.625,-2.640625 2.25,-2.640625 1.3125,-2.640625 0.453125,-1.84375 0.453125,-1 c 0,0.5625 0.40625,1.0625 1.1875,1.0625 1.125,0 1.546875,-0.59375 1.546875,-0.671875 0,-0.046875 -0.0625,-0.109375 -0.109375,-0.109375 -0.03125,0 -0.03125,0 -0.125,0.09375 -0.328125,0.375 -0.875,0.484375 -1.3125,0.484375 -0.484375,0 -0.671875,-0.3125 -0.671875,-0.671875 0,-0.015625 0.015625,-0.703125 0.421875,-1.21875 C 1.484375,-2.125 1.796875,-2.4375 2.25,-2.4375 c 0.03125,0 0.34375,0 0.53125,0.140625 z m 0,0"
           style="stroke:none" />
      </symbol>
      <symbol
         id="symbol9711"
         overflow="visible">
        <path
           id="path4597"
           d=""
           style="stroke:none" />
      </symbol>
      <symbol
         id="symbol1905"
         overflow="visible">
        <path
           id="path3540"
           d="M 2.9375,-0.96875 H 2.71875 c 0,0.09375 -0.0625,0.40625 -0.140625,0.453125 -0.03125,0.03125 -0.453125,0.03125 -0.53125,0.03125 H 1.078125 C 1.40625,-0.71875 1.765625,-1 2.0625,-1.203125 c 0.453125,-0.3125 0.875,-0.59375 0.875,-1.125 0,-0.640625 -0.609375,-0.984375 -1.3125,-0.984375 -0.671875,0 -1.171875,0.375 -1.171875,0.875 0,0.25 0.21875,0.296875 0.296875,0.296875 0.125,0 0.28125,-0.09375 0.28125,-0.296875 0,-0.171875 -0.125,-0.28125 -0.28125,-0.28125 0.140625,-0.234375 0.4375,-0.375 0.765625,-0.375 0.484375,0 0.890625,0.28125 0.890625,0.765625 0,0.421875 -0.296875,0.75 -0.671875,1.0625 l -1.21875,1.03125 C 0.46875,-0.1875 0.453125,-0.1875 0.453125,-0.15625 V 0 h 2.3125 z m 0,0"
           style="stroke:none" />
      </symbol>
    </g>
    <g
       id="g1859">
      <symbol
         id="symbol8837"
         overflow="visible">
        <path
           id="path3529"
           d=""
           style="stroke:none" />
      </symbol>
      <symbol
         id="symbol2376"
         overflow="visible">
        <path
           id="path6313"
           d="M 1.984375,-3.96875 C 2,-4 2,-4.03125 2,-4.0625 2,-4.15625 1.890625,-4.15625 1.8125,-4.140625 L 1.140625,-4.09375 c -0.09375,0 -0.171875,0.015625 -0.171875,0.15625 0,0.09375 0.078125,0.09375 0.171875,0.09375 0.171875,0 0.21875,0.015625 0.296875,0.03125 0,0.078125 0,0.09375 -0.03125,0.1875 L 0.5625,-0.28125 C 0.546875,-0.1875 0.546875,-0.15625 0.546875,-0.140625 0.546875,0 0.671875,0.0625 0.75,0.0625 0.8125,0.0625 0.921875,0.03125 1,-0.078125 1.046875,-0.15625 1.28125,-1.15625 1.328125,-1.34375 c 0.390625,0.03125 0.828125,0.125 0.828125,0.484375 0,0.03125 0,0.0625 -0.015625,0.125 C 2.125,-0.640625 2.125,-0.609375 2.125,-0.5625 c 0,0.390625 0.328125,0.625 0.671875,0.625 0.578125,0 0.78125,-0.875 0.78125,-0.921875 0,-0.015625 0,-0.09375 -0.109375,-0.09375 -0.078125,0 -0.09375,0.046875 -0.125,0.140625 -0.0625,0.21875 -0.21875,0.671875 -0.53125,0.671875 -0.234375,0 -0.234375,-0.25 -0.234375,-0.3125 0,-0.109375 0,-0.109375 0.03125,-0.234375 0,0 0.03125,-0.125 0.03125,-0.1875 0,-0.46875 -0.515625,-0.609375 -0.984375,-0.65625 C 1.8125,-1.609375 1.9375,-1.71875 2.171875,-1.921875 2.46875,-2.1875 2.78125,-2.4375 3.109375,-2.4375 c 0.078125,0 0.15625,0.015625 0.203125,0.078125 -0.203125,0.03125 -0.296875,0.203125 -0.296875,0.328125 0,0.1875 0.15625,0.234375 0.234375,0.234375 0.140625,0 0.359375,-0.09375 0.359375,-0.390625 0,-0.265625 -0.203125,-0.453125 -0.484375,-0.453125 -0.390625,0 -0.734375,0.28125 -1.015625,0.53125 -0.3125,0.265625 -0.5,0.421875 -0.71875,0.5 z m 0,0"
           style="stroke:none" />
      </symbol>
    </g>
    <marker
       inkscape:isstock="true"
       style="overflow:visible"
       id="marker3245-7"
       refX="0"
       refY="0"
       orient="auto"
       inkscape:stockid="Arrow2Lend">
      <path
         transform="matrix(-1.1,0,0,-1.1,-1.1,0)"
         d="M 8.7185878,4.0337352 -2.2072895,0.01601326 8.7185884,-4.0017078 c -1.7454984,2.3720609 -1.7354408,5.6174519 -6e-7,8.035443 z"
         style="fill:#000000;fill-opacity:1;fill-rule:evenodd;stroke:#000000;stroke-width:0.625;stroke-linejoin:round;stroke-opacity:1"
         id="path3243-1" />
    </marker>
    <g
       id="g2884">
      <symbol
         id="symbol3131"
         overflow="visible">
        <path
           id="path338"
           d=""
           style="stroke:none" />
      </symbol>
      <symbol
         id="symbol6515"
         overflow="visible">
        <path
           id="path5251"
           d="M 4.5625,-3.359375 C 4.578125,-3.390625 4.640625,-3.453125 4.6875,-3.5 4.9375,-3.8125 5.140625,-3.84375 5.375,-3.84375 5.453125,-3.859375 5.484375,-3.9375 5.484375,-4 5.46875,-4.015625 5.46875,-4.09375 5.390625,-4.09375 c -0.15625,0 -0.34375,0.03125 -0.515625,0.03125 -0.140625,0 -0.5,-0.03125 -0.640625,-0.03125 -0.09375,0 -0.125,0.078125 -0.125,0.15625 0,0.078125 0.078125,0.09375 0.125,0.09375 0.03125,0 0.234375,0.015625 0.234375,0.15625 0,0.078125 -0.0625,0.1875 -0.109375,0.234375 L 2.34375,-0.5625 1.734375,-3.609375 C 1.71875,-3.671875 1.71875,-3.6875 1.71875,-3.703125 c 0,-0.078125 0.125,-0.140625 0.40625,-0.140625 0.078125,0 0.15625,0 0.15625,-0.15625 0,-0.015625 0,-0.09375 -0.09375,-0.09375 -0.125,0 -0.265625,0.03125 -0.40625,0.03125 -0.125,0 -0.25,0 -0.390625,0 0,0 -0.34375,0 -0.34375,0 -0.109375,0 -0.234375,-0.03125 -0.34375,-0.03125 -0.0625,0 -0.140625,0.03125 -0.140625,0.15625 0,0.09375 0.09375,0.09375 0.171875,0.09375 0.34375,0 0.359375,0.046875 0.390625,0.171875 L 1.84375,-0.03125 C 1.859375,0.078125 1.875,0.125 2,0.125 2.125,0.125 2.15625,0.078125 2.21875,0 Z m 0,0"
           style="stroke:none" />
      </symbol>
    </g>
    <g
       id="g6773">
      <symbol
         id="symbol5860"
         overflow="visible">
        <path
           id="path6113"
           d=""
           style="stroke:none" />
      </symbol>
      <symbol
         id="symbol710"
         overflow="visible">
        <path
           id="path5955"
           d="M 6.4375,-3.609375 C 6.5,-3.796875 6.5,-3.84375 6.984375,-3.84375 c 0.109375,0 0.1875,0 0.1875,-0.15625 0,-0.09375 -0.078125,-0.09375 -0.1875,-0.09375 h -0.84375 c -0.171875,0 -0.1875,0.015625 -0.28125,0.15625 l -2.375,3.390625 -0.671875,-3.375 C 2.78125,-4.09375 2.75,-4.09375 2.59375,-4.09375 H 1.703125 c -0.125,0 -0.203125,0 -0.203125,0.15625 0,0.09375 0.078125,0.09375 0.1875,0.09375 0.109375,0 0.265625,0 0.390625,0.03125 0,0.0625 0,0.109375 -0.03125,0.203125 l -0.734375,2.9375 c -0.0625,0.25 -0.171875,0.421875 -0.65625,0.4375 -0.078125,0 -0.125,0.0625 -0.125,0.15625 C 0.53125,-0.0625 0.546875,0 0.640625,0 0.78125,0 1.125,-0.03125 1.28125,-0.03125 l 0.328125,0.015625 C 1.71875,-0.015625 1.84375,0 1.9375,0 2.0625,0 2.078125,-0.125 2.078125,-0.15625 2.046875,-0.234375 2,-0.234375 1.921875,-0.234375 1.640625,-0.25 1.53125,-0.328125 1.53125,-0.484375 c 0,-0.03125 0,-0.046875 0.015625,-0.125 l 0.796875,-3.1875 h 0.015625 l 0.703125,3.625 C 3.09375,-0.0625 3.109375,0 3.203125,0 3.296875,0 3.34375,-0.0625 3.375,-0.125 L 5.984375,-3.84375 5.140625,-0.5 c -0.046875,0.21875 -0.0625,0.265625 -0.515625,0.265625 -0.125,0 -0.140625,0 -0.15625,0.015625 C 4.4375,-0.203125 4.40625,-0.125 4.40625,-0.078125 4.421875,-0.0625 4.421875,0 4.515625,0 c 0.109375,0 0.25,-0.015625 0.375,-0.015625 0.125,0 0.265625,-0.015625 0.390625,-0.015625 0,0 0.421875,0.015625 0.421875,0.015625 C 5.8125,-0.015625 5.953125,0 6.078125,0 6.109375,0 6.15625,0 6.1875,-0.046875 6.1875,-0.0625 6.21875,-0.125 6.21875,-0.15625 6.203125,-0.234375 6.140625,-0.234375 6.015625,-0.234375 5.9375,-0.234375 5.84375,-0.25 5.78125,-0.25 5.671875,-0.265625 5.625,-0.265625 5.625,-0.328125 5.625,-0.359375 5.640625,-0.375 5.65625,-0.4375 Z m 0,0"
           style="stroke:none" />
      </symbol>
    </g>
    <g
       id="g9833">
      <symbol
         id="symbol1057"
         overflow="visible">
        <path
           id="path682"
           d=""
           style="stroke:none" />
      </symbol>
      <symbol
         id="symbol212"
         overflow="visible">
        <path
           id="path7228"
           d="M 1.984375,-3.96875 C 2,-4 2,-4.03125 2,-4.0625 2,-4.15625 1.890625,-4.15625 1.8125,-4.140625 L 1.140625,-4.09375 c -0.09375,0 -0.171875,0.015625 -0.171875,0.15625 0,0.09375 0.078125,0.09375 0.171875,0.09375 0.171875,0 0.21875,0.015625 0.296875,0.03125 0,0.078125 0,0.09375 -0.03125,0.1875 L 0.5625,-0.28125 C 0.546875,-0.1875 0.546875,-0.15625 0.546875,-0.140625 0.546875,0 0.671875,0.0625 0.75,0.0625 0.8125,0.0625 0.921875,0.03125 1,-0.078125 1.046875,-0.15625 1.28125,-1.15625 1.328125,-1.34375 c 0.390625,0.03125 0.828125,0.125 0.828125,0.484375 0,0.03125 0,0.0625 -0.015625,0.125 C 2.125,-0.640625 2.125,-0.609375 2.125,-0.5625 c 0,0.390625 0.328125,0.625 0.671875,0.625 0.578125,0 0.78125,-0.875 0.78125,-0.921875 0,-0.015625 0,-0.09375 -0.109375,-0.09375 -0.078125,0 -0.09375,0.046875 -0.125,0.140625 -0.0625,0.21875 -0.21875,0.671875 -0.53125,0.671875 -0.234375,0 -0.234375,-0.25 -0.234375,-0.3125 0,-0.109375 0,-0.109375 0.03125,-0.234375 0,0 0.03125,-0.125 0.03125,-0.1875 0,-0.46875 -0.515625,-0.609375 -0.984375,-0.65625 C 1.8125,-1.609375 1.9375,-1.71875 2.171875,-1.921875 2.46875,-2.1875 2.78125,-2.4375 3.109375,-2.4375 c 0.078125,0 0.15625,0.015625 0.203125,0.078125 -0.203125,0.03125 -0.296875,0.203125 -0.296875,0.328125 0,0.1875 0.15625,0.234375 0.234375,0.234375 0.140625,0 0.359375,-0.09375 0.359375,-0.390625 0,-0.265625 -0.203125,-0.453125 -0.484375,-0.453125 -0.390625,0 -0.734375,0.28125 -1.015625,0.53125 -0.3125,0.265625 -0.5,0.421875 -0.71875,0.5 z m 0,0"
           style="stroke:none" />
      </symbol>
      <symbol
         id="symbol8011"
         overflow="visible">
        <path
           id="path8997"
           d=""
           style="stroke:none" />
      </symbol>
      <symbol
         id="symbol1437"
         overflow="visible">
        <path
           id="path4910"
           d="M 3.21875,-1.125 H 3 C 2.984375,-1.03125 2.921875,-0.640625 2.84375,-0.578125 2.796875,-0.53125 2.3125,-0.53125 2.21875,-0.53125 H 1.109375 L 1.875,-1.15625 C 2.078125,-1.328125 2.609375,-1.703125 2.796875,-1.890625 2.96875,-2.0625 3.21875,-2.375 3.21875,-2.796875 c 0,-0.75 -0.671875,-1.1875 -1.484375,-1.1875 -0.765625,0 -1.296875,0.515625 -1.296875,1.078125 0,0.296875 0.25,0.34375 0.3125,0.34375 0.15625,0 0.328125,-0.109375 0.328125,-0.328125 C 1.078125,-3.015625 1,-3.21875 0.734375,-3.21875 0.875,-3.515625 1.234375,-3.75 1.65625,-3.75 c 0.625,0 0.953125,0.46875 0.953125,0.953125 0,0.421875 -0.28125,0.859375 -0.6875,1.25 L 0.5,-0.25 C 0.4375,-0.1875 0.4375,-0.1875 0.4375,0 h 2.59375 z m 0,0"
           style="stroke:none" />
      </symbol>
    </g>
    <g
       id="g4426">
      <symbol
         overflow="visible"
         id="symbol7408">
        <path
           style="stroke:none"
           d=""
           id="path4588" />
      </symbol>
      <symbol
         overflow="visible"
         id="symbol3754">
        <path
           style="stroke:none"
           d="M 3.375,-0.984375 V -1.21875 H 2.671875 v -2.640625 c 0,-0.140625 0,-0.1875 -0.140625,-0.1875 -0.109375,0 -0.125,0.03125 -0.171875,0.09375 L 0.28125,-1.21875 v 0.234375 H 2.140625 V -0.5 c 0,0.1875 0,0.265625 -0.5,0.265625 h -0.1875 V 0 c 0.125,0 0.6875,-0.03125 0.953125,-0.03125 C 2.671875,-0.03125 3.234375,0 3.34375,0 V -0.234375 H 3.171875 c -0.5,0 -0.5,-0.078125 -0.5,-0.265625 V -0.984375 Z M 2.171875,-3.390625 V -1.21875 H 0.53125 Z m 0,0"
           id="path8051" />
      </symbol>
      <symbol
         overflow="visible"
         id="symbol1229">
        <path
           style="stroke:none"
           d=""
           id="path7408" />
      </symbol>
      <symbol
         overflow="visible"
         id="symbol1173">
        <path
           style="stroke:none"
           d="M 2.828125,-0.515625 C 2.796875,-0.390625 2.75,-0.171875 2.75,-0.140625 2.75,0 2.84375,0.0625 2.953125,0.0625 c 0.109375,0 0.21875,-0.078125 0.265625,-0.171875 0,-0.03125 0.0625,-0.234375 0.09375,-0.359375 L 3.4375,-1 C 3.484375,-1.15625 3.5,-1.265625 3.546875,-1.40625 3.59375,-1.609375 3.8125,-1.921875 4.03125,-2.140625 c 0.109375,-0.125 0.375,-0.296875 0.703125,-0.296875 0.375,0 0.375,0.296875 0.375,0.421875 0,0.34375 -0.25,0.984375 -0.359375,1.25 -0.046875,0.109375 -0.078125,0.203125 -0.078125,0.3125 0,0.296875 0.265625,0.515625 0.59375,0.515625 0.609375,0 0.90625,-0.796875 0.90625,-0.921875 0,-0.015625 0,-0.09375 -0.109375,-0.09375 -0.078125,0 -0.09375,0.03125 -0.125,0.15625 -0.109375,0.34375 -0.359375,0.65625 -0.640625,0.65625 -0.078125,0 -0.171875,-0.03125 -0.171875,-0.21875 0,-0.109375 0.046875,-0.21875 0.09375,-0.34375 C 5.296875,-0.875 5.578125,-1.59375 5.578125,-1.9375 c 0,-0.5 -0.359375,-0.703125 -0.828125,-0.703125 -0.328125,0 -0.71875,0.125 -1.109375,0.625 -0.03125,-0.4375 -0.390625,-0.625 -0.828125,-0.625 -0.296875,0 -0.671875,0.09375 -1.0625,0.5625 -0.03125,-0.453125 -0.453125,-0.5625 -0.671875,-0.5625 -0.234375,0 -0.390625,0.140625 -0.484375,0.328125 -0.15625,0.25 -0.234375,0.578125 -0.234375,0.59375 0,0.0625 0.0625,0.078125 0.109375,0.078125 0.09375,0 0.109375,-0.03125 0.140625,-0.125 C 0.71875,-2.25 0.875,-2.4375 1.0625,-2.4375 c 0.203125,0 0.21875,0.203125 0.21875,0.296875 0,0.09375 -0.0625,0.34375 -0.109375,0.5 C 1.125,-1.46875 1.078125,-1.234375 1.046875,-1.09375 1,-0.953125 0.96875,-0.796875 0.921875,-0.640625 0.875,-0.46875 0.8125,-0.171875 0.8125,-0.140625 0.8125,0 0.90625,0.0625 1.015625,0.0625 c 0.109375,0 0.21875,-0.078125 0.265625,-0.171875 0,-0.03125 0.0625,-0.234375 0.09375,-0.359375 L 1.5,-1 c 0.046875,-0.15625 0.0625,-0.265625 0.109375,-0.40625 0.046875,-0.203125 0.25,-0.515625 0.484375,-0.734375 0.109375,-0.125 0.375,-0.296875 0.6875,-0.296875 0.390625,0 0.390625,0.296875 0.390625,0.421875 0,0.140625 -0.0625,0.375 -0.109375,0.5625 z m 0,0"
           id="path4128" />
      </symbol>
    </g>
    <g
       id="g1754">
      <symbol
         id="symbol8251"
         overflow="visible">
        <path
           id="path692"
           d=""
           style="stroke:none" />
      </symbol>
      <symbol
         id="symbol2837"
         overflow="visible">
        <path
           id="path6483"
           d="m 2.375,-2.984375 c 0.03125,-0.125 0.0625,-0.15625 0.1875,-0.171875 0.140625,-0.03125 0.234375,-0.03125 0.375,-0.03125 0.140625,0 0.21875,0 0.21875,-0.125 0,-0.0625 -0.046875,-0.09375 -0.09375,-0.09375 -0.140625,0 -0.28125,0.015625 -0.40625,0.015625 -0.140625,0 -0.28125,0 -0.40625,0 -0.140625,0 -0.265625,0 -0.390625,0 -0.109375,0 -0.25,-0.015625 -0.359375,-0.015625 -0.03125,0 -0.125,0 -0.125,0.140625 0,0.078125 0.078125,0.078125 0.1875,0.078125 0.046875,0 0.21875,0 0.328125,0.03125 0,0.0625 0,0.078125 -0.015625,0.125 l -0.65625,2.625 c -0.046875,0.140625 -0.046875,0.1875 -0.421875,0.1875 -0.140625,0 -0.21875,0 -0.21875,0.140625 C 0.578125,0 0.65625,0 0.75,0 h 2.828125 c 0.125,0 0.125,0 0.171875,-0.109375 0.046875,-0.140625 0.453125,-1.125 0.453125,-1.15625 0,-0.046875 -0.03125,-0.09375 -0.109375,-0.09375 -0.078125,0 -0.078125,0.015625 -0.140625,0.140625 -0.265625,0.640625 -0.578125,1 -1.40625,1 h -0.6875 c -0.046875,0 -0.109375,0 -0.15625,-0.015625 0,-0.046875 0,-0.046875 0.015625,-0.09375 z m 0,0"
           style="stroke:none" />
      </symbol>
      <symbol
         id="symbol1674"
         overflow="visible">
        <path
           id="path9295"
           d="m 2.6875,-0.4375 c -0.03125,0.109375 -0.078125,0.28125 -0.078125,0.3125 0,0.109375 0.09375,0.1875 0.1875,0.1875 0.078125,0 0.1875,-0.046875 0.25,-0.171875 0,-0.03125 0.0625,-0.265625 0.09375,-0.390625 0.15625,-0.671875 0.15625,-0.6875 0.171875,-0.703125 0.0625,-0.125 0.421875,-0.828125 1.03125,-0.828125 0.25,0 0.34375,0.125 0.34375,0.359375 0,0.28125 -0.203125,0.796875 -0.3125,1.078125 -0.03125,0.0625 -0.046875,0.125 -0.046875,0.203125 0,0.265625 0.25,0.453125 0.53125,0.453125 0.53125,0 0.8125,-0.65625 0.8125,-0.78125 0,-0.0625 -0.078125,-0.0625 -0.109375,-0.0625 -0.078125,0 -0.078125,0.015625 -0.109375,0.109375 -0.09375,0.296875 -0.328125,0.5625 -0.5625,0.5625 -0.125,0 -0.15625,-0.078125 -0.15625,-0.1875 0,-0.109375 0.015625,-0.15625 0.0625,-0.265625 0.09375,-0.203125 0.3125,-0.765625 0.3125,-1.046875 0,-0.375 -0.265625,-0.59375 -0.734375,-0.59375 -0.46875,0 -0.78125,0.28125 -0.984375,0.546875 -0.046875,-0.5 -0.546875,-0.546875 -0.75,-0.546875 -0.484375,0 -0.765625,0.296875 -0.9375,0.5 -0.015625,-0.4375 -0.484375,-0.5 -0.609375,-0.5 -0.5,0 -0.640625,0.765625 -0.640625,0.765625 0,0.078125 0.078125,0.078125 0.109375,0.078125 0.078125,0 0.09375,-0.03125 0.109375,-0.09375 C 0.75,-1.75 0.859375,-2.03125 1.078125,-2.03125 c 0.15625,0 0.203125,0.15625 0.203125,0.265625 0,0.0625 -0.0625,0.25 -0.078125,0.390625 -0.046875,0.125 -0.09375,0.328125 -0.109375,0.4375 l -0.125,0.453125 c -0.03125,0.125 -0.078125,0.34375 -0.078125,0.359375 0,0.109375 0.09375,0.1875 0.1875,0.1875 C 1.140625,0.0625 1.25,0.015625 1.3125,-0.109375 1.3125,-0.140625 1.375,-0.375 1.40625,-0.5 1.421875,-0.578125 1.484375,-0.796875 1.5,-0.84375 1.515625,-0.953125 1.546875,-1.0625 1.578125,-1.171875 c 0,-0.03125 0.1875,-0.390625 0.4375,-0.609375 0.078125,-0.0625 0.28125,-0.25 0.609375,-0.25 0.25,0 0.34375,0.140625 0.34375,0.359375 0,0.109375 -0.046875,0.3125 -0.09375,0.453125 z m 0,0"
           style="stroke:none" />
      </symbol>
      <symbol
         id="symbol8120"
         overflow="visible">
        <path
           id="path499"
           d=""
           style="stroke:none" />
      </symbol>
      <symbol
         id="symbol5054"
         overflow="visible">
        <path
           id="path7397"
           d="m 4.4375,-1.703125 c 0.078125,0 0.203125,0 0.203125,-0.140625 0,-0.140625 -0.15625,-0.140625 -0.21875,-0.140625 h -3.71875 c -0.078125,0 -0.21875,0 -0.21875,0.140625 0,0.140625 0.125,0.140625 0.1875,0.140625 z m -0.015625,1.1875 c 0.0625,0 0.21875,0 0.21875,-0.140625 0,-0.140625 -0.125,-0.140625 -0.203125,-0.140625 H 0.671875 c -0.0625,0 -0.1875,0 -0.1875,0.140625 0,0.140625 0.140625,0.140625 0.21875,0.140625 z m 0,0"
           style="stroke:none" />
      </symbol>
      <symbol
         id="symbol7937"
         overflow="visible">
        <path
           id="path3453"
           d="M 1.984375,-3.171875 C 1.984375,-3.3125 1.96875,-3.3125 1.796875,-3.3125 1.453125,-3 0.890625,-3 0.796875,-3 H 0.71875 v 0.21875 h 0.078125 c 0.109375,0 0.4375,-0.015625 0.734375,-0.140625 v 2.5 c 0,0.140625 0,0.203125 -0.53125,0.203125 H 0.75 V 0 c 0.265625,-0.015625 0.71875,-0.015625 1,-0.015625 0.296875,0 0.734375,0 1.015625,0.015625 v -0.21875 h -0.25 c -0.53125,0 -0.53125,-0.0625 -0.53125,-0.203125 z m 0,0"
           style="stroke:none" />
      </symbol>
      <symbol
         id="symbol5061"
         overflow="visible">
        <path
           id="path2713"
           d="M 3,-1.59375 C 3,-1.953125 3,-3.3125 1.6875,-3.3125 c -1.296875,0 -1.296875,1.359375 -1.296875,1.71875 0,0.359375 0,1.703125 1.296875,1.703125 C 3,0.109375 3,-1.234375 3,-1.59375 Z M 1.6875,-0.0625 C 1.515625,-0.0625 1.09375,-0.125 0.96875,-0.625 0.890625,-0.890625 0.890625,-1.25 0.890625,-1.65625 c 0,-0.375 0,-0.71875 0.078125,-1 0.125,-0.421875 0.515625,-0.5 0.71875,-0.5 0.375,0 0.640625,0.1875 0.734375,0.546875 C 2.5,-2.359375 2.5,-1.953125 2.5,-1.65625 c 0,0.34375 0,0.75 -0.078125,1.046875 C 2.296875,-0.125 1.890625,-0.0625 1.6875,-0.0625 Z m 0,0"
           style="stroke:none" />
      </symbol>
    </g>
    <g
       id="g9603">
      <symbol
         id="symbol3914"
         overflow="visible">
        <path
           id="path165"
           d=""
           style="stroke:none" />
      </symbol>
      <symbol
         id="symbol9596"
         overflow="visible">
        <path
           id="path9102"
           d="m 2.375,-2.984375 c 0.03125,-0.125 0.0625,-0.15625 0.1875,-0.171875 0.140625,-0.03125 0.234375,-0.03125 0.375,-0.03125 0.140625,0 0.21875,0 0.21875,-0.125 0,-0.0625 -0.046875,-0.09375 -0.09375,-0.09375 -0.140625,0 -0.28125,0.015625 -0.40625,0.015625 -0.140625,0 -0.28125,0 -0.40625,0 -0.140625,0 -0.265625,0 -0.390625,0 -0.109375,0 -0.25,-0.015625 -0.359375,-0.015625 -0.03125,0 -0.125,0 -0.125,0.140625 0,0.078125 0.078125,0.078125 0.1875,0.078125 0.046875,0 0.21875,0 0.328125,0.03125 0,0.0625 0,0.078125 -0.015625,0.125 l -0.65625,2.625 c -0.046875,0.140625 -0.046875,0.1875 -0.421875,0.1875 -0.140625,0 -0.21875,0 -0.21875,0.140625 C 0.578125,0 0.65625,0 0.75,0 h 2.828125 c 0.125,0 0.125,0 0.171875,-0.109375 0.046875,-0.140625 0.453125,-1.125 0.453125,-1.15625 0,-0.046875 -0.03125,-0.09375 -0.109375,-0.09375 -0.078125,0 -0.078125,0.015625 -0.140625,0.140625 -0.265625,0.640625 -0.578125,1 -1.40625,1 h -0.6875 c -0.046875,0 -0.109375,0 -0.15625,-0.015625 0,-0.046875 0,-0.046875 0.015625,-0.09375 z m 0,0"
           style="stroke:none" />
      </symbol>
      <symbol
         id="symbol7039"
         overflow="visible">
        <path
           id="path1715"
           d="m 2.6875,-0.4375 c -0.03125,0.109375 -0.078125,0.28125 -0.078125,0.3125 0,0.109375 0.09375,0.1875 0.1875,0.1875 0.078125,0 0.1875,-0.046875 0.25,-0.171875 0,-0.03125 0.0625,-0.265625 0.09375,-0.390625 0.15625,-0.671875 0.15625,-0.6875 0.171875,-0.703125 0.0625,-0.125 0.421875,-0.828125 1.03125,-0.828125 0.25,0 0.34375,0.125 0.34375,0.359375 0,0.28125 -0.203125,0.796875 -0.3125,1.078125 -0.03125,0.0625 -0.046875,0.125 -0.046875,0.203125 0,0.265625 0.25,0.453125 0.53125,0.453125 0.53125,0 0.8125,-0.65625 0.8125,-0.78125 0,-0.0625 -0.078125,-0.0625 -0.109375,-0.0625 -0.078125,0 -0.078125,0.015625 -0.109375,0.109375 -0.09375,0.296875 -0.328125,0.5625 -0.5625,0.5625 -0.125,0 -0.15625,-0.078125 -0.15625,-0.1875 0,-0.109375 0.015625,-0.15625 0.0625,-0.265625 0.09375,-0.203125 0.3125,-0.765625 0.3125,-1.046875 0,-0.375 -0.265625,-0.59375 -0.734375,-0.59375 -0.46875,0 -0.78125,0.28125 -0.984375,0.546875 -0.046875,-0.5 -0.546875,-0.546875 -0.75,-0.546875 -0.484375,0 -0.765625,0.296875 -0.9375,0.5 -0.015625,-0.4375 -0.484375,-0.5 -0.609375,-0.5 -0.5,0 -0.640625,0.765625 -0.640625,0.765625 0,0.078125 0.078125,0.078125 0.109375,0.078125 0.078125,0 0.09375,-0.03125 0.109375,-0.09375 C 0.75,-1.75 0.859375,-2.03125 1.078125,-2.03125 c 0.15625,0 0.203125,0.15625 0.203125,0.265625 0,0.0625 -0.0625,0.25 -0.078125,0.390625 -0.046875,0.125 -0.09375,0.328125 -0.109375,0.4375 l -0.125,0.453125 c -0.03125,0.125 -0.078125,0.34375 -0.078125,0.359375 0,0.109375 0.09375,0.1875 0.1875,0.1875 C 1.140625,0.0625 1.25,0.015625 1.3125,-0.109375 1.3125,-0.140625 1.375,-0.375 1.40625,-0.5 1.421875,-0.578125 1.484375,-0.796875 1.5,-0.84375 1.515625,-0.953125 1.546875,-1.0625 1.578125,-1.171875 c 0,-0.03125 0.1875,-0.390625 0.4375,-0.609375 0.078125,-0.0625 0.28125,-0.25 0.609375,-0.25 0.25,0 0.34375,0.140625 0.34375,0.359375 0,0.109375 -0.046875,0.3125 -0.09375,0.453125 z m 0,0"
           style="stroke:none" />
      </symbol>
      <symbol
         id="symbol9397"
         overflow="visible">
        <path
           id="path7672"
           d=""
           style="stroke:none" />
      </symbol>
      <symbol
         id="symbol2907"
         overflow="visible">
        <path
           id="path9060"
           d="m 4.4375,-1.703125 c 0.078125,0 0.203125,0 0.203125,-0.140625 0,-0.140625 -0.15625,-0.140625 -0.21875,-0.140625 h -3.71875 c -0.078125,0 -0.21875,0 -0.21875,0.140625 0,0.140625 0.125,0.140625 0.1875,0.140625 z m -0.015625,1.1875 c 0.0625,0 0.21875,0 0.21875,-0.140625 0,-0.140625 -0.125,-0.140625 -0.203125,-0.140625 H 0.671875 c -0.0625,0 -0.1875,0 -0.1875,0.140625 0,0.140625 0.140625,0.140625 0.21875,0.140625 z m 0,0"
           style="stroke:none" />
      </symbol>
      <symbol
         id="symbol8436"
         overflow="visible">
        <path
           id="path9340"
           d="M 1.984375,-3.171875 C 1.984375,-3.3125 1.96875,-3.3125 1.796875,-3.3125 1.453125,-3 0.890625,-3 0.796875,-3 H 0.71875 v 0.21875 h 0.078125 c 0.109375,0 0.4375,-0.015625 0.734375,-0.140625 v 2.5 c 0,0.140625 0,0.203125 -0.53125,0.203125 H 0.75 V 0 c 0.265625,-0.015625 0.71875,-0.015625 1,-0.015625 0.296875,0 0.734375,0 1.015625,0.015625 v -0.21875 h -0.25 c -0.53125,0 -0.53125,-0.0625 -0.53125,-0.203125 z m 0,0"
           style="stroke:none" />
      </symbol>
      <symbol
         id="symbol9217"
         overflow="visible">
        <path
           id="path2937"
           d="M 3,-1.59375 C 3,-1.953125 3,-3.3125 1.6875,-3.3125 c -1.296875,0 -1.296875,1.359375 -1.296875,1.71875 0,0.359375 0,1.703125 1.296875,1.703125 C 3,0.109375 3,-1.234375 3,-1.59375 Z M 1.6875,-0.0625 C 1.515625,-0.0625 1.09375,-0.125 0.96875,-0.625 0.890625,-0.890625 0.890625,-1.25 0.890625,-1.65625 c 0,-0.375 0,-0.71875 0.078125,-1 0.125,-0.421875 0.515625,-0.5 0.71875,-0.5 0.375,0 0.640625,0.1875 0.734375,0.546875 C 2.5,-2.359375 2.5,-1.953125 2.5,-1.65625 c 0,0.34375 0,0.75 -0.078125,1.046875 C 2.296875,-0.125 1.890625,-0.0625 1.6875,-0.0625 Z m 0,0"
           style="stroke:none" />
      </symbol>
    </g>
    <g
       id="g4348">
      <symbol
         id="symbol570"
         overflow="visible">
        <path
           id="path7468"
           d=""
           style="stroke:none" />
      </symbol>
      <symbol
         id="symbol4970"
         overflow="visible">
        <path
           id="path1308"
           d="M 2.984375,-2.015625 C 3,-2.078125 3,-2.09375 3,-2.125 3,-2.1875 2.9375,-2.203125 2.921875,-2.203125 2.859375,-2.203125 2.625,-2 2.546875,-1.875 c -0.09375,-0.140625 -0.28125,-0.328125 -0.625,-0.328125 -0.6875,0 -1.390625,0.671875 -1.390625,1.390625 0,0.515625 0.375,0.875 0.859375,0.875 0.3125,0 0.5625,-0.15625 0.703125,-0.28125 C 2.015625,0.15625 1.890625,0.609375 1.890625,0.625 1.859375,0.703125 1.84375,0.734375 1.53125,0.75 c -0.09375,0 -0.171875,0 -0.171875,0.125 0,0.03125 0.015625,0.09375 0.09375,0.09375 0.078125,0 0.1875,-0.015625 0.28125,-0.015625 0.09375,0 0.1875,0 0.296875,0 0.09375,0 0.1875,0 0.28125,0 0.09375,0 0.203125,0.015625 0.296875,0.015625 0.078125,0 0.125,-0.03125 0.125,-0.140625 C 2.734375,0.75 2.65625,0.75 2.59375,0.75 c -0.171875,0 -0.28125,0 -0.28125,-0.0625 0,-0.015625 0,-0.03125 0.03125,-0.109375 z M 2.203125,-0.65625 C 2.1875,-0.578125 2.1875,-0.5625 2.09375,-0.46875 1.875,-0.234375 1.609375,-0.109375 1.421875,-0.109375 c -0.171875,0 -0.4375,-0.09375 -0.4375,-0.515625 0,-0.203125 0.09375,-0.671875 0.25,-0.953125 0.15625,-0.265625 0.4375,-0.453125 0.6875,-0.453125 0.421875,0 0.515625,0.40625 0.515625,0.4375 0,0.03125 0,0.0625 -0.015625,0.078125 z m 0,0"
           style="stroke:none" />
      </symbol>
      <symbol
         id="symbol5562"
         overflow="visible">
        <path
           id="path2970"
           d="m 3.09375,-1.953125 c -0.234375,0.0625 -0.234375,0.28125 -0.234375,0.296875 0,0.078125 0.0625,0.203125 0.234375,0.203125 0.140625,0 0.3125,-0.125 0.3125,-0.34375 0,-0.296875 -0.328125,-0.40625 -0.59375,-0.40625 -0.328125,0 -0.546875,0.203125 -0.640625,0.34375 -0.15625,-0.28125 -0.484375,-0.34375 -0.65625,-0.34375 -0.625,0 -0.984375,0.59375 -0.984375,0.765625 0,0.078125 0.078125,0.078125 0.109375,0.078125 0.046875,0 0.078125,0 0.109375,-0.0625 0.140625,-0.484375 0.546875,-0.609375 0.734375,-0.609375 0.171875,0 0.359375,0.0625 0.359375,0.328125 0,0.125 -0.09375,0.46875 -0.265625,1.140625 -0.0625,0.28125 -0.296875,0.453125 -0.515625,0.453125 -0.03125,0 -0.171875,0 -0.296875,-0.078125 0.21875,-0.09375 0.21875,-0.28125 0.21875,-0.296875 0,-0.140625 -0.109375,-0.203125 -0.21875,-0.203125 -0.125,0 -0.296875,0.09375 -0.296875,0.328125 0,0.3125 0.328125,0.421875 0.59375,0.421875 0.265625,0 0.5,-0.171875 0.609375,-0.34375 C 1.875,0.015625 2.1875,0.0625 2.34375,0.0625 c 0.625,0 0.984375,-0.59375 0.984375,-0.78125 0,-0.0625 -0.078125,-0.0625 -0.109375,-0.0625 -0.078125,0 -0.09375,0.03125 -0.109375,0.0625 C 2.96875,-0.265625 2.59375,-0.109375 2.375,-0.109375 c -0.15625,0 -0.359375,-0.0625 -0.359375,-0.34375 0,-0.0625 0,-0.09375 0.03125,-0.265625 0.09375,-0.34375 0.21875,-0.890625 0.265625,-0.984375 0.0625,-0.125 0.234375,-0.328125 0.484375,-0.328125 0.015625,0 0.1875,0 0.296875,0.078125 z m 0,0"
           style="stroke:none" />
      </symbol>
      <symbol
         id="symbol476"
         overflow="visible">
        <path
           id="path3381"
           d="m 1.34375,-0.0625 c 0,0.46875 -0.25,0.75 -0.390625,0.859375 -0.046875,0.03125 -0.0625,0.046875 -0.0625,0.078125 0,0.03125 0.046875,0.09375 0.09375,0.09375 0.0625,0 0.53125,-0.390625 0.53125,-1.015625 0,-0.34375 -0.15625,-0.5625 -0.375,-0.5625 -0.1875,0 -0.296875,0.15625 -0.296875,0.3125 C 0.84375,-0.140625 0.953125,0 1.140625,0 1.21875,0 1.296875,-0.015625 1.34375,-0.0625 Z m 0,0"
           style="stroke:none" />
      </symbol>
      <symbol
         id="symbol3816"
         overflow="visible">
        <path
           id="path3226"
           d="m 1.5625,-1.921875 h 0.59375 c 0.109375,0 0.109375,0 0.125,-0.03125 C 2.3125,-1.96875 2.328125,-2.03125 2.328125,-2.0625 2.328125,-2.140625 2.25,-2.140625 2.171875,-2.140625 H 1.625 L 1.71875,-2.5625 C 1.75,-2.6875 1.8125,-2.921875 1.8125,-2.953125 1.8125,-3.03125 1.75,-3.125 1.625,-3.125 c -0.078125,0 -0.203125,0.0625 -0.234375,0.1875 -0.03125,0.09375 0.03125,-0.140625 -0.203125,0.796875 H 0.59375 c -0.09375,0 -0.171875,0 -0.171875,0.125 0,0.09375 0.0625,0.09375 0.15625,0.09375 H 1.125 L 0.84375,-0.75 c -0.03125,0.109375 -0.078125,0.265625 -0.078125,0.328125 0,0.28125 0.265625,0.484375 0.625,0.484375 0.59375,0 0.96875,-0.6875 0.96875,-0.78125 0,-0.0625 -0.09375,-0.0625 -0.109375,-0.0625 -0.078125,0 -0.09375,0.015625 -0.109375,0.078125 -0.171875,0.359375 -0.46875,0.59375 -0.734375,0.59375 -0.15625,0 -0.203125,-0.125 -0.203125,-0.265625 0,-0.078125 0,-0.09375 0.015625,-0.140625 z m 0,0"
           style="stroke:none" />
      </symbol>
      <symbol
         id="symbol2356"
         overflow="visible">
        <path
           id="path4005"
           d=""
           style="stroke:none" />
      </symbol>
      <symbol
         id="symbol500"
         overflow="visible">
        <path
           id="path167"
           d="m 2.203125,-3.625 c 0,0 0.015625,-0.015625 0.015625,-0.046875 0,-0.015625 -0.015625,-0.0625 -0.09375,-0.0625 -0.09375,0 -1.375,0.796875 -1.375,2.484375 0,1.6875 1.28125,2.5 1.375,2.5 0.078125,0 0.09375,-0.046875 0.09375,-0.078125 C 2.21875,1.140625 2.1875,1.125 2.171875,1.109375 1.296875,0.40625 1.125,-0.609375 1.125,-1.25 c 0,-1.21875 0.5625,-2.015625 1.078125,-2.375 z m 0,0"
           style="stroke:none" />
      </symbol>
      <symbol
         id="symbol805"
         overflow="visible">
        <path
           id="path2609"
           d="m 1.953125,-1.25 c 0,-1.6875 -1.28125,-2.484375 -1.390625,-2.484375 -0.078125,0 -0.078125,0.0625 -0.078125,0.0625 0,0.015625 0,0.03125 0.03125,0.0625 0.75,0.59375 1.046875,1.46875 1.046875,2.359375 0,0.453125 -0.078125,0.921875 -0.25,1.328125 C 1.078125,0.640625 0.75,0.921875 0.515625,1.125 0.5,1.125 0.484375,1.15625 0.484375,1.171875 c 0,0.015625 0,0.078125 0.078125,0.078125 0.109375,0 1.390625,-0.796875 1.390625,-2.5 z m 0,0"
           style="stroke:none" />
      </symbol>
    </g>
    <g
       id="g4436">
      <symbol
         id="symbol8876"
         overflow="visible">
        <path
           id="path2559"
           d=""
           style="stroke:none" />
      </symbol>
      <symbol
         id="symbol5341"
         overflow="visible">
        <path
           id="path6244"
           d="m 5.796875,-2.984375 c 0.046875,-0.15625 0.0625,-0.203125 0.4375,-0.203125 0.125,0 0.140625,0 0.15625,0 0.03125,-0.03125 0.046875,-0.09375 0.046875,-0.125 0,-0.09375 -0.078125,-0.09375 -0.15625,-0.09375 H 5.515625 c -0.109375,0 -0.15625,0 -0.234375,0.109375 l -2.0625,2.84375 -0.640625,-2.8125 C 2.546875,-3.40625 2.515625,-3.40625 2.375,-3.40625 H 1.578125 c -0.09375,0 -0.171875,0 -0.171875,0.140625 0,0.078125 0.0625,0.078125 0.1875,0.078125 0.046875,0 0.21875,0 0.3125,0.03125 0,0.0625 0,0.078125 0,0.125 l -0.625,2.46875 C 1.25,-0.421875 1.203125,-0.234375 0.734375,-0.21875 c -0.03125,0 -0.125,0 -0.125,0.140625 C 0.609375,-0.046875 0.65625,0 0.703125,0 c 0.078125,0 0.1875,-0.015625 0.28125,-0.015625 0.09375,0 0.1875,0 0.28125,0 0.09375,0 0.1875,0 0.296875,0 C 1.65625,-0.015625 1.75,0 1.84375,0 c 0.0625,0 0.125,-0.03125 0.125,-0.140625 0,-0.078125 -0.078125,-0.078125 -0.140625,-0.078125 -0.25,-0.015625 -0.34375,-0.078125 -0.34375,-0.1875 0,-0.046875 0.015625,-0.078125 0.03125,-0.125 l 0.640625,-2.625 H 2.171875 L 2.84375,-0.140625 C 2.875,-0.0625 2.890625,0 2.984375,0 3.03125,0 3.09375,-0.015625 3.15625,-0.109375 l 2.234375,-3.078125 -0.6875,2.78125 c -0.046875,0.140625 -0.046875,0.1875 -0.4375,0.1875 -0.125,0 -0.203125,0 -0.203125,0.140625 C 4.0625,-0.046875 4.109375,0 4.15625,0 4.265625,0 4.375,-0.015625 4.484375,-0.015625 c 0.109375,0 0.234375,0 0.34375,0 0.109375,0 0.234375,0 0.34375,0 C 5.28125,-0.015625 5.40625,0 5.515625,0 c 0.03125,0 0.125,0 0.125,-0.140625 0,-0.078125 -0.0625,-0.078125 -0.15625,-0.078125 -0.015625,0 -0.140625,0 -0.21875,-0.015625 -0.125,-0.015625 -0.125,-0.015625 -0.125,-0.0625 0,0 0,-0.015625 0.015625,-0.0625 z m 0,0"
           style="stroke:none" />
      </symbol>
      <symbol
         id="symbol8094"
         overflow="visible">
        <path
           id="path8795"
           d="m 1.5625,-1.921875 h 0.59375 c 0.109375,0 0.109375,0 0.125,-0.03125 C 2.3125,-1.96875 2.328125,-2.03125 2.328125,-2.0625 2.328125,-2.140625 2.25,-2.140625 2.171875,-2.140625 H 1.625 L 1.71875,-2.5625 C 1.75,-2.6875 1.8125,-2.921875 1.8125,-2.953125 1.8125,-3.03125 1.75,-3.125 1.625,-3.125 c -0.078125,0 -0.203125,0.0625 -0.234375,0.1875 -0.03125,0.09375 0.03125,-0.140625 -0.203125,0.796875 H 0.59375 c -0.09375,0 -0.171875,0 -0.171875,0.125 0,0.09375 0.0625,0.09375 0.15625,0.09375 H 1.125 L 0.84375,-0.75 c -0.03125,0.109375 -0.078125,0.265625 -0.078125,0.328125 0,0.28125 0.265625,0.484375 0.625,0.484375 0.59375,0 0.96875,-0.6875 0.96875,-0.78125 0,-0.0625 -0.09375,-0.0625 -0.109375,-0.0625 -0.078125,0 -0.09375,0.015625 -0.109375,0.078125 -0.171875,0.359375 -0.46875,0.59375 -0.734375,0.59375 -0.15625,0 -0.203125,-0.125 -0.203125,-0.265625 0,-0.078125 0,-0.09375 0.015625,-0.140625 z m 0,0"
           style="stroke:none" />
      </symbol>
      <symbol
         id="symbol5100"
         overflow="visible">
        <path
           id="path3666"
           d=""
           style="stroke:none" />
      </symbol>
      <symbol
         id="symbol9566"
         overflow="visible">
        <path
           id="path6203"
           d="m 2.203125,-3.625 c 0,0 0.015625,-0.015625 0.015625,-0.046875 0,-0.015625 -0.015625,-0.0625 -0.09375,-0.0625 -0.09375,0 -1.375,0.796875 -1.375,2.484375 0,1.6875 1.28125,2.5 1.375,2.5 0.078125,0 0.09375,-0.046875 0.09375,-0.078125 C 2.21875,1.140625 2.1875,1.125 2.171875,1.109375 1.296875,0.40625 1.125,-0.609375 1.125,-1.25 c 0,-1.21875 0.5625,-2.015625 1.078125,-2.375 z m 0,0"
           style="stroke:none" />
      </symbol>
      <symbol
         id="symbol8760"
         overflow="visible">
        <path
           id="path6552"
           d="m 1.953125,-1.25 c 0,-1.6875 -1.28125,-2.484375 -1.390625,-2.484375 -0.078125,0 -0.078125,0.0625 -0.078125,0.0625 0,0.015625 0,0.03125 0.03125,0.0625 0.75,0.59375 1.046875,1.46875 1.046875,2.359375 0,0.453125 -0.078125,0.921875 -0.25,1.328125 C 1.078125,0.640625 0.75,0.921875 0.515625,1.125 0.5,1.125 0.484375,1.15625 0.484375,1.171875 c 0,0.015625 0,0.078125 0.078125,0.078125 0.109375,0 1.390625,-0.796875 1.390625,-2.5 z m 0,0"
           style="stroke:none" />
      </symbol>
    </g>
  </defs>
  <sodipodi:namedview
     viewbox-y="30"
     viewbox-x="30"
     inkscape:window-maximized="1"
     inkscape:window-y="-8"
     inkscape:window-x="-8"
     inkscape:window-height="1017"
     inkscape:window-width="1920"
     inkscape:snap-grids="false"
     showgrid="true"
     inkscape:document-rotation="0"
     inkscape:current-layer="layer1"
     inkscape:document-units="mm"
     inkscape:cy="-47.880852"
     inkscape:cx="197.38955"
     inkscape:zoom="1.1268174"
     inkscape:pageshadow="2"
     inkscape:pageopacity="0.0"
     borderopacity="1.0"
     bordercolor="#666666"
     pagecolor="#ffffff"
     id="base">
    <inkscape:grid
       units="mm"
       originy="0.26458"
       empspacing="2"
       spacingy="5"
       spacingx="5"
       id="grid10"
       type="xygrid" />
  </sodipodi:namedview>
  <metadata
     id="metadata5">
    <rdf:RDF>
      <cc:Work
         rdf:about="">
        <dc:format>image/svg+xml</dc:format>
        <dc:type
           rdf:resource="http://purl.org/dc/dcmitype/StillImage" />
        <dc:title></dc:title>
      </cc:Work>
    </rdf:RDF>
  </metadata>
  <g
     id="layer1"
     inkscape:groupmode="layer"
     inkscape:label="Lag 1">
    <path
       id="path1330"
       d="m 50,55.556249 h 90"
       style="fill:none;stroke:#ff7f2a;stroke-width:2;stroke-linecap:butt;stroke-linejoin:miter;stroke-miterlimit:4;stroke-dasharray:none;stroke-opacity:1" />
    <path
       id="path1332"
       d="m 50,50.556249 v 10"
       style="fill:none;stroke:#000000;stroke-width:0.264583px;stroke-linecap:butt;stroke-linejoin:miter;stroke-opacity:1" />
    <path
       id="path1334"
       d="m 50,50.556249 -2,2"
       style="fill:none;stroke:#000000;stroke-width:0.264583px;stroke-linecap:butt;stroke-linejoin:miter;stroke-opacity:1" />
    <path
       id="path1336"
       d="m 50,52.556249 -2,2"
       style="fill:none;stroke:#000000;stroke-width:0.264583px;stroke-linecap:butt;stroke-linejoin:miter;stroke-opacity:1" />
    <path
       id="path1338"
       d="m 50,54.556249 -2,2"
       style="fill:none;stroke:#000000;stroke-width:0.264583px;stroke-linecap:butt;stroke-linejoin:miter;stroke-opacity:1" />
    <path
       id="path1340"
       d="m 50,56.556249 -2,2"
       style="fill:none;stroke:#000000;stroke-width:0.264583px;stroke-linecap:butt;stroke-linejoin:miter;stroke-opacity:1" />
    <path
       id="path1342"
       d="m 50,58.556249 -2,2"
       style="fill:none;stroke:#000000;stroke-width:0.264583px;stroke-linecap:butt;stroke-linejoin:miter;stroke-opacity:1" />
    <path
       id="path1344"
       d="m 50,51.556249 -2,2"
       style="fill:none;stroke:#000000;stroke-width:0.264583px;stroke-linecap:butt;stroke-linejoin:miter;stroke-opacity:1" />
    <path
       id="path1346"
       d="m 50,53.556249 -2,2"
       style="fill:none;stroke:#000000;stroke-width:0.264583px;stroke-linecap:butt;stroke-linejoin:miter;stroke-opacity:1" />
    <path
       id="path1348"
       d="m 50,55.556249 -2,2"
       style="fill:none;stroke:#000000;stroke-width:0.264583px;stroke-linecap:butt;stroke-linejoin:miter;stroke-opacity:1" />
    <path
       id="path1350"
       d="m 50,57.556249 -2,2"
       style="fill:none;stroke:#000000;stroke-width:0.264583px;stroke-linecap:butt;stroke-linejoin:miter;stroke-opacity:1" />
    <path
       id="path1352"
       d="m 50,60.556249 -2,1.999999"
       style="fill:none;stroke:#000000;stroke-width:0.264583px;stroke-linecap:butt;stroke-linejoin:miter;stroke-opacity:1" />
    <path
       id="path1354"
       d="m 50,59.556249 -2,2"
       style="fill:none;stroke:#000000;stroke-width:0.264583px;stroke-linecap:butt;stroke-linejoin:miter;stroke-opacity:1" />
    <path
       sodipodi:nodetypes="csssssssc"
       id="path1359"
       d="m 140,45.556249 c -5.73904,0 -10.85384,-2.652133 -16.01302,-2.449249 -3.81563,0.150048 -7.44368,7.564257 -11.2143,7.465347 -4.33437,-0.113704 -11.152,-10.406929 -16.595349,-9.316495 -2.150919,0.430881 -5.868063,6.442744 -8.101784,6.421434 -2.049209,-0.01955 -6.05087,-3.346385 -8.101473,-3.340385 -2.176327,0.0063 -6.473123,4.003636 -8.590459,3.985736 -2.536082,-0.02144 -6.183712,-3.840052 -8.588067,-3.840052 -4.288411,0 -9.100872,1.073664 -12.795548,1.073664 v 10"
       style="fill:none;stroke:#000000;stroke-width:0.264583px;stroke-linecap:butt;stroke-linejoin:miter;stroke-opacity:1" />
    <path
       id="path1361"
       d="m 59.96498,44.466614 0.09761,11.12706"
       style="fill:none;stroke:#000000;stroke-width:0.264583px;stroke-linecap:butt;stroke-linejoin:miter;stroke-opacity:1;marker-end:url(#marker1158)" />
    <path
       id="path1363"
       d="m 69.920769,47.785211 -0.0976,7.515646"
       style="fill:none;stroke:#000000;stroke-width:0.264583px;stroke-linecap:butt;stroke-linejoin:miter;stroke-opacity:1;marker-end:url(#marker1387)" />
    <path
       id="path1365"
       d="m 80.071773,44.369008 -0.09761,11.127061"
       style="fill:none;stroke:#000000;stroke-width:0.264583px;stroke-linecap:butt;stroke-linejoin:miter;stroke-opacity:1;marker-end:url(#marker1445)" />
    <path
       id="path1367"
       d="m 89.832353,46.711547 0.195212,8.784522"
       style="fill:none;stroke:#000000;stroke-width:0.264583px;stroke-linecap:butt;stroke-linejoin:miter;stroke-opacity:1;marker-end:url(#marker1509)" />
    <path
       id="path1369"
       d="M 100.08096,42.026469 V 55.593674"
       style="fill:none;stroke:#000000;stroke-width:0.264583px;stroke-linecap:butt;stroke-linejoin:miter;stroke-opacity:1;marker-end:url(#marker1579)" />
    <path
       id="path1371"
       d="m 110.13436,49.737327 -0.0976,5.758742"
       style="fill:none;stroke:#000000;stroke-width:0.264583px;stroke-linecap:butt;stroke-linejoin:miter;stroke-opacity:1;marker-end:url(#marker1655)" />
    <path
       id="path1373"
       d="m 120.09015,45.24746 -0.0976,10.346214"
       style="fill:none;stroke:#000000;stroke-width:0.264583px;stroke-linecap:butt;stroke-linejoin:miter;stroke-opacity:1;marker-end:url(#marker1737)" />
    <path
       id="path1375"
       d="m 130.04594,43.783373 0.0976,11.61509"
       style="fill:none;stroke:#000000;stroke-width:0.264583px;stroke-linecap:butt;stroke-linejoin:miter;stroke-opacity:1;marker-end:url(#marker2149)" />
    <path
       id="path1377"
       d="m 140,45.556249 v 10"
       style="fill:none;stroke:#000000;stroke-width:0.264583px;stroke-linecap:butt;stroke-linejoin:miter;stroke-opacity:1;marker-end:url(#marker2159)" />
    <path
       id="path2017"
       d="m 50,70.556248 h 90"
       style="fill:none;stroke:#000000;stroke-width:0.264583px;stroke-linecap:butt;stroke-linejoin:miter;stroke-opacity:1;marker-start:url(#Arrow2Lstart);marker-end:url(#marker2051)" />
    <g
       inkscape:label=""
       transform="translate(-213.16582,-25.477483)"
       id="g3009">
      <g
         id="g1773">
        <g
           id="g788"
           style="fill:#000000;fill-opacity:1">
          <use
             height="100%"
             width="100%"
             id="use5061"
             y="93.917999"
             x="292.57401"
             xlink:href="#symbol9596" />
        </g>
        <g
           id="g2679"
           style="fill:#000000;fill-opacity:1">
          <use
             height="100%"
             width="100%"
             id="use9029"
             y="93.917999"
             x="299.371"
             xlink:href="#symbol2907" />
        </g>
        <g
           id="g6082"
           style="fill:#000000;fill-opacity:1">
          <use
             height="100%"
             width="100%"
             id="use3911"
             y="93.917999"
             x="306.52814"
             xlink:href="#symbol8436" />
          <use
             height="100%"
             width="100%"
             id="use3279"
             y="93.917999"
             x="309.9184"
             xlink:href="#symbol9217" />
        </g>
        <g
           id="g8472"
           style="fill:#000000;fill-opacity:1">
          <use
             height="100%"
             width="100%"
             id="use3802"
             y="93.917999"
             x="313.30801"
             xlink:href="#symbol7039" />
        </g>
      </g>
    </g>
    <g
       inkscape:label=""
       transform="translate(-193.10938,-54.01667)"
       id="g3282">
      <g
         id="g4412">
        <g
           id="g5288"
           style="fill:#000000;fill-opacity:1">
          <use
             height="100%"
             width="100%"
             id="use9330"
             y="93.917999"
             x="296.44299"
             xlink:href="#symbol4970" />
        </g>
        <g
           id="g8664"
           style="fill:#000000;fill-opacity:1">
          <use
             height="100%"
             width="100%"
             id="use5214"
             y="93.917999"
             x="299.90399"
             xlink:href="#symbol500" />
        </g>
        <g
           id="g4191"
           style="fill:#000000;fill-opacity:1">
          <use
             height="100%"
             width="100%"
             id="use2084"
             y="93.917999"
             x="302.60199"
             xlink:href="#symbol5562" />
          <use
             height="100%"
             width="100%"
             id="use6382"
             y="93.917999"
             x="306.54568"
             xlink:href="#symbol476" />
        </g>
        <g
           id="g1023"
           style="fill:#000000;fill-opacity:1">
          <use
             height="100%"
             width="100%"
             id="use4384"
             y="93.917999"
             x="310.04904"
             xlink:href="#symbol3816" />
        </g>
        <g
           id="g6675"
           style="fill:#000000;fill-opacity:1">
          <use
             height="100%"
             width="100%"
             id="use2658"
             y="93.917999"
             x="312.85901"
             xlink:href="#symbol805" />
        </g>
      </g>
    </g>
    <path
       sodipodi:nodetypes="cc"
       id="path3319"
       d="m 44.891315,47.960336 c -10.62101,0.759571 -10.697626,16.378233 0.02845,15.873084"
       style="fill:none;stroke:#000000;stroke-width:0.264583px;stroke-linecap:butt;stroke-linejoin:miter;stroke-opacity:1;marker-end:url(#marker3323)" />
    <g
       inkscape:label=""
       transform="translate(-267.96194,-47.430476)"
       id="g3701">
      <g
         id="g1544">
        <g
           id="g3870"
           style="fill:#000000;fill-opacity:1">
          <use
             height="100%"
             width="100%"
             id="use9270"
             y="93.917999"
             x="298.42801"
             xlink:href="#symbol5341" />
        </g>
        <g
           id="g3048"
           style="fill:#000000;fill-opacity:1">
          <use
             height="100%"
             width="100%"
             id="use4694"
             y="93.917999"
             x="305.367"
             xlink:href="#symbol9566" />
        </g>
        <g
           id="g5466"
           style="fill:#000000;fill-opacity:1">
          <use
             height="100%"
             width="100%"
             id="use8781"
             y="93.917999"
             x="308.06601"
             xlink:href="#symbol8094" />
        </g>
        <g
           id="g6097"
           style="fill:#000000;fill-opacity:1">
          <use
             height="100%"
             width="100%"
             id="use244"
             y="93.917999"
             x="310.87399"
             xlink:href="#symbol8760" />
        </g>
      </g>
    </g>
  </g>
</svg>
