<?xml version="1.0" encoding="UTF-8" standalone="no"?>
<!-- Created with Inkscape (http://www.inkscape.org/) -->

<svg
   width="150mm"
   height="150mm"
   viewBox="0 0 150 150"
   version="1.1"
   id="svg16858"
   sodipodi:docname="Fig_4_2_2.svg"
   inkscape:version="1.2.1 (9c6d41e410, 2022-07-14)"
   xmlns:inkscape="http://www.inkscape.org/namespaces/inkscape"
   xmlns:sodipodi="http://sodipodi.sourceforge.net/DTD/sodipodi-0.dtd"
   xmlns="http://www.w3.org/2000/svg"
   xmlns:svg="http://www.w3.org/2000/svg">
  <sodipodi:namedview
     id="namedview16860"
     pagecolor="#ffffff"
     bordercolor="#000000"
     borderopacity="0.25"
     inkscape:showpageshadow="2"
     inkscape:pageopacity="0.0"
     inkscape:pagecheckerboard="0"
     inkscape:deskcolor="#d1d1d1"
     inkscape:document-units="mm"
     showgrid="true"
     inkscape:zoom="1.0255231"
     inkscape:cx="328.61279"
     inkscape:cy="375.90573"
     inkscape:window-width="1920"
     inkscape:window-height="1001"
     inkscape:window-x="-9"
     inkscape:window-y="-9"
     inkscape:window-maximized="1"
     inkscape:current-layer="layer1">
    <inkscape:grid
       type="xygrid"
       id="grid18098"
       units="mm"
       spacingx="2.5"
       spacingy="2.5"
       empspacing="2"
       originx="0"
       originy="0" />
  </sodipodi:namedview>
  <defs
     id="defs16855">
    <clipPath
       id="clipPath7771">
      <path
         clip-rule="nonzero"
         d="m 11,7 h 10 v 7.535156 H 11 Z m 0,0"
         id="path8938" />
    </clipPath>
    <clipPath
       id="clipPath8058">
      <path
         clip-rule="nonzero"
         d="m 11,7 h 10 v 7.535156 H 11 Z m 0,0"
         id="path987" />
    </clipPath>
    <clipPath
       id="clipPath7588">
      <path
         clip-rule="nonzero"
         d="m 10,7 h 11 v 7.535156 H 10 Z m 0,0"
         id="path4771" />
    </clipPath>
    <clipPath
       id="clipPath5832">
      <path
         clip-rule="nonzero"
         d="m 10,7 h 11 v 7.535156 H 10 Z m 0,0"
         id="path9641" />
    </clipPath>
  </defs>
  <g
     inkscape:label="Lag 1"
     inkscape:groupmode="layer"
     id="layer1">
    <path
       style="fill:none;stroke:#000000;stroke-width:0.4"
       d="M 30,25.020832 H 130 V 125.02083 H 30 V 25.020832"
       id="path19189" />
    <path
       style="fill:none;stroke:#000000;stroke-width:0.2;stroke-dasharray:2.4, 0.2;stroke-dashoffset:1.6"
       d="M 39.999999,20.020832 V 130.02083"
       id="path19191" />
    <path
       style="fill:none;stroke:#000000;stroke-width:0.2;stroke-dasharray:2.4, 0.2;stroke-dashoffset:1.6"
       d="M 50,20.020832 V 130.02083"
       id="path19193" />
    <path
       style="fill:none;stroke:#000000;stroke-width:0.2;stroke-dasharray:2.4, 0.2;stroke-dashoffset:1.6"
       d="M 59.999998,20.020832 V 130.02083"
       id="path19195" />
    <path
       style="fill:none;stroke:#000000;stroke-width:0.2;stroke-dasharray:2.4, 0.2;stroke-dashoffset:1.6"
       d="M 69.999999,20.020832 V 130.02083"
       id="path19197" />
    <path
       style="fill:none;stroke:#000000;stroke-width:0.2;stroke-dasharray:2.4, 0.2;stroke-dashoffset:1.6"
       d="M 79.999998,20.020832 V 130.02083"
       id="path19199" />
    <path
       style="fill:none;stroke:#000000;stroke-width:0.2;stroke-dasharray:2.4, 0.2;stroke-dashoffset:1.6"
       d="M 89.999999,20.020832 V 130.02083"
       id="path19201" />
    <path
       style="fill:none;stroke:#000000;stroke-width:0.2;stroke-dasharray:2.4, 0.2;stroke-dashoffset:1.6"
       d="M 100,20.020832 V 130.02083"
       id="path19203" />
    <path
       style="fill:none;stroke:#000000;stroke-width:0.2;stroke-dasharray:2.4, 0.2;stroke-dashoffset:1.6"
       d="M 110,20.020832 V 130.02083"
       id="path19205" />
    <path
       style="fill:none;stroke:#000000;stroke-width:0.2;stroke-dasharray:2.4, 0.2;stroke-dashoffset:1.6"
       d="M 120,20.020832 V 130.02083"
       id="path19207" />
    <path
       style="fill:none;stroke:#000000;stroke-width:0.198604;stroke-dasharray:2.38325, 0.198604;stroke-dashoffset:0"
       d="M 25,35.020831 H 135"
       id="path19209" />
    <path
       style="fill:none;stroke:#000000;stroke-width:0.2;stroke-dasharray:2.4, 0.2;stroke-dashoffset:1.6"
       d="M 25,45.020832 H 135"
       id="path19211" />
    <path
       style="fill:none;stroke:#000000;stroke-width:0.2;stroke-dasharray:2.4, 0.2;stroke-dashoffset:1.6"
       d="M 25,55.020833 H 135"
       id="path19213" />
    <path
       style="fill:none;stroke:#000000;stroke-width:0.2;stroke-dasharray:2.4, 0.2;stroke-dashoffset:1.6"
       d="M 25,65.020827 H 135"
       id="path19215" />
    <path
       style="fill:none;stroke:#000000;stroke-width:0.2;stroke-dasharray:2.4, 0.2;stroke-dashoffset:1.6"
       d="M 25,75.020839 H 135"
       id="path19217" />
    <path
       style="fill:none;stroke:#000000;stroke-width:0.2;stroke-dasharray:2.4, 0.2;stroke-dashoffset:1.6"
       d="M 25,85.020845 H 135"
       id="path19219" />
    <path
       style="fill:none;stroke:#000000;stroke-width:0.2;stroke-dasharray:2.4, 0.2;stroke-dashoffset:1.6"
       d="M 25,95.020854 H 135"
       id="path19221" />
    <path
       style="fill:none;stroke:#000000;stroke-width:0.2;stroke-dasharray:2.4, 0.2;stroke-dashoffset:1.6"
       d="M 25,105.02083 H 135"
       id="path19223" />
    <path
       style="fill:none;stroke:#000000;stroke-width:0.2;stroke-dasharray:2.4, 0.2;stroke-dashoffset:1.6"
       d="M 25,115.02083 H 135"
       id="path19225" />
    <text
       xml:space="preserve"
       style="font-style:normal;font-variant:normal;font-weight:normal;font-stretch:normal;font-size:7.05556px;font-family:Arial;-inkscape-font-specification:'Arial, Normal';font-variant-ligatures:normal;font-variant-caps:normal;font-variant-numeric:normal;font-variant-east-asian:normal;fill:#000000;fill-opacity:1;stroke:#000000;stroke-width:0.2;stroke-dasharray:2.4, 0.2;stroke-dashoffset:1.6"
       x="32.271389"
       y="22.420799"
       id="text19281"><tspan
         sodipodi:role="line"
         id="tspan19279"
         style="font-style:normal;font-variant:normal;font-weight:normal;font-stretch:normal;font-size:7.05556px;font-family:Arial;-inkscape-font-specification:'Arial, Normal';font-variant-ligatures:normal;font-variant-caps:normal;font-variant-numeric:normal;font-variant-east-asian:normal;fill:#000000;fill-opacity:1;stroke-width:0.2"
         x="32.271389"
         y="22.420799">1</tspan></text>
    <text
       xml:space="preserve"
       style="font-style:normal;font-variant:normal;font-weight:normal;font-stretch:normal;font-size:7.05556px;font-family:Arial;-inkscape-font-specification:'Arial, Normal';font-variant-ligatures:normal;font-variant-caps:normal;font-variant-numeric:normal;font-variant-east-asian:normal;fill:#000000;fill-opacity:1;stroke:#000000;stroke-width:0.2;stroke-dasharray:2.4, 0.2;stroke-dashoffset:1.6"
       x="43.848103"
       y="22.420799"
       id="text19335"><tspan
         sodipodi:role="line"
         id="tspan19333"
         style="stroke-width:0.2"
         x="43.848103"
         y="22.420799">2</tspan></text>
    <text
       xml:space="preserve"
       style="font-style:normal;font-variant:normal;font-weight:normal;font-stretch:normal;font-size:7.05556px;font-family:Arial;-inkscape-font-specification:'Arial, Normal';font-variant-ligatures:normal;font-variant-caps:normal;font-variant-numeric:normal;font-variant-east-asian:normal;fill:#000000;fill-opacity:1;stroke:#000000;stroke-width:0.2;stroke-dasharray:2.4, 0.2;stroke-dashoffset:1.6"
       x="53.796429"
       y="22.331223"
       id="text19339"><tspan
         sodipodi:role="line"
         id="tspan19337"
         style="stroke-width:0.2"
         x="53.796429"
         y="22.331223">3</tspan></text>
    <text
       xml:space="preserve"
       style="font-style:normal;font-variant:normal;font-weight:normal;font-stretch:normal;font-size:7.05556px;font-family:Arial;-inkscape-font-specification:'Arial, Normal';font-variant-ligatures:normal;font-variant-caps:normal;font-variant-numeric:normal;font-variant-east-asian:normal;fill:#000000;fill-opacity:1;stroke:#000000;stroke-width:0.2;stroke-dasharray:2.4, 0.2;stroke-dashoffset:1.6"
       x="62.510426"
       y="22.67131"
       id="text19343"><tspan
         sodipodi:role="line"
         id="tspan19341"
         style="stroke-width:0.2"
         x="62.510426"
         y="22.67131">4</tspan></text>
    <text
       xml:space="preserve"
       style="font-style:normal;font-variant:normal;font-weight:normal;font-stretch:normal;font-size:7.05556px;font-family:Arial;-inkscape-font-specification:'Arial, Normal';font-variant-ligatures:normal;font-variant-caps:normal;font-variant-numeric:normal;font-variant-east-asian:normal;fill:#000000;fill-opacity:1;stroke:#000000;stroke-width:0.2;stroke-dasharray:2.4, 0.2;stroke-dashoffset:1.6"
       x="73.75853"
       y="22.602409"
       id="text19347"><tspan
         sodipodi:role="line"
         id="tspan19345"
         style="stroke-width:0.2"
         x="73.75853"
         y="22.602409">5</tspan></text>
    <text
       xml:space="preserve"
       style="font-style:normal;font-variant:normal;font-weight:normal;font-stretch:normal;font-size:7.05556px;font-family:Arial;-inkscape-font-specification:'Arial, Normal';font-variant-ligatures:normal;font-variant-caps:normal;font-variant-numeric:normal;font-variant-east-asian:normal;fill:#000000;fill-opacity:1;stroke:#000000;stroke-width:0.2;stroke-dasharray:2.4, 0.2;stroke-dashoffset:1.6"
       x="83.799873"
       y="22.691978"
       id="text19351"><tspan
         sodipodi:role="line"
         id="tspan19349"
         style="stroke-width:0.2"
         x="83.799873"
         y="22.691978">6</tspan></text>
    <text
       xml:space="preserve"
       style="font-style:normal;font-variant:normal;font-weight:normal;font-stretch:normal;font-size:7.05556px;font-family:Arial;-inkscape-font-specification:'Arial, Normal';font-variant-ligatures:normal;font-variant-caps:normal;font-variant-numeric:normal;font-variant-east-asian:normal;fill:#000000;fill-opacity:1;stroke:#000000;stroke-width:0.2;stroke-dasharray:2.4, 0.2;stroke-dashoffset:1.6"
       x="93.796425"
       y="22.605858"
       id="text19355"><tspan
         sodipodi:role="line"
         id="tspan19353"
         style="stroke-width:0.2"
         x="93.796425"
         y="22.605858">7</tspan></text>
    <text
       xml:space="preserve"
       style="font-style:normal;font-variant:normal;font-weight:normal;font-stretch:normal;font-size:7.05556px;font-family:Arial;-inkscape-font-specification:'Arial, Normal';font-variant-ligatures:normal;font-variant-caps:normal;font-variant-numeric:normal;font-variant-east-asian:normal;fill:#000000;fill-opacity:1;stroke:#000000;stroke-width:0.2;stroke-dasharray:2.4, 0.2;stroke-dashoffset:1.6"
       x="102.31406"
       y="22.691978"
       id="text19359"><tspan
         sodipodi:role="line"
         id="tspan19357"
         style="stroke-width:0.2"
         x="102.31406"
         y="22.691978">8</tspan></text>
    <text
       xml:space="preserve"
       style="font-style:normal;font-variant:normal;font-weight:normal;font-stretch:normal;font-size:7.05556px;font-family:Arial;-inkscape-font-specification:'Arial, Normal';font-variant-ligatures:normal;font-variant-caps:normal;font-variant-numeric:normal;font-variant-east-asian:normal;fill:#000000;fill-opacity:1;stroke:#000000;stroke-width:0.2;stroke-dasharray:2.4, 0.2;stroke-dashoffset:1.6"
       x="112.5"
       y="22.520798"
       id="text19363"><tspan
         sodipodi:role="line"
         id="tspan19361"
         style="stroke-width:0.2"
         x="112.5"
         y="22.520798">9</tspan></text>
    <text
       xml:space="preserve"
       style="font-style:normal;font-variant:normal;font-weight:normal;font-stretch:normal;font-size:7.05556px;font-family:Arial;-inkscape-font-specification:'Arial, Normal';font-variant-ligatures:normal;font-variant-caps:normal;font-variant-numeric:normal;font-variant-east-asian:normal;fill:#000000;fill-opacity:1;stroke:#000000;stroke-width:0.2;stroke-dasharray:2.4, 0.2;stroke-dashoffset:1.6"
       x="121.83174"
       y="22.691978"
       id="text19367"><tspan
         sodipodi:role="line"
         id="tspan19365"
         style="stroke-width:0.2"
         x="121.83174"
         y="22.691978">10</tspan></text>
    <text
       xml:space="preserve"
       style="font-style:normal;font-variant:normal;font-weight:normal;font-stretch:normal;font-size:7.05556px;font-family:Arial;-inkscape-font-specification:'Arial, Normal';font-variant-ligatures:normal;font-variant-caps:normal;font-variant-numeric:normal;font-variant-east-asian:normal;fill:#000000;fill-opacity:1;stroke:#000000;stroke-width:0.2;stroke-dasharray:2.4, 0.2;stroke-dashoffset:1.6"
       x="24.331743"
       y="32.691971"
       id="text19371"><tspan
         sodipodi:role="line"
         id="tspan19369"
         style="stroke-width:0.2"
         x="24.331743"
         y="32.691971">1</tspan></text>
    <text
       xml:space="preserve"
       style="font-style:normal;font-variant:normal;font-weight:normal;font-stretch:normal;font-size:7.05556px;font-family:Arial;-inkscape-font-specification:'Arial, Normal';font-variant-ligatures:normal;font-variant-caps:normal;font-variant-numeric:normal;font-variant-east-asian:normal;fill:#000000;fill-opacity:1;stroke:#000000;stroke-width:0.2;stroke-dasharray:2.4, 0.2;stroke-dashoffset:1.6"
       x="25"
       y="42.52079"
       id="text19375"><tspan
         sodipodi:role="line"
         id="tspan19373"
         style="stroke-width:0.2"
         x="25"
         y="42.52079">2</tspan></text>
    <text
       xml:space="preserve"
       style="font-style:normal;font-variant:normal;font-weight:normal;font-stretch:normal;font-size:7.05556px;font-family:Arial;-inkscape-font-specification:'Arial, Normal';font-variant-ligatures:normal;font-variant-caps:normal;font-variant-numeric:normal;font-variant-east-asian:normal;fill:#000000;fill-opacity:1;stroke:#000000;stroke-width:0.2;stroke-dasharray:2.4, 0.2;stroke-dashoffset:1.6"
       x="24.803722"
       y="52.691971"
       id="text19379"><tspan
         sodipodi:role="line"
         id="tspan19377"
         style="stroke-width:0.2"
         x="24.803722"
         y="52.691971">3</tspan></text>
    <text
       xml:space="preserve"
       style="font-style:normal;font-variant:normal;font-weight:normal;font-stretch:normal;font-size:7.05556px;font-family:Arial;-inkscape-font-specification:'Arial, Normal';font-variant-ligatures:normal;font-variant-caps:normal;font-variant-numeric:normal;font-variant-east-asian:normal;fill:#000000;fill-opacity:1;stroke:#000000;stroke-width:0.2;stroke-dasharray:2.4, 0.2;stroke-dashoffset:1.6"
       x="25"
       y="62.520798"
       id="text19383"><tspan
         sodipodi:role="line"
         id="tspan19381"
         style="stroke-width:0.2"
         x="25"
         y="62.520798">4</tspan></text>
    <text
       xml:space="preserve"
       style="font-style:normal;font-variant:normal;font-weight:normal;font-stretch:normal;font-size:7.05556px;font-family:Arial;-inkscape-font-specification:'Arial, Normal';font-variant-ligatures:normal;font-variant-caps:normal;font-variant-numeric:normal;font-variant-east-asian:normal;fill:#000000;fill-opacity:1;stroke:#000000;stroke-width:0.2;stroke-dasharray:2.4, 0.2;stroke-dashoffset:1.6"
       x="25"
       y="72.520813"
       id="text19387"><tspan
         sodipodi:role="line"
         id="tspan19385"
         style="stroke-width:0.2"
         x="25"
         y="72.520813">5</tspan></text>
    <text
       xml:space="preserve"
       style="font-style:normal;font-variant:normal;font-weight:normal;font-stretch:normal;font-size:7.05556px;font-family:Arial;-inkscape-font-specification:'Arial, Normal';font-variant-ligatures:normal;font-variant-caps:normal;font-variant-numeric:normal;font-variant-east-asian:normal;fill:#000000;fill-opacity:1;stroke:#000000;stroke-width:0.2;stroke-dasharray:2.4, 0.2;stroke-dashoffset:1.6"
       x="25"
       y="82.520828"
       id="text19391"><tspan
         sodipodi:role="line"
         id="tspan19389"
         style="stroke-width:0.2"
         x="25"
         y="82.520828">6</tspan></text>
    <text
       xml:space="preserve"
       style="font-style:normal;font-variant:normal;font-weight:normal;font-stretch:normal;font-size:7.05556px;font-family:Arial;-inkscape-font-specification:'Arial, Normal';font-variant-ligatures:normal;font-variant-caps:normal;font-variant-numeric:normal;font-variant-east-asian:normal;fill:#000000;fill-opacity:1;stroke:#000000;stroke-width:0.2;stroke-dasharray:2.4, 0.2;stroke-dashoffset:1.6"
       x="25"
       y="92.520882"
       id="text19395"><tspan
         sodipodi:role="line"
         id="tspan19393"
         style="stroke-width:0.2"
         x="25"
         y="92.520882">7</tspan></text>
    <text
       xml:space="preserve"
       style="font-style:normal;font-variant:normal;font-weight:normal;font-stretch:normal;font-size:7.05556px;font-family:Arial;-inkscape-font-specification:'Arial, Normal';font-variant-ligatures:normal;font-variant-caps:normal;font-variant-numeric:normal;font-variant-east-asian:normal;fill:#000000;fill-opacity:1;stroke:#000000;stroke-width:0.2;stroke-dasharray:2.4, 0.2;stroke-dashoffset:1.6"
       x="24.814056"
       y="102.33475"
       id="text19399"><tspan
         sodipodi:role="line"
         id="tspan19397"
         style="stroke-width:0.2"
         x="24.814056"
         y="102.33475">8</tspan></text>
    <text
       xml:space="preserve"
       style="font-style:normal;font-variant:normal;font-weight:normal;font-stretch:normal;font-size:7.05556px;font-family:Arial;-inkscape-font-specification:'Arial, Normal';font-variant-ligatures:normal;font-variant-caps:normal;font-variant-numeric:normal;font-variant-east-asian:normal;fill:#000000;fill-opacity:1;stroke:#000000;stroke-width:0.2;stroke-dasharray:2.4, 0.2;stroke-dashoffset:1.6"
       x="25"
       y="112.52091"
       id="text19403"><tspan
         sodipodi:role="line"
         id="tspan19401"
         style="stroke-width:0.2"
         x="25"
         y="112.52091">9</tspan></text>
    <text
       xml:space="preserve"
       style="font-style:normal;font-variant:normal;font-weight:normal;font-stretch:normal;font-size:7.05556px;font-family:Arial;-inkscape-font-specification:'Arial, Normal';font-variant-ligatures:normal;font-variant-caps:normal;font-variant-numeric:normal;font-variant-east-asian:normal;fill:#000000;fill-opacity:1;stroke:#000000;stroke-width:0.2;stroke-dasharray:2.4, 0.2;stroke-dashoffset:1.6"
       x="21.831743"
       y="122.33482"
       id="text19407"><tspan
         sodipodi:role="line"
         id="tspan19405"
         style="stroke-width:0.2"
         x="21.831743"
         y="122.33482">10</tspan></text>
    <g
       inkscape:label=""
       transform="translate(52.183288,46.195397)"
       id="g19546">
      <g
         fill="#000000"
         fill-opacity="1"
         id="g19"
         transform="matrix(0.352778,0,0,0.352778,-0.214974,-6.6143e-4)">
        <g
           id="use17"
           transform="translate(0,11.955)">
          <path
             d="m 5.71875,-4.828125 2.171875,-1.75 C 8.09375,-6.75 8.28125,-6.90625 9.46875,-6.90625 v -0.734375 c -0.453125,0.03125 -0.796875,0.03125 -1.421875,0.03125 -0.453125,0 -1.421875,0 -1.8125,-0.03125 v 0.734375 c 0.203125,0 0.625,0.046875 0.625,0.1875 0,0.078125 -0.109375,0.140625 -0.140625,0.171875 L 3.578125,-4.03125 v -7.921875 l -2.96875,0.140625 v 0.734375 c 1.0625,0 1.1875,0 1.1875,0.671875 v 9.671875 h -1.1875 V 0 C 1,-0.03125 2.1875,-0.03125 2.65625,-0.03125 c 0.453125,0 1.65625,0 2.046875,0.03125 v -0.734375 h -1.1875 v -2.3125 C 3.78125,-3.25 4.046875,-3.484375 4.421875,-3.78125 l 2.09375,2.671875 C 6.625,-0.96875 6.625,-0.9375 6.625,-0.90625 c 0,0.171875 -0.34375,0.171875 -0.578125,0.171875 V 0 c 0.40625,-0.03125 1.546875,-0.03125 2.015625,-0.03125 0.875,0 1.109375,0 1.84375,0.03125 v -0.734375 c -0.28125,0 -0.625,0 -0.8125,-0.015625 -0.25,-0.0625 -0.3125,-0.109375 -0.5,-0.359375 z m 0,0"
             id="path33" />
        </g>
      </g>
      <g
         clip-path="url(#clipPath7771)"
         id="g27"
         transform="matrix(0.352778,0,0,0.352778,-0.214974,-6.6143e-4)">
        <g
           fill="#000000"
           fill-opacity="1"
           id="g25">
          <g
             id="use21"
             transform="translate(10.222,14.537)">
            <path
               d="m 3.203125,-6.984375 c 0,-0.25 0,-0.28125 -0.25,-0.28125 C 2.28125,-6.5625 1.3125,-6.5625 0.96875,-6.5625 v 0.328125 c 0.21875,0 0.859375,0 1.4375,-0.28125 v 5.65625 c 0,0.390625 -0.046875,0.515625 -1.015625,0.515625 H 1.03125 V 0 c 0.390625,-0.03125 1.328125,-0.03125 1.765625,-0.03125 0.4375,0 1.390625,0 1.765625,0.03125 V -0.34375 H 4.21875 c -0.984375,0 -1.015625,-0.109375 -1.015625,-0.515625 z m 0,0"
               id="path37" />
          </g>
          <g
             id="use23"
             transform="translate(15.67655,14.537)">
            <path
               d="m 3.203125,-6.984375 c 0,-0.25 0,-0.28125 -0.25,-0.28125 C 2.28125,-6.5625 1.3125,-6.5625 0.96875,-6.5625 v 0.328125 c 0.21875,0 0.859375,0 1.4375,-0.28125 v 5.65625 c 0,0.390625 -0.046875,0.515625 -1.015625,0.515625 H 1.03125 V 0 c 0.390625,-0.03125 1.328125,-0.03125 1.765625,-0.03125 0.4375,0 1.390625,0 1.765625,0.03125 V -0.34375 H 4.21875 c -0.984375,0 -1.015625,-0.109375 -1.015625,-0.515625 z m 0,0"
               id="path41" />
          </g>
        </g>
      </g>
    </g>
    <g
       inkscape:label=""
       transform="translate(91.874607,45.999478)"
       id="g19724">
      <g
         fill="#000000"
         fill-opacity="1"
         id="g22"
         transform="matrix(0.352778,0,0,0.352778,-0.214974,-6.6143e-4)">
        <g
           id="use20"
           transform="translate(0,11.955)">
          <path
             d="m 5.71875,-4.828125 2.171875,-1.75 C 8.09375,-6.75 8.28125,-6.90625 9.46875,-6.90625 v -0.734375 c -0.453125,0.03125 -0.796875,0.03125 -1.421875,0.03125 -0.453125,0 -1.421875,0 -1.8125,-0.03125 v 0.734375 c 0.203125,0 0.625,0.046875 0.625,0.1875 0,0.078125 -0.109375,0.140625 -0.140625,0.171875 L 3.578125,-4.03125 v -7.921875 l -2.96875,0.140625 v 0.734375 c 1.0625,0 1.1875,0 1.1875,0.671875 v 9.671875 h -1.1875 V 0 C 1,-0.03125 2.1875,-0.03125 2.65625,-0.03125 c 0.453125,0 1.65625,0 2.046875,0.03125 v -0.734375 h -1.1875 v -2.3125 C 3.78125,-3.25 4.046875,-3.484375 4.421875,-3.78125 l 2.09375,2.671875 C 6.625,-0.96875 6.625,-0.9375 6.625,-0.90625 c 0,0.171875 -0.34375,0.171875 -0.578125,0.171875 V 0 c 0.40625,-0.03125 1.546875,-0.03125 2.015625,-0.03125 0.875,0 1.109375,0 1.84375,0.03125 v -0.734375 c -0.28125,0 -0.625,0 -0.8125,-0.015625 -0.25,-0.0625 -0.3125,-0.109375 -0.5,-0.359375 z m 0,0"
             id="path36" />
        </g>
      </g>
      <g
         clip-path="url(#clipPath8058)"
         id="g30"
         transform="matrix(0.352778,0,0,0.352778,-0.214974,-6.6143e-4)">
        <g
           fill="#000000"
           fill-opacity="1"
           id="g28">
          <g
             id="use24"
             transform="translate(10.222,14.537)">
            <path
               d="m 3.203125,-6.984375 c 0,-0.25 0,-0.28125 -0.25,-0.28125 C 2.28125,-6.5625 1.3125,-6.5625 0.96875,-6.5625 v 0.328125 c 0.21875,0 0.859375,0 1.4375,-0.28125 v 5.65625 c 0,0.390625 -0.046875,0.515625 -1.015625,0.515625 H 1.03125 V 0 c 0.390625,-0.03125 1.328125,-0.03125 1.765625,-0.03125 0.4375,0 1.390625,0 1.765625,0.03125 V -0.34375 H 4.21875 c -0.984375,0 -1.015625,-0.109375 -1.015625,-0.515625 z m 0,0"
               id="path40" />
          </g>
          <g
             id="use26"
             transform="translate(15.67655,14.537)">
            <path
               d="m 1.390625,-0.84375 1.15625,-1.125 c 1.703125,-1.5 2.34375,-2.09375 2.34375,-3.171875 0,-1.25 -0.96875,-2.125 -2.3125,-2.125 -1.21875,0 -2.03125,1 -2.03125,1.96875 0,0.625 0.546875,0.625 0.578125,0.625 0.1875,0 0.5625,-0.140625 0.5625,-0.578125 0,-0.296875 -0.1875,-0.578125 -0.578125,-0.578125 -0.078125,0 -0.109375,0 -0.140625,0.015625 0.25,-0.703125 0.84375,-1.109375 1.46875,-1.109375 1,0 1.46875,0.875 1.46875,1.78125 0,0.859375 -0.546875,1.734375 -1.140625,2.40625 l -2.09375,2.328125 c -0.125,0.125 -0.125,0.140625 -0.125,0.40625 H 4.59375 L 4.890625,-1.890625 H 4.625 C 4.5625,-1.578125 4.5,-1.09375 4.390625,-0.921875 4.3125,-0.84375 3.59375,-0.84375 3.34375,-0.84375 Z m 0,0"
               id="path44" />
          </g>
        </g>
      </g>
    </g>
    <g
       inkscape:label=""
       transform="translate(52.183288,86.195408)"
       id="g19935">
      <g
         fill="#000000"
         fill-opacity="1"
         id="g19921"
         transform="matrix(0.352778,0,0,0.352778,-0.214974,-6.6143e-4)">
        <g
           id="g19919"
           transform="translate(0,11.955)">
          <path
             d="m 5.71875,-4.828125 2.171875,-1.75 C 8.09375,-6.75 8.28125,-6.90625 9.46875,-6.90625 v -0.734375 c -0.453125,0.03125 -0.796875,0.03125 -1.421875,0.03125 -0.453125,0 -1.421875,0 -1.8125,-0.03125 v 0.734375 c 0.203125,0 0.625,0.046875 0.625,0.1875 0,0.078125 -0.109375,0.140625 -0.140625,0.171875 L 3.578125,-4.03125 v -7.921875 l -2.96875,0.140625 v 0.734375 c 1.0625,0 1.1875,0 1.1875,0.671875 v 9.671875 h -1.1875 V 0 C 1,-0.03125 2.1875,-0.03125 2.65625,-0.03125 c 0.453125,0 1.65625,0 2.046875,0.03125 v -0.734375 h -1.1875 v -2.3125 C 3.78125,-3.25 4.046875,-3.484375 4.421875,-3.78125 l 2.09375,2.671875 C 6.625,-0.96875 6.625,-0.9375 6.625,-0.90625 c 0,0.171875 -0.34375,0.171875 -0.578125,0.171875 V 0 c 0.40625,-0.03125 1.546875,-0.03125 2.015625,-0.03125 0.875,0 1.109375,0 1.84375,0.03125 v -0.734375 c -0.28125,0 -0.625,0 -0.8125,-0.015625 -0.25,-0.0625 -0.3125,-0.109375 -0.5,-0.359375 z m 0,0"
             id="path19917" />
        </g>
      </g>
      <g
         clip-path="url(#clipPath7588)"
         id="g19933"
         transform="matrix(0.352778,0,0,0.352778,-0.214974,-6.6143e-4)">
        <g
           fill="#000000"
           fill-opacity="1"
           id="g19931">
          <g
             id="g19925"
             transform="translate(10.222,14.537)">
            <path
               d="m 1.390625,-0.84375 1.15625,-1.125 c 1.703125,-1.5 2.34375,-2.09375 2.34375,-3.171875 0,-1.25 -0.96875,-2.125 -2.3125,-2.125 -1.21875,0 -2.03125,1 -2.03125,1.96875 0,0.625 0.546875,0.625 0.578125,0.625 0.1875,0 0.5625,-0.140625 0.5625,-0.578125 0,-0.296875 -0.1875,-0.578125 -0.578125,-0.578125 -0.078125,0 -0.109375,0 -0.140625,0.015625 0.25,-0.703125 0.84375,-1.109375 1.46875,-1.109375 1,0 1.46875,0.875 1.46875,1.78125 0,0.859375 -0.546875,1.734375 -1.140625,2.40625 l -2.09375,2.328125 c -0.125,0.125 -0.125,0.140625 -0.125,0.40625 H 4.59375 L 4.890625,-1.890625 H 4.625 C 4.5625,-1.578125 4.5,-1.09375 4.390625,-0.921875 4.3125,-0.84375 3.59375,-0.84375 3.34375,-0.84375 Z m 0,0"
               id="path19923" />
          </g>
          <g
             id="g19929"
             transform="translate(15.67655,14.537)">
            <path
               d="m 3.203125,-6.984375 c 0,-0.25 0,-0.28125 -0.25,-0.28125 C 2.28125,-6.5625 1.3125,-6.5625 0.96875,-6.5625 v 0.328125 c 0.21875,0 0.859375,0 1.4375,-0.28125 v 5.65625 c 0,0.390625 -0.046875,0.515625 -1.015625,0.515625 H 1.03125 V 0 c 0.390625,-0.03125 1.328125,-0.03125 1.765625,-0.03125 0.4375,0 1.390625,0 1.765625,0.03125 V -0.34375 H 4.21875 c -0.984375,0 -1.015625,-0.109375 -1.015625,-0.515625 z m 0,0"
               id="path19927" />
          </g>
        </g>
      </g>
    </g>
    <g
       inkscape:label=""
       transform="translate(92.81443,87.815988)"
       id="g20170">
      <g
         fill="#000000"
         fill-opacity="1"
         id="g20156"
         transform="matrix(0.352778,0,0,0.352778,-0.214974,-6.6143e-4)">
        <g
           id="g20154"
           transform="translate(0,11.955)">
          <path
             d="m 5.71875,-4.828125 2.171875,-1.75 C 8.09375,-6.75 8.28125,-6.90625 9.46875,-6.90625 v -0.734375 c -0.453125,0.03125 -0.796875,0.03125 -1.421875,0.03125 -0.453125,0 -1.421875,0 -1.8125,-0.03125 v 0.734375 c 0.203125,0 0.625,0.046875 0.625,0.1875 0,0.078125 -0.109375,0.140625 -0.140625,0.171875 L 3.578125,-4.03125 v -7.921875 l -2.96875,0.140625 v 0.734375 c 1.0625,0 1.1875,0 1.1875,0.671875 v 9.671875 h -1.1875 V 0 C 1,-0.03125 2.1875,-0.03125 2.65625,-0.03125 c 0.453125,0 1.65625,0 2.046875,0.03125 v -0.734375 h -1.1875 v -2.3125 C 3.78125,-3.25 4.046875,-3.484375 4.421875,-3.78125 l 2.09375,2.671875 C 6.625,-0.96875 6.625,-0.9375 6.625,-0.90625 c 0,0.171875 -0.34375,0.171875 -0.578125,0.171875 V 0 c 0.40625,-0.03125 1.546875,-0.03125 2.015625,-0.03125 0.875,0 1.109375,0 1.84375,0.03125 v -0.734375 c -0.28125,0 -0.625,0 -0.8125,-0.015625 -0.25,-0.0625 -0.3125,-0.109375 -0.5,-0.359375 z m 0,0"
             id="path20152" />
        </g>
      </g>
      <g
         clip-path="url(#clipPath5832)"
         id="g20168"
         transform="matrix(0.352778,0,0,0.352778,-0.214974,-6.6143e-4)">
        <g
           fill="#000000"
           fill-opacity="1"
           id="g20166">
          <g
             id="g20160"
             transform="translate(10.222,14.537)">
            <path
               d="m 1.390625,-0.84375 1.15625,-1.125 c 1.703125,-1.5 2.34375,-2.09375 2.34375,-3.171875 0,-1.25 -0.96875,-2.125 -2.3125,-2.125 -1.21875,0 -2.03125,1 -2.03125,1.96875 0,0.625 0.546875,0.625 0.578125,0.625 0.1875,0 0.5625,-0.140625 0.5625,-0.578125 0,-0.296875 -0.1875,-0.578125 -0.578125,-0.578125 -0.078125,0 -0.109375,0 -0.140625,0.015625 0.25,-0.703125 0.84375,-1.109375 1.46875,-1.109375 1,0 1.46875,0.875 1.46875,1.78125 0,0.859375 -0.546875,1.734375 -1.140625,2.40625 l -2.09375,2.328125 c -0.125,0.125 -0.125,0.140625 -0.125,0.40625 H 4.59375 L 4.890625,-1.890625 H 4.625 C 4.5625,-1.578125 4.5,-1.09375 4.390625,-0.921875 4.3125,-0.84375 3.59375,-0.84375 3.34375,-0.84375 Z m 0,0"
               id="path20158" />
          </g>
          <g
             id="g20164"
             transform="translate(15.67655,14.537)">
            <path
               d="m 1.390625,-0.84375 1.15625,-1.125 c 1.703125,-1.5 2.34375,-2.09375 2.34375,-3.171875 0,-1.25 -0.96875,-2.125 -2.3125,-2.125 -1.21875,0 -2.03125,1 -2.03125,1.96875 0,0.625 0.546875,0.625 0.578125,0.625 0.1875,0 0.5625,-0.140625 0.5625,-0.578125 0,-0.296875 -0.1875,-0.578125 -0.578125,-0.578125 -0.078125,0 -0.109375,0 -0.140625,0.015625 0.25,-0.703125 0.84375,-1.109375 1.46875,-1.109375 1,0 1.46875,0.875 1.46875,1.78125 0,0.859375 -0.546875,1.734375 -1.140625,2.40625 l -2.09375,2.328125 c -0.125,0.125 -0.125,0.140625 -0.125,0.40625 H 4.59375 L 4.890625,-1.890625 H 4.625 C 4.5625,-1.578125 4.5,-1.09375 4.390625,-0.921875 4.3125,-0.84375 3.59375,-0.84375 3.34375,-0.84375 Z m 0,0"
               id="path20162" />
          </g>
        </g>
      </g>
    </g>
  </g>
</svg>
