<?xml version="1.0" encoding="UTF-8"?>
<svg xmlns="http://www.w3.org/2000/svg" xmlns:xlink="http://www.w3.org/1999/xlink" width="485pt" height="128pt" viewBox="0 0 485 128" version="1.1">
<g id="surface2773">
<path style="fill-rule:evenodd;fill:rgb(66.4%,66.4%,66.4%);fill-opacity:1;stroke-width:0.4;stroke-linecap:butt;stroke-linejoin:round;stroke:rgb(0%,0%,0%);stroke-opacity:1;stroke-miterlimit:10;" d="M 448 608 L 448 592 L 880 592 L 880 608 Z M 448 608 " transform="matrix(1,0,0,-1,-415,627)"/>
<path style="fill-rule:evenodd;fill:rgb(66.4%,66.4%,66.4%);fill-opacity:1;stroke-width:0.4;stroke-linecap:butt;stroke-linejoin:round;stroke:rgb(0%,0%,0%);stroke-opacity:1;stroke-miterlimit:10;" d="M 536 588 L 528 588 L 528 508 L 536 508 Z M 536 588 " transform="matrix(1,0,0,-1,-415,627)"/>
<path style="fill-rule:evenodd;fill:rgb(66.4%,66.4%,66.4%);fill-opacity:1;stroke-width:0.4;stroke-linecap:butt;stroke-linejoin:round;stroke:rgb(0%,0%,0%);stroke-opacity:1;stroke-miterlimit:10;" d="M 824 588 L 816 588 L 816 544 L 824 544 Z M 824 588 " transform="matrix(1,0,0,-1,-415,627)"/>
<path style="fill-rule:evenodd;fill:rgb(0%,0%,0%);fill-opacity:1;stroke-width:0.4;stroke-linecap:butt;stroke-linejoin:round;stroke:rgb(0%,0%,0%);stroke-opacity:1;stroke-miterlimit:10;" d="M 528 588 L 524 592 L 540 592 L 536 588 Z M 528 588 " transform="matrix(1,0,0,-1,-415,627)"/>
<path style="fill-rule:evenodd;fill:rgb(0%,0%,0%);fill-opacity:1;stroke-width:0.4;stroke-linecap:butt;stroke-linejoin:round;stroke:rgb(0%,0%,0%);stroke-opacity:1;stroke-miterlimit:10;" d="M 816 588 L 812 592 L 828 592 L 824 588 Z M 816 588 " transform="matrix(1,0,0,-1,-415,627)"/>
<path style="fill-rule:evenodd;fill:rgb(66.4%,66.4%,66.4%);fill-opacity:1;stroke-width:0.4;stroke-linecap:butt;stroke-linejoin:round;stroke:rgb(0%,0%,0%);stroke-opacity:1;stroke-miterlimit:10;" d="M 448 608 L 440 600 " transform="matrix(1,0,0,-1,-415,627)"/>
<path style="fill-rule:evenodd;fill:rgb(66.4%,66.4%,66.4%);fill-opacity:1;stroke-width:0.4;stroke-linecap:butt;stroke-linejoin:round;stroke:rgb(0%,0%,0%);stroke-opacity:1;stroke-miterlimit:10;" d="M 448 600 L 440 592 " transform="matrix(1,0,0,-1,-415,627)"/>
<path style="fill-rule:evenodd;fill:rgb(66.4%,66.4%,66.4%);fill-opacity:1;stroke-width:0.4;stroke-linecap:butt;stroke-linejoin:round;stroke:rgb(0%,0%,0%);stroke-opacity:1;stroke-miterlimit:10;" d="M 448 592 L 440 584 " transform="matrix(1,0,0,-1,-415,627)"/>
<path style="fill-rule:evenodd;fill:rgb(66.4%,66.4%,66.4%);fill-opacity:1;stroke-width:0.4;stroke-linecap:butt;stroke-linejoin:round;stroke:rgb(0%,0%,0%);stroke-opacity:1;stroke-miterlimit:10;" d="M 456 592 L 448 584 " transform="matrix(1,0,0,-1,-415,627)"/>
<path style="fill-rule:evenodd;fill:rgb(66.4%,66.4%,66.4%);fill-opacity:1;stroke-width:0.4;stroke-linecap:butt;stroke-linejoin:round;stroke:rgb(0%,0%,0%);stroke-opacity:1;stroke-miterlimit:10;" d="M 464 592 L 456 584 " transform="matrix(1,0,0,-1,-415,627)"/>
<path style="fill:none;stroke-width:0.4;stroke-linecap:butt;stroke-linejoin:round;stroke:rgb(0%,0%,0%);stroke-opacity:1;stroke-miterlimit:10;" d="M 448 608 L 416 608 " transform="matrix(1,0,0,-1,-415,627)"/>
<path style="fill:none;stroke-width:0.4;stroke-linecap:butt;stroke-linejoin:round;stroke:rgb(0%,0%,0%);stroke-opacity:1;stroke-miterlimit:10;" d="M 464 592 L 464 564 " transform="matrix(1,0,0,-1,-415,627)"/>
<path style="fill-rule:evenodd;fill:rgb(66.4%,66.4%,66.4%);fill-opacity:1;stroke-width:0.4;stroke-linecap:butt;stroke-linejoin:round;stroke:rgb(0%,0%,0%);stroke-opacity:1;stroke-miterlimit:10;" d="M 880 604 L 888 596 " transform="matrix(1,0,0,-1,-415,627)"/>
<path style="fill-rule:evenodd;fill:rgb(66.4%,66.4%,66.4%);fill-opacity:1;stroke-width:0.4;stroke-linecap:butt;stroke-linejoin:round;stroke:rgb(0%,0%,0%);stroke-opacity:1;stroke-miterlimit:10;" d="M 868 592 L 876 584 " transform="matrix(1,0,0,-1,-415,627)"/>
<path style="fill:none;stroke-width:0.4;stroke-linecap:butt;stroke-linejoin:round;stroke:rgb(0%,0%,0%);stroke-opacity:1;stroke-miterlimit:10;" d="M 868 592 L 868 564 " transform="matrix(1,0,0,-1,-415,627)"/>
<path style="fill:none;stroke-width:0.4;stroke-linecap:butt;stroke-linejoin:round;stroke:rgb(0%,0%,0%);stroke-opacity:1;stroke-miterlimit:10;" d="M 900 608 L 880 608 " transform="matrix(1,0,0,-1,-415,627)"/>
<path style="fill-rule:evenodd;fill:rgb(66.4%,66.4%,66.4%);fill-opacity:1;stroke-width:0.4;stroke-linecap:butt;stroke-linejoin:round;stroke:rgb(0%,0%,0%);stroke-opacity:1;stroke-miterlimit:10;" d="M 880 592 L 888 584 " transform="matrix(1,0,0,-1,-415,627)"/>
<path style="fill:none;stroke-width:0.4;stroke-linecap:butt;stroke-linejoin:round;stroke:rgb(0%,0%,0%);stroke-opacity:1;stroke-miterlimit:10;" d="M 528 508 C 512 512 504 504 496 508 " transform="matrix(1,0,0,-1,-415,627)"/>
<path style="fill:none;stroke-width:0.4;stroke-linecap:butt;stroke-linejoin:round;stroke:rgb(0%,0%,0%);stroke-opacity:1;stroke-miterlimit:10;" d="M 536 508 C 552 504 556 512 568 504 " transform="matrix(1,0,0,-1,-415,627)"/>
<path style="fill:none;stroke-width:0.4;stroke-linecap:butt;stroke-linejoin:round;stroke:rgb(0%,0%,0%);stroke-opacity:1;stroke-miterlimit:10;" d="M 816 544 C 808 548 792 532 792 544 " transform="matrix(1,0,0,-1,-415,627)"/>
<path style="fill:none;stroke-width:0.4;stroke-linecap:butt;stroke-linejoin:round;stroke:rgb(0%,0%,0%);stroke-opacity:1;stroke-miterlimit:10;" d="M 824 544 C 836 540 844 540 844 536 " transform="matrix(1,0,0,-1,-415,627)"/>
<path style="fill-rule:evenodd;fill:rgb(66.4%,66.4%,66.4%);fill-opacity:1;stroke-width:0.4;stroke-linecap:butt;stroke-linejoin:round;stroke:rgb(0%,0%,0%);stroke-opacity:1;stroke-miterlimit:10;" d="M 512.03125 508.414063 L 504.03125 500.414063 " transform="matrix(1,0,0,-1,-415,627)"/>
<path style="fill-rule:evenodd;fill:rgb(66.4%,66.4%,66.4%);fill-opacity:1;stroke-width:0.4;stroke-linecap:butt;stroke-linejoin:round;stroke:rgb(0%,0%,0%);stroke-opacity:1;stroke-miterlimit:10;" d="M 528 508 L 520 500 " transform="matrix(1,0,0,-1,-415,627)"/>
<path style="fill-rule:evenodd;fill:rgb(66.4%,66.4%,66.4%);fill-opacity:1;stroke-width:0.4;stroke-linecap:butt;stroke-linejoin:round;stroke:rgb(0%,0%,0%);stroke-opacity:1;stroke-miterlimit:10;" d="M 544.09375 506.828125 L 536.09375 498.828125 " transform="matrix(1,0,0,-1,-415,627)"/>
<path style="fill-rule:evenodd;fill:rgb(66.4%,66.4%,66.4%);fill-opacity:1;stroke-width:0.4;stroke-linecap:butt;stroke-linejoin:round;stroke:rgb(0%,0%,0%);stroke-opacity:1;stroke-miterlimit:10;" d="M 559.96875 507.398438 L 551.96875 499.398438 " transform="matrix(1,0,0,-1,-415,627)"/>
<path style="fill-rule:evenodd;fill:rgb(66.4%,66.4%,66.4%);fill-opacity:1;stroke-width:0.4;stroke-linecap:butt;stroke-linejoin:round;stroke:rgb(0%,0%,0%);stroke-opacity:1;stroke-miterlimit:10;" d="M 800.042969 540.566406 L 792.042969 532.566406 " transform="matrix(1,0,0,-1,-415,627)"/>
<path style="fill-rule:evenodd;fill:rgb(66.4%,66.4%,66.4%);fill-opacity:1;stroke-width:0.4;stroke-linecap:butt;stroke-linejoin:round;stroke:rgb(0%,0%,0%);stroke-opacity:1;stroke-miterlimit:10;" d="M 815.941406 543.757813 L 807.941406 535.757813 " transform="matrix(1,0,0,-1,-415,627)"/>
<path style="fill-rule:evenodd;fill:rgb(66.4%,66.4%,66.4%);fill-opacity:1;stroke-width:0.4;stroke-linecap:butt;stroke-linejoin:round;stroke:rgb(0%,0%,0%);stroke-opacity:1;stroke-miterlimit:10;" d="M 831.898438 541.40625 L 823.898438 533.40625 " transform="matrix(1,0,0,-1,-415,627)"/>
<path style="fill-rule:evenodd;fill:rgb(100%,64.7%,0%);fill-opacity:1;stroke-width:0.4;stroke-linecap:butt;stroke-linejoin:round;stroke:rgb(0%,0%,0%);stroke-opacity:1;stroke-miterlimit:10;" d="M 656 608 L 656 616 L 664 616 L 664 608 Z M 656 608 " transform="matrix(1,0,0,-1,-415,627)"/>
<path style="fill:none;stroke-width:0.4;stroke-linecap:butt;stroke-linejoin:round;stroke:rgb(0%,0%,0%);stroke-opacity:1;stroke-miterlimit:10;" d="M 664 620 C 666.667969 620 668 618.667969 668 616 " transform="matrix(1,0,0,-1,-415,627)"/>
<path style="fill:none;stroke-width:0.4;stroke-linecap:butt;stroke-linejoin:round;stroke:rgb(0%,0%,0%);stroke-opacity:1;stroke-miterlimit:10;" d="M 665.289063 623.027344 C 669.503906 623.027344 671.613281 620.917969 671.613281 616.703125 " transform="matrix(1,0,0,-1,-415,627)"/>
<path style="fill:none;stroke-width:0.4;stroke-linecap:butt;stroke-linejoin:round;stroke:rgb(0%,0%,0%);stroke-opacity:1;stroke-miterlimit:10;" d="M 667.132813 625.84375 C 672.46875 625.84375 675.132813 623.179688 675.132813 617.84375 " transform="matrix(1,0,0,-1,-415,627)"/>
</g>
</svg>
