<?xml version="1.0" encoding="UTF-8" standalone="no"?>
<!-- Created with Inkscape (http://www.inkscape.org/) -->

<svg
   width="150mm"
   height="70mm"
   viewBox="0 0 150 70"
   version="1.1"
   id="svg5"
   inkscape:version="1.1.2 (b8e25be833, 2022-02-05)"
   sodipodi:docname="mass with tmd.svg"
   xmlns:inkscape="http://www.inkscape.org/namespaces/inkscape"
   xmlns:sodipodi="http://sodipodi.sourceforge.net/DTD/sodipodi-0.dtd"
   xmlns:xlink="http://www.w3.org/1999/xlink"
   xmlns="http://www.w3.org/2000/svg"
   xmlns:svg="http://www.w3.org/2000/svg">
  <sodipodi:namedview
     id="namedview7"
     pagecolor="#ffffff"
     bordercolor="#666666"
     borderopacity="1.0"
     inkscape:pageshadow="2"
     inkscape:pageopacity="0.0"
     inkscape:pagecheckerboard="0"
     inkscape:document-units="mm"
     showgrid="true"
     inkscape:zoom="1.5554293"
     inkscape:cx="298.63138"
     inkscape:cy="196.08734"
     inkscape:window-width="3840"
     inkscape:window-height="1537"
     inkscape:window-x="-8"
     inkscape:window-y="-8"
     inkscape:window-maximized="1"
     inkscape:current-layer="g386">
    <inkscape:grid
       type="xygrid"
       id="grid824"
       units="mm"
       spacingx="1"
       spacingy="1" />
  </sodipodi:namedview>
  <defs
     id="defs2">
    <marker
       style="overflow:visible;"
       id="Arrow1Lend"
       refX="0.0"
       refY="0.0"
       orient="auto"
       inkscape:stockid="Arrow1Lend"
       inkscape:isstock="true">
      <path
         transform="scale(0.8) rotate(180) translate(12.5,0)"
         style="fill-rule:evenodd;fill:context-stroke;stroke:context-stroke;stroke-width:1.0pt;"
         d="M 0.0,0.0 L 5.0,-5.0 L -12.5,0.0 L 5.0,5.0 L 0.0,0.0 z "
         id="path4789" />
    </marker>
    <g
       id="g8746">
      <symbol
         overflow="visible"
         id="symbol5460">
        <path
           style="stroke:none"
           d=""
           id="path7923" />
      </symbol>
      <symbol
         overflow="visible"
         id="symbol5635">
        <path
           style="stroke:none"
           d="M 3.328125,-2 C 3.3125,-2.03125 3.296875,-2.046875 3.296875,-2.0625 c 0,0 0.125,-0.078125 0.1875,-0.125 C 4.328125,-2.71875 4.625,-2.921875 4.84375,-3.03125 5,-3.09375 5.203125,-3.171875 5.40625,-3.1875 c 0.0625,0 0.140625,0 0.140625,-0.125 0,-0.078125 -0.046875,-0.09375 -0.0625,-0.09375 -0.171875,0.015625 -0.328125,0.015625 -0.4375,0.015625 h -0.3125 c -0.109375,0 -0.21875,-0.015625 -0.3125,-0.015625 -0.09375,0 -0.125,0.0625 -0.125,0.140625 0,0 0,0.078125 0.09375,0.078125 C 4.5,-3.171875 4.5,-3.140625 4.5,-3.125 4.5,-3.078125 4.453125,-3.046875 4.40625,-3 c -0.0625,0.046875 -0.0625,0.046875 -0.125,0.078125 L 2,-1.453125 2.375,-2.984375 C 2.421875,-3.140625 2.421875,-3.1875 2.8125,-3.1875 c 0.125,0 0.140625,0 0.15625,0 C 3,-3.21875 3.015625,-3.28125 3.015625,-3.3125 3.015625,-3.328125 3,-3.40625 2.921875,-3.40625 c -0.109375,0 -0.21875,0.015625 -0.328125,0.015625 -0.125,0 -0.25,0 -0.375,0 -0.125,0 -0.234375,0 -0.359375,0 -0.125,0 -0.25,-0.015625 -0.359375,-0.015625 -0.03125,0 -0.125,0 -0.125,0.140625 0,0.078125 0.0625,0.078125 0.1875,0.078125 0.046875,0 0.21875,0 0.328125,0.03125 0,0.0625 0,0.078125 -0.015625,0.125 l -0.65625,2.625 c -0.046875,0.140625 -0.046875,0.1875 -0.4375,0.1875 -0.125,0 -0.203125,0 -0.203125,0.140625 C 0.578125,-0.046875 0.625,0 0.671875,0 0.78125,0 0.890625,-0.015625 1,-0.015625 c 0.125,0 0.25,0 0.375,0 0.125,0 0.25,0 0.375,0 C 1.859375,-0.015625 1.984375,0 2.09375,0 c 0.03125,0 0.125,0 0.125,-0.140625 0,-0.078125 -0.078125,-0.078125 -0.171875,-0.078125 0,0 -0.125,0 -0.203125,-0.015625 C 1.71875,-0.25 1.703125,-0.25 1.703125,-0.296875 c 0,-0.015625 0.0625,-0.234375 0.09375,-0.359375 0,-0.046875 0.125,-0.5 0.125,-0.515625 C 1.9375,-1.1875 1.9375,-1.203125 2,-1.234375 L 2.796875,-1.75 c 0,0 0.046875,-0.03125 0.046875,-0.03125 0.015625,0 0.015625,0 0.0625,0.078125 l 0.796875,1.28125 C 3.75,-0.34375 3.75,-0.34375 3.75,-0.3125 c 0,0.09375 -0.1875,0.09375 -0.21875,0.09375 -0.0625,0 -0.140625,0 -0.140625,0.140625 C 3.390625,-0.046875 3.421875,0 3.46875,0 3.578125,0 3.703125,-0.015625 3.8125,-0.015625 c 0.109375,0 0.21875,0 0.34375,0 0.09375,0 0.1875,0 0.28125,0 C 4.5,-0.015625 4.703125,0 4.71875,0 4.796875,0 4.828125,-0.0625 4.828125,-0.140625 4.828125,-0.21875 4.75,-0.21875 4.6875,-0.21875 4.5,-0.21875 4.40625,-0.265625 4.328125,-0.390625 Z m 0,0"
           id="path414" />
      </symbol>
      <symbol
         overflow="visible"
         id="symbol3872">
        <path
           style="stroke:none"
           d=""
           id="path9175" />
      </symbol>
      <symbol
         overflow="visible"
         id="symbol842">
        <path
           style="stroke:none"
           d="M 2.9375,-0.96875 H 2.71875 c 0,0.09375 -0.0625,0.40625 -0.140625,0.453125 -0.03125,0.03125 -0.453125,0.03125 -0.53125,0.03125 H 1.078125 C 1.40625,-0.71875 1.765625,-1 2.0625,-1.203125 c 0.453125,-0.3125 0.875,-0.59375 0.875,-1.125 0,-0.640625 -0.609375,-0.984375 -1.3125,-0.984375 -0.671875,0 -1.171875,0.375 -1.171875,0.875 0,0.25 0.21875,0.296875 0.296875,0.296875 0.125,0 0.28125,-0.09375 0.28125,-0.296875 0,-0.171875 -0.125,-0.28125 -0.28125,-0.28125 0.140625,-0.234375 0.4375,-0.375 0.765625,-0.375 0.484375,0 0.890625,0.28125 0.890625,0.765625 0,0.421875 -0.296875,0.75 -0.671875,1.0625 l -1.21875,1.03125 C 0.46875,-0.1875 0.453125,-0.1875 0.453125,-0.15625 V 0 h 2.3125 z m 0,0"
           id="path5869" />
      </symbol>
      <symbol
         overflow="visible"
         id="symbol9033">
        <path
           style="stroke:none"
           d="M 1.984375,-3.171875 C 1.984375,-3.3125 1.96875,-3.3125 1.796875,-3.3125 1.453125,-3 0.890625,-3 0.796875,-3 H 0.71875 v 0.21875 h 0.078125 c 0.109375,0 0.4375,-0.015625 0.734375,-0.140625 v 2.5 c 0,0.140625 0,0.203125 -0.53125,0.203125 H 0.75 V 0 c 0.265625,-0.015625 0.71875,-0.015625 1,-0.015625 0.296875,0 0.734375,0 1.015625,0.015625 v -0.21875 h -0.25 c -0.53125,0 -0.53125,-0.0625 -0.53125,-0.203125 z m 0,0"
           id="path1079" />
      </symbol>
      <symbol
         overflow="visible"
         id="symbol9962">
        <path
           style="stroke:none"
           d=""
           id="path6621" />
      </symbol>
      <symbol
         overflow="visible"
         id="symbol2305">
        <path
           style="stroke:none"
           d="m 1.453125,-1.25 c 0,-0.15625 -0.140625,-0.296875 -0.3125,-0.296875 -0.15625,0 -0.296875,0.140625 -0.296875,0.296875 0,0.171875 0.140625,0.3125 0.296875,0.3125 0.171875,0 0.3125,-0.140625 0.3125,-0.3125 z m 0,0"
           id="path5288" />
      </symbol>
    </g>
    <g
       id="g6823">
      <symbol
         overflow="visible"
         id="symbol715">
        <path
           style="stroke:none"
           d=""
           id="path7655" />
      </symbol>
      <symbol
         overflow="visible"
         id="symbol7868">
        <path
           style="stroke:none"
           d="M 5.078125,-4.03125 C 5.0625,-4.0625 5.03125,-4.140625 5.03125,-4.171875 c 0,0 0.171875,-0.140625 0.28125,-0.21875 l 1.75,-1.34375 C 8,-6.4375 8.390625,-6.46875 8.6875,-6.5 8.765625,-6.515625 8.859375,-6.515625 8.859375,-6.703125 8.859375,-6.734375 8.828125,-6.8125 8.75,-6.8125 c -0.21875,0 -0.46875,0.03125 -0.703125,0.03125 -0.359375,0 -0.75,-0.03125 -1.109375,-0.03125 -0.0625,0 -0.1875,0 -0.1875,0.203125 0,0.0625 0.046875,0.09375 0.125,0.109375 0.21875,0.015625 0.296875,0.0625 0.296875,0.203125 0,0.1875 -0.296875,0.421875 -0.359375,0.46875 L 2.9375,-2.84375 3.734375,-6.046875 C 3.8125,-6.40625 3.84375,-6.5 4.5625,-6.5 c 0.25,0 0.34375,0 0.34375,-0.203125 0,-0.078125 -0.078125,-0.109375 -0.140625,-0.109375 -0.28125,0 -1,0.03125 -1.28125,0.03125 C 3.203125,-6.78125 2.5,-6.8125 2.203125,-6.8125 2.140625,-6.8125 2,-6.8125 2,-6.625 2,-6.5 2.09375,-6.5 2.296875,-6.5 c 0.125,0 0.3125,0.015625 0.421875,0.015625 0.15625,0.03125 0.21875,0.046875 0.21875,0.171875 0,0.03125 0,0.0625 -0.03125,0.1875 L 1.5625,-0.78125 c -0.09375,0.390625 -0.109375,0.46875 -0.90625,0.46875 -0.171875,0 -0.28125,0 -0.28125,0.1875 C 0.375,0 0.5,0 0.53125,0 0.8125,0 1.515625,-0.03125 1.796875,-0.03125 2,-0.03125 2.21875,-0.015625 2.4375,-0.015625 2.65625,-0.015625 2.875,0 3.078125,0 3.15625,0 3.28125,0 3.28125,-0.203125 3.28125,-0.3125 3.1875,-0.3125 3,-0.3125 c -0.375,0 -0.640625,0 -0.640625,-0.171875 0,-0.078125 0.046875,-0.296875 0.078125,-0.4375 C 2.578125,-1.453125 2.71875,-1.96875 2.84375,-2.5 l 1.484375,-1.15625 1.15625,2.6875 c 0.125,0.265625 0.125,0.296875 0.125,0.34375 0,0.3125 -0.4375,0.3125 -0.53125,0.3125 -0.109375,0 -0.21875,0 -0.21875,0.203125 C 4.859375,0 4.984375,0 5,0 5.40625,0 5.828125,-0.03125 6.21875,-0.03125 6.4375,-0.03125 6.984375,0 7.203125,0 7.25,0 7.375,0 7.375,-0.203125 7.375,-0.3125 7.265625,-0.3125 7.171875,-0.3125 c -0.40625,0 -0.53125,-0.09375 -0.6875,-0.4375 z m 0,0"
           id="path1982" />
      </symbol>
      <symbol
         overflow="visible"
         id="symbol7415">
        <path
           style="stroke:none"
           d=""
           id="path6902" />
      </symbol>
      <symbol
         overflow="visible"
         id="symbol6372">
        <path
           style="stroke:none"
           d="M 3.515625,-1.265625 H 3.28125 c -0.015625,0.15625 -0.09375,0.5625 -0.1875,0.625 C 3.046875,-0.59375 2.515625,-0.59375 2.40625,-0.59375 H 1.125 c 0.734375,-0.640625 0.984375,-0.84375 1.390625,-1.171875 0.515625,-0.40625 1,-0.84375 1,-1.5 0,-0.84375 -0.734375,-1.359375 -1.625,-1.359375 -0.859375,0 -1.453125,0.609375 -1.453125,1.25 0,0.34375 0.296875,0.390625 0.375,0.390625 0.15625,0 0.359375,-0.125 0.359375,-0.375 0,-0.125 -0.046875,-0.375 -0.40625,-0.375 C 0.984375,-4.21875 1.453125,-4.375 1.78125,-4.375 c 0.703125,0 1.0625,0.546875 1.0625,1.109375 0,0.609375 -0.4375,1.078125 -0.65625,1.328125 L 0.515625,-0.265625 C 0.4375,-0.203125 0.4375,-0.1875 0.4375,0 h 2.875 z m 0,0"
           id="path8432" />
      </symbol>
    </g>
    <g
       id="g1779">
      <symbol
         overflow="visible"
         id="symbol1565">
        <path
           style="stroke:none"
           d=""
           id="path9253" />
      </symbol>
      <symbol
         overflow="visible"
         id="symbol9997">
        <path
           style="stroke:none"
           d="m 2.859375,-6.8125 c 0,0 0,-0.109375 -0.125,-0.109375 -0.234375,0 -0.953125,0.078125 -1.21875,0.109375 -0.078125,0 -0.1875,0.015625 -0.1875,0.1875 0,0.125 0.09375,0.125 0.234375,0.125 0.484375,0 0.5,0.0625 0.5,0.171875 L 2.03125,-6.125 0.59375,-0.390625 c -0.046875,0.140625 -0.046875,0.15625 -0.046875,0.21875 0,0.234375 0.203125,0.28125 0.296875,0.28125 0.125,0 0.265625,-0.09375 0.328125,-0.203125 0.046875,-0.09375 0.5,-1.9375 0.5625,-2.1875 0.34375,0.03125 1.15625,0.1875 1.15625,0.84375 0,0.078125 0,0.109375 -0.03125,0.21875 -0.015625,0.109375 -0.03125,0.234375 -0.03125,0.34375 0,0.578125 0.390625,0.984375 0.90625,0.984375 0.296875,0 0.578125,-0.15625 0.796875,-0.53125 0.25,-0.4375 0.359375,-0.984375 0.359375,-1 0,-0.109375 -0.09375,-0.109375 -0.125,-0.109375 -0.09375,0 -0.109375,0.046875 -0.140625,0.1875 -0.203125,0.71875 -0.421875,1.234375 -0.859375,1.234375 -0.203125,0 -0.328125,-0.109375 -0.328125,-0.46875 0,-0.171875 0.046875,-0.40625 0.078125,-0.5625 C 3.5625,-1.3125 3.5625,-1.34375 3.5625,-1.453125 3.5625,-2.09375 2.9375,-2.375 2.078125,-2.5 2.390625,-2.671875 2.71875,-2.984375 2.9375,-3.234375 3.421875,-3.765625 3.875,-4.1875 4.359375,-4.1875 c 0.0625,0 0.078125,0 0.09375,0.015625 0.125,0.015625 0.125,0.015625 0.21875,0.078125 0.015625,0 0.015625,0.015625 0.03125,0.03125 -0.46875,0.03125 -0.5625,0.421875 -0.5625,0.546875 0,0.15625 0.109375,0.34375 0.375,0.34375 0.265625,0 0.546875,-0.21875 0.546875,-0.609375 0,-0.296875 -0.234375,-0.625 -0.671875,-0.625 -0.28125,0 -0.734375,0.078125 -1.453125,0.875 -0.34375,0.375 -0.734375,0.78125 -1.109375,0.921875 z m 0,0"
           id="path6770" />
      </symbol>
      <symbol
         overflow="visible"
         id="symbol3712">
        <path
           style="stroke:none"
           d=""
           id="path7881" />
      </symbol>
      <symbol
         overflow="visible"
         id="symbol2309">
        <path
           style="stroke:none"
           d="m 2.328125,-4.4375 c 0,-0.1875 0,-0.1875 -0.203125,-0.1875 -0.453125,0.4375 -1.078125,0.4375 -1.359375,0.4375 v 0.25 c 0.15625,0 0.625,0 1,-0.1875 v 3.546875 c 0,0.234375 0,0.328125 -0.6875,0.328125 H 0.8125 V 0 c 0.125,0 0.984375,-0.03125 1.234375,-0.03125 0.21875,0 1.09375,0.03125 1.25,0.03125 V -0.25 H 3.03125 c -0.703125,0 -0.703125,-0.09375 -0.703125,-0.328125 z m 0,0"
           id="path1954" />
      </symbol>
    </g>
    <g
       id="g9793">
      <symbol
         overflow="visible"
         id="symbol1967">
        <path
           style="stroke:none"
           d=""
           id="path1281" />
      </symbol>
      <symbol
         overflow="visible"
         id="symbol8847">
        <path
           style="stroke:none"
           d="m 2.859375,-6.8125 c 0,0 0,-0.109375 -0.125,-0.109375 -0.234375,0 -0.953125,0.078125 -1.21875,0.109375 -0.078125,0 -0.1875,0.015625 -0.1875,0.1875 0,0.125 0.09375,0.125 0.234375,0.125 0.484375,0 0.5,0.0625 0.5,0.171875 L 2.03125,-6.125 0.59375,-0.390625 c -0.046875,0.140625 -0.046875,0.15625 -0.046875,0.21875 0,0.234375 0.203125,0.28125 0.296875,0.28125 0.125,0 0.265625,-0.09375 0.328125,-0.203125 0.046875,-0.09375 0.5,-1.9375 0.5625,-2.1875 0.34375,0.03125 1.15625,0.1875 1.15625,0.84375 0,0.078125 0,0.109375 -0.03125,0.21875 -0.015625,0.109375 -0.03125,0.234375 -0.03125,0.34375 0,0.578125 0.390625,0.984375 0.90625,0.984375 0.296875,0 0.578125,-0.15625 0.796875,-0.53125 0.25,-0.4375 0.359375,-0.984375 0.359375,-1 0,-0.109375 -0.09375,-0.109375 -0.125,-0.109375 -0.09375,0 -0.109375,0.046875 -0.140625,0.1875 -0.203125,0.71875 -0.421875,1.234375 -0.859375,1.234375 -0.203125,0 -0.328125,-0.109375 -0.328125,-0.46875 0,-0.171875 0.046875,-0.40625 0.078125,-0.5625 C 3.5625,-1.3125 3.5625,-1.34375 3.5625,-1.453125 3.5625,-2.09375 2.9375,-2.375 2.078125,-2.5 2.390625,-2.671875 2.71875,-2.984375 2.9375,-3.234375 3.421875,-3.765625 3.875,-4.1875 4.359375,-4.1875 c 0.0625,0 0.078125,0 0.09375,0.015625 0.125,0.015625 0.125,0.015625 0.21875,0.078125 0.015625,0 0.015625,0.015625 0.03125,0.03125 -0.46875,0.03125 -0.5625,0.421875 -0.5625,0.546875 0,0.15625 0.109375,0.34375 0.375,0.34375 0.265625,0 0.546875,-0.21875 0.546875,-0.609375 0,-0.296875 -0.234375,-0.625 -0.671875,-0.625 -0.28125,0 -0.734375,0.078125 -1.453125,0.875 -0.34375,0.375 -0.734375,0.78125 -1.109375,0.921875 z m 0,0"
           id="path2977" />
      </symbol>
      <symbol
         overflow="visible"
         id="symbol7469">
        <path
           style="stroke:none"
           d=""
           id="path1340" />
      </symbol>
      <symbol
         overflow="visible"
         id="symbol8711">
        <path
           style="stroke:none"
           d="M 3.515625,-1.265625 H 3.28125 c -0.015625,0.15625 -0.09375,0.5625 -0.1875,0.625 C 3.046875,-0.59375 2.515625,-0.59375 2.40625,-0.59375 H 1.125 c 0.734375,-0.640625 0.984375,-0.84375 1.390625,-1.171875 0.515625,-0.40625 1,-0.84375 1,-1.5 0,-0.84375 -0.734375,-1.359375 -1.625,-1.359375 -0.859375,0 -1.453125,0.609375 -1.453125,1.25 0,0.34375 0.296875,0.390625 0.375,0.390625 0.15625,0 0.359375,-0.125 0.359375,-0.375 0,-0.125 -0.046875,-0.375 -0.40625,-0.375 C 0.984375,-4.21875 1.453125,-4.375 1.78125,-4.375 c 0.703125,0 1.0625,0.546875 1.0625,1.109375 0,0.609375 -0.4375,1.078125 -0.65625,1.328125 L 0.515625,-0.265625 C 0.4375,-0.203125 0.4375,-0.1875 0.4375,0 h 2.875 z m 0,0"
           id="path8282" />
      </symbol>
    </g>
    <g
       id="g4067">
      <symbol
         overflow="visible"
         id="symbol8476">
        <path
           style="stroke:none"
           d=""
           id="path4212" />
      </symbol>
      <symbol
         overflow="visible"
         id="symbol6523">
        <path
           style="stroke:none"
           d="m 0.875,-0.59375 c -0.03125,0.15625 -0.09375,0.390625 -0.09375,0.4375 0,0.171875 0.140625,0.265625 0.296875,0.265625 0.125,0 0.296875,-0.078125 0.375,-0.28125 0,-0.015625 0.125,-0.484375 0.1875,-0.734375 l 0.21875,-0.890625 C 1.90625,-2.03125 1.96875,-2.25 2.03125,-2.46875 c 0.03125,-0.171875 0.109375,-0.46875 0.125,-0.5 0.140625,-0.3125 0.671875,-1.21875 1.625,-1.21875 0.453125,0 0.53125,0.375 0.53125,0.703125 0,0.25 -0.0625,0.53125 -0.140625,0.828125 L 3.890625,-1.5 3.6875,-0.75 c -0.03125,0.203125 -0.125,0.546875 -0.125,0.59375 0,0.171875 0.140625,0.265625 0.28125,0.265625 0.3125,0 0.375,-0.25 0.453125,-0.5625 0.140625,-0.5625 0.515625,-2.015625 0.59375,-2.40625 0.03125,-0.125 0.5625,-1.328125 1.65625,-1.328125 0.421875,0 0.53125,0.34375 0.53125,0.703125 0,0.5625 -0.421875,1.703125 -0.625,2.234375 -0.078125,0.234375 -0.125,0.34375 -0.125,0.546875 0,0.46875 0.34375,0.8125 0.8125,0.8125 0.9375,0 1.3125,-1.453125 1.3125,-1.53125 0,-0.109375 -0.09375,-0.109375 -0.125,-0.109375 -0.09375,0 -0.09375,0.03125 -0.140625,0.1875 -0.15625,0.53125 -0.46875,1.234375 -1.015625,1.234375 -0.171875,0 -0.25,-0.09375 -0.25,-0.328125 0,-0.25 0.09375,-0.484375 0.1875,-0.703125 0.1875,-0.53125 0.609375,-1.625 0.609375,-2.203125 0,-0.640625 -0.40625,-1.0625 -1.15625,-1.0625 -0.734375,0 -1.25,0.4375 -1.625,0.96875 0,-0.125 -0.03125,-0.46875 -0.3125,-0.703125 -0.25,-0.21875 -0.5625,-0.265625 -0.8125,-0.265625 -0.90625,0 -1.390625,0.640625 -1.5625,0.875 -0.046875,-0.578125 -0.46875,-0.875 -0.921875,-0.875 -0.453125,0 -0.640625,0.390625 -0.734375,0.5625 -0.171875,0.359375 -0.296875,0.9375 -0.296875,0.96875 0,0.109375 0.09375,0.109375 0.109375,0.109375 0.109375,0 0.109375,-0.015625 0.171875,-0.234375 0.171875,-0.703125 0.375,-1.1875 0.734375,-1.1875 0.15625,0 0.296875,0.078125 0.296875,0.453125 0,0.21875 -0.03125,0.328125 -0.15625,0.84375 z m 0,0"
           id="path9431" />
      </symbol>
      <symbol
         overflow="visible"
         id="symbol5718">
        <path
           style="stroke:none"
           d=""
           id="path5377" />
      </symbol>
      <symbol
         overflow="visible"
         id="symbol1724">
        <path
           style="stroke:none"
           d="m 2.328125,-4.4375 c 0,-0.1875 0,-0.1875 -0.203125,-0.1875 -0.453125,0.4375 -1.078125,0.4375 -1.359375,0.4375 v 0.25 c 0.15625,0 0.625,0 1,-0.1875 v 3.546875 c 0,0.234375 0,0.328125 -0.6875,0.328125 H 0.8125 V 0 c 0.125,0 0.984375,-0.03125 1.234375,-0.03125 0.21875,0 1.09375,0.03125 1.25,0.03125 V -0.25 H 3.03125 c -0.703125,0 -0.703125,-0.09375 -0.703125,-0.328125 z m 0,0"
           id="path5959" />
      </symbol>
    </g>
    <g
       id="g1341">
      <symbol
         overflow="visible"
         id="symbol8194">
        <path
           style="stroke:none"
           d=""
           id="path8929" />
      </symbol>
      <symbol
         overflow="visible"
         id="symbol55">
        <path
           style="stroke:none"
           d="m 0.875,-0.59375 c -0.03125,0.15625 -0.09375,0.390625 -0.09375,0.4375 0,0.171875 0.140625,0.265625 0.296875,0.265625 0.125,0 0.296875,-0.078125 0.375,-0.28125 0,-0.015625 0.125,-0.484375 0.1875,-0.734375 l 0.21875,-0.890625 C 1.90625,-2.03125 1.96875,-2.25 2.03125,-2.46875 c 0.03125,-0.171875 0.109375,-0.46875 0.125,-0.5 0.140625,-0.3125 0.671875,-1.21875 1.625,-1.21875 0.453125,0 0.53125,0.375 0.53125,0.703125 0,0.25 -0.0625,0.53125 -0.140625,0.828125 L 3.890625,-1.5 3.6875,-0.75 c -0.03125,0.203125 -0.125,0.546875 -0.125,0.59375 0,0.171875 0.140625,0.265625 0.28125,0.265625 0.3125,0 0.375,-0.25 0.453125,-0.5625 0.140625,-0.5625 0.515625,-2.015625 0.59375,-2.40625 0.03125,-0.125 0.5625,-1.328125 1.65625,-1.328125 0.421875,0 0.53125,0.34375 0.53125,0.703125 0,0.5625 -0.421875,1.703125 -0.625,2.234375 -0.078125,0.234375 -0.125,0.34375 -0.125,0.546875 0,0.46875 0.34375,0.8125 0.8125,0.8125 0.9375,0 1.3125,-1.453125 1.3125,-1.53125 0,-0.109375 -0.09375,-0.109375 -0.125,-0.109375 -0.09375,0 -0.09375,0.03125 -0.140625,0.1875 -0.15625,0.53125 -0.46875,1.234375 -1.015625,1.234375 -0.171875,0 -0.25,-0.09375 -0.25,-0.328125 0,-0.25 0.09375,-0.484375 0.1875,-0.703125 0.1875,-0.53125 0.609375,-1.625 0.609375,-2.203125 0,-0.640625 -0.40625,-1.0625 -1.15625,-1.0625 -0.734375,0 -1.25,0.4375 -1.625,0.96875 0,-0.125 -0.03125,-0.46875 -0.3125,-0.703125 -0.25,-0.21875 -0.5625,-0.265625 -0.8125,-0.265625 -0.90625,0 -1.390625,0.640625 -1.5625,0.875 -0.046875,-0.578125 -0.46875,-0.875 -0.921875,-0.875 -0.453125,0 -0.640625,0.390625 -0.734375,0.5625 -0.171875,0.359375 -0.296875,0.9375 -0.296875,0.96875 0,0.109375 0.09375,0.109375 0.109375,0.109375 0.109375,0 0.109375,-0.015625 0.171875,-0.234375 0.171875,-0.703125 0.375,-1.1875 0.734375,-1.1875 0.15625,0 0.296875,0.078125 0.296875,0.453125 0,0.21875 -0.03125,0.328125 -0.15625,0.84375 z m 0,0"
           id="path83" />
      </symbol>
      <symbol
         overflow="visible"
         id="symbol8015">
        <path
           style="stroke:none"
           d=""
           id="path478" />
      </symbol>
      <symbol
         overflow="visible"
         id="symbol2408">
        <path
           style="stroke:none"
           d="M 3.515625,-1.265625 H 3.28125 c -0.015625,0.15625 -0.09375,0.5625 -0.1875,0.625 C 3.046875,-0.59375 2.515625,-0.59375 2.40625,-0.59375 H 1.125 c 0.734375,-0.640625 0.984375,-0.84375 1.390625,-1.171875 0.515625,-0.40625 1,-0.84375 1,-1.5 0,-0.84375 -0.734375,-1.359375 -1.625,-1.359375 -0.859375,0 -1.453125,0.609375 -1.453125,1.25 0,0.34375 0.296875,0.390625 0.375,0.390625 0.15625,0 0.359375,-0.125 0.359375,-0.375 0,-0.125 -0.046875,-0.375 -0.40625,-0.375 C 0.984375,-4.21875 1.453125,-4.375 1.78125,-4.375 c 0.703125,0 1.0625,0.546875 1.0625,1.109375 0,0.609375 -0.4375,1.078125 -0.65625,1.328125 L 0.515625,-0.265625 C 0.4375,-0.203125 0.4375,-0.1875 0.4375,0 h 2.875 z m 0,0"
           id="path7562" />
      </symbol>
    </g>
    <g
       id="g1406">
      <symbol
         overflow="visible"
         id="symbol7509">
        <path
           style="stroke:none"
           d=""
           id="path3154" />
      </symbol>
      <symbol
         overflow="visible"
         id="symbol3065">
        <path
           style="stroke:none"
           d="m 3.953125,-3.78125 c -0.171875,0 -0.296875,0 -0.4375,0.125 -0.171875,0.15625 -0.1875,0.328125 -0.1875,0.390625 0,0.25 0.1875,0.359375 0.375,0.359375 0.28125,0 0.546875,-0.25 0.546875,-0.640625 0,-0.484375 -0.46875,-0.859375 -1.171875,-0.859375 -1.34375,0 -2.671875,1.421875 -2.671875,2.828125 0,0.90625 0.578125,1.6875 1.625,1.6875 1.421875,0 2.25,-1.0625 2.25,-1.171875 0,-0.0625 -0.046875,-0.140625 -0.109375,-0.140625 -0.0625,0 -0.078125,0.03125 -0.140625,0.109375 -0.78125,0.984375 -1.875,0.984375 -1.984375,0.984375 -0.625,0 -0.90625,-0.484375 -0.90625,-1.09375 0,-0.40625 0.203125,-1.375 0.546875,-1.984375 0.3125,-0.578125 0.859375,-1 1.40625,-1 0.328125,0 0.71875,0.125 0.859375,0.40625 z m 0,0"
           id="path1902" />
      </symbol>
      <symbol
         overflow="visible"
         id="symbol1940">
        <path
           style="stroke:none"
           d=""
           id="path8576" />
      </symbol>
      <symbol
         overflow="visible"
         id="symbol2">
        <path
           style="stroke:none"
           d="m 2.328125,-4.4375 c 0,-0.1875 0,-0.1875 -0.203125,-0.1875 -0.453125,0.4375 -1.078125,0.4375 -1.359375,0.4375 v 0.25 c 0.15625,0 0.625,0 1,-0.1875 v 3.546875 c 0,0.234375 0,0.328125 -0.6875,0.328125 H 0.8125 V 0 c 0.125,0 0.984375,-0.03125 1.234375,-0.03125 0.21875,0 1.09375,0.03125 1.25,0.03125 V -0.25 H 3.03125 c -0.703125,0 -0.703125,-0.09375 -0.703125,-0.328125 z m 0,0"
           id="path3109" />
      </symbol>
    </g>
    <g
       id="g6174">
      <symbol
         overflow="visible"
         id="symbol9632">
        <path
           style="stroke:none"
           d=""
           id="path3316" />
      </symbol>
      <symbol
         overflow="visible"
         id="symbol8867">
        <path
           style="stroke:none"
           d="m 3.953125,-3.78125 c -0.171875,0 -0.296875,0 -0.4375,0.125 -0.171875,0.15625 -0.1875,0.328125 -0.1875,0.390625 0,0.25 0.1875,0.359375 0.375,0.359375 0.28125,0 0.546875,-0.25 0.546875,-0.640625 0,-0.484375 -0.46875,-0.859375 -1.171875,-0.859375 -1.34375,0 -2.671875,1.421875 -2.671875,2.828125 0,0.90625 0.578125,1.6875 1.625,1.6875 1.421875,0 2.25,-1.0625 2.25,-1.171875 0,-0.0625 -0.046875,-0.140625 -0.109375,-0.140625 -0.0625,0 -0.078125,0.03125 -0.140625,0.109375 -0.78125,0.984375 -1.875,0.984375 -1.984375,0.984375 -0.625,0 -0.90625,-0.484375 -0.90625,-1.09375 0,-0.40625 0.203125,-1.375 0.546875,-1.984375 0.3125,-0.578125 0.859375,-1 1.40625,-1 0.328125,0 0.71875,0.125 0.859375,0.40625 z m 0,0"
           id="path3422" />
      </symbol>
      <symbol
         overflow="visible"
         id="symbol6331">
        <path
           style="stroke:none"
           d=""
           id="path781" />
      </symbol>
      <symbol
         overflow="visible"
         id="symbol9720">
        <path
           style="stroke:none"
           d="M 3.515625,-1.265625 H 3.28125 c -0.015625,0.15625 -0.09375,0.5625 -0.1875,0.625 C 3.046875,-0.59375 2.515625,-0.59375 2.40625,-0.59375 H 1.125 c 0.734375,-0.640625 0.984375,-0.84375 1.390625,-1.171875 0.515625,-0.40625 1,-0.84375 1,-1.5 0,-0.84375 -0.734375,-1.359375 -1.625,-1.359375 -0.859375,0 -1.453125,0.609375 -1.453125,1.25 0,0.34375 0.296875,0.390625 0.375,0.390625 0.15625,0 0.359375,-0.125 0.359375,-0.375 0,-0.125 -0.046875,-0.375 -0.40625,-0.375 C 0.984375,-4.21875 1.453125,-4.375 1.78125,-4.375 c 0.703125,0 1.0625,0.546875 1.0625,1.109375 0,0.609375 -0.4375,1.078125 -0.65625,1.328125 L 0.515625,-0.265625 C 0.4375,-0.203125 0.4375,-0.1875 0.4375,0 h 2.875 z m 0,0"
           id="path3555" />
      </symbol>
    </g>
    <marker
       style="overflow:visible"
       id="Arrow1Lend-3"
       refX="0"
       refY="0"
       orient="auto"
       inkscape:stockid="Arrow1Lend"
       inkscape:isstock="true">
      <path
         transform="matrix(-0.8,0,0,-0.8,-10,0)"
         style="fill:context-stroke;fill-rule:evenodd;stroke:context-stroke;stroke-width:1pt"
         d="M 0,0 5,-5 -12.5,0 5,5 Z"
         id="path4789-1" />
    </marker>
    <marker
       style="overflow:visible"
       id="Arrow1Lend-8"
       refX="0"
       refY="0"
       orient="auto"
       inkscape:stockid="Arrow1Lend"
       inkscape:isstock="true">
      <path
         transform="matrix(-0.8,0,0,-0.8,-10,0)"
         style="fill:context-stroke;fill-rule:evenodd;stroke:context-stroke;stroke-width:1pt"
         d="M 0,0 5,-5 -12.5,0 5,5 Z"
         id="path4789-3" />
    </marker>
    <g
       id="g5763">
      <symbol
         overflow="visible"
         id="symbol5013">
        <path
           style="stroke:none;"
           d=""
           id="path7796" />
      </symbol>
      <symbol
         overflow="visible"
         id="symbol8773">
        <path
           style="stroke:none;"
           d="M 4.84375 -3.796875 C 4.890625 -3.9375 4.890625 -3.953125 4.890625 -4.03125 C 4.890625 -4.203125 4.75 -4.296875 4.59375 -4.296875 C 4.5 -4.296875 4.34375 -4.234375 4.25 -4.09375 C 4.234375 -4.03125 4.140625 -3.734375 4.109375 -3.546875 C 4.03125 -3.296875 3.96875 -3.015625 3.90625 -2.75 L 3.453125 -0.953125 C 3.421875 -0.8125 2.984375 -0.109375 2.328125 -0.109375 C 1.828125 -0.109375 1.71875 -0.546875 1.71875 -0.921875 C 1.71875 -1.375 1.890625 -2 2.21875 -2.875 C 2.375 -3.28125 2.421875 -3.390625 2.421875 -3.59375 C 2.421875 -4.03125 2.109375 -4.40625 1.609375 -4.40625 C 0.65625 -4.40625 0.296875 -2.953125 0.296875 -2.875 C 0.296875 -2.765625 0.390625 -2.765625 0.40625 -2.765625 C 0.515625 -2.765625 0.515625 -2.796875 0.5625 -2.953125 C 0.84375 -3.890625 1.234375 -4.1875 1.578125 -4.1875 C 1.65625 -4.1875 1.828125 -4.1875 1.828125 -3.875 C 1.828125 -3.625 1.71875 -3.359375 1.65625 -3.171875 C 1.25 -2.109375 1.078125 -1.546875 1.078125 -1.078125 C 1.078125 -0.1875 1.703125 0.109375 2.296875 0.109375 C 2.6875 0.109375 3.015625 -0.0625 3.296875 -0.34375 C 3.171875 0.171875 3.046875 0.671875 2.65625 1.203125 C 2.390625 1.53125 2.015625 1.828125 1.5625 1.828125 C 1.421875 1.828125 0.96875 1.796875 0.796875 1.40625 C 0.953125 1.40625 1.09375 1.40625 1.21875 1.28125 C 1.328125 1.203125 1.421875 1.0625 1.421875 0.875 C 1.421875 0.5625 1.15625 0.53125 1.0625 0.53125 C 0.828125 0.53125 0.5 0.6875 0.5 1.171875 C 0.5 1.671875 0.9375 2.046875 1.5625 2.046875 C 2.578125 2.046875 3.609375 1.140625 3.890625 0.015625 Z M 4.84375 -3.796875 "
           id="path900" />
      </symbol>
      <symbol
         overflow="visible"
         id="symbol1503">
        <path
           style="stroke:none;"
           d=""
           id="path4929" />
      </symbol>
      <symbol
         overflow="visible"
         id="symbol4155">
        <path
           style="stroke:none;"
           d="M 3.515625 -1.265625 L 3.28125 -1.265625 C 3.265625 -1.109375 3.1875 -0.703125 3.09375 -0.640625 C 3.046875 -0.59375 2.515625 -0.59375 2.40625 -0.59375 L 1.125 -0.59375 C 1.859375 -1.234375 2.109375 -1.4375 2.515625 -1.765625 C 3.03125 -2.171875 3.515625 -2.609375 3.515625 -3.265625 C 3.515625 -4.109375 2.78125 -4.625 1.890625 -4.625 C 1.03125 -4.625 0.4375 -4.015625 0.4375 -3.375 C 0.4375 -3.03125 0.734375 -2.984375 0.8125 -2.984375 C 0.96875 -2.984375 1.171875 -3.109375 1.171875 -3.359375 C 1.171875 -3.484375 1.125 -3.734375 0.765625 -3.734375 C 0.984375 -4.21875 1.453125 -4.375 1.78125 -4.375 C 2.484375 -4.375 2.84375 -3.828125 2.84375 -3.265625 C 2.84375 -2.65625 2.40625 -2.1875 2.1875 -1.9375 L 0.515625 -0.265625 C 0.4375 -0.203125 0.4375 -0.1875 0.4375 0 L 3.3125 0 Z M 3.515625 -1.265625 "
           id="path6833" />
      </symbol>
    </g>
    <g
       id="g8634">
      <symbol
         overflow="visible"
         id="symbol7116">
        <path
           style="stroke:none;"
           d=""
           id="path7747" />
      </symbol>
      <symbol
         overflow="visible"
         id="symbol5014">
        <path
           style="stroke:none;"
           d="M 4.84375 -3.796875 C 4.890625 -3.9375 4.890625 -3.953125 4.890625 -4.03125 C 4.890625 -4.203125 4.75 -4.296875 4.59375 -4.296875 C 4.5 -4.296875 4.34375 -4.234375 4.25 -4.09375 C 4.234375 -4.03125 4.140625 -3.734375 4.109375 -3.546875 C 4.03125 -3.296875 3.96875 -3.015625 3.90625 -2.75 L 3.453125 -0.953125 C 3.421875 -0.8125 2.984375 -0.109375 2.328125 -0.109375 C 1.828125 -0.109375 1.71875 -0.546875 1.71875 -0.921875 C 1.71875 -1.375 1.890625 -2 2.21875 -2.875 C 2.375 -3.28125 2.421875 -3.390625 2.421875 -3.59375 C 2.421875 -4.03125 2.109375 -4.40625 1.609375 -4.40625 C 0.65625 -4.40625 0.296875 -2.953125 0.296875 -2.875 C 0.296875 -2.765625 0.390625 -2.765625 0.40625 -2.765625 C 0.515625 -2.765625 0.515625 -2.796875 0.5625 -2.953125 C 0.84375 -3.890625 1.234375 -4.1875 1.578125 -4.1875 C 1.65625 -4.1875 1.828125 -4.1875 1.828125 -3.875 C 1.828125 -3.625 1.71875 -3.359375 1.65625 -3.171875 C 1.25 -2.109375 1.078125 -1.546875 1.078125 -1.078125 C 1.078125 -0.1875 1.703125 0.109375 2.296875 0.109375 C 2.6875 0.109375 3.015625 -0.0625 3.296875 -0.34375 C 3.171875 0.171875 3.046875 0.671875 2.65625 1.203125 C 2.390625 1.53125 2.015625 1.828125 1.5625 1.828125 C 1.421875 1.828125 0.96875 1.796875 0.796875 1.40625 C 0.953125 1.40625 1.09375 1.40625 1.21875 1.28125 C 1.328125 1.203125 1.421875 1.0625 1.421875 0.875 C 1.421875 0.5625 1.15625 0.53125 1.0625 0.53125 C 0.828125 0.53125 0.5 0.6875 0.5 1.171875 C 0.5 1.671875 0.9375 2.046875 1.5625 2.046875 C 2.578125 2.046875 3.609375 1.140625 3.890625 0.015625 Z M 4.84375 -3.796875 "
           id="path8028" />
      </symbol>
      <symbol
         overflow="visible"
         id="symbol805">
        <path
           style="stroke:none;"
           d=""
           id="path1519" />
      </symbol>
      <symbol
         overflow="visible"
         id="symbol8268">
        <path
           style="stroke:none;"
           d="M 2.328125 -4.4375 C 2.328125 -4.625 2.328125 -4.625 2.125 -4.625 C 1.671875 -4.1875 1.046875 -4.1875 0.765625 -4.1875 L 0.765625 -3.9375 C 0.921875 -3.9375 1.390625 -3.9375 1.765625 -4.125 L 1.765625 -0.578125 C 1.765625 -0.34375 1.765625 -0.25 1.078125 -0.25 L 0.8125 -0.25 L 0.8125 0 C 0.9375 0 1.796875 -0.03125 2.046875 -0.03125 C 2.265625 -0.03125 3.140625 0 3.296875 0 L 3.296875 -0.25 L 3.03125 -0.25 C 2.328125 -0.25 2.328125 -0.34375 2.328125 -0.578125 Z M 2.328125 -4.4375 "
           id="path5931" />
      </symbol>
    </g>
    <g
       id="g3750">
      <symbol
         overflow="visible"
         id="symbol7922">
        <path
           style="stroke:none;"
           d=""
           id="path4017" />
      </symbol>
      <symbol
         overflow="visible"
         id="symbol6081">
        <path
           style="stroke:none;"
           d="M 4.828125 -4.09375 L 4 -6.078125 C 3.96875 -6.15625 3.953125 -6.203125 3.953125 -6.203125 C 3.953125 -6.265625 4.109375 -6.453125 4.53125 -6.5 C 4.640625 -6.515625 4.734375 -6.515625 4.734375 -6.6875 C 4.734375 -6.8125 4.609375 -6.8125 4.578125 -6.8125 C 4.171875 -6.8125 3.75 -6.78125 3.328125 -6.78125 C 3.078125 -6.78125 2.46875 -6.8125 2.21875 -6.8125 C 2.15625 -6.8125 2.03125 -6.8125 2.03125 -6.609375 C 2.03125 -6.5 2.140625 -6.5 2.265625 -6.5 C 2.859375 -6.5 2.921875 -6.40625 3.015625 -6.1875 L 4.1875 -3.40625 L 2.078125 -1.140625 L 1.953125 -1.03125 C 1.46875 -0.5 1 -0.34375 0.484375 -0.3125 C 0.359375 -0.296875 0.265625 -0.296875 0.265625 -0.109375 C 0.265625 -0.09375 0.265625 0 0.40625 0 C 0.703125 0 1.03125 -0.03125 1.328125 -0.03125 C 1.703125 -0.03125 2.09375 0 2.453125 0 C 2.515625 0 2.625 0 2.625 -0.203125 C 2.625 -0.296875 2.53125 -0.3125 2.515625 -0.3125 C 2.421875 -0.3125 2.109375 -0.34375 2.109375 -0.625 C 2.109375 -0.78125 2.265625 -0.9375 2.375 -1.0625 L 3.40625 -2.140625 L 4.296875 -3.125 L 5.296875 -0.734375 C 5.34375 -0.625 5.359375 -0.625 5.359375 -0.59375 C 5.359375 -0.515625 5.15625 -0.34375 4.78125 -0.3125 C 4.671875 -0.296875 4.578125 -0.296875 4.578125 -0.125 C 4.578125 0 4.6875 0 4.71875 0 C 5 0 5.703125 -0.03125 5.984375 -0.03125 C 6.234375 -0.03125 6.84375 0 7.09375 0 C 7.15625 0 7.28125 0 7.28125 -0.1875 C 7.28125 -0.3125 7.171875 -0.3125 7.09375 -0.3125 C 6.4375 -0.3125 6.40625 -0.34375 6.234375 -0.75 C 5.859375 -1.671875 5.1875 -3.234375 4.953125 -3.828125 C 5.625 -4.53125 6.671875 -5.71875 7 -5.984375 C 7.28125 -6.234375 7.671875 -6.46875 8.265625 -6.5 C 8.390625 -6.515625 8.484375 -6.515625 8.484375 -6.703125 C 8.484375 -6.703125 8.484375 -6.8125 8.359375 -6.8125 C 8.0625 -6.8125 7.71875 -6.78125 7.421875 -6.78125 C 7.046875 -6.78125 6.671875 -6.8125 6.3125 -6.8125 C 6.25 -6.8125 6.125 -6.8125 6.125 -6.609375 C 6.125 -6.546875 6.171875 -6.515625 6.234375 -6.5 C 6.328125 -6.484375 6.640625 -6.46875 6.640625 -6.1875 C 6.640625 -6.046875 6.53125 -5.921875 6.453125 -5.828125 Z M 4.828125 -4.09375 "
           id="path2362" />
      </symbol>
      <symbol
         overflow="visible"
         id="symbol770">
        <path
           style="stroke:none;"
           d=""
           id="path8891" />
      </symbol>
      <symbol
         overflow="visible"
         id="symbol8771">
        <path
           style="stroke:none;"
           d="M 2.328125 -4.4375 C 2.328125 -4.625 2.328125 -4.625 2.125 -4.625 C 1.671875 -4.1875 1.046875 -4.1875 0.765625 -4.1875 L 0.765625 -3.9375 C 0.921875 -3.9375 1.390625 -3.9375 1.765625 -4.125 L 1.765625 -0.578125 C 1.765625 -0.34375 1.765625 -0.25 1.078125 -0.25 L 0.8125 -0.25 L 0.8125 0 C 0.9375 0 1.796875 -0.03125 2.046875 -0.03125 C 2.265625 -0.03125 3.140625 0 3.296875 0 L 3.296875 -0.25 L 3.03125 -0.25 C 2.328125 -0.25 2.328125 -0.34375 2.328125 -0.578125 Z M 2.328125 -4.4375 "
           id="path9845" />
      </symbol>
    </g>
  </defs>
  <g
     inkscape:label="Lag 1"
     inkscape:groupmode="layer"
     id="layer1">
    <rect
       style="opacity:0.99;fill:#ff9955;stroke:#000000;stroke-width:0.302524;stroke-miterlimit:1"
       id="rect848"
       width="73.333336"
       height="24.444445"
       x="31.472183"
       y="28.827755"
       ry="4.8888888" />
    <rect
       style="opacity:0.99;fill:#ff9955;stroke:#000000;stroke-width:0.213917;stroke-miterlimit:1"
       id="rect1024"
       width="22"
       height="12.222222"
       x="60.958298"
       y="11.716653"
       ry="2.4444444" />
    <ellipse
       style="opacity:0.99;fill:#000000;stroke:#000000;stroke-width:0.105364;stroke-miterlimit:1"
       id="path1048"
       cx="65.913063"
       cy="26.47916"
       rx="2.3445659"
       ry="2.318578" />
    <circle
       id="path1165"
       style="fill:#ff9955;stroke:#000000;stroke-width:0.646758"
       cx="62.671799"
       cy="60.271919"
       r="0.0082960846" />
    <circle
       id="path1167"
       style="fill:#ff9955;stroke:#000000;stroke-width:0.646758"
       cx="62.671799"
       cy="60.271919"
       r="0.0082960846" />
    <circle
       id="path1169"
       style="fill:#ff9955;stroke:#000000;stroke-width:0.646758"
       cx="66.641098"
       cy="64.094185"
       r="0.0082960846" />
    <circle
       id="path1171"
       style="fill:#ff9955;stroke:#000000;stroke-width:0.646758"
       cx="66.641098"
       cy="64.094185"
       r="0.0082960846" />
    <circle
       id="path1173"
       style="fill:#ff9955;stroke:#000000;stroke-width:0.646758"
       cx="81.385521"
       cy="22.531063"
       r="0.0082960846" />
    <circle
       id="path1175"
       style="fill:#ff9955;stroke:#000000;stroke-width:0.646758"
       cx="81.385521"
       cy="22.531063"
       r="0.0082960846" />
    <circle
       style="opacity:0.99;fill:#000000;stroke:#000000;stroke-width:0.276166;stroke-miterlimit:1"
       id="path1048-8"
       cx="50.046982"
       cy="59.67733"
       r="6.1111112" />
    <circle
       style="opacity:0.99;fill:#000000;stroke:#000000;stroke-width:0.276166;stroke-miterlimit:1"
       id="path1048-3"
       cx="85.960213"
       cy="59.383308"
       r="6.1111112" />
    <path
       style="fill:none;stroke:#000000;stroke-width:1.76244;stroke-linecap:butt;stroke-linejoin:miter;stroke-miterlimit:4;stroke-dasharray:none;stroke-opacity:1"
       d="M 36.513743,28.82776 V 11.716652"
       id="path1667" />
    <path
       style="fill:none;stroke:#000000;stroke-width:0.647778;stroke-linecap:butt;stroke-linejoin:miter;stroke-miterlimit:4;stroke-dasharray:none;stroke-opacity:1"
       d="m 31.472203,45.796277 h -1.74603 l -1.74603,-2.444442 -3.49207,4.888889 -3.49206,-4.888889 -3.49206,4.888889 -3.492066,-4.888889 -3.49207,4.888889 -1.7460291,-2.444447 H 7.0277558"
       id="path1669" />
    <path
       style="fill:none;stroke:#000000;stroke-width:0.647778;stroke-linecap:butt;stroke-linejoin:miter;stroke-miterlimit:4;stroke-dasharray:none;stroke-opacity:1"
       d="M 31.472203,36.30369 H 7.0277538"
       id="path1784" />
    <path
       style="fill:none;stroke:#000000;stroke-width:0.646758px;stroke-linecap:butt;stroke-linejoin:miter;stroke-opacity:1"
       d="m 21.694423,38.748137 h -2.44445 v -4.888891 h 2.44445"
       id="path1899" />
    <path
       style="fill:none;stroke:#000000;stroke-width:1.61947;stroke-linecap:butt;stroke-linejoin:miter;stroke-miterlimit:4;stroke-dasharray:none;stroke-opacity:1"
       d="M 7.0277538,28.82776 V 65.494429 H 117.02754"
       id="path2014" />
    <path
       style="fill:none;stroke:#000000;stroke-width:0.647778;stroke-linecap:butt;stroke-linejoin:miter;stroke-miterlimit:4;stroke-dasharray:none;stroke-opacity:1"
       d="m 60.958183,21.49443 h -1.74601 l -1.74605,-2.444442 -3.49206,4.888889 -3.49206,-4.888889 -3.49206,4.888889 -3.49206,-4.888889 -3.49208,4.888889 -1.74602,-2.444447 h -1.74604"
       id="path1669-9" />
    <path
       style="fill:none;stroke:#000000;stroke-width:0.647778;stroke-linecap:butt;stroke-linejoin:miter;stroke-miterlimit:4;stroke-dasharray:none;stroke-opacity:1"
       d="M 60.958183,14.161096 H 36.513743"
       id="path1784-2" />
    <path
       style="fill:none;stroke:#000000;stroke-width:0.646758px;stroke-linecap:butt;stroke-linejoin:miter;stroke-opacity:1"
       d="m 51.180413,16.605543 h -2.44445 v -4.888891 h 2.44445"
       id="path1899-7" />
    <ellipse
       style="opacity:0.99;fill:#000000;stroke:#000000;stroke-width:0.105364;stroke-miterlimit:1"
       id="path1048-2"
       cx="78.27774"
       cy="26.47916"
       rx="2.3445659"
       ry="2.318578" />
    <g
       inkscape:label=""
       transform="translate(-186.536, -27.2085)"
       id="g2858">
      <g
         inkscape:label=""
         transform="translate(-3.46046, -5.07916)"
         id="g3081">
        <g
           id="g9260">
          <g
             style="fill:#000000;fill-opacity:1"
             id="g386"
             transform="matrix(0.349967 0 0 0.349967 193.661 56.6215)">
            <g
               inkscape:label=""
               transform="matrix(2.85741,0,0,2.85741,-822.29876,-180.10206)"
               id="g3396">
              <g
                 id="g3277">
                <g
                   style="fill:#000000;fill-opacity:1"
                   id="g7669">
                  <use
                     xlink:href="#symbol9997"
                     x="301.172"
                     y="93.917999"
                     id="use3272"
                     width="100%"
                     height="100%" />
                </g>
                <g
                   style="fill:#000000;fill-opacity:1"
                   id="g4727">
                  <use
                     xlink:href="#symbol2309"
                     x="306.35901"
                     y="95.412003"
                     id="use4038"
                     width="100%"
                     height="100%" />
                </g>
              </g>
            </g>
            <g
               inkscape:label=""
               transform="matrix(2.85741,0,0,2.85741,-736.02606,-251.79512)"
               id="g3585">
              <g
                 id="g3013">
                <g
                   style="fill:#000000;fill-opacity:1"
                   id="g9299">
                  <use
                     xlink:href="#symbol8847"
                     x="301.172"
                     y="93.917999"
                     id="use3411"
                     width="100%"
                     height="100%" />
                </g>
                <g
                   style="fill:#000000;fill-opacity:1"
                   id="g4854">
                  <use
                     xlink:href="#symbol8711"
                     x="306.35901"
                     y="95.412003"
                     id="use8178"
                     width="100%"
                     height="100%" />
                </g>
              </g>
            </g>
            <g
               inkscape:label=""
               transform="matrix(2.85741,0,0,2.85741,-685.23335,-218.50038)"
               id="g3801">
              <g
                 id="g3455">
                <g
                   style="fill:#000000;fill-opacity:1"
                   id="g7013">
                  <use
                     xlink:href="#symbol6523"
                     x="299.392"
                     y="93.917999"
                     id="use491"
                     width="100%"
                     height="100%" />
                </g>
                <g
                   style="fill:#000000;fill-opacity:1"
                   id="g4845">
                  <use
                     xlink:href="#symbol1724"
                     x="308.13901"
                     y="95.412003"
                     id="use882"
                     width="100%"
                     height="100%" />
                </g>
              </g>
            </g>
            <g
               inkscape:label=""
               transform="matrix(2.85741,0,0,2.85741,-677.94252,-285.57593)"
               id="g4047">
              <g
                 id="g1072">
                <g
                   style="fill:#000000;fill-opacity:1"
                   id="g839">
                  <use
                     xlink:href="#symbol55"
                     x="299.392"
                     y="93.917999"
                     id="use7437"
                     width="100%"
                     height="100%" />
                </g>
                <g
                   style="fill:#000000;fill-opacity:1"
                   id="g1394">
                  <use
                     xlink:href="#symbol2408"
                     x="308.13901"
                     y="95.412003"
                     id="use28"
                     width="100%"
                     height="100%" />
                </g>
              </g>
            </g>
            <g
               inkscape:label=""
               transform="matrix(2.85741,0,0,2.85741,-825.46012,-261.51622)"
               id="g4323">
              <g
                 id="g4798">
                <g
                   style="fill:#000000;fill-opacity:1"
                   id="g5607">
                  <use
                     xlink:href="#symbol3065"
                     x="301.60999"
                     y="93.917999"
                     id="use8840"
                     width="100%"
                     height="100%" />
                </g>
                <g
                   style="fill:#000000;fill-opacity:1"
                   id="g4695">
                  <use
                     xlink:href="#symbol2"
                     x="305.92099"
                     y="95.412003"
                     id="use1114"
                     width="100%"
                     height="100%" />
                </g>
              </g>
            </g>
            <g
               inkscape:label=""
               transform="matrix(2.85741,0,0,2.85741,-739.91449,-314.98223)"
               id="g4629">
              <g
                 id="g1957">
                <g
                   style="fill:#000000;fill-opacity:1"
                   id="g7213">
                  <use
                     xlink:href="#symbol8867"
                     x="301.60999"
                     y="93.917999"
                     id="use3472"
                     width="100%"
                     height="100%" />
                </g>
                <g
                   style="fill:#000000;fill-opacity:1"
                   id="g9628">
                  <use
                     xlink:href="#symbol9720"
                     x="305.92099"
                     y="95.412003"
                     id="use2775"
                     width="100%"
                     height="100%" />
                </g>
              </g>
            </g>
            <path
               style="fill:none;stroke:#000000;stroke-width:0.756024px;stroke-linecap:butt;stroke-linejoin:miter;stroke-opacity:1;marker-end:url(#Arrow1Lend)"
               d="m 227.38593,-18.098475 h 51.43342"
               id="path4704"
               sodipodi:nodetypes="cc" />
            <path
               style="fill:none;fill-opacity:1;stroke:#000000;stroke-width:0.756024px;stroke-linecap:butt;stroke-linejoin:miter;stroke-opacity:1;marker-end:url(#Arrow1Lend-3)"
               d="m 352.07636,49.812692 h 51.43342"
               id="path4704-8"
               sodipodi:nodetypes="cc" />
            <path
               style="fill:none;fill-opacity:1;stroke:#000000;stroke-width:0.756024px;stroke-linecap:butt;stroke-linejoin:miter;stroke-opacity:1;marker-end:url(#Arrow1Lend-8)"
               d="m 290.26086,49.634099 h 51.43342"
               id="path4704-9"
               sodipodi:nodetypes="cc" />
            <g
               inkscape:label=""
               transform="matrix(2.85741,0,0,2.85741,-550.59785,-231.38807)"
               id="g5602">
              <g
                 id="g3513">
                <g
                   style="fill:#000000;fill-opacity:1"
                   id="g1875">
                  <use
                     xlink:href="#symbol8773"
                     x="301.323"
                     y="93.917999"
                     id="use4813"
                     width="100%"
                     height="100%" />
                </g>
                <g
                   style="fill:#000000;fill-opacity:1"
                   id="g7075">
                  <use
                     xlink:href="#symbol4155"
                     x="306.20801"
                     y="95.412003"
                     id="use3296"
                     width="100%"
                     height="100%" />
                </g>
              </g>
            </g>
            <g
               inkscape:label=""
               transform="matrix(2.85741,0,0,2.85741,-614.27301,-298.94957)"
               id="g6029">
              <g
                 id="g352">
                <g
                   style="fill:#000000;fill-opacity:1"
                   id="g6133">
                  <use
                     xlink:href="#symbol5014"
                     x="301.323"
                     y="93.917999"
                     id="use9009"
                     width="100%"
                     height="100%" />
                </g>
                <g
                   style="fill:#000000;fill-opacity:1"
                   id="g8134">
                  <use
                     xlink:href="#symbol8268"
                     x="306.20801"
                     y="95.412003"
                     id="use8494"
                     width="100%"
                     height="100%" />
                </g>
              </g>
            </g>
            <g
               inkscape:label=""
               transform="matrix(2.85741,0,0,2.85741,-490.81512,-227.98559)"
               id="g6443">
              <g
                 id="g2121">
                <g
                   style="fill:#000000;fill-opacity:1"
                   id="g3803">
                  <use
                     xlink:href="#symbol6081"
                     x="299.638"
                     y="93.917999"
                     id="use938"
                     width="100%"
                     height="100%" />
                </g>
                <g
                   style="fill:#000000;fill-opacity:1"
                   id="g4960">
                  <use
                     xlink:href="#symbol8771"
                     x="307.892"
                     y="95.412003"
                     id="use377"
                     width="100%"
                     height="100%" />
                </g>
              </g>
            </g>
          </g>
        </g>
      </g>
    </g>
  </g>
</svg>
