<?xml version="1.0" encoding="UTF-8" standalone="no"?>
<!-- Created with Inkscape (http://www.inkscape.org/) -->

<svg
   width="120mm"
   height="75mm"
   viewBox="0 0 120 75"
   version="1.1"
   id="svg5"
   sodipodi:docname="Fig_5_1.svg"
   inkscape:version="1.2.1 (9c6d41e410, 2022-07-14)"
   xmlns:inkscape="http://www.inkscape.org/namespaces/inkscape"
   xmlns:sodipodi="http://sodipodi.sourceforge.net/DTD/sodipodi-0.dtd"
   xmlns="http://www.w3.org/2000/svg"
   xmlns:svg="http://www.w3.org/2000/svg">
  <sodipodi:namedview
     id="namedview7"
     pagecolor="#ffffff"
     bordercolor="#000000"
     borderopacity="0.25"
     inkscape:showpageshadow="2"
     inkscape:pageopacity="0.0"
     inkscape:pagecheckerboard="0"
     inkscape:deskcolor="#d1d1d1"
     inkscape:document-units="mm"
     showgrid="true"
     showguides="false"
     inkscape:zoom="2.0510461"
     inkscape:cx="262.54894"
     inkscape:cy="170.8884"
     inkscape:window-width="1920"
     inkscape:window-height="1001"
     inkscape:window-x="-9"
     inkscape:window-y="-9"
     inkscape:window-maximized="1"
     inkscape:current-layer="layer1">
    <inkscape:grid
       type="xygrid"
       id="grid2501"
       units="mm"
       spacingx="0.99999999"
       spacingy="0.99999999"
       empspacing="10"
       originx="0"
       originy="0" />
  </sodipodi:namedview>
  <defs
     id="defs2">
    <marker
       style="overflow:visible"
       id="TriangleStart"
       refX="0"
       refY="0"
       orient="auto-start-reverse"
       inkscape:stockid="TriangleStart"
       markerWidth="5.3244081"
       markerHeight="6.155385"
       viewBox="0 0 5.3244081 6.1553851"
       inkscape:isstock="true"
       inkscape:collect="always"
       preserveAspectRatio="xMidYMid">
      <path
         transform="scale(0.5)"
         style="fill:context-stroke;fill-rule:evenodd;stroke:context-stroke;stroke-width:1pt"
         d="M 5.77,0 -2.88,5 V -5 Z"
         id="path135" />
    </marker>
    <clipPath
       id="clipPath4541">
      <path
         clip-rule="nonzero"
         d="m 9,3 h 3 V 8.300781 H 9 Z m 0,0"
         id="path9282" />
    </clipPath>
    <clipPath
       id="clipPath7198">
      <path
         clip-rule="nonzero"
         d="M 0,0 H 7.832031 V 6.808594 H 0 Z m 0,0"
         id="path7278" />
    </clipPath>
    <clipPath
       id="clipPath8163">
      <path
         clip-rule="nonzero"
         d="M 0,0 H 5.5 V 6.917969 H 0 Z m 0,0"
         id="path799" />
    </clipPath>
    <clipPath
       id="clipPath5691">
      <path
         clip-rule="nonzero"
         d="M 0,0 H 8.746094 V 4.289063 H 0 Z m 0,0"
         id="path7939" />
    </clipPath>
    <clipPath
       id="clipPath6775">
      <path
         clip-rule="nonzero"
         d="M 0,0 H 10 V 5.148438 H 0 Z m 0,0"
         id="path5029" />
    </clipPath>
    <clipPath
       id="clipPath9562">
      <path
         clip-rule="nonzero"
         d="M 0,0 H 12 V 6.175781 H 0 Z m 0,0"
         id="path9046" />
    </clipPath>
    <clipPath
       id="clipPath469">
      <path
         clip-rule="nonzero"
         d="M 0,0 H 12 V 6.175781 H 0 Z m 0,0"
         id="path9899" />
    </clipPath>
    <clipPath
       id="clipPath4803">
      <path
         clip-rule="nonzero"
         d="M 0,0 H 6 V 6.175781 H 0 Z m 0,0"
         id="path4243" />
    </clipPath>
    <clipPath
       id="clipPath5868">
      <path
         clip-rule="nonzero"
         d="M 0,0 H 7.785156 V 9.964844 H 0 Z m 0,0"
         id="path3811" />
    </clipPath>
  </defs>
  <g
     inkscape:label="Lag 1"
     inkscape:groupmode="layer"
     id="layer1">
    <path
       style="fill:#916f6f;stroke:#000000;stroke-width:0.4"
       d="m 20,20 c 0,30 0,30 0,30 h 80 v 5 H 15 V 20 h 5"
       id="path4422" />
    <path
       style="fill:#ff7f2a;stroke:#000000;stroke-width:0.4"
       d="M 50,44.999999 V 25 h 29.999999 l -10e-7,19.999999 z"
       id="path4424"
       sodipodi:nodetypes="ccccc" />
    <path
       style="fill:none;stroke:#000000;stroke-width:0.4"
       d="M 20,39.999999 26,40"
       id="path4426"
       sodipodi:nodetypes="cc" />
    <path
       style="fill:none;stroke:#000000;stroke-width:0.4"
       d="M 50,39.999999 44,40"
       id="path4428"
       sodipodi:nodetypes="cc" />
    <path
       style="fill:none;stroke:#000000;stroke-width:0.4"
       d="M 26,40 26.999999,38 29,42 30.999998,38 33,42 34.999998,38 37,42 38.999998,38 41,42 l 1.999998,-4 1.000001,1.999999"
       id="path4540"
       sodipodi:nodetypes="ccccccccccc" />
    <path
       style="fill:none;stroke:#000000;stroke-width:0.4"
       d="M 19.999999,30 H 50"
       id="path4638" />
    <path
       style="fill:none;stroke:#000000;stroke-width:0.4"
       d="m 37,31.999999 h -2.000002 v -4 L 37,28"
       id="path4640" />
    <circle
       style="fill:#ffccaa;stroke:#000000;stroke-width:0.4"
       id="path4694"
       cx="55.087502"
       cy="47.5"
       r="2.5" />
    <circle
       style="fill:#ffccaa;stroke:#000000;stroke-width:0.4"
       id="path4694-7"
       cx="65.20417"
       cy="47.5"
       r="2.5" />
    <circle
       style="fill:#ffccaa;stroke:#000000;stroke-width:0.4"
       id="path4694-9"
       cx="75.20417"
       cy="47.5"
       r="2.5" />
    <path
       style="fill:#ffccaa;stroke:#000000;stroke-width:0.4;marker-end:url(#TriangleStart)"
       d="M 79.999998,34.999998 H 99.999997"
       id="path4785" />
    <g
       inkscape:label=""
       transform="translate(90.86037,29.940078)"
       id="g5418">
      <g
         fill="#000000"
         fill-opacity="1"
         id="g19"
         transform="matrix(0.352778,0,0,0.352778,-0.0937066,0.00158747)">
        <g
           id="use17"
           transform="translate(0,6.8080001)">
          <path
             d="M 4.828125,-4.09375 4,-6.078125 c -0.03125,-0.078125 -0.046875,-0.125 -0.046875,-0.125 0,-0.0625 0.15625,-0.25 0.578125,-0.296875 0.109375,-0.015625 0.203125,-0.015625 0.203125,-0.1875 0,-0.125 -0.125,-0.125 -0.15625,-0.125 -0.40625,0 -0.828125,0.03125 -1.25,0.03125 -0.25,0 -0.859375,-0.03125 -1.109375,-0.03125 -0.0625,0 -0.1875,0 -0.1875,0.203125 C 2.03125,-6.5 2.140625,-6.5 2.265625,-6.5 c 0.59375,0 0.65625,0.09375 0.75,0.3125 l 1.171875,2.78125 -2.109375,2.265625 -0.125,0.109375 C 1.46875,-0.5 1,-0.34375 0.484375,-0.3125 c -0.125,0.015625 -0.21875,0.015625 -0.21875,0.203125 0,0.015625 0,0.109375 0.140625,0.109375 0.296875,0 0.625,-0.03125 0.921875,-0.03125 C 1.703125,-0.03125 2.09375,0 2.453125,0 2.515625,0 2.625,0 2.625,-0.203125 2.625,-0.296875 2.53125,-0.3125 2.515625,-0.3125 c -0.09375,0 -0.40625,-0.03125 -0.40625,-0.3125 0,-0.15625 0.15625,-0.3125 0.265625,-0.4375 L 3.40625,-2.140625 4.296875,-3.125 l 1,2.390625 c 0.046875,0.109375 0.0625,0.109375 0.0625,0.140625 0,0.078125 -0.203125,0.25 -0.578125,0.28125 C 4.671875,-0.296875 4.578125,-0.296875 4.578125,-0.125 4.578125,0 4.6875,0 4.71875,0 5,0 5.703125,-0.03125 5.984375,-0.03125 6.234375,-0.03125 6.84375,0 7.09375,0 c 0.0625,0 0.1875,0 0.1875,-0.1875 0,-0.125 -0.109375,-0.125 -0.1875,-0.125 -0.65625,0 -0.6875,-0.03125 -0.859375,-0.4375 C 5.859375,-1.671875 5.1875,-3.234375 4.953125,-3.828125 5.625,-4.53125 6.671875,-5.71875 7,-5.984375 7.28125,-6.234375 7.671875,-6.46875 8.265625,-6.5 c 0.125,-0.015625 0.21875,-0.015625 0.21875,-0.203125 0,0 0,-0.109375 -0.125,-0.109375 -0.296875,0 -0.640625,0.03125 -0.9375,0.03125 -0.375,0 -0.75,-0.03125 -1.109375,-0.03125 -0.0625,0 -0.1875,0 -0.1875,0.203125 0,0.0625 0.046875,0.09375 0.109375,0.109375 0.09375,0.015625 0.40625,0.03125 0.40625,0.3125 0,0.140625 -0.109375,0.265625 -0.1875,0.359375 z m 0,0"
             id="path31" />
        </g>
      </g>
      <g
         clip-path="url(#clipPath4541)"
         id="g25"
         transform="matrix(0.352778,0,0,0.352778,-0.0937066,0.00158747)">
        <g
           fill="#000000"
           fill-opacity="1"
           id="g23">
          <g
             id="use21"
             transform="translate(8.2539997,8.302)">
            <path
               d="m 2.328125,-4.4375 c 0,-0.1875 0,-0.1875 -0.203125,-0.1875 -0.453125,0.4375 -1.078125,0.4375 -1.359375,0.4375 v 0.25 c 0.15625,0 0.625,0 1,-0.1875 v 3.546875 c 0,0.234375 0,0.328125 -0.6875,0.328125 H 0.8125 V 0 c 0.125,0 0.984375,-0.03125 1.234375,-0.03125 0.21875,0 1.09375,0.03125 1.25,0.03125 V -0.25 H 3.03125 c -0.703125,0 -0.703125,-0.09375 -0.703125,-0.328125 z m 0,0"
               id="path35" />
          </g>
        </g>
      </g>
    </g>
    <g
       inkscape:label=""
       transform="translate(62.875063,33.619205)"
       id="g10517">
      <g
         clip-path="url(#clipPath469)"
         id="g17"
         transform="matrix(0.352778,0,0,0.352778,-0.137804,0.0533135)">
        <g
           fill="#000000"
           fill-opacity="1"
           id="g15">
          <g
             id="use13"
             transform="translate(0,6.177)">
            <path
               d="M 2.953125,-4.203125 C 2.984375,-4.28125 3.34375,-5 3.875,-5.46875 c 0.375,-0.34375 0.859375,-0.5625 1.421875,-0.5625 0.5625,0 0.765625,0.421875 0.765625,1 0,0.078125 0,0.375 -0.171875,1.046875 l -0.359375,1.46875 c -0.109375,0.4375 -0.375,1.5 -0.40625,1.65625 -0.0625,0.21875 -0.140625,0.59375 -0.140625,0.640625 0,0.203125 0.15625,0.359375 0.359375,0.359375 0.4375,0 0.515625,-0.328125 0.640625,-0.84375 L 6.84375,-4.125 C 6.875,-4.25 7.609375,-6.03125 9.1875,-6.03125 c 0.578125,0 0.78125,0.421875 0.78125,1 0,0.796875 -0.5625,2.359375 -0.875,3.21875 -0.125,0.34375 -0.203125,0.53125 -0.203125,0.796875 0,0.640625 0.453125,1.15625 1.140625,1.15625 1.328125,0 1.828125,-2.109375 1.828125,-2.1875 0,-0.078125 -0.04687,-0.140625 -0.140625,-0.140625 -0.125,0 -0.140625,0.046875 -0.21875,0.296875 -0.328125,1.140625 -0.859375,1.75 -1.4375,1.75 -0.140625,0 -0.359375,-0.015625 -0.359375,-0.46875 0,-0.375 0.171875,-0.84375 0.21875,-1 0.265625,-0.6875 0.90625,-2.375 0.90625,-3.203125 0,-0.875 -0.5,-1.515625 -1.59375,-1.515625 -0.953125,0 -1.734375,0.546875 -2.3125,1.390625 -0.03125,-0.765625 -0.515625,-1.390625 -1.59375,-1.390625 -1.265625,0 -1.9375,0.90625 -2.203125,1.265625 C 3.078125,-5.875 2.5,-6.328125 1.859375,-6.328125 c -0.40625,0 -0.734375,0.203125 -1.015625,0.75 -0.25,0.515625 -0.453125,1.390625 -0.453125,1.453125 0,0.046875 0.046875,0.125 0.15625,0.125 0.109375,0 0.125,-0.015625 0.21875,-0.34375 0.203125,-0.84375 0.484375,-1.6875 1.0625,-1.6875 0.328125,0 0.4375,0.21875 0.4375,0.65625 0,0.3125 -0.140625,0.875 -0.25,1.3125 L 1.625,-2.515625 c -0.0625,0.28125 -0.21875,0.921875 -0.296875,1.1875 -0.09375,0.359375 -0.25,1.046875 -0.25,1.109375 0,0.203125 0.15625,0.359375 0.375,0.359375 0.171875,0 0.375,-0.078125 0.484375,-0.296875 0.03125,-0.078125 0.15625,-0.578125 0.234375,-0.859375 l 0.3125,-1.296875 z m 0,0"
               id="path23" />
          </g>
        </g>
      </g>
    </g>
    <g
       inkscape:label=""
       transform="translate(35.145616,24.946686)"
       id="g11371">
      <g
         clip-path="url(#clipPath4803)"
         id="g11369"
         transform="matrix(0.352778,0,0,0.352778,-0.20395,0.0533135)">
        <g
           fill="#000000"
           fill-opacity="1"
           id="g11367">
          <g
             id="g11365"
             transform="translate(0,6.177)">
            <path
               d="m 5.609375,-5.390625 c -0.28125,0 -0.40625,0 -0.609375,0.171875 -0.078125,0.0625 -0.234375,0.28125 -0.234375,0.515625 0,0.28125 0.21875,0.453125 0.484375,0.453125 0.34375,0 0.734375,-0.28125 0.734375,-0.859375 0,-0.6875 -0.65625,-1.21875 -1.65625,-1.21875 -1.875,0 -3.75,2.046875 -3.75,4.09375 0,1.25 0.765625,2.375 2.234375,2.375 C 4.765625,0.140625 6,-1.375 6,-1.5625 6,-1.65625 5.90625,-1.71875 5.859375,-1.71875 c -0.046875,0 -0.0625,0.015625 -0.1875,0.140625 -0.921875,1.21875 -2.28125,1.4375 -2.828125,1.4375 -1,0 -1.3125,-0.859375 -1.3125,-1.578125 0,-0.5 0.25,-1.890625 0.765625,-2.875 0.375,-0.671875 1.140625,-1.4375 2.046875,-1.4375 0.1875,0 0.984375,0.015625 1.265625,0.640625 z m 0,0"
               id="path11363" />
          </g>
        </g>
      </g>
    </g>
    <g
       inkscape:label=""
       transform="translate(33.947178,34.120354)"
       id="g12239">
      <g
         clip-path="url(#clipPath5868)"
         id="g12237"
         transform="matrix(0.352778,0,0,0.352778,-0.275608,-0.00348379)">
        <g
           fill="#000000"
           fill-opacity="1"
           id="g12235">
          <g
             id="g12233"
             transform="translate(0,9.9630003)">
            <path
               d="m 4.03125,-9.59375 c 0.015625,-0.0625 0.046875,-0.140625 0.046875,-0.21875 0,-0.140625 -0.140625,-0.140625 -0.171875,-0.140625 -0.015625,0 -0.53125,0.046875 -0.796875,0.0625 C 2.875,-9.875 2.65625,-9.84375 2.390625,-9.828125 c -0.34375,0.03125 -0.4375,0.046875 -0.4375,0.296875 0,0.15625 0.140625,0.15625 0.28125,0.15625 0.734375,0 0.734375,0.125 0.734375,0.265625 0,0.0625 0,0.09375 -0.078125,0.34375 L 0.84375,-0.5625 c -0.0625,0.21875 -0.0625,0.25 -0.0625,0.328125 0,0.328125 0.25,0.375 0.390625,0.375 0.40625,0 0.484375,-0.3125 0.609375,-0.75 l 0.671875,-2.6875 c 1.03125,0.109375 1.65625,0.546875 1.65625,1.234375 0,0.078125 0,0.140625 -0.046875,0.359375 C 4,-1.484375 4,-1.3125 4,-1.25 c 0,0.828125 0.546875,1.390625 1.28125,1.390625 0.65625,0 1,-0.59375 1.109375,-0.796875 0.3125,-0.53125 0.5,-1.34375 0.5,-1.390625 0,-0.078125 -0.0625,-0.140625 -0.15625,-0.140625 -0.125,0 -0.140625,0.0625 -0.1875,0.296875 -0.203125,0.75 -0.515625,1.75 -1.234375,1.75 -0.296875,0 -0.484375,-0.140625 -0.484375,-0.6875 0,-0.28125 0.0625,-0.59375 0.125,-0.8125 C 5,-1.890625 5,-1.90625 5,-2.078125 c 0,-0.84375 -0.75,-1.328125 -2.078125,-1.5 0.515625,-0.3125 1.03125,-0.875 1.234375,-1.078125 0.828125,-0.921875 1.375,-1.375 2.046875,-1.375 0.328125,0 0.40625,0.078125 0.515625,0.171875 C 6.1875,-5.8125 5.984375,-5.4375 5.984375,-5.15625 c 0,0.34375 0.265625,0.46875 0.46875,0.46875 0.390625,0 0.734375,-0.328125 0.734375,-0.796875 0,-0.40625 -0.328125,-0.84375 -0.984375,-0.84375 -0.78125,0 -1.421875,0.5625 -2.4375,1.703125 -0.15625,0.171875 -0.6875,0.71875 -1.21875,0.921875 z m 0,0"
               id="path12231" />
          </g>
        </g>
      </g>
    </g>
  </g>
</svg>
