<?xml version="1.0" encoding="UTF-8" standalone="no"?>
<!-- Created with Inkscape (http://www.inkscape.org/) -->

<svg
   width="90mm"
   height="130mm"
   viewBox="0 0 90 130"
   version="1.1"
   id="svg14920"
   inkscape:version="1.2.1 (9c6d41e410, 2022-07-14)"
   sodipodi:docname="Fig_5_2.svg"
   xmlns:inkscape="http://www.inkscape.org/namespaces/inkscape"
   xmlns:sodipodi="http://sodipodi.sourceforge.net/DTD/sodipodi-0.dtd"
   xmlns="http://www.w3.org/2000/svg"
   xmlns:svg="http://www.w3.org/2000/svg">
  <sodipodi:namedview
     id="namedview14922"
     pagecolor="#ffffff"
     bordercolor="#000000"
     borderopacity="0.25"
     inkscape:showpageshadow="2"
     inkscape:pageopacity="0.0"
     inkscape:pagecheckerboard="0"
     inkscape:deskcolor="#d1d1d1"
     inkscape:document-units="mm"
     showgrid="true"
     inkscape:zoom="1.4503086"
     inkscape:cx="152.72611"
     inkscape:cy="312.00255"
     inkscape:window-width="1920"
     inkscape:window-height="1001"
     inkscape:window-x="-9"
     inkscape:window-y="-9"
     inkscape:window-maximized="1"
     inkscape:current-layer="layer1">
    <inkscape:grid
       type="xygrid"
       id="grid16136"
       units="mm"
       spacingx="5"
       spacingy="5"
       empspacing="2"
       originx="0"
       originy="0" />
  </sodipodi:namedview>
  <defs
     id="defs14917">
    <marker
       style="overflow:visible"
       id="marker20518"
       refX="0"
       refY="0"
       orient="auto-start-reverse"
       inkscape:stockid="TriangleStart"
       markerWidth="5.3244081"
       markerHeight="6.155385"
       viewBox="0 0 5.3244081 6.1553851"
       inkscape:isstock="true"
       inkscape:collect="always"
       preserveAspectRatio="xMidYMid">
      <path
         transform="scale(0.5)"
         style="fill:context-stroke;fill-rule:evenodd;stroke:context-stroke;stroke-width:1pt"
         d="M 5.77,0 -2.88,5 V -5 Z"
         id="path20516" />
    </marker>
    <marker
       style="overflow:visible"
       id="marker20436"
       refX="0"
       refY="0"
       orient="auto-start-reverse"
       inkscape:stockid="TriangleStart"
       markerWidth="5.3244081"
       markerHeight="6.155385"
       viewBox="0 0 5.3244081 6.1553851"
       inkscape:isstock="true"
       inkscape:collect="always"
       preserveAspectRatio="xMidYMid">
      <path
         transform="scale(0.5)"
         style="fill:context-stroke;fill-rule:evenodd;stroke:context-stroke;stroke-width:1pt"
         d="M 5.77,0 -2.88,5 V -5 Z"
         id="path20434" />
    </marker>
    <marker
       style="overflow:visible"
       id="marker20372"
       refX="0"
       refY="0"
       orient="auto-start-reverse"
       inkscape:stockid="TriangleStart"
       markerWidth="5.3244081"
       markerHeight="6.155385"
       viewBox="0 0 5.3244081 6.1553851"
       inkscape:isstock="true"
       inkscape:collect="always"
       preserveAspectRatio="xMidYMid">
      <path
         transform="scale(0.5)"
         style="fill:context-stroke;fill-rule:evenodd;stroke:context-stroke;stroke-width:1pt"
         d="M 5.77,0 -2.88,5 V -5 Z"
         id="path20370" />
    </marker>
    <marker
       style="overflow:visible"
       id="marker20326"
       refX="0"
       refY="0"
       orient="auto-start-reverse"
       inkscape:stockid="TriangleStart"
       markerWidth="5.3244081"
       markerHeight="6.155385"
       viewBox="0 0 5.3244081 6.1553851"
       inkscape:isstock="true"
       inkscape:collect="always"
       preserveAspectRatio="xMidYMid">
      <path
         transform="scale(0.5)"
         style="fill:context-stroke;fill-rule:evenodd;stroke:context-stroke;stroke-width:1pt"
         d="M 5.77,0 -2.88,5 V -5 Z"
         id="path20324" />
    </marker>
    <marker
       style="overflow:visible"
       id="TriangleStart"
       refX="0"
       refY="0"
       orient="auto-start-reverse"
       inkscape:stockid="TriangleStart"
       markerWidth="5.3244081"
       markerHeight="6.155385"
       viewBox="0 0 5.3244081 6.1553851"
       inkscape:isstock="true"
       inkscape:collect="always"
       preserveAspectRatio="xMidYMid">
      <path
         transform="scale(0.5)"
         style="fill:context-stroke;fill-rule:evenodd;stroke:context-stroke;stroke-width:1pt"
         d="M 5.77,0 -2.88,5 V -5 Z"
         id="path135" />
    </marker>
    <clipPath
       id="clipPath5135">
      <path
         clip-rule="nonzero"
         d="M 0,0 H 7 V 8.964844 H 0 Z m 0,0"
         id="path4580" />
    </clipPath>
    <clipPath
       id="clipPath4015">
      <path
         clip-rule="nonzero"
         d="m 7,1 h 5 V 8.964844 H 7 Z m 0,0"
         id="path6743" />
    </clipPath>
    <clipPath
       id="clipPath5120">
      <path
         clip-rule="nonzero"
         d="M 0,0 H 7 V 8.964844 H 0 Z m 0,0"
         id="path5426" />
    </clipPath>
    <clipPath
       id="clipPath9362">
      <path
         clip-rule="nonzero"
         d="m 7,1 h 5 V 8.964844 H 7 Z m 0,0"
         id="path7376" />
    </clipPath>
    <clipPath
       id="clipPath2892">
      <path
         clip-rule="nonzero"
         d="M 0,0 H 7 V 8.964844 H 0 Z m 0,0"
         id="path6079" />
    </clipPath>
    <clipPath
       id="clipPath8761">
      <path
         clip-rule="nonzero"
         d="m 7,1 h 5 V 8.964844 H 7 Z m 0,0"
         id="path6706" />
    </clipPath>
    <clipPath
       id="clipPath3006">
      <path
         clip-rule="nonzero"
         d="M 0,0 H 7 V 8.964844 H 0 Z m 0,0"
         id="path7626" />
    </clipPath>
    <clipPath
       id="clipPath3987">
      <path
         clip-rule="nonzero"
         d="m 7,1 h 5 V 8.964844 H 7 Z m 0,0"
         id="path951" />
    </clipPath>
    <clipPath
       id="clipPath9781">
      <path
         clip-rule="nonzero"
         d="M 0,0 H 7 V 8.964844 H 0 Z m 0,0"
         id="path7848" />
    </clipPath>
    <clipPath
       id="clipPath3093">
      <path
         clip-rule="nonzero"
         d="m 7,1 h 5 V 8.964844 H 7 Z m 0,0"
         id="path5838" />
    </clipPath>
    <clipPath
       id="clipPath9826">
      <path
         clip-rule="nonzero"
         d="m 12,5 h 4 v 6.953125 h -4 z m 0,0"
         id="path5288" />
    </clipPath>
    <clipPath
       id="clipPath3557">
      <path
         clip-rule="nonzero"
         d="m 12,5 h 5 v 6.953125 h -5 z m 0,0"
         id="path164" />
    </clipPath>
    <clipPath
       id="clipPath2374">
      <path
         clip-rule="nonzero"
         d="m 11,5 h 6 v 6.953125 h -6 z m 0,0"
         id="path2307" />
    </clipPath>
    <clipPath
       id="clipPath6918">
      <path
         clip-rule="nonzero"
         d="M 0,0 H 7 V 9.246094 H 0 Z m 0,0"
         id="path9661" />
    </clipPath>
    <clipPath
       id="clipPath2692">
      <path
         clip-rule="nonzero"
         d="M 7,2 H 19 V 9.246094 H 7 Z m 0,0"
         id="path7356" />
    </clipPath>
  </defs>
  <g
     inkscape:label="Lag 1"
     inkscape:groupmode="layer"
     id="layer1">
    <path
       style="fill:#ffccaa;stroke:#000000;stroke-width:0.4"
       d="M 10,20 V 120"
       id="path18684"
       sodipodi:nodetypes="cc" />
    <path
       style="fill:#ffccaa;stroke:#000000;stroke-width:0.4"
       d="M 30,120 V 20"
       id="path18686"
       sodipodi:nodetypes="cc" />
    <path
       style="fill:#ffccaa;stroke:#ff7f2a;stroke-width:2;stroke-dasharray:none"
       d="M 10,20 H 30"
       id="path18688" />
    <path
       style="fill:#ffccaa;stroke:#ff7f2a;stroke-width:2;stroke-dasharray:none"
       d="M 10,39.999999 H 30"
       id="path18690" />
    <path
       style="fill:#ffccaa;stroke:#ff7f2a;stroke-width:2;stroke-dasharray:none"
       d="M 10,59.999998 H 30"
       id="path18692" />
    <path
       style="fill:#ffccaa;stroke:#ff7f2a;stroke-width:2;stroke-dasharray:none"
       d="M 10,79.999998 H 30"
       id="path18694" />
    <path
       style="fill:#ffccaa;stroke:#ff7f2a;stroke-width:2;stroke-dasharray:none"
       d="M 10,100 H 30"
       id="path18696" />
    <path
       style="fill:#ffccaa;stroke:#1a1a1a;stroke-width:0.2;stroke-dasharray:none"
       d="M 7.9999998,120 H 12"
       id="path19478" />
    <path
       style="fill:#ffccaa;stroke:#1a1a1a;stroke-width:0.2;stroke-dasharray:none"
       d="m 7.9999998,120 -0.9999999,1"
       id="path19534" />
    <path
       style="fill:#ffccaa;stroke:#1a1a1a;stroke-width:0.2;stroke-dasharray:none"
       d="m 8.9999999,120 -1.0000001,1"
       id="path19536" />
    <path
       style="fill:#ffccaa;stroke:#1a1a1a;stroke-width:0.2;stroke-dasharray:none"
       d="m 9.9999997,120 -0.9999998,1"
       id="path19538" />
    <path
       style="fill:#ffccaa;stroke:#1a1a1a;stroke-width:0.2;stroke-dasharray:none"
       d="m 11,120 -1.0000003,1"
       id="path19540" />
    <path
       style="fill:#ffccaa;stroke:#1a1a1a;stroke-width:0.2;stroke-dasharray:none"
       d="m 12,120 -1,1"
       id="path19542" />
    <path
       style="fill:#ffccaa;stroke:#1a1a1a;stroke-width:0.2;stroke-dasharray:none"
       d="m 27.999999,120 h 4"
       id="path19546" />
    <path
       style="fill:#ffccaa;stroke:#1a1a1a;stroke-width:0.2;stroke-dasharray:none"
       d="m 27.999999,120 -1,1"
       id="path19548" />
    <path
       style="fill:#ffccaa;stroke:#1a1a1a;stroke-width:0.2;stroke-dasharray:none"
       d="m 29,120 -1.000001,1"
       id="path19550" />
    <path
       style="fill:#ffccaa;stroke:#1a1a1a;stroke-width:0.2;stroke-dasharray:none"
       d="m 30,120 -1,1"
       id="path19552" />
    <path
       style="fill:#ffccaa;stroke:#1a1a1a;stroke-width:0.2;stroke-dasharray:none"
       d="M 30.999998,120 30,121"
       id="path19554" />
    <path
       style="fill:#ffccaa;stroke:#1a1a1a;stroke-width:0.2;stroke-dasharray:none"
       d="m 31.999999,120 -1.000001,1"
       id="path19556" />
    <path
       style="fill:#ffccaa;stroke:#1a1a1a;stroke-width:0.2;stroke-dasharray:none;marker-end:url(#TriangleStart)"
       d="m 30,20 h 9.999999"
       id="path20288" />
    <path
       style="fill:#ffccaa;stroke:#1a1a1a;stroke-width:0.2;stroke-dasharray:none;marker-end:url(#marker20326)"
       d="m 30,39.999999 h 9.999999"
       id="path20290" />
    <path
       style="fill:#ffccaa;stroke:#1a1a1a;stroke-width:0.2;stroke-dasharray:none;marker-end:url(#marker20372)"
       d="m 30,59.999998 h 9.999999"
       id="path20292" />
    <path
       style="fill:#ffccaa;stroke:#1a1a1a;stroke-width:0.2;stroke-dasharray:none;marker-end:url(#marker20436)"
       d="m 30,79.999998 h 9.999999"
       id="path20294" />
    <path
       style="fill:#ffccaa;stroke:#1a1a1a;stroke-width:0.2;stroke-dasharray:none;marker-end:url(#marker20518)"
       d="m 30,100 h 9.999999"
       id="path20296" />
    <path
       style="fill:#ffccaa;stroke:#1a1a1a;stroke-width:0.2;stroke-dasharray:none;marker-end:url(#marker20372)"
       d="M 44.999999,79.999998 H 59.999998"
       id="path20616" />
    <path
       style="fill:#ffccaa;stroke:#1a1a1a;stroke-width:0.2;stroke-dasharray:none;marker-end:url(#marker20372)"
       d="M 44.999999,39.999999 H 59.999998"
       id="path20618" />
    <g
       inkscape:label=""
       transform="translate(34.366102,95.347266)"
       id="g21239">
      <g
         clip-path="url(#clipPath5135)"
         id="g24"
         transform="matrix(0.352778,0,0,0.352778,-0.137804,0.0536663)">
        <g
           fill="#000000"
           fill-opacity="1"
           id="g22">
          <g
             id="use20"
             transform="translate(0,6.1760001)">
            <path
               d="m 3.765625,1.609375 c -0.375,0.546875 -0.9375,1.03125 -1.640625,1.03125 -0.171875,0 -0.859375,-0.03125 -1.078125,-0.6875 C 1.09375,1.96875 1.15625,1.96875 1.1875,1.96875 c 0.4375,0 0.71875,-0.375 0.71875,-0.703125 C 1.90625,0.9375 1.640625,0.8125 1.421875,0.8125 1.1875,0.8125 0.6875,0.984375 0.6875,1.6875 c 0,0.734375 0.625,1.234375 1.4375,1.234375 1.4375,0 2.875,-1.3125 3.28125,-2.90625 l 1.40625,-5.59375 c 0.015625,-0.078125 0.046875,-0.15625 0.046875,-0.25 0,-0.203125 -0.171875,-0.359375 -0.390625,-0.359375 -0.125,0 -0.4375,0.0625 -0.546875,0.5 l -1.0625,4.203125 c -0.0625,0.265625 -0.0625,0.296875 -0.1875,0.453125 -0.28125,0.40625 -0.75,0.890625 -1.4375,0.890625 -0.8125,0 -0.875,-0.796875 -0.875,-1.171875 0,-0.828125 0.375,-1.921875 0.765625,-2.96875 0.15625,-0.40625 0.25,-0.609375 0.25,-0.890625 0,-0.609375 -0.4375,-1.15625 -1.140625,-1.15625 -1.3125,0 -1.84375,2.078125 -1.84375,2.203125 0,0.046875 0.046875,0.125 0.15625,0.125 C 0.671875,-4 0.6875,-4.0625 0.75,-4.265625 1.09375,-5.46875 1.640625,-6.03125 2.1875,-6.03125 c 0.140625,0 0.375,0 0.375,0.46875 0,0.375 -0.15625,0.78125 -0.375,1.328125 -0.703125,1.875 -0.703125,2.359375 -0.703125,2.703125 0,1.359375 0.984375,1.671875 1.703125,1.671875 0.40625,0 0.921875,-0.125 1.4375,-0.65625 L 4.640625,-0.5 c -0.21875,0.84375 -0.359375,1.40625 -0.875,2.109375 z m 0,0"
               id="path36" />
          </g>
        </g>
      </g>
      <g
         clip-path="url(#clipPath4015)"
         id="g30"
         transform="matrix(0.352778,0,0,0.352778,-0.137804,0.0536663)">
        <g
           fill="#000000"
           fill-opacity="1"
           id="g28">
          <g
             id="use26"
             transform="translate(6.849,8.3280001)">
            <path
               d="m 2.9375,-6.375 c 0,-0.25 0,-0.265625 -0.234375,-0.265625 C 2.078125,-6 1.203125,-6 0.890625,-6 v 0.3125 c 0.203125,0 0.78125,0 1.296875,-0.265625 v 5.171875 c 0,0.359375 -0.03125,0.46875 -0.921875,0.46875 h -0.3125 V 0 c 0.34375,-0.03125 1.203125,-0.03125 1.609375,-0.03125 0.390625,0 1.265625,0 1.609375,0.03125 v -0.3125 h -0.3125 c -0.90625,0 -0.921875,-0.109375 -0.921875,-0.46875 z m 0,0"
               id="path40" />
          </g>
        </g>
      </g>
    </g>
    <g
       inkscape:label=""
       transform="translate(33.606847,75.69957)"
       id="g22203">
      <g
         clip-path="url(#clipPath5120)"
         id="g22193"
         transform="matrix(0.352778,0,0,0.352778,-0.137804,0.0536663)">
        <g
           fill="#000000"
           fill-opacity="1"
           id="g22191">
          <g
             id="g22189"
             transform="translate(0,6.1760001)">
            <path
               d="m 3.765625,1.609375 c -0.375,0.546875 -0.9375,1.03125 -1.640625,1.03125 -0.171875,0 -0.859375,-0.03125 -1.078125,-0.6875 C 1.09375,1.96875 1.15625,1.96875 1.1875,1.96875 c 0.4375,0 0.71875,-0.375 0.71875,-0.703125 C 1.90625,0.9375 1.640625,0.8125 1.421875,0.8125 1.1875,0.8125 0.6875,0.984375 0.6875,1.6875 c 0,0.734375 0.625,1.234375 1.4375,1.234375 1.4375,0 2.875,-1.3125 3.28125,-2.90625 l 1.40625,-5.59375 c 0.015625,-0.078125 0.046875,-0.15625 0.046875,-0.25 0,-0.203125 -0.171875,-0.359375 -0.390625,-0.359375 -0.125,0 -0.4375,0.0625 -0.546875,0.5 l -1.0625,4.203125 c -0.0625,0.265625 -0.0625,0.296875 -0.1875,0.453125 -0.28125,0.40625 -0.75,0.890625 -1.4375,0.890625 -0.8125,0 -0.875,-0.796875 -0.875,-1.171875 0,-0.828125 0.375,-1.921875 0.765625,-2.96875 0.15625,-0.40625 0.25,-0.609375 0.25,-0.890625 0,-0.609375 -0.4375,-1.15625 -1.140625,-1.15625 -1.3125,0 -1.84375,2.078125 -1.84375,2.203125 0,0.046875 0.046875,0.125 0.15625,0.125 C 0.671875,-4 0.6875,-4.0625 0.75,-4.265625 1.09375,-5.46875 1.640625,-6.03125 2.1875,-6.03125 c 0.140625,0 0.375,0 0.375,0.46875 0,0.375 -0.15625,0.78125 -0.375,1.328125 -0.703125,1.875 -0.703125,2.359375 -0.703125,2.703125 0,1.359375 0.984375,1.671875 1.703125,1.671875 0.40625,0 0.921875,-0.125 1.4375,-0.65625 L 4.640625,-0.5 c -0.21875,0.84375 -0.359375,1.40625 -0.875,2.109375 z m 0,0"
               id="path22187" />
          </g>
        </g>
      </g>
      <g
         clip-path="url(#clipPath9362)"
         id="g22201"
         transform="matrix(0.352778,0,0,0.352778,-0.137804,0.0536663)">
        <g
           fill="#000000"
           fill-opacity="1"
           id="g22199">
          <g
             id="g22197"
             transform="translate(6.849,8.3280001)">
            <path
               d="m 1.265625,-0.765625 1.0625,-1.03125 c 1.546875,-1.375 2.140625,-1.90625 2.140625,-2.90625 0,-1.140625 -0.890625,-1.9375 -2.109375,-1.9375 -1.125,0 -1.859375,0.921875 -1.859375,1.8125 0,0.546875 0.5,0.546875 0.53125,0.546875 0.171875,0 0.515625,-0.109375 0.515625,-0.53125 0,-0.25 -0.1875,-0.515625 -0.53125,-0.515625 -0.078125,0 -0.09375,0 -0.125,0.015625 0.21875,-0.65625 0.765625,-1.015625 1.34375,-1.015625 0.90625,0 1.328125,0.8125 1.328125,1.625 C 3.5625,-3.90625 3.078125,-3.125 2.515625,-2.5 l -1.90625,2.125 C 0.5,-0.265625 0.5,-0.234375 0.5,0 H 4.203125 L 4.46875,-1.734375 H 4.234375 C 4.171875,-1.4375 4.109375,-1 4,-0.84375 3.9375,-0.765625 3.28125,-0.765625 3.0625,-0.765625 Z m 0,0"
               id="path22195" />
          </g>
        </g>
      </g>
    </g>
    <g
       inkscape:label=""
       transform="translate(33.199925,55.821525)"
       id="g23189">
      <g
         clip-path="url(#clipPath2892)"
         id="g23179"
         transform="matrix(0.352778,0,0,0.352778,-0.137804,0.0536663)">
        <g
           fill="#000000"
           fill-opacity="1"
           id="g23177">
          <g
             id="g23175"
             transform="translate(0,6.1760001)">
            <path
               d="m 3.765625,1.609375 c -0.375,0.546875 -0.9375,1.03125 -1.640625,1.03125 -0.171875,0 -0.859375,-0.03125 -1.078125,-0.6875 C 1.09375,1.96875 1.15625,1.96875 1.1875,1.96875 c 0.4375,0 0.71875,-0.375 0.71875,-0.703125 C 1.90625,0.9375 1.640625,0.8125 1.421875,0.8125 1.1875,0.8125 0.6875,0.984375 0.6875,1.6875 c 0,0.734375 0.625,1.234375 1.4375,1.234375 1.4375,0 2.875,-1.3125 3.28125,-2.90625 l 1.40625,-5.59375 c 0.015625,-0.078125 0.046875,-0.15625 0.046875,-0.25 0,-0.203125 -0.171875,-0.359375 -0.390625,-0.359375 -0.125,0 -0.4375,0.0625 -0.546875,0.5 l -1.0625,4.203125 c -0.0625,0.265625 -0.0625,0.296875 -0.1875,0.453125 -0.28125,0.40625 -0.75,0.890625 -1.4375,0.890625 -0.8125,0 -0.875,-0.796875 -0.875,-1.171875 0,-0.828125 0.375,-1.921875 0.765625,-2.96875 0.15625,-0.40625 0.25,-0.609375 0.25,-0.890625 0,-0.609375 -0.4375,-1.15625 -1.140625,-1.15625 -1.3125,0 -1.84375,2.078125 -1.84375,2.203125 0,0.046875 0.046875,0.125 0.15625,0.125 C 0.671875,-4 0.6875,-4.0625 0.75,-4.265625 1.09375,-5.46875 1.640625,-6.03125 2.1875,-6.03125 c 0.140625,0 0.375,0 0.375,0.46875 0,0.375 -0.15625,0.78125 -0.375,1.328125 -0.703125,1.875 -0.703125,2.359375 -0.703125,2.703125 0,1.359375 0.984375,1.671875 1.703125,1.671875 0.40625,0 0.921875,-0.125 1.4375,-0.65625 L 4.640625,-0.5 c -0.21875,0.84375 -0.359375,1.40625 -0.875,2.109375 z m 0,0"
               id="path23173" />
          </g>
        </g>
      </g>
      <g
         clip-path="url(#clipPath8761)"
         id="g23187"
         transform="matrix(0.352778,0,0,0.352778,-0.137804,0.0536663)">
        <g
           fill="#000000"
           fill-opacity="1"
           id="g23185">
          <g
             id="g23183"
             transform="translate(6.849,8.3280001)">
            <path
               d="m 2.890625,-3.515625 c 0.8125,-0.265625 1.390625,-0.953125 1.390625,-1.75 0,-0.8125 -0.875,-1.375 -1.828125,-1.375 -1,0 -1.765625,0.59375 -1.765625,1.359375 0,0.328125 0.21875,0.515625 0.515625,0.515625 0.296875,0 0.5,-0.21875 0.5,-0.515625 0,-0.484375 -0.46875,-0.484375 -0.609375,-0.484375 0.296875,-0.5 0.953125,-0.625 1.3125,-0.625 0.421875,0 0.96875,0.21875 0.96875,1.109375 0,0.125 -0.03125,0.703125 -0.28125,1.140625 C 2.796875,-3.65625 2.453125,-3.625 2.203125,-3.625 2.125,-3.609375 1.890625,-3.59375 1.8125,-3.59375 c -0.078125,0.015625 -0.140625,0.03125 -0.140625,0.125 0,0.109375 0.0625,0.109375 0.234375,0.109375 h 0.4375 c 0.8125,0 1.1875,0.671875 1.1875,1.65625 0,1.359375 -0.6875,1.640625 -1.125,1.640625 -0.4375,0 -1.1875,-0.171875 -1.53125,-0.75 0.34375,0.046875 0.65625,-0.171875 0.65625,-0.546875 0,-0.359375 -0.265625,-0.5625 -0.546875,-0.5625 -0.25,0 -0.5625,0.140625 -0.5625,0.578125 0,0.90625 0.921875,1.5625 2.015625,1.5625 1.21875,0 2.125,-0.90625 2.125,-1.921875 0,-0.8125 -0.640625,-1.59375 -1.671875,-1.8125 z m 0,0"
               id="path23181" />
          </g>
        </g>
      </g>
    </g>
    <g
       inkscape:label=""
       transform="translate(32.670758,35.713179)"
       id="g24201">
      <g
         clip-path="url(#clipPath3006)"
         id="g24191"
         transform="matrix(0.352778,0,0,0.352778,-0.137804,0.0536663)">
        <g
           fill="#000000"
           fill-opacity="1"
           id="g24189">
          <g
             id="g24187"
             transform="translate(0,6.1760001)">
            <path
               d="m 3.765625,1.609375 c -0.375,0.546875 -0.9375,1.03125 -1.640625,1.03125 -0.171875,0 -0.859375,-0.03125 -1.078125,-0.6875 C 1.09375,1.96875 1.15625,1.96875 1.1875,1.96875 c 0.4375,0 0.71875,-0.375 0.71875,-0.703125 C 1.90625,0.9375 1.640625,0.8125 1.421875,0.8125 1.1875,0.8125 0.6875,0.984375 0.6875,1.6875 c 0,0.734375 0.625,1.234375 1.4375,1.234375 1.4375,0 2.875,-1.3125 3.28125,-2.90625 l 1.40625,-5.59375 c 0.015625,-0.078125 0.046875,-0.15625 0.046875,-0.25 0,-0.203125 -0.171875,-0.359375 -0.390625,-0.359375 -0.125,0 -0.4375,0.0625 -0.546875,0.5 l -1.0625,4.203125 c -0.0625,0.265625 -0.0625,0.296875 -0.1875,0.453125 -0.28125,0.40625 -0.75,0.890625 -1.4375,0.890625 -0.8125,0 -0.875,-0.796875 -0.875,-1.171875 0,-0.828125 0.375,-1.921875 0.765625,-2.96875 0.15625,-0.40625 0.25,-0.609375 0.25,-0.890625 0,-0.609375 -0.4375,-1.15625 -1.140625,-1.15625 -1.3125,0 -1.84375,2.078125 -1.84375,2.203125 0,0.046875 0.046875,0.125 0.15625,0.125 C 0.671875,-4 0.6875,-4.0625 0.75,-4.265625 1.09375,-5.46875 1.640625,-6.03125 2.1875,-6.03125 c 0.140625,0 0.375,0 0.375,0.46875 0,0.375 -0.15625,0.78125 -0.375,1.328125 -0.703125,1.875 -0.703125,2.359375 -0.703125,2.703125 0,1.359375 0.984375,1.671875 1.703125,1.671875 0.40625,0 0.921875,-0.125 1.4375,-0.65625 L 4.640625,-0.5 c -0.21875,0.84375 -0.359375,1.40625 -0.875,2.109375 z m 0,0"
               id="path24185" />
          </g>
        </g>
      </g>
      <g
         clip-path="url(#clipPath3987)"
         id="g24199"
         transform="matrix(0.352778,0,0,0.352778,-0.137804,0.0536663)">
        <g
           fill="#000000"
           fill-opacity="1"
           id="g24197">
          <g
             id="g24195"
             transform="translate(6.849,8.3280001)">
            <path
               d="m 2.9375,-1.640625 v 0.859375 c 0,0.359375 -0.03125,0.46875 -0.765625,0.46875 H 1.96875 V 0 C 2.375,-0.03125 2.890625,-0.03125 3.3125,-0.03125 c 0.421875,0 0.9375,0 1.359375,0.03125 v -0.3125 h -0.21875 c -0.734375,0 -0.75,-0.109375 -0.75,-0.46875 V -1.640625 H 4.6875 v -0.3125 H 3.703125 v -4.53125 c 0,-0.203125 0,-0.265625 -0.171875,-0.265625 -0.078125,0 -0.109375,0 -0.1875,0.125 l -3.0625,4.671875 v 0.3125 z m 0.046875,-0.3125 H 0.5625 l 2.421875,-3.71875 z m 0,0"
               id="path24193" />
          </g>
        </g>
      </g>
    </g>
    <g
       inkscape:label=""
       transform="translate(33.048697,15.832336)"
       id="g25239">
      <g
         clip-path="url(#clipPath9781)"
         id="g25229"
         transform="matrix(0.352778,0,0,0.352778,-0.137804,0.0536663)">
        <g
           fill="#000000"
           fill-opacity="1"
           id="g25227">
          <g
             id="g25225"
             transform="translate(0,6.1760001)">
            <path
               d="m 3.765625,1.609375 c -0.375,0.546875 -0.9375,1.03125 -1.640625,1.03125 -0.171875,0 -0.859375,-0.03125 -1.078125,-0.6875 C 1.09375,1.96875 1.15625,1.96875 1.1875,1.96875 c 0.4375,0 0.71875,-0.375 0.71875,-0.703125 C 1.90625,0.9375 1.640625,0.8125 1.421875,0.8125 1.1875,0.8125 0.6875,0.984375 0.6875,1.6875 c 0,0.734375 0.625,1.234375 1.4375,1.234375 1.4375,0 2.875,-1.3125 3.28125,-2.90625 l 1.40625,-5.59375 c 0.015625,-0.078125 0.046875,-0.15625 0.046875,-0.25 0,-0.203125 -0.171875,-0.359375 -0.390625,-0.359375 -0.125,0 -0.4375,0.0625 -0.546875,0.5 l -1.0625,4.203125 c -0.0625,0.265625 -0.0625,0.296875 -0.1875,0.453125 -0.28125,0.40625 -0.75,0.890625 -1.4375,0.890625 -0.8125,0 -0.875,-0.796875 -0.875,-1.171875 0,-0.828125 0.375,-1.921875 0.765625,-2.96875 0.15625,-0.40625 0.25,-0.609375 0.25,-0.890625 0,-0.609375 -0.4375,-1.15625 -1.140625,-1.15625 -1.3125,0 -1.84375,2.078125 -1.84375,2.203125 0,0.046875 0.046875,0.125 0.15625,0.125 C 0.671875,-4 0.6875,-4.0625 0.75,-4.265625 1.09375,-5.46875 1.640625,-6.03125 2.1875,-6.03125 c 0.140625,0 0.375,0 0.375,0.46875 0,0.375 -0.15625,0.78125 -0.375,1.328125 -0.703125,1.875 -0.703125,2.359375 -0.703125,2.703125 0,1.359375 0.984375,1.671875 1.703125,1.671875 0.40625,0 0.921875,-0.125 1.4375,-0.65625 L 4.640625,-0.5 c -0.21875,0.84375 -0.359375,1.40625 -0.875,2.109375 z m 0,0"
               id="path25223" />
          </g>
        </g>
      </g>
      <g
         clip-path="url(#clipPath3093)"
         id="g25237"
         transform="matrix(0.352778,0,0,0.352778,-0.137804,0.0536663)">
        <g
           fill="#000000"
           fill-opacity="1"
           id="g25235">
          <g
             id="g25233"
             transform="translate(6.849,8.3280001)">
            <path
               d="m 4.46875,-2 c 0,-1.1875 -0.8125,-2.1875 -1.890625,-2.1875 -0.46875,0 -0.90625,0.15625 -1.265625,0.515625 V -5.625 c 0.203125,0.0625 0.53125,0.125 0.84375,0.125 1.234375,0 1.9375,-0.90625 1.9375,-1.03125 0,-0.0625 -0.03125,-0.109375 -0.109375,-0.109375 0,0 -0.03125,0 -0.078125,0.03125 C 3.703125,-6.515625 3.21875,-6.3125 2.546875,-6.3125 2.15625,-6.3125 1.6875,-6.390625 1.21875,-6.59375 1.140625,-6.625 1.125,-6.625 1.109375,-6.625 1,-6.625 1,-6.546875 1,-6.390625 V -3.4375 c 0,0.171875 0,0.25 0.140625,0.25 0.078125,0 0.09375,-0.015625 0.140625,-0.078125 C 1.390625,-3.421875 1.75,-3.96875 2.5625,-3.96875 c 0.515625,0 0.765625,0.453125 0.84375,0.640625 0.15625,0.375 0.1875,0.75 0.1875,1.25 0,0.359375 0,0.953125 -0.25,1.375 C 3.109375,-0.3125 2.734375,-0.0625 2.28125,-0.0625 c -0.71875,0 -1.296875,-0.53125 -1.46875,-1.109375 0.03125,0 0.0625,0.015625 0.171875,0.015625 0.328125,0 0.5,-0.25 0.5,-0.484375 0,-0.25 -0.171875,-0.5 -0.5,-0.5 C 0.84375,-2.140625 0.5,-2.0625 0.5,-1.609375 0.5,-0.75 1.1875,0.21875 2.296875,0.21875 3.453125,0.21875 4.46875,-0.734375 4.46875,-2 Z m 0,0"
               id="path25231" />
          </g>
        </g>
      </g>
    </g>
    <g
       inkscape:label=""
       transform="translate(49.498868,74.536979)"
       id="g26583">
      <g
         fill="#000000"
         fill-opacity="1"
         id="g26573"
         transform="matrix(0.352778,0,0,0.352778,-0.12678,-0.00216092)">
        <g
           id="g26571"
           transform="translate(0,9.8030005)">
          <path
             d="M 6.8125,-5.828125 5.46875,-8.96875 C 5.65625,-9.3125 6.078125,-9.359375 6.25,-9.375 c 0.09375,0 0.25,-0.015625 0.25,-0.265625 0,-0.15625 -0.125,-0.15625 -0.21875,-0.15625 -0.25,0 -0.53125,0.03125 -0.765625,0.03125 h -0.84375 c -0.875,0 -1.5,-0.03125 -1.515625,-0.03125 -0.109375,0 -0.265625,0 -0.265625,0.265625 0,0.15625 0.140625,0.15625 0.328125,0.15625 0.828125,0 0.890625,0.140625 1.03125,0.484375 L 5.953125,-4.90625 2.84375,-1.578125 C 2.328125,-1.015625 1.703125,-0.46875 0.640625,-0.421875 0.46875,-0.40625 0.359375,-0.40625 0.359375,-0.140625 0.359375,-0.09375 0.375,0 0.53125,0 0.734375,0 0.953125,-0.03125 1.140625,-0.03125 h 0.6875 C 2.28125,-0.03125 2.78125,0 3.234375,0 3.328125,0 3.5,0 3.5,-0.265625 3.5,-0.40625 3.40625,-0.421875 3.3125,-0.421875 3.03125,-0.4375 2.84375,-0.609375 2.84375,-0.828125 c 0,-0.25 0.171875,-0.421875 0.578125,-0.84375 L 4.703125,-3.0625 c 0.3125,-0.34375 1.078125,-1.171875 1.390625,-1.484375 l 1.515625,3.53125 c 0,0.03125 0.0625,0.171875 0.0625,0.1875 0,0.125 -0.3125,0.390625 -0.765625,0.40625 -0.09375,0 -0.25,0.015625 -0.25,0.28125 C 6.65625,0 6.796875,0 6.875,0 7.109375,0 7.40625,-0.03125 7.640625,-0.03125 H 9.21875 C 9.484375,-0.03125 9.75,0 10,0 c 0.09375,0 0.25,0 0.25,-0.265625 0,-0.15625 -0.140625,-0.15625 -0.265625,-0.15625 C 9.125,-0.4375 9.09375,-0.5 8.84375,-1.03125 L 6.953125,-5.484375 8.78125,-7.4375 C 8.921875,-7.578125 9.25,-7.9375 9.375,-8.078125 10,-8.71875 10.578125,-9.3125 11.734375,-9.375 c 0.140625,-0.015625 0.28125,-0.015625 0.28125,-0.265625 0,-0.15625 -0.125,-0.15625 -0.1875,-0.15625 -0.203125,0 -0.40625,0.03125 -0.609375,0.03125 H 10.5625 c -0.46875,0 -0.96875,-0.03125 -1.40625,-0.03125 -0.109375,0 -0.28125,0 -0.28125,0.265625 0,0.140625 0.109375,0.15625 0.1875,0.15625 0.234375,0.015625 0.46875,0.140625 0.46875,0.40625 v 0.03125 c -0.015625,0.109375 -0.046875,0.25 -0.203125,0.421875 z m 0,0"
             id="path26569" />
        </g>
      </g>
      <g
         clip-path="url(#clipPath3557)"
         id="g26581"
         transform="matrix(0.352778,0,0,0.352778,-0.12678,-0.00216092)">
        <g
           fill="#000000"
           fill-opacity="1"
           id="g26579">
          <g
             id="g26577"
             transform="translate(11.658,11.955)">
            <path
               d="m 1.265625,-0.765625 1.0625,-1.03125 c 1.546875,-1.375 2.140625,-1.90625 2.140625,-2.90625 0,-1.140625 -0.890625,-1.9375 -2.109375,-1.9375 -1.125,0 -1.859375,0.921875 -1.859375,1.8125 0,0.546875 0.5,0.546875 0.53125,0.546875 0.171875,0 0.515625,-0.109375 0.515625,-0.53125 0,-0.25 -0.1875,-0.515625 -0.53125,-0.515625 -0.078125,0 -0.09375,0 -0.125,0.015625 0.21875,-0.65625 0.765625,-1.015625 1.34375,-1.015625 0.90625,0 1.328125,0.8125 1.328125,1.625 C 3.5625,-3.90625 3.078125,-3.125 2.515625,-2.5 l -1.90625,2.125 C 0.5,-0.265625 0.5,-0.234375 0.5,0 H 4.203125 L 4.46875,-1.734375 H 4.234375 C 4.171875,-1.4375 4.109375,-1 4,-0.84375 3.9375,-0.765625 3.28125,-0.765625 3.0625,-0.765625 Z m 0,0"
               id="path26575" />
          </g>
        </g>
      </g>
    </g>
    <g
       inkscape:label=""
       transform="translate(49.785026,34.707856)"
       id="g27657">
      <g
         fill="#000000"
         fill-opacity="1"
         id="g19"
         transform="matrix(0.352778,0,0,0.352778,-0.12678,-0.00216092)">
        <g
           id="use17"
           transform="translate(0,9.8030005)">
          <path
             d="M 6.8125,-5.828125 5.46875,-8.96875 C 5.65625,-9.3125 6.078125,-9.359375 6.25,-9.375 c 0.09375,0 0.25,-0.015625 0.25,-0.265625 0,-0.15625 -0.125,-0.15625 -0.21875,-0.15625 -0.25,0 -0.53125,0.03125 -0.765625,0.03125 h -0.84375 c -0.875,0 -1.5,-0.03125 -1.515625,-0.03125 -0.109375,0 -0.265625,0 -0.265625,0.265625 0,0.15625 0.140625,0.15625 0.328125,0.15625 0.828125,0 0.890625,0.140625 1.03125,0.484375 L 5.953125,-4.90625 2.84375,-1.578125 C 2.328125,-1.015625 1.703125,-0.46875 0.640625,-0.421875 0.46875,-0.40625 0.359375,-0.40625 0.359375,-0.140625 0.359375,-0.09375 0.375,0 0.53125,0 0.734375,0 0.953125,-0.03125 1.140625,-0.03125 h 0.6875 C 2.28125,-0.03125 2.78125,0 3.234375,0 3.328125,0 3.5,0 3.5,-0.265625 3.5,-0.40625 3.40625,-0.421875 3.3125,-0.421875 3.03125,-0.4375 2.84375,-0.609375 2.84375,-0.828125 c 0,-0.25 0.171875,-0.421875 0.578125,-0.84375 L 4.703125,-3.0625 c 0.3125,-0.34375 1.078125,-1.171875 1.390625,-1.484375 l 1.515625,3.53125 c 0,0.03125 0.0625,0.171875 0.0625,0.1875 0,0.125 -0.3125,0.390625 -0.765625,0.40625 -0.09375,0 -0.25,0.015625 -0.25,0.28125 C 6.65625,0 6.796875,0 6.875,0 7.109375,0 7.40625,-0.03125 7.640625,-0.03125 H 9.21875 C 9.484375,-0.03125 9.75,0 10,0 c 0.09375,0 0.25,0 0.25,-0.265625 0,-0.15625 -0.140625,-0.15625 -0.265625,-0.15625 C 9.125,-0.4375 9.09375,-0.5 8.84375,-1.03125 L 6.953125,-5.484375 8.78125,-7.4375 C 8.921875,-7.578125 9.25,-7.9375 9.375,-8.078125 10,-8.71875 10.578125,-9.3125 11.734375,-9.375 c 0.140625,-0.015625 0.28125,-0.015625 0.28125,-0.265625 0,-0.15625 -0.125,-0.15625 -0.1875,-0.15625 -0.203125,0 -0.40625,0.03125 -0.609375,0.03125 H 10.5625 c -0.46875,0 -0.96875,-0.03125 -1.40625,-0.03125 -0.109375,0 -0.28125,0 -0.28125,0.265625 0,0.140625 0.109375,0.15625 0.1875,0.15625 0.234375,0.015625 0.46875,0.140625 0.46875,0.40625 v 0.03125 c -0.015625,0.109375 -0.046875,0.25 -0.203125,0.421875 z m 0,0"
             id="path31" />
        </g>
      </g>
      <g
         clip-path="url(#clipPath2374)"
         id="g25"
         transform="matrix(0.352778,0,0,0.352778,-0.12678,-0.00216092)">
        <g
           fill="#000000"
           fill-opacity="1"
           id="g23">
          <g
             id="use21"
             transform="translate(11.658,11.955)">
            <path
               d="m 2.9375,-1.640625 v 0.859375 c 0,0.359375 -0.03125,0.46875 -0.765625,0.46875 H 1.96875 V 0 C 2.375,-0.03125 2.890625,-0.03125 3.3125,-0.03125 c 0.421875,0 0.9375,0 1.359375,0.03125 v -0.3125 h -0.21875 c -0.734375,0 -0.75,-0.109375 -0.75,-0.46875 V -1.640625 H 4.6875 v -0.3125 H 3.703125 v -4.53125 c 0,-0.203125 0,-0.265625 -0.171875,-0.265625 -0.078125,0 -0.109375,0 -0.1875,0.125 l -3.0625,4.671875 v 0.3125 z m 0.046875,-0.3125 H 0.5625 l 2.421875,-3.71875 z m 0,0"
               id="path35" />
          </g>
        </g>
      </g>
    </g>
    <path
       style="fill:#ffccaa;stroke:#1a1a1a;stroke-width:0.5;stroke-dasharray:none;marker-start:url(#marker20518);marker-end:url(#marker20518)"
       d="m 70,60 0,20"
       id="path29915"
       sodipodi:nodetypes="cc" />
    <g
       inkscape:label=""
       transform="translate(72.593745,68.092794)"
       id="g30870">
      <g
         clip-path="url(#clipPath6918)"
         id="g30860"
         transform="matrix(0.352778,0,0,0.352778,-0.209462,0.100983)">
        <g
           fill="#000000"
           fill-opacity="1"
           id="g30858">
          <g
             id="g30856"
             transform="translate(0,9.2449999)">
            <path
               d="m 2.640625,-5.15625 c -0.25,0.015625 -0.296875,0.03125 -0.296875,0.171875 0,0.140625 0.0625,0.140625 0.328125,0.140625 h 0.65625 c 1.21875,0 1.765625,1 1.765625,2.375 0,1.875 -0.984375,2.375 -1.6875,2.375 -0.6875,0 -1.859375,-0.328125 -2.265625,-1.265625 0.453125,0.0625 0.875,-0.1875 0.875,-0.703125 0,-0.421875 -0.3125,-0.703125 -0.703125,-0.703125 -0.34375,0 -0.71875,0.203125 -0.71875,0.75 0,1.265625 1.265625,2.3125 2.859375,2.3125 1.703125,0 2.96875,-1.296875 2.96875,-2.75 0,-1.3125 -1.0625,-2.359375 -2.4375,-2.59375 1.25,-0.359375 2.046875,-1.40625 2.046875,-2.53125 0,-1.125 -1.171875,-1.953125 -2.5625,-1.953125 -1.4375,0 -2.5,0.875 -2.5,1.921875 0,0.5625 0.453125,0.6875 0.671875,0.6875 0.296875,0 0.640625,-0.21875 0.640625,-0.65625 0,-0.453125 -0.34375,-0.65625 -0.65625,-0.65625 -0.09375,0 -0.125,0 -0.15625,0.015625 0.546875,-0.96875 1.890625,-0.96875 1.953125,-0.96875 0.484375,0 1.40625,0.203125 1.40625,1.609375 0,0.28125 -0.03125,1.078125 -0.453125,1.703125 -0.4375,0.625 -0.921875,0.671875 -1.3125,0.6875 z m 0,0"
               id="path30854" />
          </g>
        </g>
      </g>
      <g
         clip-path="url(#clipPath2692)"
         id="g30868"
         transform="matrix(0.352778,0,0,0.352778,-0.209462,0.100983)">
        <g
           fill="#000000"
           fill-opacity="1"
           id="g30866">
          <g
             id="g30864"
             transform="translate(7.0240002,9.2449999)">
            <path
               d="M 2.953125,-4.203125 C 2.984375,-4.28125 3.34375,-5 3.875,-5.46875 c 0.375,-0.34375 0.859375,-0.5625 1.421875,-0.5625 0.5625,0 0.765625,0.421875 0.765625,1 0,0.078125 0,0.375 -0.171875,1.046875 l -0.359375,1.46875 c -0.109375,0.4375 -0.375,1.5 -0.40625,1.65625 -0.0625,0.21875 -0.140625,0.59375 -0.140625,0.640625 0,0.203125 0.15625,0.359375 0.359375,0.359375 0.4375,0 0.515625,-0.328125 0.640625,-0.84375 L 6.84375,-4.125 C 6.875,-4.25 7.609375,-6.03125 9.1875,-6.03125 c 0.578125,0 0.78125,0.421875 0.78125,1 0,0.796875 -0.5625,2.359375 -0.875,3.21875 -0.125,0.34375 -0.203125,0.53125 -0.203125,0.796875 0,0.640625 0.453125,1.15625 1.140625,1.15625 1.328125,0 1.828125,-2.109375 1.828125,-2.1875 0,-0.078125 -0.04687,-0.140625 -0.140625,-0.140625 -0.125,0 -0.140625,0.046875 -0.21875,0.296875 -0.328125,1.140625 -0.859375,1.75 -1.4375,1.75 -0.140625,0 -0.359375,-0.015625 -0.359375,-0.46875 0,-0.375 0.171875,-0.84375 0.21875,-1 0.265625,-0.6875 0.90625,-2.375 0.90625,-3.203125 0,-0.875 -0.5,-1.515625 -1.59375,-1.515625 -0.953125,0 -1.734375,0.546875 -2.3125,1.390625 -0.03125,-0.765625 -0.515625,-1.390625 -1.59375,-1.390625 -1.265625,0 -1.9375,0.90625 -2.203125,1.265625 C 3.078125,-5.875 2.5,-6.328125 1.859375,-6.328125 c -0.40625,0 -0.734375,0.203125 -1.015625,0.75 -0.25,0.515625 -0.453125,1.390625 -0.453125,1.453125 0,0.046875 0.046875,0.125 0.15625,0.125 0.109375,0 0.125,-0.015625 0.21875,-0.34375 0.203125,-0.84375 0.484375,-1.6875 1.0625,-1.6875 0.328125,0 0.4375,0.21875 0.4375,0.65625 0,0.3125 -0.140625,0.875 -0.25,1.3125 L 1.625,-2.515625 c -0.0625,0.28125 -0.21875,0.921875 -0.296875,1.1875 -0.09375,0.359375 -0.25,1.046875 -0.25,1.109375 0,0.203125 0.15625,0.359375 0.375,0.359375 0.171875,0 0.375,-0.078125 0.484375,-0.296875 0.03125,-0.078125 0.15625,-0.578125 0.234375,-0.859375 l 0.3125,-1.296875 z m 0,0"
               id="path30862" />
          </g>
        </g>
      </g>
    </g>
  </g>
</svg>
